<?xml version="1.0" encoding="utf-8" standalone="no"?>
<!DOCTYPE svg PUBLIC "-//W3C//DTD SVG 1.1//EN"
  "http://www.w3.org/Graphics/SVG/1.1/DTD/svg11.dtd">
<svg xmlns:xlink="http://www.w3.org/1999/xlink" width="720pt" height="360pt" viewBox="0 0 720 360" xmlns="http://www.w3.org/2000/svg" version="1.1">
 <metadata>
  <rdf:RDF xmlns:dc="http://purl.org/dc/elements/1.1/" xmlns:cc="http://creativecommons.org/ns#" xmlns:rdf="http://www.w3.org/1999/02/22-rdf-syntax-ns#">
   <cc:Work>
    <dc:type rdf:resource="http://purl.org/dc/dcmitype/StillImage"/>
    <dc:date>2026-02-11T17:46:48.681035</dc:date>
    <dc:format>image/svg+xml</dc:format>
    <dc:creator>
     <cc:Agent>
      <dc:title>Matplotlib v3.10.7, https://matplotlib.org/</dc:title>
     </cc:Agent>
    </dc:creator>
   </cc:Work>
  </rdf:RDF>
 </metadata>
 <defs>
  <style type="text/css">*{stroke-linejoin: round; stroke-linecap: butt}</style>
 </defs>
 <g id="figure_1">
  <g id="patch_1">
   <path d="M 0 360 
L 720 360 
L 720 0 
L 0 0 
z
" style="fill: #ffffff"/>
  </g>
  <g id="axes_1">
   <g id="patch_2">
    <path d="M 90 320.4 
L 648 320.4 
L 648 43.2 
L 90 43.2 
z
" style="fill: #ffffff"/>
   </g>
   <g id="matplotlib.axis_1">
    <g id="xtick_1">
     <g id="line2d_1">
      <path d="M 115.363636 320.4 
L 115.363636 43.2 
" clip-path="url(#pd2ce770d98)" style="fill: none; stroke: #b0b0b0; stroke-opacity: 0.5; stroke-width: 0.8; stroke-linecap: square"/>
     </g>
     <g id="line2d_2">
      <defs>
       <path id="mfdc53c6714" d="M 0 0 
L 0 3.5 
" style="stroke: #000000; stroke-width: 0.8"/>
      </defs>
      <g>
       <use xlink:href="#mfdc53c6714" x="115.363636" y="320.4" style="stroke: #000000; stroke-width: 0.8"/>
      </g>
     </g>
     <g id="text_1">
      <!-- 0 -->
      <g transform="translate(112.182386 334.998438) scale(0.1 -0.1)">
       <defs>
        <path id="DejaVuSans-30" d="M 2034 4250 
Q 1547 4250 1301 3770 
Q 1056 3291 1056 2328 
Q 1056 1369 1301 889 
Q 1547 409 2034 409 
Q 2525 409 2770 889 
Q 3016 1369 3016 2328 
Q 3016 3291 2770 3770 
Q 2525 4250 2034 4250 
z
M 2034 4750 
Q 2819 4750 3233 4129 
Q 3647 3509 3647 2328 
Q 3647 1150 3233 529 
Q 2819 -91 2034 -91 
Q 1250 -91 836 529 
Q 422 1150 422 2328 
Q 422 3509 836 4129 
Q 1250 4750 2034 4750 
z
" transform="scale(0.015625)"/>
       </defs>
       <use xlink:href="#DejaVuSans-30"/>
      </g>
     </g>
    </g>
    <g id="xtick_2">
     <g id="line2d_3">
      <path d="M 217.021498 320.4 
L 217.021498 43.2 
" clip-path="url(#pd2ce770d98)" style="fill: none; stroke: #b0b0b0; stroke-opacity: 0.5; stroke-width: 0.8; stroke-linecap: square"/>
     </g>
     <g id="line2d_4">
      <g>
       <use xlink:href="#mfdc53c6714" x="217.021498" y="320.4" style="stroke: #000000; stroke-width: 0.8"/>
      </g>
     </g>
     <g id="text_2">
      <!-- 100 -->
      <g transform="translate(207.477748 334.998438) scale(0.1 -0.1)">
       <defs>
        <path id="DejaVuSans-31" d="M 794 531 
L 1825 531 
L 1825 4091 
L 703 3866 
L 703 4441 
L 1819 4666 
L 2450 4666 
L 2450 531 
L 3481 531 
L 3481 0 
L 794 0 
L 794 531 
z
" transform="scale(0.015625)"/>
       </defs>
       <use xlink:href="#DejaVuSans-31"/>
       <use xlink:href="#DejaVuSans-30" transform="translate(63.623047 0)"/>
       <use xlink:href="#DejaVuSans-30" transform="translate(127.246094 0)"/>
      </g>
     </g>
    </g>
    <g id="xtick_3">
     <g id="line2d_5">
      <path d="M 318.679359 320.4 
L 318.679359 43.2 
" clip-path="url(#pd2ce770d98)" style="fill: none; stroke: #b0b0b0; stroke-opacity: 0.5; stroke-width: 0.8; stroke-linecap: square"/>
     </g>
     <g id="line2d_6">
      <g>
       <use xlink:href="#mfdc53c6714" x="318.679359" y="320.4" style="stroke: #000000; stroke-width: 0.8"/>
      </g>
     </g>
     <g id="text_3">
      <!-- 200 -->
      <g transform="translate(309.135609 334.998438) scale(0.1 -0.1)">
       <defs>
        <path id="DejaVuSans-32" d="M 1228 531 
L 3431 531 
L 3431 0 
L 469 0 
L 469 531 
Q 828 903 1448 1529 
Q 2069 2156 2228 2338 
Q 2531 2678 2651 2914 
Q 2772 3150 2772 3378 
Q 2772 3750 2511 3984 
Q 2250 4219 1831 4219 
Q 1534 4219 1204 4116 
Q 875 4013 500 3803 
L 500 4441 
Q 881 4594 1212 4672 
Q 1544 4750 1819 4750 
Q 2544 4750 2975 4387 
Q 3406 4025 3406 3419 
Q 3406 3131 3298 2873 
Q 3191 2616 2906 2266 
Q 2828 2175 2409 1742 
Q 1991 1309 1228 531 
z
" transform="scale(0.015625)"/>
       </defs>
       <use xlink:href="#DejaVuSans-32"/>
       <use xlink:href="#DejaVuSans-30" transform="translate(63.623047 0)"/>
       <use xlink:href="#DejaVuSans-30" transform="translate(127.246094 0)"/>
      </g>
     </g>
    </g>
    <g id="xtick_4">
     <g id="line2d_7">
      <path d="M 420.33722 320.4 
L 420.33722 43.2 
" clip-path="url(#pd2ce770d98)" style="fill: none; stroke: #b0b0b0; stroke-opacity: 0.5; stroke-width: 0.8; stroke-linecap: square"/>
     </g>
     <g id="line2d_8">
      <g>
       <use xlink:href="#mfdc53c6714" x="420.33722" y="320.4" style="stroke: #000000; stroke-width: 0.8"/>
      </g>
     </g>
     <g id="text_4">
      <!-- 300 -->
      <g transform="translate(410.79347 334.998438) scale(0.1 -0.1)">
       <defs>
        <path id="DejaVuSans-33" d="M 2597 2516 
Q 3050 2419 3304 2112 
Q 3559 1806 3559 1356 
Q 3559 666 3084 287 
Q 2609 -91 1734 -91 
Q 1441 -91 1130 -33 
Q 819 25 488 141 
L 488 750 
Q 750 597 1062 519 
Q 1375 441 1716 441 
Q 2309 441 2620 675 
Q 2931 909 2931 1356 
Q 2931 1769 2642 2001 
Q 2353 2234 1838 2234 
L 1294 2234 
L 1294 2753 
L 1863 2753 
Q 2328 2753 2575 2939 
Q 2822 3125 2822 3475 
Q 2822 3834 2567 4026 
Q 2313 4219 1838 4219 
Q 1578 4219 1281 4162 
Q 984 4106 628 3988 
L 628 4550 
Q 988 4650 1302 4700 
Q 1616 4750 1894 4750 
Q 2613 4750 3031 4423 
Q 3450 4097 3450 3541 
Q 3450 3153 3228 2886 
Q 3006 2619 2597 2516 
z
" transform="scale(0.015625)"/>
       </defs>
       <use xlink:href="#DejaVuSans-33"/>
       <use xlink:href="#DejaVuSans-30" transform="translate(63.623047 0)"/>
       <use xlink:href="#DejaVuSans-30" transform="translate(127.246094 0)"/>
      </g>
     </g>
    </g>
    <g id="xtick_5">
     <g id="line2d_9">
      <path d="M 521.995081 320.4 
L 521.995081 43.2 
" clip-path="url(#pd2ce770d98)" style="fill: none; stroke: #b0b0b0; stroke-opacity: 0.5; stroke-width: 0.8; stroke-linecap: square"/>
     </g>
     <g id="line2d_10">
      <g>
       <use xlink:href="#mfdc53c6714" x="521.995081" y="320.4" style="stroke: #000000; stroke-width: 0.8"/>
      </g>
     </g>
     <g id="text_5">
      <!-- 400 -->
      <g transform="translate(512.451331 334.998438) scale(0.1 -0.1)">
       <defs>
        <path id="DejaVuSans-34" d="M 2419 4116 
L 825 1625 
L 2419 1625 
L 2419 4116 
z
M 2253 4666 
L 3047 4666 
L 3047 1625 
L 3713 1625 
L 3713 1100 
L 3047 1100 
L 3047 0 
L 2419 0 
L 2419 1100 
L 313 1100 
L 313 1709 
L 2253 4666 
z
" transform="scale(0.015625)"/>
       </defs>
       <use xlink:href="#DejaVuSans-34"/>
       <use xlink:href="#DejaVuSans-30" transform="translate(63.623047 0)"/>
       <use xlink:href="#DejaVuSans-30" transform="translate(127.246094 0)"/>
      </g>
     </g>
    </g>
    <g id="xtick_6">
     <g id="line2d_11">
      <path d="M 623.652942 320.4 
L 623.652942 43.2 
" clip-path="url(#pd2ce770d98)" style="fill: none; stroke: #b0b0b0; stroke-opacity: 0.5; stroke-width: 0.8; stroke-linecap: square"/>
     </g>
     <g id="line2d_12">
      <g>
       <use xlink:href="#mfdc53c6714" x="623.652942" y="320.4" style="stroke: #000000; stroke-width: 0.8"/>
      </g>
     </g>
     <g id="text_6">
      <!-- 500 -->
      <g transform="translate(614.109192 334.998438) scale(0.1 -0.1)">
       <defs>
        <path id="DejaVuSans-35" d="M 691 4666 
L 3169 4666 
L 3169 4134 
L 1269 4134 
L 1269 2991 
Q 1406 3038 1543 3061 
Q 1681 3084 1819 3084 
Q 2600 3084 3056 2656 
Q 3513 2228 3513 1497 
Q 3513 744 3044 326 
Q 2575 -91 1722 -91 
Q 1428 -91 1123 -41 
Q 819 9 494 109 
L 494 744 
Q 775 591 1075 516 
Q 1375 441 1709 441 
Q 2250 441 2565 725 
Q 2881 1009 2881 1497 
Q 2881 1984 2565 2268 
Q 2250 2553 1709 2553 
Q 1456 2553 1204 2497 
Q 953 2441 691 2322 
L 691 4666 
z
" transform="scale(0.015625)"/>
       </defs>
       <use xlink:href="#DejaVuSans-35"/>
       <use xlink:href="#DejaVuSans-30" transform="translate(63.623047 0)"/>
       <use xlink:href="#DejaVuSans-30" transform="translate(127.246094 0)"/>
      </g>
     </g>
    </g>
    <g id="text_7">
     <!-- Epochs -->
     <g transform="translate(351.084375 348.676562) scale(0.1 -0.1)">
      <defs>
       <path id="DejaVuSans-45" d="M 628 4666 
L 3578 4666 
L 3578 4134 
L 1259 4134 
L 1259 2753 
L 3481 2753 
L 3481 2222 
L 1259 2222 
L 1259 531 
L 3634 531 
L 3634 0 
L 628 0 
L 628 4666 
z
" transform="scale(0.015625)"/>
       <path id="DejaVuSans-70" d="M 1159 525 
L 1159 -1331 
L 581 -1331 
L 581 3500 
L 1159 3500 
L 1159 2969 
Q 1341 3281 1617 3432 
Q 1894 3584 2278 3584 
Q 2916 3584 3314 3078 
Q 3713 2572 3713 1747 
Q 3713 922 3314 415 
Q 2916 -91 2278 -91 
Q 1894 -91 1617 61 
Q 1341 213 1159 525 
z
M 3116 1747 
Q 3116 2381 2855 2742 
Q 2594 3103 2138 3103 
Q 1681 3103 1420 2742 
Q 1159 2381 1159 1747 
Q 1159 1113 1420 752 
Q 1681 391 2138 391 
Q 2594 391 2855 752 
Q 3116 1113 3116 1747 
z
" transform="scale(0.015625)"/>
       <path id="DejaVuSans-6f" d="M 1959 3097 
Q 1497 3097 1228 2736 
Q 959 2375 959 1747 
Q 959 1119 1226 758 
Q 1494 397 1959 397 
Q 2419 397 2687 759 
Q 2956 1122 2956 1747 
Q 2956 2369 2687 2733 
Q 2419 3097 1959 3097 
z
M 1959 3584 
Q 2709 3584 3137 3096 
Q 3566 2609 3566 1747 
Q 3566 888 3137 398 
Q 2709 -91 1959 -91 
Q 1206 -91 779 398 
Q 353 888 353 1747 
Q 353 2609 779 3096 
Q 1206 3584 1959 3584 
z
" transform="scale(0.015625)"/>
       <path id="DejaVuSans-63" d="M 3122 3366 
L 3122 2828 
Q 2878 2963 2633 3030 
Q 2388 3097 2138 3097 
Q 1578 3097 1268 2742 
Q 959 2388 959 1747 
Q 959 1106 1268 751 
Q 1578 397 2138 397 
Q 2388 397 2633 464 
Q 2878 531 3122 666 
L 3122 134 
Q 2881 22 2623 -34 
Q 2366 -91 2075 -91 
Q 1284 -91 818 406 
Q 353 903 353 1747 
Q 353 2603 823 3093 
Q 1294 3584 2113 3584 
Q 2378 3584 2631 3529 
Q 2884 3475 3122 3366 
z
" transform="scale(0.015625)"/>
       <path id="DejaVuSans-68" d="M 3513 2113 
L 3513 0 
L 2938 0 
L 2938 2094 
Q 2938 2591 2744 2837 
Q 2550 3084 2163 3084 
Q 1697 3084 1428 2787 
Q 1159 2491 1159 1978 
L 1159 0 
L 581 0 
L 581 4863 
L 1159 4863 
L 1159 2956 
Q 1366 3272 1645 3428 
Q 1925 3584 2291 3584 
Q 2894 3584 3203 3211 
Q 3513 2838 3513 2113 
z
" transform="scale(0.015625)"/>
       <path id="DejaVuSans-73" d="M 2834 3397 
L 2834 2853 
Q 2591 2978 2328 3040 
Q 2066 3103 1784 3103 
Q 1356 3103 1142 2972 
Q 928 2841 928 2578 
Q 928 2378 1081 2264 
Q 1234 2150 1697 2047 
L 1894 2003 
Q 2506 1872 2764 1633 
Q 3022 1394 3022 966 
Q 3022 478 2636 193 
Q 2250 -91 1575 -91 
Q 1294 -91 989 -36 
Q 684 19 347 128 
L 347 722 
Q 666 556 975 473 
Q 1284 391 1588 391 
Q 1994 391 2212 530 
Q 2431 669 2431 922 
Q 2431 1156 2273 1281 
Q 2116 1406 1581 1522 
L 1381 1569 
Q 847 1681 609 1914 
Q 372 2147 372 2553 
Q 372 3047 722 3315 
Q 1072 3584 1716 3584 
Q 2034 3584 2315 3537 
Q 2597 3491 2834 3397 
z
" transform="scale(0.015625)"/>
      </defs>
      <use xlink:href="#DejaVuSans-45"/>
      <use xlink:href="#DejaVuSans-70" transform="translate(63.183594 0)"/>
      <use xlink:href="#DejaVuSans-6f" transform="translate(126.660156 0)"/>
      <use xlink:href="#DejaVuSans-63" transform="translate(187.841797 0)"/>
      <use xlink:href="#DejaVuSans-68" transform="translate(242.822266 0)"/>
      <use xlink:href="#DejaVuSans-73" transform="translate(306.201172 0)"/>
     </g>
    </g>
   </g>
   <g id="matplotlib.axis_2">
    <g id="ytick_1">
     <g id="line2d_13">
      <path d="M 90 289.441214 
L 648 289.441214 
" clip-path="url(#pd2ce770d98)" style="fill: none; stroke: #b0b0b0; stroke-opacity: 0.5; stroke-width: 0.8; stroke-linecap: square"/>
     </g>
     <g id="line2d_14">
      <defs>
       <path id="mf1dda1e9f6" d="M 0 0 
L -3.5 0 
" style="stroke: #000000; stroke-width: 0.8"/>
      </defs>
      <g>
       <use xlink:href="#mf1dda1e9f6" x="90" y="289.441214" style="stroke: #000000; stroke-width: 0.8"/>
      </g>
     </g>
     <g id="text_8">
      <!-- $\mathdefault{10^{-2}}$ -->
      <g transform="translate(59.5 293.240433) scale(0.1 -0.1)">
       <defs>
        <path id="DejaVuSans-2212" d="M 678 2272 
L 4684 2272 
L 4684 1741 
L 678 1741 
L 678 2272 
z
" transform="scale(0.015625)"/>
       </defs>
       <use xlink:href="#DejaVuSans-31" transform="translate(0 0.765625)"/>
       <use xlink:href="#DejaVuSans-30" transform="translate(63.623047 0.765625)"/>
       <use xlink:href="#DejaVuSans-2212" transform="translate(128.203125 39.046875) scale(0.7)"/>
       <use xlink:href="#DejaVuSans-32" transform="translate(186.855469 39.046875) scale(0.7)"/>
      </g>
     </g>
    </g>
    <g id="ytick_2">
     <g id="line2d_15">
      <path d="M 90 175.002433 
L 648 175.002433 
" clip-path="url(#pd2ce770d98)" style="fill: none; stroke: #b0b0b0; stroke-opacity: 0.5; stroke-width: 0.8; stroke-linecap: square"/>
     </g>
     <g id="line2d_16">
      <g>
       <use xlink:href="#mf1dda1e9f6" x="90" y="175.002433" style="stroke: #000000; stroke-width: 0.8"/>
      </g>
     </g>
     <g id="text_9">
      <!-- $\mathdefault{10^{-1}}$ -->
      <g transform="translate(59.5 178.801651) scale(0.1 -0.1)">
       <use xlink:href="#DejaVuSans-31" transform="translate(0 0.684375)"/>
       <use xlink:href="#DejaVuSans-30" transform="translate(63.623047 0.684375)"/>
       <use xlink:href="#DejaVuSans-2212" transform="translate(128.203125 38.965625) scale(0.7)"/>
       <use xlink:href="#DejaVuSans-31" transform="translate(186.855469 38.965625) scale(0.7)"/>
      </g>
     </g>
    </g>
    <g id="ytick_3">
     <g id="line2d_17">
      <path d="M 90 60.563651 
L 648 60.563651 
" clip-path="url(#pd2ce770d98)" style="fill: none; stroke: #b0b0b0; stroke-opacity: 0.5; stroke-width: 0.8; stroke-linecap: square"/>
     </g>
     <g id="line2d_18">
      <g>
       <use xlink:href="#mf1dda1e9f6" x="90" y="60.563651" style="stroke: #000000; stroke-width: 0.8"/>
      </g>
     </g>
     <g id="text_10">
      <!-- $\mathdefault{10^{0}}$ -->
      <g transform="translate(65.4 64.36287) scale(0.1 -0.1)">
       <use xlink:href="#DejaVuSans-31" transform="translate(0 0.765625)"/>
       <use xlink:href="#DejaVuSans-30" transform="translate(63.623047 0.765625)"/>
       <use xlink:href="#DejaVuSans-30" transform="translate(128.203125 39.046875) scale(0.7)"/>
      </g>
     </g>
    </g>
    <g id="ytick_4">
     <g id="line2d_19">
      <path d="M 90 314.829315 
L 648 314.829315 
" clip-path="url(#pd2ce770d98)" style="fill: none; stroke: #b0b0b0; stroke-opacity: 0.5; stroke-width: 0.8; stroke-linecap: square"/>
     </g>
     <g id="line2d_20">
      <defs>
       <path id="m188d95b143" d="M 0 0 
L -2 0 
" style="stroke: #000000; stroke-width: 0.6"/>
      </defs>
      <g>
       <use xlink:href="#m188d95b143" x="90" y="314.829315" style="stroke: #000000; stroke-width: 0.6"/>
      </g>
     </g>
    </g>
    <g id="ytick_5">
     <g id="line2d_21">
      <path d="M 90 307.168006 
L 648 307.168006 
" clip-path="url(#pd2ce770d98)" style="fill: none; stroke: #b0b0b0; stroke-opacity: 0.5; stroke-width: 0.8; stroke-linecap: square"/>
     </g>
     <g id="line2d_22">
      <g>
       <use xlink:href="#m188d95b143" x="90" y="307.168006" style="stroke: #000000; stroke-width: 0.6"/>
      </g>
     </g>
    </g>
    <g id="ytick_6">
     <g id="line2d_23">
      <path d="M 90 300.531478 
L 648 300.531478 
" clip-path="url(#pd2ce770d98)" style="fill: none; stroke: #b0b0b0; stroke-opacity: 0.5; stroke-width: 0.8; stroke-linecap: square"/>
     </g>
     <g id="line2d_24">
      <g>
       <use xlink:href="#m188d95b143" x="90" y="300.531478" style="stroke: #000000; stroke-width: 0.6"/>
      </g>
     </g>
    </g>
    <g id="ytick_7">
     <g id="line2d_25">
      <path d="M 90 294.677646 
L 648 294.677646 
" clip-path="url(#pd2ce770d98)" style="fill: none; stroke: #b0b0b0; stroke-opacity: 0.5; stroke-width: 0.8; stroke-linecap: square"/>
     </g>
     <g id="line2d_26">
      <g>
       <use xlink:href="#m188d95b143" x="90" y="294.677646" style="stroke: #000000; stroke-width: 0.6"/>
      </g>
     </g>
    </g>
    <g id="ytick_8">
     <g id="line2d_27">
      <path d="M 90 254.991708 
L 648 254.991708 
" clip-path="url(#pd2ce770d98)" style="fill: none; stroke: #b0b0b0; stroke-opacity: 0.5; stroke-width: 0.8; stroke-linecap: square"/>
     </g>
     <g id="line2d_28">
      <g>
       <use xlink:href="#m188d95b143" x="90" y="254.991708" style="stroke: #000000; stroke-width: 0.6"/>
      </g>
     </g>
    </g>
    <g id="ytick_9">
     <g id="line2d_29">
      <path d="M 90 234.840039 
L 648 234.840039 
" clip-path="url(#pd2ce770d98)" style="fill: none; stroke: #b0b0b0; stroke-opacity: 0.5; stroke-width: 0.8; stroke-linecap: square"/>
     </g>
     <g id="line2d_30">
      <g>
       <use xlink:href="#m188d95b143" x="90" y="234.840039" style="stroke: #000000; stroke-width: 0.6"/>
      </g>
     </g>
    </g>
    <g id="ytick_10">
     <g id="line2d_31">
      <path d="M 90 220.542202 
L 648 220.542202 
" clip-path="url(#pd2ce770d98)" style="fill: none; stroke: #b0b0b0; stroke-opacity: 0.5; stroke-width: 0.8; stroke-linecap: square"/>
     </g>
     <g id="line2d_32">
      <g>
       <use xlink:href="#m188d95b143" x="90" y="220.542202" style="stroke: #000000; stroke-width: 0.6"/>
      </g>
     </g>
    </g>
    <g id="ytick_11">
     <g id="line2d_33">
      <path d="M 90 209.451939 
L 648 209.451939 
" clip-path="url(#pd2ce770d98)" style="fill: none; stroke: #b0b0b0; stroke-opacity: 0.5; stroke-width: 0.8; stroke-linecap: square"/>
     </g>
     <g id="line2d_34">
      <g>
       <use xlink:href="#m188d95b143" x="90" y="209.451939" style="stroke: #000000; stroke-width: 0.6"/>
      </g>
     </g>
    </g>
    <g id="ytick_12">
     <g id="line2d_35">
      <path d="M 90 200.390533 
L 648 200.390533 
" clip-path="url(#pd2ce770d98)" style="fill: none; stroke: #b0b0b0; stroke-opacity: 0.5; stroke-width: 0.8; stroke-linecap: square"/>
     </g>
     <g id="line2d_36">
      <g>
       <use xlink:href="#m188d95b143" x="90" y="200.390533" style="stroke: #000000; stroke-width: 0.6"/>
      </g>
     </g>
    </g>
    <g id="ytick_13">
     <g id="line2d_37">
      <path d="M 90 192.729224 
L 648 192.729224 
" clip-path="url(#pd2ce770d98)" style="fill: none; stroke: #b0b0b0; stroke-opacity: 0.5; stroke-width: 0.8; stroke-linecap: square"/>
     </g>
     <g id="line2d_38">
      <g>
       <use xlink:href="#m188d95b143" x="90" y="192.729224" style="stroke: #000000; stroke-width: 0.6"/>
      </g>
     </g>
    </g>
    <g id="ytick_14">
     <g id="line2d_39">
      <path d="M 90 186.092696 
L 648 186.092696 
" clip-path="url(#pd2ce770d98)" style="fill: none; stroke: #b0b0b0; stroke-opacity: 0.5; stroke-width: 0.8; stroke-linecap: square"/>
     </g>
     <g id="line2d_40">
      <g>
       <use xlink:href="#m188d95b143" x="90" y="186.092696" style="stroke: #000000; stroke-width: 0.6"/>
      </g>
     </g>
    </g>
    <g id="ytick_15">
     <g id="line2d_41">
      <path d="M 90 180.238864 
L 648 180.238864 
" clip-path="url(#pd2ce770d98)" style="fill: none; stroke: #b0b0b0; stroke-opacity: 0.5; stroke-width: 0.8; stroke-linecap: square"/>
     </g>
     <g id="line2d_42">
      <g>
       <use xlink:href="#m188d95b143" x="90" y="180.238864" style="stroke: #000000; stroke-width: 0.6"/>
      </g>
     </g>
    </g>
    <g id="ytick_16">
     <g id="line2d_43">
      <path d="M 90 140.552927 
L 648 140.552927 
" clip-path="url(#pd2ce770d98)" style="fill: none; stroke: #b0b0b0; stroke-opacity: 0.5; stroke-width: 0.8; stroke-linecap: square"/>
     </g>
     <g id="line2d_44">
      <g>
       <use xlink:href="#m188d95b143" x="90" y="140.552927" style="stroke: #000000; stroke-width: 0.6"/>
      </g>
     </g>
    </g>
    <g id="ytick_17">
     <g id="line2d_45">
      <path d="M 90 120.401257 
L 648 120.401257 
" clip-path="url(#pd2ce770d98)" style="fill: none; stroke: #b0b0b0; stroke-opacity: 0.5; stroke-width: 0.8; stroke-linecap: square"/>
     </g>
     <g id="line2d_46">
      <g>
       <use xlink:href="#m188d95b143" x="90" y="120.401257" style="stroke: #000000; stroke-width: 0.6"/>
      </g>
     </g>
    </g>
    <g id="ytick_18">
     <g id="line2d_47">
      <path d="M 90 106.103421 
L 648 106.103421 
" clip-path="url(#pd2ce770d98)" style="fill: none; stroke: #b0b0b0; stroke-opacity: 0.5; stroke-width: 0.8; stroke-linecap: square"/>
     </g>
     <g id="line2d_48">
      <g>
       <use xlink:href="#m188d95b143" x="90" y="106.103421" style="stroke: #000000; stroke-width: 0.6"/>
      </g>
     </g>
    </g>
    <g id="ytick_19">
     <g id="line2d_49">
      <path d="M 90 95.013157 
L 648 95.013157 
" clip-path="url(#pd2ce770d98)" style="fill: none; stroke: #b0b0b0; stroke-opacity: 0.5; stroke-width: 0.8; stroke-linecap: square"/>
     </g>
     <g id="line2d_50">
      <g>
       <use xlink:href="#m188d95b143" x="90" y="95.013157" style="stroke: #000000; stroke-width: 0.6"/>
      </g>
     </g>
    </g>
    <g id="ytick_20">
     <g id="line2d_51">
      <path d="M 90 85.951751 
L 648 85.951751 
" clip-path="url(#pd2ce770d98)" style="fill: none; stroke: #b0b0b0; stroke-opacity: 0.5; stroke-width: 0.8; stroke-linecap: square"/>
     </g>
     <g id="line2d_52">
      <g>
       <use xlink:href="#m188d95b143" x="90" y="85.951751" style="stroke: #000000; stroke-width: 0.6"/>
      </g>
     </g>
    </g>
    <g id="ytick_21">
     <g id="line2d_53">
      <path d="M 90 78.290442 
L 648 78.290442 
" clip-path="url(#pd2ce770d98)" style="fill: none; stroke: #b0b0b0; stroke-opacity: 0.5; stroke-width: 0.8; stroke-linecap: square"/>
     </g>
     <g id="line2d_54">
      <g>
       <use xlink:href="#m188d95b143" x="90" y="78.290442" style="stroke: #000000; stroke-width: 0.6"/>
      </g>
     </g>
    </g>
    <g id="ytick_22">
     <g id="line2d_55">
      <path d="M 90 71.653915 
L 648 71.653915 
" clip-path="url(#pd2ce770d98)" style="fill: none; stroke: #b0b0b0; stroke-opacity: 0.5; stroke-width: 0.8; stroke-linecap: square"/>
     </g>
     <g id="line2d_56">
      <g>
       <use xlink:href="#m188d95b143" x="90" y="71.653915" style="stroke: #000000; stroke-width: 0.6"/>
      </g>
     </g>
    </g>
    <g id="ytick_23">
     <g id="line2d_57">
      <path d="M 90 65.800082 
L 648 65.800082 
" clip-path="url(#pd2ce770d98)" style="fill: none; stroke: #b0b0b0; stroke-opacity: 0.5; stroke-width: 0.8; stroke-linecap: square"/>
     </g>
     <g id="line2d_58">
      <g>
       <use xlink:href="#m188d95b143" x="90" y="65.800082" style="stroke: #000000; stroke-width: 0.6"/>
      </g>
     </g>
    </g>
    <g id="text_11">
     <!-- MSE Loss (Log Scale) -->
     <g transform="translate(53.420312 234.46875) rotate(-90) scale(0.1 -0.1)">
      <defs>
       <path id="DejaVuSans-4d" d="M 628 4666 
L 1569 4666 
L 2759 1491 
L 3956 4666 
L 4897 4666 
L 4897 0 
L 4281 0 
L 4281 4097 
L 3078 897 
L 2444 897 
L 1241 4097 
L 1241 0 
L 628 0 
L 628 4666 
z
" transform="scale(0.015625)"/>
       <path id="DejaVuSans-53" d="M 3425 4513 
L 3425 3897 
Q 3066 4069 2747 4153 
Q 2428 4238 2131 4238 
Q 1616 4238 1336 4038 
Q 1056 3838 1056 3469 
Q 1056 3159 1242 3001 
Q 1428 2844 1947 2747 
L 2328 2669 
Q 3034 2534 3370 2195 
Q 3706 1856 3706 1288 
Q 3706 609 3251 259 
Q 2797 -91 1919 -91 
Q 1588 -91 1214 -16 
Q 841 59 441 206 
L 441 856 
Q 825 641 1194 531 
Q 1563 422 1919 422 
Q 2459 422 2753 634 
Q 3047 847 3047 1241 
Q 3047 1584 2836 1778 
Q 2625 1972 2144 2069 
L 1759 2144 
Q 1053 2284 737 2584 
Q 422 2884 422 3419 
Q 422 4038 858 4394 
Q 1294 4750 2059 4750 
Q 2388 4750 2728 4690 
Q 3069 4631 3425 4513 
z
" transform="scale(0.015625)"/>
       <path id="DejaVuSans-20" transform="scale(0.015625)"/>
       <path id="DejaVuSans-4c" d="M 628 4666 
L 1259 4666 
L 1259 531 
L 3531 531 
L 3531 0 
L 628 0 
L 628 4666 
z
" transform="scale(0.015625)"/>
       <path id="DejaVuSans-28" d="M 1984 4856 
Q 1566 4138 1362 3434 
Q 1159 2731 1159 2009 
Q 1159 1288 1364 580 
Q 1569 -128 1984 -844 
L 1484 -844 
Q 1016 -109 783 600 
Q 550 1309 550 2009 
Q 550 2706 781 3412 
Q 1013 4119 1484 4856 
L 1984 4856 
z
" transform="scale(0.015625)"/>
       <path id="DejaVuSans-67" d="M 2906 1791 
Q 2906 2416 2648 2759 
Q 2391 3103 1925 3103 
Q 1463 3103 1205 2759 
Q 947 2416 947 1791 
Q 947 1169 1205 825 
Q 1463 481 1925 481 
Q 2391 481 2648 825 
Q 2906 1169 2906 1791 
z
M 3481 434 
Q 3481 -459 3084 -895 
Q 2688 -1331 1869 -1331 
Q 1566 -1331 1297 -1286 
Q 1028 -1241 775 -1147 
L 775 -588 
Q 1028 -725 1275 -790 
Q 1522 -856 1778 -856 
Q 2344 -856 2625 -561 
Q 2906 -266 2906 331 
L 2906 616 
Q 2728 306 2450 153 
Q 2172 0 1784 0 
Q 1141 0 747 490 
Q 353 981 353 1791 
Q 353 2603 747 3093 
Q 1141 3584 1784 3584 
Q 2172 3584 2450 3431 
Q 2728 3278 2906 2969 
L 2906 3500 
L 3481 3500 
L 3481 434 
z
" transform="scale(0.015625)"/>
       <path id="DejaVuSans-61" d="M 2194 1759 
Q 1497 1759 1228 1600 
Q 959 1441 959 1056 
Q 959 750 1161 570 
Q 1363 391 1709 391 
Q 2188 391 2477 730 
Q 2766 1069 2766 1631 
L 2766 1759 
L 2194 1759 
z
M 3341 1997 
L 3341 0 
L 2766 0 
L 2766 531 
Q 2569 213 2275 61 
Q 1981 -91 1556 -91 
Q 1019 -91 701 211 
Q 384 513 384 1019 
Q 384 1609 779 1909 
Q 1175 2209 1959 2209 
L 2766 2209 
L 2766 2266 
Q 2766 2663 2505 2880 
Q 2244 3097 1772 3097 
Q 1472 3097 1187 3025 
Q 903 2953 641 2809 
L 641 3341 
Q 956 3463 1253 3523 
Q 1550 3584 1831 3584 
Q 2591 3584 2966 3190 
Q 3341 2797 3341 1997 
z
" transform="scale(0.015625)"/>
       <path id="DejaVuSans-6c" d="M 603 4863 
L 1178 4863 
L 1178 0 
L 603 0 
L 603 4863 
z
" transform="scale(0.015625)"/>
       <path id="DejaVuSans-65" d="M 3597 1894 
L 3597 1613 
L 953 1613 
Q 991 1019 1311 708 
Q 1631 397 2203 397 
Q 2534 397 2845 478 
Q 3156 559 3463 722 
L 3463 178 
Q 3153 47 2828 -22 
Q 2503 -91 2169 -91 
Q 1331 -91 842 396 
Q 353 884 353 1716 
Q 353 2575 817 3079 
Q 1281 3584 2069 3584 
Q 2775 3584 3186 3129 
Q 3597 2675 3597 1894 
z
M 3022 2063 
Q 3016 2534 2758 2815 
Q 2500 3097 2075 3097 
Q 1594 3097 1305 2825 
Q 1016 2553 972 2059 
L 3022 2063 
z
" transform="scale(0.015625)"/>
       <path id="DejaVuSans-29" d="M 513 4856 
L 1013 4856 
Q 1481 4119 1714 3412 
Q 1947 2706 1947 2009 
Q 1947 1309 1714 600 
Q 1481 -109 1013 -844 
L 513 -844 
Q 928 -128 1133 580 
Q 1338 1288 1338 2009 
Q 1338 2731 1133 3434 
Q 928 4138 513 4856 
z
" transform="scale(0.015625)"/>
      </defs>
      <use xlink:href="#DejaVuSans-4d"/>
      <use xlink:href="#DejaVuSans-53" transform="translate(86.279297 0)"/>
      <use xlink:href="#DejaVuSans-45" transform="translate(149.755859 0)"/>
      <use xlink:href="#DejaVuSans-20" transform="translate(212.939453 0)"/>
      <use xlink:href="#DejaVuSans-4c" transform="translate(244.726562 0)"/>
      <use xlink:href="#DejaVuSans-6f" transform="translate(298.689453 0)"/>
      <use xlink:href="#DejaVuSans-73" transform="translate(359.871094 0)"/>
      <use xlink:href="#DejaVuSans-73" transform="translate(411.970703 0)"/>
      <use xlink:href="#DejaVuSans-20" transform="translate(464.070312 0)"/>
      <use xlink:href="#DejaVuSans-28" transform="translate(495.857422 0)"/>
      <use xlink:href="#DejaVuSans-4c" transform="translate(534.871094 0)"/>
      <use xlink:href="#DejaVuSans-6f" transform="translate(588.833984 0)"/>
      <use xlink:href="#DejaVuSans-67" transform="translate(650.015625 0)"/>
      <use xlink:href="#DejaVuSans-20" transform="translate(713.492188 0)"/>
      <use xlink:href="#DejaVuSans-53" transform="translate(745.279297 0)"/>
      <use xlink:href="#DejaVuSans-63" transform="translate(808.755859 0)"/>
      <use xlink:href="#DejaVuSans-61" transform="translate(863.736328 0)"/>
      <use xlink:href="#DejaVuSans-6c" transform="translate(925.015625 0)"/>
      <use xlink:href="#DejaVuSans-65" transform="translate(952.798828 0)"/>
      <use xlink:href="#DejaVuSans-29" transform="translate(1014.322266 0)"/>
     </g>
    </g>
   </g>
   <g id="line2d_59">
    <path d="M 115.363636 55.8 
L 116.380215 75.259174 
L 117.396794 105.868468 
L 118.413372 124.80727 
L 119.429951 139.156502 
L 120.446529 150.762768 
L 121.463108 158.403225 
L 122.479687 163.981799 
L 124.512844 171.279977 
L 125.529422 179.65777 
L 126.546001 184.500345 
L 127.56258 188.696984 
L 128.579158 193.694935 
L 130.612316 198.648107 
L 131.628894 200.257874 
L 133.662051 205.578613 
L 134.67863 206.938765 
L 135.695209 210.151609 
L 137.728366 211.322676 
L 138.744944 215.18646 
L 139.761523 214.69091 
L 140.778102 215.386808 
L 142.811259 219.084314 
L 143.827837 218.332364 
L 144.844416 220.559694 
L 145.860995 223.218269 
L 146.877573 222.0572 
L 147.894152 226.148238 
L 148.910731 223.722665 
L 149.927309 223.694791 
L 150.943888 229.052424 
L 151.960466 226.428083 
L 152.977045 228.624105 
L 153.993624 227.075681 
L 155.010202 227.498683 
L 156.026781 229.246524 
L 157.043359 228.493243 
L 158.059938 231.711865 
L 159.076517 233.537513 
L 160.093095 228.938679 
L 161.109674 233.872048 
L 162.126253 231.779235 
L 163.142831 233.985395 
L 164.15941 235.550039 
L 165.175988 231.70804 
L 166.192567 232.550933 
L 167.209146 234.124561 
L 168.225724 233.788591 
L 169.242303 234.563878 
L 170.258881 233.979917 
L 171.27546 235.865561 
L 172.292039 235.074759 
L 173.308617 237.764881 
L 174.325196 238.299535 
L 175.341774 238.225039 
L 176.358353 236.760405 
L 177.374932 238.075441 
L 178.39151 239.875063 
L 179.408089 238.864269 
L 180.424668 240.574216 
L 181.441246 238.408066 
L 182.457825 238.85968 
L 183.474403 240.418875 
L 184.490982 238.794271 
L 185.507561 238.880584 
L 186.524139 237.815653 
L 187.540718 243.976446 
L 188.557296 241.660061 
L 189.573875 241.691827 
L 190.590454 237.643658 
L 191.607032 237.668407 
L 192.623611 243.382469 
L 193.640189 240.108798 
L 194.656768 241.430672 
L 195.673347 239.902736 
L 196.689925 242.284784 
L 197.706504 242.971746 
L 198.723083 243.388737 
L 199.739661 243.558118 
L 200.75624 244.24223 
L 201.772818 241.184625 
L 202.789397 243.547834 
L 203.805976 244.371912 
L 204.822554 244.258124 
L 205.839133 245.33741 
L 206.855711 241.181435 
L 207.87229 244.811711 
L 208.888869 247.442475 
L 209.905447 244.285206 
L 210.922026 244.879372 
L 211.938604 244.250181 
L 212.955183 245.86242 
L 213.971762 242.399285 
L 214.98834 246.070427 
L 216.004919 245.139508 
L 217.021498 246.296715 
L 218.038076 243.547089 
L 219.054655 247.275708 
L 220.071233 245.06493 
L 221.087812 245.593252 
L 222.104391 247.167419 
L 223.120969 245.842222 
L 224.137548 246.242519 
L 225.154126 245.788439 
L 226.170705 246.606702 
L 227.187284 243.888282 
L 228.203862 246.650239 
L 229.220441 251.556228 
L 231.253598 247.33341 
L 232.270177 250.915007 
L 233.286755 249.189579 
L 234.303334 248.286389 
L 235.319913 249.966392 
L 236.336491 251.060724 
L 237.35307 251.032034 
L 238.369648 250.019027 
L 239.386227 251.592716 
L 240.402806 252.499189 
L 241.419384 250.428961 
L 242.435963 252.118388 
L 243.452541 250.956685 
L 244.46912 250.468237 
L 245.485699 253.334258 
L 246.502277 250.359788 
L 247.518856 251.671974 
L 248.535435 251.093122 
L 249.552013 254.738527 
L 250.568592 253.658398 
L 251.58517 254.450463 
L 252.601749 255.726691 
L 253.618328 255.868503 
L 254.634906 252.922416 
L 256.668063 253.390462 
L 257.684642 253.937144 
L 258.701221 257.354714 
L 259.717799 252.365669 
L 260.734378 254.30151 
L 261.750956 258.848461 
L 262.767535 255.951145 
L 263.784114 254.175962 
L 264.800692 254.954659 
L 265.817271 256.780458 
L 266.83385 254.644344 
L 267.850428 255.530294 
L 268.867007 258.197033 
L 270.900164 255.851105 
L 271.916743 258.182146 
L 272.933321 258.773168 
L 273.9499 258.844484 
L 274.966478 257.608195 
L 275.983057 260.088599 
L 276.999636 256.567675 
L 278.016214 258.686727 
L 279.032793 257.863178 
L 280.049371 257.731033 
L 281.06595 256.425229 
L 282.082529 255.667528 
L 283.099107 259.800281 
L 284.115686 257.206441 
L 285.132265 257.260657 
L 286.148843 260.907075 
L 287.165422 259.138968 
L 289.198579 259.895884 
L 290.215158 255.410338 
L 291.231736 259.696811 
L 292.248315 260.351607 
L 293.264893 259.697111 
L 294.281472 256.597596 
L 295.298051 258.784779 
L 296.314629 262.06446 
L 297.331208 262.812287 
L 298.347786 262.918902 
L 299.364365 260.071825 
L 300.380944 259.714884 
L 301.397522 259.939658 
L 302.414101 263.282685 
L 303.43068 264.022543 
L 304.447258 257.497917 
L 305.463837 263.350348 
L 306.480415 263.32592 
L 307.496994 260.423233 
L 308.513573 261.562915 
L 309.530151 261.719166 
L 310.54673 263.996834 
L 311.563308 257.534287 
L 312.579887 264.323892 
L 313.596466 265.056451 
L 314.613044 264.487263 
L 315.629623 265.801843 
L 316.646201 263.703098 
L 317.66278 264.641 
L 319.695937 261.210113 
L 321.729095 262.683743 
L 322.745673 264.685526 
L 323.762252 261.604171 
L 324.77883 265.332094 
L 325.795409 260.038104 
L 326.811988 266.535025 
L 327.828566 264.843726 
L 328.845145 269.736707 
L 329.861723 267.902351 
L 330.878302 266.561719 
L 331.894881 263.714953 
L 332.911459 263.143755 
L 333.928038 266.527761 
L 334.944617 265.01353 
L 335.961195 270.216916 
L 336.977774 269.711816 
L 337.994352 270.293086 
L 339.010931 270.352245 
L 340.02751 264.294425 
L 341.044088 269.588 
L 342.060667 263.154742 
L 343.077245 267.712945 
L 344.093824 267.143771 
L 345.110403 265.26411 
L 346.126981 272.140183 
L 348.160138 267.645146 
L 349.176717 267.199485 
L 350.193296 269.73233 
L 351.209874 271.100006 
L 352.226453 270.942379 
L 353.243032 265.629479 
L 355.276189 269.05565 
L 356.292767 267.235761 
L 357.309346 268.435952 
L 358.325925 270.45494 
L 359.342503 267.958692 
L 360.359082 272.398535 
L 361.37566 270.35824 
L 362.392239 272.227508 
L 363.408818 273.052738 
L 364.425396 271.185669 
L 365.441975 269.820197 
L 366.458553 271.469343 
L 367.475132 273.552022 
L 368.491711 272.001568 
L 369.508289 272.685704 
L 370.524868 268.829451 
L 371.541447 271.941434 
L 372.558025 274.195317 
L 373.574604 273.372655 
L 374.591182 271.168605 
L 375.607761 271.222056 
L 376.62434 272.07989 
L 377.640918 276.059193 
L 378.657497 272.813819 
L 379.674075 272.831875 
L 380.690654 275.299759 
L 381.707233 274.326337 
L 382.723811 271.107511 
L 383.74039 272.353973 
L 384.756968 272.406569 
L 385.773547 275.853001 
L 386.790126 271.781534 
L 387.806704 277.619877 
L 388.823283 272.678494 
L 389.839862 277.66863 
L 390.85644 274.133586 
L 391.873019 276.21085 
L 392.889597 272.759812 
L 393.906176 275.63802 
L 394.922755 274.464167 
L 395.939333 275.136716 
L 396.955912 278.319134 
L 397.97249 276.170386 
L 398.989069 276.282044 
L 400.005648 280.334238 
L 401.022226 275.230614 
L 402.038805 281.520559 
L 403.055383 274.384542 
L 404.071962 277.260492 
L 405.088541 276.506383 
L 406.105119 275.237581 
L 407.121698 274.589804 
L 408.138277 274.786688 
L 409.154855 278.301546 
L 410.171434 278.647291 
L 411.188012 277.008531 
L 412.204591 276.06647 
L 413.22117 276.65331 
L 414.237748 271.61988 
L 415.254327 276.336523 
L 416.270905 278.92047 
L 417.287484 272.415569 
L 419.320641 283.776788 
L 420.33722 281.182541 
L 421.353799 280.232828 
L 422.370377 279.847287 
L 423.386956 283.086499 
L 424.403534 278.454025 
L 425.420113 280.398969 
L 426.436692 280.555 
L 427.45327 275.73596 
L 428.469849 280.509434 
L 429.486427 282.958676 
L 430.503006 279.023306 
L 431.519585 276.336104 
L 432.536163 280.585348 
L 433.552742 280.585868 
L 434.56932 283.44235 
L 435.585899 282.318936 
L 436.602478 280.679676 
L 437.619056 285.432372 
L 438.635635 280.370404 
L 439.652214 287.442153 
L 440.668792 282.874607 
L 441.685371 287.275529 
L 442.701949 279.113911 
L 443.718528 283.552484 
L 444.735107 278.909854 
L 445.751685 282.88933 
L 446.768264 282.439999 
L 448.801421 286.161531 
L 449.818 283.886691 
L 450.834578 279.470487 
L 451.851157 280.914403 
L 452.867735 282.656828 
L 453.884314 288.140342 
L 454.900893 283.279799 
L 455.917471 282.151114 
L 456.93405 287.335702 
L 457.950629 288.70087 
L 458.967207 283.568719 
L 459.983786 283.966838 
L 461.000364 289.912954 
L 462.016943 283.631587 
L 463.033522 283.359078 
L 464.0501 282.515567 
L 465.066679 285.405248 
L 466.083257 284.628072 
L 467.099836 285.041274 
L 468.116415 283.696623 
L 469.132993 287.707602 
L 470.149572 284.602782 
L 471.16615 290.800188 
L 472.182729 288.335982 
L 473.199308 284.010878 
L 474.215886 292.146142 
L 475.232465 284.008959 
L 476.249044 289.83176 
L 477.265622 288.558043 
L 478.282201 290.086589 
L 479.298779 288.070016 
L 480.315358 292.977883 
L 481.331937 286.797908 
L 482.348515 292.345649 
L 483.365094 285.569244 
L 484.381672 286.90114 
L 485.398251 292.532086 
L 486.41483 288.220447 
L 487.431408 291.372151 
L 488.447987 288.477451 
L 489.464565 288.83795 
L 490.481144 286.629175 
L 491.497723 287.484312 
L 493.53088 291.430611 
L 494.547459 289.080863 
L 495.564037 288.382935 
L 496.580616 290.178321 
L 497.597194 291.228069 
L 498.613773 289.10021 
L 499.630352 288.406447 
L 500.64693 291.270474 
L 501.663509 286.708085 
L 502.680087 294.282432 
L 503.696666 290.686712 
L 504.713245 291.929931 
L 505.729823 292.968762 
L 506.746402 292.262404 
L 507.762981 295.968352 
L 508.779559 289.582002 
L 509.796138 289.557848 
L 510.812716 292.19048 
L 511.829295 287.397135 
L 512.845874 291.307442 
L 513.862452 292.53519 
L 514.879031 293.999722 
L 515.895609 292.06912 
L 516.912188 292.980866 
L 517.928767 289.445686 
L 518.945345 293.719408 
L 519.961924 293.29065 
L 520.978502 296.53713 
L 521.995081 295.636429 
L 523.01166 288.947352 
L 524.028238 295.181189 
L 525.044817 296.190833 
L 526.061396 294.047049 
L 527.077974 294.315259 
L 528.094553 292.466633 
L 529.111131 291.143231 
L 530.12771 294.414669 
L 531.144289 294.162588 
L 532.160867 297.474427 
L 533.177446 294.780405 
L 534.194024 296.431161 
L 535.210603 292.995348 
L 536.227182 297.268519 
L 537.24376 292.664274 
L 538.260339 298.196547 
L 539.276917 296.378171 
L 540.293496 298.66221 
L 541.310075 296.879304 
L 542.326653 293.319006 
L 543.343232 302.652222 
L 544.359811 299.640867 
L 545.376389 290.644671 
L 546.392968 296.877214 
L 547.409546 296.471075 
L 548.426125 293.212984 
L 549.442704 300.249429 
L 550.459282 297.456368 
L 551.475861 297.875229 
L 552.492439 296.499474 
L 553.509018 298.472213 
L 554.525597 301.842258 
L 555.542175 294.029101 
L 556.558754 304.516337 
L 557.575332 292.471966 
L 558.591911 295.881707 
L 559.60849 296.432012 
L 560.625068 297.382427 
L 561.641647 296.95628 
L 562.658226 297.576843 
L 563.674804 296.400057 
L 564.691383 300.611626 
L 565.707961 299.947737 
L 566.72454 298.558111 
L 567.741119 298.647433 
L 568.757697 298.216843 
L 571.807433 301.051515 
L 572.824012 299.330629 
L 573.84059 299.630096 
L 574.857169 301.547916 
L 575.873747 297.380265 
L 576.890326 295.117958 
L 577.906905 295.75048 
L 578.923483 301.934175 
L 579.940062 295.14057 
L 580.956641 300.343363 
L 581.973219 298.736552 
L 582.989798 295.233541 
L 584.006376 297.788291 
L 586.039534 301.579688 
L 587.056112 302.051132 
L 588.072691 302.831928 
L 589.089269 296.143145 
L 590.105848 302.573041 
L 591.122427 301.846636 
L 592.139005 301.654057 
L 593.155584 297.817059 
L 594.172163 298.242497 
L 595.188741 302.351668 
L 596.20532 299.55333 
L 597.221898 303.082843 
L 598.238477 304.838096 
L 599.255056 300.899784 
L 600.271634 301.387032 
L 601.288213 299.820797 
L 602.304791 292.013111 
L 603.32137 301.526353 
L 604.337949 303.659804 
L 605.354527 299.687654 
L 606.371106 298.464748 
L 607.387684 295.281854 
L 608.404263 297.33618 
L 609.420842 302.392566 
L 610.43742 306.0754 
L 611.453999 302.411844 
L 612.470578 301.149131 
L 613.487156 300.586448 
L 614.503735 300.4496 
L 615.520313 302.675358 
L 616.536892 298.512939 
L 617.553471 307.8 
L 618.570049 303.020946 
L 619.586628 299.811671 
L 620.603206 298.775033 
L 621.619785 300.073968 
L 622.636364 295.690504 
L 622.636364 295.690504 
" clip-path="url(#pd2ce770d98)" style="fill: none; stroke: #1f77b4; stroke-width: 2; stroke-linecap: square"/>
   </g>
   <g id="line2d_60">
    <path d="M 115.363636 61.198794 
L 116.380215 77.924063 
L 117.396794 101.380617 
L 118.413372 117.675618 
L 119.429951 128.438636 
L 120.446529 137.063547 
L 121.463108 147.103432 
L 122.479687 151.993982 
L 123.496265 154.419898 
L 124.512844 157.89721 
L 125.529422 159.623815 
L 126.546001 163.402009 
L 127.56258 165.84562 
L 128.579158 164.014404 
L 129.595737 168.729512 
L 130.612316 169.127606 
L 131.628894 171.15869 
L 132.645473 172.247791 
L 133.662051 171.832193 
L 134.67863 174.0529 
L 135.695209 174.915392 
L 136.711787 174.690463 
L 137.728366 174.113263 
L 138.744944 174.506458 
L 139.761523 176.877014 
L 140.778102 176.493627 
L 141.79468 177.758722 
L 142.811259 175.8858 
L 143.827837 177.90045 
L 144.844416 177.705052 
L 145.860995 177.000637 
L 146.877573 179.210672 
L 147.894152 179.22161 
L 148.910731 178.066763 
L 149.927309 177.718561 
L 150.943888 178.906323 
L 152.977045 180.140868 
L 153.993624 179.703117 
L 155.010202 178.183038 
L 156.026781 179.24108 
L 157.043359 179.018115 
L 158.059938 180.670621 
L 159.076517 179.488108 
L 160.093095 179.696666 
L 161.109674 180.848434 
L 162.126253 180.144194 
L 163.142831 180.955451 
L 164.15941 180.679709 
L 165.175988 180.873781 
L 166.192567 180.530899 
L 167.209146 180.859155 
L 168.225724 180.959816 
L 169.242303 180.513826 
L 170.258881 181.775965 
L 171.27546 180.194287 
L 172.292039 182.214068 
L 173.308617 180.197855 
L 174.325196 181.376072 
L 175.341774 181.83598 
L 176.358353 181.74841 
L 177.374932 180.878949 
L 178.39151 181.786786 
L 179.408089 181.530111 
L 180.424668 182.170213 
L 181.441246 182.09338 
L 182.457825 181.518768 
L 183.474403 181.721325 
L 184.490982 183.176804 
L 185.507561 181.939276 
L 186.524139 182.520574 
L 187.540718 182.090697 
L 188.557296 182.779363 
L 189.573875 182.816425 
L 190.590454 183.286594 
L 193.640189 182.66923 
L 194.656768 180.621849 
L 195.673347 181.458846 
L 196.689925 182.993307 
L 197.706504 182.428199 
L 198.723083 180.288586 
L 199.739661 182.498201 
L 200.75624 181.766054 
L 201.772818 181.622944 
L 202.789397 181.123521 
L 203.805976 180.279428 
L 204.822554 181.981257 
L 205.839133 182.647104 
L 206.855711 181.649978 
L 207.87229 182.652806 
L 208.888869 181.298334 
L 209.905447 182.079621 
L 210.922026 181.418334 
L 211.938604 183.032209 
L 212.955183 181.998947 
L 213.971762 181.186859 
L 214.98834 182.418827 
L 216.004919 182.534499 
L 217.021498 181.7304 
L 218.038076 181.531703 
L 219.054655 180.607426 
L 220.071233 181.144545 
L 221.087812 181.225994 
L 222.104391 182.61406 
L 223.120969 181.039335 
L 224.137548 182.24196 
L 226.170705 182.242787 
L 227.187284 181.619925 
L 228.203862 183.263178 
L 229.220441 181.742399 
L 230.237019 180.893635 
L 231.253598 181.997173 
L 232.270177 183.548871 
L 233.286755 182.4266 
L 234.303334 181.854523 
L 235.319913 180.938139 
L 236.336491 181.221623 
L 237.35307 181.964139 
L 238.369648 180.599147 
L 239.386227 182.128109 
L 240.402806 182.868999 
L 241.419384 181.832581 
L 242.435963 182.140447 
L 243.452541 180.442732 
L 244.46912 181.995873 
L 245.485699 181.362024 
L 246.502277 181.696481 
L 247.518856 182.804014 
L 248.535435 182.088844 
L 250.568592 182.452882 
L 251.58517 181.527842 
L 252.601749 178.61599 
L 254.634906 181.4876 
L 255.651485 182.512404 
L 256.668063 181.143774 
L 257.684642 180.404335 
L 260.734378 181.632439 
L 261.750956 180.765436 
L 262.767535 182.252138 
L 263.784114 182.42219 
L 264.800692 180.943155 
L 265.817271 181.086016 
L 266.83385 181.029275 
L 267.850428 179.515911 
L 268.867007 181.494768 
L 269.883585 182.866113 
L 270.900164 181.006085 
L 271.916743 182.093055 
L 272.933321 180.048387 
L 273.9499 182.14728 
L 274.966478 181.214559 
L 275.983057 181.429526 
L 276.999636 182.346644 
L 278.016214 179.445277 
L 279.032793 181.257327 
L 280.049371 178.768679 
L 281.06595 180.914296 
L 282.082529 180.842339 
L 283.099107 181.269872 
L 284.115686 179.413108 
L 285.132265 180.963165 
L 286.148843 181.135097 
L 287.165422 182.224166 
L 288.182 179.138162 
L 289.198579 181.169799 
L 290.215158 181.994391 
L 291.231736 182.356834 
L 292.248315 181.63634 
L 293.264893 180.425133 
L 294.281472 179.873079 
L 295.298051 179.79951 
L 296.314629 181.596129 
L 297.331208 179.545763 
L 298.347786 181.376896 
L 299.364365 180.78347 
L 300.380944 179.002412 
L 301.397522 180.217415 
L 302.414101 181.047812 
L 303.43068 180.377103 
L 304.447258 180.067587 
L 305.463837 178.599802 
L 306.480415 179.477959 
L 307.496994 179.639087 
L 308.513573 179.089327 
L 309.530151 180.661094 
L 310.54673 181.016151 
L 311.563308 178.572301 
L 312.579887 179.964602 
L 313.596466 180.242904 
L 314.613044 180.265474 
L 315.629623 181.106958 
L 316.646201 179.361015 
L 317.66278 179.337302 
L 318.679359 179.582512 
L 319.695937 180.106894 
L 320.712516 179.316914 
L 321.729095 180.001203 
L 322.745673 178.180692 
L 323.762252 179.322577 
L 324.77883 182.087083 
L 325.795409 179.857423 
L 326.811988 179.645373 
L 327.828566 180.530344 
L 329.861723 177.936868 
L 330.878302 178.587673 
L 331.894881 177.820042 
L 332.911459 178.518563 
L 333.928038 176.214869 
L 334.944617 179.596956 
L 336.977774 180.980971 
L 337.994352 179.026061 
L 339.010931 179.763399 
L 340.02751 178.832595 
L 341.044088 178.78335 
L 342.060667 178.55764 
L 343.077245 180.035786 
L 344.093824 176.972457 
L 345.110403 178.877296 
L 346.126981 178.292036 
L 347.14356 177.103083 
L 348.160138 179.460772 
L 349.176717 179.462103 
L 350.193296 178.802293 
L 351.209874 179.095414 
L 352.226453 179.901181 
L 353.243032 179.296697 
L 354.25961 178.555566 
L 355.276189 177.571509 
L 356.292767 177.16866 
L 357.309346 177.389338 
L 358.325925 175.717924 
L 359.342503 178.633089 
L 360.359082 177.251835 
L 361.37566 178.064617 
L 362.392239 177.629103 
L 363.408818 178.58382 
L 364.425396 177.813147 
L 365.441975 179.306676 
L 367.475132 176.381114 
L 368.491711 177.047053 
L 369.508289 178.807005 
L 370.524868 177.712915 
L 371.541447 177.136654 
L 372.558025 178.477791 
L 373.574604 176.634923 
L 374.591182 176.060315 
L 375.607761 175.974033 
L 376.62434 175.184959 
L 377.640918 176.172162 
L 378.657497 175.56937 
L 379.674075 177.530445 
L 380.690654 176.686298 
L 381.707233 177.593976 
L 382.723811 177.620983 
L 384.756968 176.615657 
L 385.773547 176.596318 
L 386.790126 176.136197 
L 387.806704 176.393233 
L 388.823283 176.249235 
L 389.839862 176.936995 
L 390.85644 174.944016 
L 391.873019 175.948259 
L 392.889597 175.225904 
L 393.906176 176.819383 
L 394.922755 174.945879 
L 395.939333 176.689781 
L 396.955912 178.004227 
L 397.97249 174.475772 
L 398.989069 175.305426 
L 400.005648 175.368071 
L 401.022226 176.797263 
L 402.038805 176.000676 
L 403.055383 174.238057 
L 404.071962 175.521696 
L 405.088541 173.197597 
L 406.105119 174.88529 
L 407.121698 174.694262 
L 408.138277 176.642093 
L 410.171434 173.66199 
L 411.188012 176.827398 
L 412.204591 174.877026 
L 413.22117 173.769177 
L 414.237748 176.403041 
L 415.254327 177.713621 
L 416.270905 174.123803 
L 417.287484 174.209921 
L 418.304063 175.083461 
L 419.320641 174.857421 
L 420.33722 174.008804 
L 421.353799 174.461646 
L 422.370377 176.137626 
L 423.386956 174.93208 
L 424.403534 172.258011 
L 425.420113 175.761124 
L 426.436692 174.243946 
L 427.45327 174.386904 
L 428.469849 175.437249 
L 429.486427 175.064677 
L 430.503006 175.047366 
L 431.519585 174.674843 
L 432.536163 175.444313 
L 433.552742 174.169838 
L 434.56932 174.005012 
L 435.585899 174.166867 
L 436.602478 174.688833 
L 437.619056 175.026664 
L 438.635635 174.934241 
L 439.652214 174.698519 
L 440.668792 173.343308 
L 441.685371 174.49114 
L 442.701949 174.92448 
L 443.718528 172.93381 
L 444.735107 173.150296 
L 445.751685 174.512728 
L 446.768264 173.84361 
L 447.784842 173.337031 
L 448.801421 173.313701 
L 449.818 173.57564 
L 450.834578 172.268185 
L 451.851157 174.567981 
L 452.867735 171.866736 
L 453.884314 174.638075 
L 454.900893 172.632289 
L 455.917471 172.280855 
L 456.93405 173.301368 
L 457.950629 172.725525 
L 458.967207 171.327441 
L 459.983786 172.744109 
L 462.016943 173.267063 
L 463.033522 174.550125 
L 464.0501 174.394408 
L 465.066679 172.127154 
L 466.083257 172.436064 
L 467.099836 173.714747 
L 468.116415 173.68543 
L 469.132993 172.35636 
L 470.149572 173.581277 
L 471.16615 171.990191 
L 472.182729 171.326655 
L 473.199308 173.41098 
L 474.215886 173.231191 
L 475.232465 170.995296 
L 476.249044 172.179641 
L 477.265622 170.416736 
L 478.282201 171.261863 
L 479.298779 171.624537 
L 480.315358 171.305497 
L 481.331937 171.835371 
L 482.348515 170.873195 
L 483.365094 169.394977 
L 484.381672 172.515348 
L 485.398251 172.600544 
L 486.41483 169.389501 
L 487.431408 171.288605 
L 488.447987 172.302421 
L 489.464565 171.614284 
L 490.481144 172.369866 
L 491.497723 171.036021 
L 492.514301 169.899568 
L 493.53088 170.290995 
L 494.547459 171.093941 
L 495.564037 168.669045 
L 496.580616 170.938535 
L 497.597194 168.793282 
L 498.613773 169.886551 
L 499.630352 169.477596 
L 500.64693 170.093313 
L 501.663509 168.885592 
L 502.680087 168.651087 
L 503.696666 171.966298 
L 504.713245 169.068883 
L 506.746402 171.20349 
L 507.762981 169.61703 
L 508.779559 171.728252 
L 509.796138 169.417129 
L 510.812716 171.065543 
L 511.829295 169.556629 
L 512.845874 170.009439 
L 513.862452 169.055745 
L 514.879031 168.926391 
L 515.895609 167.975039 
L 516.912188 170.280483 
L 517.928767 169.105047 
L 518.945345 169.314138 
L 519.961924 170.56335 
L 520.978502 169.196239 
L 521.995081 169.693002 
L 523.01166 169.137798 
L 524.028238 170.848156 
L 525.044817 169.5065 
L 526.061396 170.452139 
L 527.077974 168.87336 
L 528.094553 170.987818 
L 529.111131 167.922146 
L 530.12771 166.169446 
L 531.144289 167.111984 
L 532.160867 167.792331 
L 533.177446 166.155683 
L 534.194024 168.151668 
L 536.227182 168.109481 
L 537.24376 168.683749 
L 538.260339 165.329226 
L 539.276917 168.0254 
L 540.293496 170.014604 
L 541.310075 167.201793 
L 542.326653 166.051837 
L 543.343232 167.69473 
L 544.359811 166.628174 
L 545.376389 166.931476 
L 546.392968 165.552477 
L 547.409546 166.809386 
L 548.426125 166.709379 
L 549.442704 166.133528 
L 550.459282 167.277903 
L 551.475861 169.565723 
L 552.492439 169.539946 
L 553.509018 167.090008 
L 554.525597 165.43848 
L 555.542175 168.750906 
L 556.558754 165.633668 
L 557.575332 166.241428 
L 558.591911 167.510415 
L 559.60849 167.793008 
L 560.625068 167.420862 
L 561.641647 165.618192 
L 562.658226 169.037804 
L 563.674804 166.289803 
L 564.691383 167.213576 
L 565.707961 167.882833 
L 566.72454 167.868099 
L 567.741119 166.116993 
L 568.757697 163.892986 
L 569.774276 165.531516 
L 570.790854 167.421964 
L 571.807433 166.559972 
L 572.824012 166.133201 
L 573.84059 164.932868 
L 574.857169 164.567251 
L 575.873747 167.324579 
L 576.890326 167.463133 
L 577.906905 165.030928 
L 578.923483 167.778695 
L 579.940062 164.990469 
L 580.956641 164.954963 
L 581.973219 166.430832 
L 582.989798 169.147121 
L 584.006376 163.662726 
L 585.022955 164.564619 
L 586.039534 166.12319 
L 587.056112 164.447448 
L 588.072691 166.392409 
L 589.089269 165.840827 
L 590.105848 165.698183 
L 591.122427 164.435674 
L 592.139005 168.444237 
L 593.155584 165.253101 
L 594.172163 166.279608 
L 595.188741 164.280782 
L 596.20532 164.140843 
L 597.221898 167.488549 
L 598.238477 163.719417 
L 599.255056 164.878871 
L 600.271634 164.316088 
L 601.288213 164.49645 
L 602.304791 167.132786 
L 603.32137 164.166769 
L 604.337949 164.726644 
L 605.354527 166.676317 
L 606.371106 166.275592 
L 607.387684 166.153199 
L 608.404263 164.832898 
L 609.420842 164.897571 
L 610.43742 163.905198 
L 611.453999 168.134932 
L 613.487156 165.502499 
L 615.520313 166.231157 
L 616.536892 164.856473 
L 617.553471 166.437254 
L 618.570049 162.238587 
L 619.586628 163.435449 
L 620.603206 162.612845 
L 621.619785 166.651037 
L 622.636364 165.44031 
L 622.636364 165.44031 
" clip-path="url(#pd2ce770d98)" style="fill: none; stroke: #ff7f0e; stroke-width: 2; stroke-linecap: square"/>
   </g>
   <g id="patch_3">
    <path d="M 90 320.4 
L 90 43.2 
" style="fill: none; stroke: #000000; stroke-width: 0.8; stroke-linejoin: miter; stroke-linecap: square"/>
   </g>
   <g id="patch_4">
    <path d="M 648 320.4 
L 648 43.2 
" style="fill: none; stroke: #000000; stroke-width: 0.8; stroke-linejoin: miter; stroke-linecap: square"/>
   </g>
   <g id="patch_5">
    <path d="M 90 320.4 
L 648 320.4 
" style="fill: none; stroke: #000000; stroke-width: 0.8; stroke-linejoin: miter; stroke-linecap: square"/>
   </g>
   <g id="patch_6">
    <path d="M 90 43.2 
L 648 43.2 
" style="fill: none; stroke: #000000; stroke-width: 0.8; stroke-linejoin: miter; stroke-linecap: square"/>
   </g>
   <g id="text_12">
    <!-- Flow Matching Training Convergence -->
    <g transform="translate(258.764063 37.2) scale(0.12 -0.12)">
     <defs>
      <path id="DejaVuSans-46" d="M 628 4666 
L 3309 4666 
L 3309 4134 
L 1259 4134 
L 1259 2759 
L 3109 2759 
L 3109 2228 
L 1259 2228 
L 1259 0 
L 628 0 
L 628 4666 
z
" transform="scale(0.015625)"/>
      <path id="DejaVuSans-77" d="M 269 3500 
L 844 3500 
L 1563 769 
L 2278 3500 
L 2956 3500 
L 3675 769 
L 4391 3500 
L 4966 3500 
L 4050 0 
L 3372 0 
L 2619 2869 
L 1863 0 
L 1184 0 
L 269 3500 
z
" transform="scale(0.015625)"/>
      <path id="DejaVuSans-74" d="M 1172 4494 
L 1172 3500 
L 2356 3500 
L 2356 3053 
L 1172 3053 
L 1172 1153 
Q 1172 725 1289 603 
Q 1406 481 1766 481 
L 2356 481 
L 2356 0 
L 1766 0 
Q 1100 0 847 248 
Q 594 497 594 1153 
L 594 3053 
L 172 3053 
L 172 3500 
L 594 3500 
L 594 4494 
L 1172 4494 
z
" transform="scale(0.015625)"/>
      <path id="DejaVuSans-69" d="M 603 3500 
L 1178 3500 
L 1178 0 
L 603 0 
L 603 3500 
z
M 603 4863 
L 1178 4863 
L 1178 4134 
L 603 4134 
L 603 4863 
z
" transform="scale(0.015625)"/>
      <path id="DejaVuSans-6e" d="M 3513 2113 
L 3513 0 
L 2938 0 
L 2938 2094 
Q 2938 2591 2744 2837 
Q 2550 3084 2163 3084 
Q 1697 3084 1428 2787 
Q 1159 2491 1159 1978 
L 1159 0 
L 581 0 
L 581 3500 
L 1159 3500 
L 1159 2956 
Q 1366 3272 1645 3428 
Q 1925 3584 2291 3584 
Q 2894 3584 3203 3211 
Q 3513 2838 3513 2113 
z
" transform="scale(0.015625)"/>
      <path id="DejaVuSans-54" d="M -19 4666 
L 3928 4666 
L 3928 4134 
L 2272 4134 
L 2272 0 
L 1638 0 
L 1638 4134 
L -19 4134 
L -19 4666 
z
" transform="scale(0.015625)"/>
      <path id="DejaVuSans-72" d="M 2631 2963 
Q 2534 3019 2420 3045 
Q 2306 3072 2169 3072 
Q 1681 3072 1420 2755 
Q 1159 2438 1159 1844 
L 1159 0 
L 581 0 
L 581 3500 
L 1159 3500 
L 1159 2956 
Q 1341 3275 1631 3429 
Q 1922 3584 2338 3584 
Q 2397 3584 2469 3576 
Q 2541 3569 2628 3553 
L 2631 2963 
z
" transform="scale(0.015625)"/>
      <path id="DejaVuSans-43" d="M 4122 4306 
L 4122 3641 
Q 3803 3938 3442 4084 
Q 3081 4231 2675 4231 
Q 1875 4231 1450 3742 
Q 1025 3253 1025 2328 
Q 1025 1406 1450 917 
Q 1875 428 2675 428 
Q 3081 428 3442 575 
Q 3803 722 4122 1019 
L 4122 359 
Q 3791 134 3420 21 
Q 3050 -91 2638 -91 
Q 1578 -91 968 557 
Q 359 1206 359 2328 
Q 359 3453 968 4101 
Q 1578 4750 2638 4750 
Q 3056 4750 3426 4639 
Q 3797 4528 4122 4306 
z
" transform="scale(0.015625)"/>
      <path id="DejaVuSans-76" d="M 191 3500 
L 800 3500 
L 1894 563 
L 2988 3500 
L 3597 3500 
L 2284 0 
L 1503 0 
L 191 3500 
z
" transform="scale(0.015625)"/>
     </defs>
     <use xlink:href="#DejaVuSans-46"/>
     <use xlink:href="#DejaVuSans-6c" transform="translate(57.519531 0)"/>
     <use xlink:href="#DejaVuSans-6f" transform="translate(85.302734 0)"/>
     <use xlink:href="#DejaVuSans-77" transform="translate(146.484375 0)"/>
     <use xlink:href="#DejaVuSans-20" transform="translate(228.271484 0)"/>
     <use xlink:href="#DejaVuSans-4d" transform="translate(260.058594 0)"/>
     <use xlink:href="#DejaVuSans-61" transform="translate(346.337891 0)"/>
     <use xlink:href="#DejaVuSans-74" transform="translate(407.617188 0)"/>
     <use xlink:href="#DejaVuSans-63" transform="translate(446.826172 0)"/>
     <use xlink:href="#DejaVuSans-68" transform="translate(501.806641 0)"/>
     <use xlink:href="#DejaVuSans-69" transform="translate(565.185547 0)"/>
     <use xlink:href="#DejaVuSans-6e" transform="translate(592.96875 0)"/>
     <use xlink:href="#DejaVuSans-67" transform="translate(656.347656 0)"/>
     <use xlink:href="#DejaVuSans-20" transform="translate(719.824219 0)"/>
     <use xlink:href="#DejaVuSans-54" transform="translate(751.611328 0)"/>
     <use xlink:href="#DejaVuSans-72" transform="translate(797.945312 0)"/>
     <use xlink:href="#DejaVuSans-61" transform="translate(839.058594 0)"/>
     <use xlink:href="#DejaVuSans-69" transform="translate(900.337891 0)"/>
     <use xlink:href="#DejaVuSans-6e" transform="translate(928.121094 0)"/>
     <use xlink:href="#DejaVuSans-69" transform="translate(991.5 0)"/>
     <use xlink:href="#DejaVuSans-6e" transform="translate(1019.283203 0)"/>
     <use xlink:href="#DejaVuSans-67" transform="translate(1082.662109 0)"/>
     <use xlink:href="#DejaVuSans-20" transform="translate(1146.138672 0)"/>
     <use xlink:href="#DejaVuSans-43" transform="translate(1177.925781 0)"/>
     <use xlink:href="#DejaVuSans-6f" transform="translate(1247.75 0)"/>
     <use xlink:href="#DejaVuSans-6e" transform="translate(1308.931641 0)"/>
     <use xlink:href="#DejaVuSans-76" transform="translate(1372.310547 0)"/>
     <use xlink:href="#DejaVuSans-65" transform="translate(1431.490234 0)"/>
     <use xlink:href="#DejaVuSans-72" transform="translate(1493.013672 0)"/>
     <use xlink:href="#DejaVuSans-67" transform="translate(1532.376953 0)"/>
     <use xlink:href="#DejaVuSans-65" transform="translate(1595.853516 0)"/>
     <use xlink:href="#DejaVuSans-6e" transform="translate(1657.376953 0)"/>
     <use xlink:href="#DejaVuSans-63" transform="translate(1720.755859 0)"/>
     <use xlink:href="#DejaVuSans-65" transform="translate(1775.736328 0)"/>
    </g>
   </g>
   <g id="legend_1">
    <g id="patch_7">
     <path d="M 534.50625 80.55625 
L 641 80.55625 
Q 643 80.55625 643 78.55625 
L 643 50.2 
Q 643 48.2 641 48.2 
L 534.50625 48.2 
Q 532.50625 48.2 532.50625 50.2 
L 532.50625 78.55625 
Q 532.50625 80.55625 534.50625 80.55625 
z
" style="fill: #ffffff; opacity: 0.8; stroke: #cccccc; stroke-linejoin: miter"/>
    </g>
    <g id="line2d_61">
     <path d="M 536.50625 56.298437 
L 546.50625 56.298437 
L 556.50625 56.298437 
" style="fill: none; stroke: #1f77b4; stroke-width: 2; stroke-linecap: square"/>
    </g>
    <g id="text_13">
     <!-- Train Loss -->
     <g transform="translate(564.50625 59.798437) scale(0.1 -0.1)">
      <use xlink:href="#DejaVuSans-54"/>
      <use xlink:href="#DejaVuSans-72" transform="translate(46.333984 0)"/>
      <use xlink:href="#DejaVuSans-61" transform="translate(87.447266 0)"/>
      <use xlink:href="#DejaVuSans-69" transform="translate(148.726562 0)"/>
      <use xlink:href="#DejaVuSans-6e" transform="translate(176.509766 0)"/>
      <use xlink:href="#DejaVuSans-20" transform="translate(239.888672 0)"/>
      <use xlink:href="#DejaVuSans-4c" transform="translate(271.675781 0)"/>
      <use xlink:href="#DejaVuSans-6f" transform="translate(325.638672 0)"/>
      <use xlink:href="#DejaVuSans-73" transform="translate(386.820312 0)"/>
      <use xlink:href="#DejaVuSans-73" transform="translate(438.919922 0)"/>
     </g>
    </g>
    <g id="line2d_62">
     <path d="M 536.50625 70.976562 
L 546.50625 70.976562 
L 556.50625 70.976562 
" style="fill: none; stroke: #ff7f0e; stroke-width: 2; stroke-linecap: square"/>
    </g>
    <g id="text_14">
     <!-- Validation Loss -->
     <g transform="translate(564.50625 74.476562) scale(0.1 -0.1)">
      <defs>
       <path id="DejaVuSans-56" d="M 1831 0 
L 50 4666 
L 709 4666 
L 2188 738 
L 3669 4666 
L 4325 4666 
L 2547 0 
L 1831 0 
z
" transform="scale(0.015625)"/>
       <path id="DejaVuSans-64" d="M 2906 2969 
L 2906 4863 
L 3481 4863 
L 3481 0 
L 2906 0 
L 2906 525 
Q 2725 213 2448 61 
Q 2172 -91 1784 -91 
Q 1150 -91 751 415 
Q 353 922 353 1747 
Q 353 2572 751 3078 
Q 1150 3584 1784 3584 
Q 2172 3584 2448 3432 
Q 2725 3281 2906 2969 
z
M 947 1747 
Q 947 1113 1208 752 
Q 1469 391 1925 391 
Q 2381 391 2643 752 
Q 2906 1113 2906 1747 
Q 2906 2381 2643 2742 
Q 2381 3103 1925 3103 
Q 1469 3103 1208 2742 
Q 947 2381 947 1747 
z
" transform="scale(0.015625)"/>
      </defs>
      <use xlink:href="#DejaVuSans-56"/>
      <use xlink:href="#DejaVuSans-61" transform="translate(60.658203 0)"/>
      <use xlink:href="#DejaVuSans-6c" transform="translate(121.9375 0)"/>
      <use xlink:href="#DejaVuSans-69" transform="translate(149.720703 0)"/>
      <use xlink:href="#DejaVuSans-64" transform="translate(177.503906 0)"/>
      <use xlink:href="#DejaVuSans-61" transform="translate(240.980469 0)"/>
      <use xlink:href="#DejaVuSans-74" transform="translate(302.259766 0)"/>
      <use xlink:href="#DejaVuSans-69" transform="translate(341.46875 0)"/>
      <use xlink:href="#DejaVuSans-6f" transform="translate(369.251953 0)"/>
      <use xlink:href="#DejaVuSans-6e" transform="translate(430.433594 0)"/>
      <use xlink:href="#DejaVuSans-20" transform="translate(493.8125 0)"/>
      <use xlink:href="#DejaVuSans-4c" transform="translate(525.599609 0)"/>
      <use xlink:href="#DejaVuSans-6f" transform="translate(579.5625 0)"/>
      <use xlink:href="#DejaVuSans-73" transform="translate(640.744141 0)"/>
      <use xlink:href="#DejaVuSans-73" transform="translate(692.84375 0)"/>
     </g>
    </g>
   </g>
  </g>
 </g>
 <defs>
  <clipPath id="pd2ce770d98">
   <rect x="90" y="43.2" width="558" height="277.2"/>
  </clipPath>
 </defs>
</svg>
