<?xml version="1.0" encoding="utf-8" standalone="no"?>
<!DOCTYPE svg PUBLIC "-//W3C//DTD SVG 1.1//EN"
  "http://www.w3.org/Graphics/SVG/1.1/DTD/svg11.dtd">
<svg xmlns:xlink="http://www.w3.org/1999/xlink" width="720pt" height="360pt" viewBox="0 0 720 360" xmlns="http://www.w3.org/2000/svg" version="1.1">
 <metadata>
  <rdf:RDF xmlns:dc="http://purl.org/dc/elements/1.1/" xmlns:cc="http://creativecommons.org/ns#" xmlns:rdf="http://www.w3.org/1999/02/22-rdf-syntax-ns#">
   <cc:Work>
    <dc:type rdf:resource="http://purl.org/dc/dcmitype/StillImage"/>
    <dc:date>2026-01-28T16:41:31.791226</dc:date>
    <dc:format>image/svg+xml</dc:format>
    <dc:creator>
     <cc:Agent>
      <dc:title>Matplotlib v3.10.7, https://matplotlib.org/</dc:title>
     </cc:Agent>
    </dc:creator>
   </cc:Work>
  </rdf:RDF>
 </metadata>
 <defs>
  <style type="text/css">*{stroke-linejoin: round; stroke-linecap: butt}</style>
 </defs>
 <g id="figure_1">
  <g id="patch_1">
   <path d="M 0 360 
L 720 360 
L 720 0 
L 0 0 
z
" style="fill: #ffffff"/>
  </g>
  <g id="axes_1">
   <g id="patch_2">
    <path d="M 90 320.4 
L 648 320.4 
L 648 43.2 
L 90 43.2 
z
" style="fill: #ffffff"/>
   </g>
   <g id="matplotlib.axis_1">
    <g id="xtick_1">
     <g id="line2d_1">
      <path d="M 115.363636 320.4 
L 115.363636 43.2 
" clip-path="url(#p45631c88ba)" style="fill: none; stroke: #b0b0b0; stroke-opacity: 0.5; stroke-width: 0.8; stroke-linecap: square"/>
     </g>
     <g id="line2d_2">
      <defs>
       <path id="m479ff206ab" d="M 0 0 
L 0 3.5 
" style="stroke: #000000; stroke-width: 0.8"/>
      </defs>
      <g>
       <use xlink:href="#m479ff206ab" x="115.363636" y="320.4" style="stroke: #000000; stroke-width: 0.8"/>
      </g>
     </g>
     <g id="text_1">
      <!-- 0 -->
      <g transform="translate(112.182386 334.998438) scale(0.1 -0.1)">
       <defs>
        <path id="DejaVuSans-30" d="M 2034 4250 
Q 1547 4250 1301 3770 
Q 1056 3291 1056 2328 
Q 1056 1369 1301 889 
Q 1547 409 2034 409 
Q 2525 409 2770 889 
Q 3016 1369 3016 2328 
Q 3016 3291 2770 3770 
Q 2525 4250 2034 4250 
z
M 2034 4750 
Q 2819 4750 3233 4129 
Q 3647 3509 3647 2328 
Q 3647 1150 3233 529 
Q 2819 -91 2034 -91 
Q 1250 -91 836 529 
Q 422 1150 422 2328 
Q 422 3509 836 4129 
Q 1250 4750 2034 4750 
z
" transform="scale(0.015625)"/>
       </defs>
       <use xlink:href="#DejaVuSans-30"/>
      </g>
     </g>
    </g>
    <g id="xtick_2">
     <g id="line2d_3">
      <path d="M 217.021498 320.4 
L 217.021498 43.2 
" clip-path="url(#p45631c88ba)" style="fill: none; stroke: #b0b0b0; stroke-opacity: 0.5; stroke-width: 0.8; stroke-linecap: square"/>
     </g>
     <g id="line2d_4">
      <g>
       <use xlink:href="#m479ff206ab" x="217.021498" y="320.4" style="stroke: #000000; stroke-width: 0.8"/>
      </g>
     </g>
     <g id="text_2">
      <!-- 100 -->
      <g transform="translate(207.477748 334.998438) scale(0.1 -0.1)">
       <defs>
        <path id="DejaVuSans-31" d="M 794 531 
L 1825 531 
L 1825 4091 
L 703 3866 
L 703 4441 
L 1819 4666 
L 2450 4666 
L 2450 531 
L 3481 531 
L 3481 0 
L 794 0 
L 794 531 
z
" transform="scale(0.015625)"/>
       </defs>
       <use xlink:href="#DejaVuSans-31"/>
       <use xlink:href="#DejaVuSans-30" transform="translate(63.623047 0)"/>
       <use xlink:href="#DejaVuSans-30" transform="translate(127.246094 0)"/>
      </g>
     </g>
    </g>
    <g id="xtick_3">
     <g id="line2d_5">
      <path d="M 318.679359 320.4 
L 318.679359 43.2 
" clip-path="url(#p45631c88ba)" style="fill: none; stroke: #b0b0b0; stroke-opacity: 0.5; stroke-width: 0.8; stroke-linecap: square"/>
     </g>
     <g id="line2d_6">
      <g>
       <use xlink:href="#m479ff206ab" x="318.679359" y="320.4" style="stroke: #000000; stroke-width: 0.8"/>
      </g>
     </g>
     <g id="text_3">
      <!-- 200 -->
      <g transform="translate(309.135609 334.998438) scale(0.1 -0.1)">
       <defs>
        <path id="DejaVuSans-32" d="M 1228 531 
L 3431 531 
L 3431 0 
L 469 0 
L 469 531 
Q 828 903 1448 1529 
Q 2069 2156 2228 2338 
Q 2531 2678 2651 2914 
Q 2772 3150 2772 3378 
Q 2772 3750 2511 3984 
Q 2250 4219 1831 4219 
Q 1534 4219 1204 4116 
Q 875 4013 500 3803 
L 500 4441 
Q 881 4594 1212 4672 
Q 1544 4750 1819 4750 
Q 2544 4750 2975 4387 
Q 3406 4025 3406 3419 
Q 3406 3131 3298 2873 
Q 3191 2616 2906 2266 
Q 2828 2175 2409 1742 
Q 1991 1309 1228 531 
z
" transform="scale(0.015625)"/>
       </defs>
       <use xlink:href="#DejaVuSans-32"/>
       <use xlink:href="#DejaVuSans-30" transform="translate(63.623047 0)"/>
       <use xlink:href="#DejaVuSans-30" transform="translate(127.246094 0)"/>
      </g>
     </g>
    </g>
    <g id="xtick_4">
     <g id="line2d_7">
      <path d="M 420.33722 320.4 
L 420.33722 43.2 
" clip-path="url(#p45631c88ba)" style="fill: none; stroke: #b0b0b0; stroke-opacity: 0.5; stroke-width: 0.8; stroke-linecap: square"/>
     </g>
     <g id="line2d_8">
      <g>
       <use xlink:href="#m479ff206ab" x="420.33722" y="320.4" style="stroke: #000000; stroke-width: 0.8"/>
      </g>
     </g>
     <g id="text_4">
      <!-- 300 -->
      <g transform="translate(410.79347 334.998438) scale(0.1 -0.1)">
       <defs>
        <path id="DejaVuSans-33" d="M 2597 2516 
Q 3050 2419 3304 2112 
Q 3559 1806 3559 1356 
Q 3559 666 3084 287 
Q 2609 -91 1734 -91 
Q 1441 -91 1130 -33 
Q 819 25 488 141 
L 488 750 
Q 750 597 1062 519 
Q 1375 441 1716 441 
Q 2309 441 2620 675 
Q 2931 909 2931 1356 
Q 2931 1769 2642 2001 
Q 2353 2234 1838 2234 
L 1294 2234 
L 1294 2753 
L 1863 2753 
Q 2328 2753 2575 2939 
Q 2822 3125 2822 3475 
Q 2822 3834 2567 4026 
Q 2313 4219 1838 4219 
Q 1578 4219 1281 4162 
Q 984 4106 628 3988 
L 628 4550 
Q 988 4650 1302 4700 
Q 1616 4750 1894 4750 
Q 2613 4750 3031 4423 
Q 3450 4097 3450 3541 
Q 3450 3153 3228 2886 
Q 3006 2619 2597 2516 
z
" transform="scale(0.015625)"/>
       </defs>
       <use xlink:href="#DejaVuSans-33"/>
       <use xlink:href="#DejaVuSans-30" transform="translate(63.623047 0)"/>
       <use xlink:href="#DejaVuSans-30" transform="translate(127.246094 0)"/>
      </g>
     </g>
    </g>
    <g id="xtick_5">
     <g id="line2d_9">
      <path d="M 521.995081 320.4 
L 521.995081 43.2 
" clip-path="url(#p45631c88ba)" style="fill: none; stroke: #b0b0b0; stroke-opacity: 0.5; stroke-width: 0.8; stroke-linecap: square"/>
     </g>
     <g id="line2d_10">
      <g>
       <use xlink:href="#m479ff206ab" x="521.995081" y="320.4" style="stroke: #000000; stroke-width: 0.8"/>
      </g>
     </g>
     <g id="text_5">
      <!-- 400 -->
      <g transform="translate(512.451331 334.998438) scale(0.1 -0.1)">
       <defs>
        <path id="DejaVuSans-34" d="M 2419 4116 
L 825 1625 
L 2419 1625 
L 2419 4116 
z
M 2253 4666 
L 3047 4666 
L 3047 1625 
L 3713 1625 
L 3713 1100 
L 3047 1100 
L 3047 0 
L 2419 0 
L 2419 1100 
L 313 1100 
L 313 1709 
L 2253 4666 
z
" transform="scale(0.015625)"/>
       </defs>
       <use xlink:href="#DejaVuSans-34"/>
       <use xlink:href="#DejaVuSans-30" transform="translate(63.623047 0)"/>
       <use xlink:href="#DejaVuSans-30" transform="translate(127.246094 0)"/>
      </g>
     </g>
    </g>
    <g id="xtick_6">
     <g id="line2d_11">
      <path d="M 623.652942 320.4 
L 623.652942 43.2 
" clip-path="url(#p45631c88ba)" style="fill: none; stroke: #b0b0b0; stroke-opacity: 0.5; stroke-width: 0.8; stroke-linecap: square"/>
     </g>
     <g id="line2d_12">
      <g>
       <use xlink:href="#m479ff206ab" x="623.652942" y="320.4" style="stroke: #000000; stroke-width: 0.8"/>
      </g>
     </g>
     <g id="text_6">
      <!-- 500 -->
      <g transform="translate(614.109192 334.998438) scale(0.1 -0.1)">
       <defs>
        <path id="DejaVuSans-35" d="M 691 4666 
L 3169 4666 
L 3169 4134 
L 1269 4134 
L 1269 2991 
Q 1406 3038 1543 3061 
Q 1681 3084 1819 3084 
Q 2600 3084 3056 2656 
Q 3513 2228 3513 1497 
Q 3513 744 3044 326 
Q 2575 -91 1722 -91 
Q 1428 -91 1123 -41 
Q 819 9 494 109 
L 494 744 
Q 775 591 1075 516 
Q 1375 441 1709 441 
Q 2250 441 2565 725 
Q 2881 1009 2881 1497 
Q 2881 1984 2565 2268 
Q 2250 2553 1709 2553 
Q 1456 2553 1204 2497 
Q 953 2441 691 2322 
L 691 4666 
z
" transform="scale(0.015625)"/>
       </defs>
       <use xlink:href="#DejaVuSans-35"/>
       <use xlink:href="#DejaVuSans-30" transform="translate(63.623047 0)"/>
       <use xlink:href="#DejaVuSans-30" transform="translate(127.246094 0)"/>
      </g>
     </g>
    </g>
    <g id="text_7">
     <!-- Epochs -->
     <g transform="translate(351.084375 348.676562) scale(0.1 -0.1)">
      <defs>
       <path id="DejaVuSans-45" d="M 628 4666 
L 3578 4666 
L 3578 4134 
L 1259 4134 
L 1259 2753 
L 3481 2753 
L 3481 2222 
L 1259 2222 
L 1259 531 
L 3634 531 
L 3634 0 
L 628 0 
L 628 4666 
z
" transform="scale(0.015625)"/>
       <path id="DejaVuSans-70" d="M 1159 525 
L 1159 -1331 
L 581 -1331 
L 581 3500 
L 1159 3500 
L 1159 2969 
Q 1341 3281 1617 3432 
Q 1894 3584 2278 3584 
Q 2916 3584 3314 3078 
Q 3713 2572 3713 1747 
Q 3713 922 3314 415 
Q 2916 -91 2278 -91 
Q 1894 -91 1617 61 
Q 1341 213 1159 525 
z
M 3116 1747 
Q 3116 2381 2855 2742 
Q 2594 3103 2138 3103 
Q 1681 3103 1420 2742 
Q 1159 2381 1159 1747 
Q 1159 1113 1420 752 
Q 1681 391 2138 391 
Q 2594 391 2855 752 
Q 3116 1113 3116 1747 
z
" transform="scale(0.015625)"/>
       <path id="DejaVuSans-6f" d="M 1959 3097 
Q 1497 3097 1228 2736 
Q 959 2375 959 1747 
Q 959 1119 1226 758 
Q 1494 397 1959 397 
Q 2419 397 2687 759 
Q 2956 1122 2956 1747 
Q 2956 2369 2687 2733 
Q 2419 3097 1959 3097 
z
M 1959 3584 
Q 2709 3584 3137 3096 
Q 3566 2609 3566 1747 
Q 3566 888 3137 398 
Q 2709 -91 1959 -91 
Q 1206 -91 779 398 
Q 353 888 353 1747 
Q 353 2609 779 3096 
Q 1206 3584 1959 3584 
z
" transform="scale(0.015625)"/>
       <path id="DejaVuSans-63" d="M 3122 3366 
L 3122 2828 
Q 2878 2963 2633 3030 
Q 2388 3097 2138 3097 
Q 1578 3097 1268 2742 
Q 959 2388 959 1747 
Q 959 1106 1268 751 
Q 1578 397 2138 397 
Q 2388 397 2633 464 
Q 2878 531 3122 666 
L 3122 134 
Q 2881 22 2623 -34 
Q 2366 -91 2075 -91 
Q 1284 -91 818 406 
Q 353 903 353 1747 
Q 353 2603 823 3093 
Q 1294 3584 2113 3584 
Q 2378 3584 2631 3529 
Q 2884 3475 3122 3366 
z
" transform="scale(0.015625)"/>
       <path id="DejaVuSans-68" d="M 3513 2113 
L 3513 0 
L 2938 0 
L 2938 2094 
Q 2938 2591 2744 2837 
Q 2550 3084 2163 3084 
Q 1697 3084 1428 2787 
Q 1159 2491 1159 1978 
L 1159 0 
L 581 0 
L 581 4863 
L 1159 4863 
L 1159 2956 
Q 1366 3272 1645 3428 
Q 1925 3584 2291 3584 
Q 2894 3584 3203 3211 
Q 3513 2838 3513 2113 
z
" transform="scale(0.015625)"/>
       <path id="DejaVuSans-73" d="M 2834 3397 
L 2834 2853 
Q 2591 2978 2328 3040 
Q 2066 3103 1784 3103 
Q 1356 3103 1142 2972 
Q 928 2841 928 2578 
Q 928 2378 1081 2264 
Q 1234 2150 1697 2047 
L 1894 2003 
Q 2506 1872 2764 1633 
Q 3022 1394 3022 966 
Q 3022 478 2636 193 
Q 2250 -91 1575 -91 
Q 1294 -91 989 -36 
Q 684 19 347 128 
L 347 722 
Q 666 556 975 473 
Q 1284 391 1588 391 
Q 1994 391 2212 530 
Q 2431 669 2431 922 
Q 2431 1156 2273 1281 
Q 2116 1406 1581 1522 
L 1381 1569 
Q 847 1681 609 1914 
Q 372 2147 372 2553 
Q 372 3047 722 3315 
Q 1072 3584 1716 3584 
Q 2034 3584 2315 3537 
Q 2597 3491 2834 3397 
z
" transform="scale(0.015625)"/>
      </defs>
      <use xlink:href="#DejaVuSans-45"/>
      <use xlink:href="#DejaVuSans-70" transform="translate(63.183594 0)"/>
      <use xlink:href="#DejaVuSans-6f" transform="translate(126.660156 0)"/>
      <use xlink:href="#DejaVuSans-63" transform="translate(187.841797 0)"/>
      <use xlink:href="#DejaVuSans-68" transform="translate(242.822266 0)"/>
      <use xlink:href="#DejaVuSans-73" transform="translate(306.201172 0)"/>
     </g>
    </g>
   </g>
   <g id="matplotlib.axis_2">
    <g id="ytick_1">
     <g id="line2d_13">
      <path d="M 90 252.312353 
L 648 252.312353 
" clip-path="url(#p45631c88ba)" style="fill: none; stroke: #b0b0b0; stroke-opacity: 0.5; stroke-width: 0.8; stroke-linecap: square"/>
     </g>
     <g id="line2d_14">
      <defs>
       <path id="m7344767b5b" d="M 0 0 
L -3.5 0 
" style="stroke: #000000; stroke-width: 0.8"/>
      </defs>
      <g>
       <use xlink:href="#m7344767b5b" x="90" y="252.312353" style="stroke: #000000; stroke-width: 0.8"/>
      </g>
     </g>
     <g id="text_8">
      <!-- $\mathdefault{10^{-2}}$ -->
      <g transform="translate(59.5 256.111572) scale(0.1 -0.1)">
       <defs>
        <path id="DejaVuSans-2212" d="M 678 2272 
L 4684 2272 
L 4684 1741 
L 678 1741 
L 678 2272 
z
" transform="scale(0.015625)"/>
       </defs>
       <use xlink:href="#DejaVuSans-31" transform="translate(0 0.765625)"/>
       <use xlink:href="#DejaVuSans-30" transform="translate(63.623047 0.765625)"/>
       <use xlink:href="#DejaVuSans-2212" transform="translate(128.203125 39.046875) scale(0.7)"/>
       <use xlink:href="#DejaVuSans-32" transform="translate(186.855469 39.046875) scale(0.7)"/>
      </g>
     </g>
    </g>
    <g id="ytick_2">
     <g id="line2d_15">
      <path d="M 90 156.658069 
L 648 156.658069 
" clip-path="url(#p45631c88ba)" style="fill: none; stroke: #b0b0b0; stroke-opacity: 0.5; stroke-width: 0.8; stroke-linecap: square"/>
     </g>
     <g id="line2d_16">
      <g>
       <use xlink:href="#m7344767b5b" x="90" y="156.658069" style="stroke: #000000; stroke-width: 0.8"/>
      </g>
     </g>
     <g id="text_9">
      <!-- $\mathdefault{10^{-1}}$ -->
      <g transform="translate(59.5 160.457288) scale(0.1 -0.1)">
       <use xlink:href="#DejaVuSans-31" transform="translate(0 0.684375)"/>
       <use xlink:href="#DejaVuSans-30" transform="translate(63.623047 0.684375)"/>
       <use xlink:href="#DejaVuSans-2212" transform="translate(128.203125 38.965625) scale(0.7)"/>
       <use xlink:href="#DejaVuSans-31" transform="translate(186.855469 38.965625) scale(0.7)"/>
      </g>
     </g>
    </g>
    <g id="ytick_3">
     <g id="line2d_17">
      <path d="M 90 61.003786 
L 648 61.003786 
" clip-path="url(#p45631c88ba)" style="fill: none; stroke: #b0b0b0; stroke-opacity: 0.5; stroke-width: 0.8; stroke-linecap: square"/>
     </g>
     <g id="line2d_18">
      <g>
       <use xlink:href="#m7344767b5b" x="90" y="61.003786" style="stroke: #000000; stroke-width: 0.8"/>
      </g>
     </g>
     <g id="text_10">
      <!-- $\mathdefault{10^{0}}$ -->
      <g transform="translate(65.4 64.803004) scale(0.1 -0.1)">
       <use xlink:href="#DejaVuSans-31" transform="translate(0 0.765625)"/>
       <use xlink:href="#DejaVuSans-30" transform="translate(63.623047 0.765625)"/>
       <use xlink:href="#DejaVuSans-30" transform="translate(128.203125 39.046875) scale(0.7)"/>
      </g>
     </g>
    </g>
    <g id="ytick_4">
     <g id="line2d_19">
      <path d="M 90 319.171828 
L 648 319.171828 
" clip-path="url(#p45631c88ba)" style="fill: none; stroke: #b0b0b0; stroke-opacity: 0.5; stroke-width: 0.8; stroke-linecap: square"/>
     </g>
     <g id="line2d_20">
      <defs>
       <path id="mbec7aab314" d="M 0 0 
L -2 0 
" style="stroke: #000000; stroke-width: 0.6"/>
      </defs>
      <g>
       <use xlink:href="#mbec7aab314" x="90" y="319.171828" style="stroke: #000000; stroke-width: 0.6"/>
      </g>
     </g>
    </g>
    <g id="ytick_5">
     <g id="line2d_21">
      <path d="M 90 302.327945 
L 648 302.327945 
" clip-path="url(#p45631c88ba)" style="fill: none; stroke: #b0b0b0; stroke-opacity: 0.5; stroke-width: 0.8; stroke-linecap: square"/>
     </g>
     <g id="line2d_22">
      <g>
       <use xlink:href="#mbec7aab314" x="90" y="302.327945" style="stroke: #000000; stroke-width: 0.6"/>
      </g>
     </g>
    </g>
    <g id="ytick_6">
     <g id="line2d_23">
      <path d="M 90 290.377019 
L 648 290.377019 
" clip-path="url(#p45631c88ba)" style="fill: none; stroke: #b0b0b0; stroke-opacity: 0.5; stroke-width: 0.8; stroke-linecap: square"/>
     </g>
     <g id="line2d_24">
      <g>
       <use xlink:href="#mbec7aab314" x="90" y="290.377019" style="stroke: #000000; stroke-width: 0.6"/>
      </g>
     </g>
    </g>
    <g id="ytick_7">
     <g id="line2d_25">
      <path d="M 90 281.107161 
L 648 281.107161 
" clip-path="url(#p45631c88ba)" style="fill: none; stroke: #b0b0b0; stroke-opacity: 0.5; stroke-width: 0.8; stroke-linecap: square"/>
     </g>
     <g id="line2d_26">
      <g>
       <use xlink:href="#mbec7aab314" x="90" y="281.107161" style="stroke: #000000; stroke-width: 0.6"/>
      </g>
     </g>
    </g>
    <g id="ytick_8">
     <g id="line2d_27">
      <path d="M 90 273.533136 
L 648 273.533136 
" clip-path="url(#p45631c88ba)" style="fill: none; stroke: #b0b0b0; stroke-opacity: 0.5; stroke-width: 0.8; stroke-linecap: square"/>
     </g>
     <g id="line2d_28">
      <g>
       <use xlink:href="#mbec7aab314" x="90" y="273.533136" style="stroke: #000000; stroke-width: 0.6"/>
      </g>
     </g>
    </g>
    <g id="ytick_9">
     <g id="line2d_29">
      <path d="M 90 267.129389 
L 648 267.129389 
" clip-path="url(#p45631c88ba)" style="fill: none; stroke: #b0b0b0; stroke-opacity: 0.5; stroke-width: 0.8; stroke-linecap: square"/>
     </g>
     <g id="line2d_30">
      <g>
       <use xlink:href="#mbec7aab314" x="90" y="267.129389" style="stroke: #000000; stroke-width: 0.6"/>
      </g>
     </g>
    </g>
    <g id="ytick_10">
     <g id="line2d_31">
      <path d="M 90 261.582211 
L 648 261.582211 
" clip-path="url(#p45631c88ba)" style="fill: none; stroke: #b0b0b0; stroke-opacity: 0.5; stroke-width: 0.8; stroke-linecap: square"/>
     </g>
     <g id="line2d_32">
      <g>
       <use xlink:href="#mbec7aab314" x="90" y="261.582211" style="stroke: #000000; stroke-width: 0.6"/>
      </g>
     </g>
    </g>
    <g id="ytick_11">
     <g id="line2d_33">
      <path d="M 90 256.689253 
L 648 256.689253 
" clip-path="url(#p45631c88ba)" style="fill: none; stroke: #b0b0b0; stroke-opacity: 0.5; stroke-width: 0.8; stroke-linecap: square"/>
     </g>
     <g id="line2d_34">
      <g>
       <use xlink:href="#mbec7aab314" x="90" y="256.689253" style="stroke: #000000; stroke-width: 0.6"/>
      </g>
     </g>
    </g>
    <g id="ytick_12">
     <g id="line2d_35">
      <path d="M 90 223.517544 
L 648 223.517544 
" clip-path="url(#p45631c88ba)" style="fill: none; stroke: #b0b0b0; stroke-opacity: 0.5; stroke-width: 0.8; stroke-linecap: square"/>
     </g>
     <g id="line2d_36">
      <g>
       <use xlink:href="#mbec7aab314" x="90" y="223.517544" style="stroke: #000000; stroke-width: 0.6"/>
      </g>
     </g>
    </g>
    <g id="ytick_13">
     <g id="line2d_37">
      <path d="M 90 206.673661 
L 648 206.673661 
" clip-path="url(#p45631c88ba)" style="fill: none; stroke: #b0b0b0; stroke-opacity: 0.5; stroke-width: 0.8; stroke-linecap: square"/>
     </g>
     <g id="line2d_38">
      <g>
       <use xlink:href="#mbec7aab314" x="90" y="206.673661" style="stroke: #000000; stroke-width: 0.6"/>
      </g>
     </g>
    </g>
    <g id="ytick_14">
     <g id="line2d_39">
      <path d="M 90 194.722736 
L 648 194.722736 
" clip-path="url(#p45631c88ba)" style="fill: none; stroke: #b0b0b0; stroke-opacity: 0.5; stroke-width: 0.8; stroke-linecap: square"/>
     </g>
     <g id="line2d_40">
      <g>
       <use xlink:href="#mbec7aab314" x="90" y="194.722736" style="stroke: #000000; stroke-width: 0.6"/>
      </g>
     </g>
    </g>
    <g id="ytick_15">
     <g id="line2d_41">
      <path d="M 90 185.452878 
L 648 185.452878 
" clip-path="url(#p45631c88ba)" style="fill: none; stroke: #b0b0b0; stroke-opacity: 0.5; stroke-width: 0.8; stroke-linecap: square"/>
     </g>
     <g id="line2d_42">
      <g>
       <use xlink:href="#mbec7aab314" x="90" y="185.452878" style="stroke: #000000; stroke-width: 0.6"/>
      </g>
     </g>
    </g>
    <g id="ytick_16">
     <g id="line2d_43">
      <path d="M 90 177.878852 
L 648 177.878852 
" clip-path="url(#p45631c88ba)" style="fill: none; stroke: #b0b0b0; stroke-opacity: 0.5; stroke-width: 0.8; stroke-linecap: square"/>
     </g>
     <g id="line2d_44">
      <g>
       <use xlink:href="#mbec7aab314" x="90" y="177.878852" style="stroke: #000000; stroke-width: 0.6"/>
      </g>
     </g>
    </g>
    <g id="ytick_17">
     <g id="line2d_45">
      <path d="M 90 171.475105 
L 648 171.475105 
" clip-path="url(#p45631c88ba)" style="fill: none; stroke: #b0b0b0; stroke-opacity: 0.5; stroke-width: 0.8; stroke-linecap: square"/>
     </g>
     <g id="line2d_46">
      <g>
       <use xlink:href="#mbec7aab314" x="90" y="171.475105" style="stroke: #000000; stroke-width: 0.6"/>
      </g>
     </g>
    </g>
    <g id="ytick_18">
     <g id="line2d_47">
      <path d="M 90 165.927927 
L 648 165.927927 
" clip-path="url(#p45631c88ba)" style="fill: none; stroke: #b0b0b0; stroke-opacity: 0.5; stroke-width: 0.8; stroke-linecap: square"/>
     </g>
     <g id="line2d_48">
      <g>
       <use xlink:href="#mbec7aab314" x="90" y="165.927927" style="stroke: #000000; stroke-width: 0.6"/>
      </g>
     </g>
    </g>
    <g id="ytick_19">
     <g id="line2d_49">
      <path d="M 90 161.034969 
L 648 161.034969 
" clip-path="url(#p45631c88ba)" style="fill: none; stroke: #b0b0b0; stroke-opacity: 0.5; stroke-width: 0.8; stroke-linecap: square"/>
     </g>
     <g id="line2d_50">
      <g>
       <use xlink:href="#mbec7aab314" x="90" y="161.034969" style="stroke: #000000; stroke-width: 0.6"/>
      </g>
     </g>
    </g>
    <g id="ytick_20">
     <g id="line2d_51">
      <path d="M 90 127.863261 
L 648 127.863261 
" clip-path="url(#p45631c88ba)" style="fill: none; stroke: #b0b0b0; stroke-opacity: 0.5; stroke-width: 0.8; stroke-linecap: square"/>
     </g>
     <g id="line2d_52">
      <g>
       <use xlink:href="#mbec7aab314" x="90" y="127.863261" style="stroke: #000000; stroke-width: 0.6"/>
      </g>
     </g>
    </g>
    <g id="ytick_21">
     <g id="line2d_53">
      <path d="M 90 111.019377 
L 648 111.019377 
" clip-path="url(#p45631c88ba)" style="fill: none; stroke: #b0b0b0; stroke-opacity: 0.5; stroke-width: 0.8; stroke-linecap: square"/>
     </g>
     <g id="line2d_54">
      <g>
       <use xlink:href="#mbec7aab314" x="90" y="111.019377" style="stroke: #000000; stroke-width: 0.6"/>
      </g>
     </g>
    </g>
    <g id="ytick_22">
     <g id="line2d_55">
      <path d="M 90 99.068452 
L 648 99.068452 
" clip-path="url(#p45631c88ba)" style="fill: none; stroke: #b0b0b0; stroke-opacity: 0.5; stroke-width: 0.8; stroke-linecap: square"/>
     </g>
     <g id="line2d_56">
      <g>
       <use xlink:href="#mbec7aab314" x="90" y="99.068452" style="stroke: #000000; stroke-width: 0.6"/>
      </g>
     </g>
    </g>
    <g id="ytick_23">
     <g id="line2d_57">
      <path d="M 90 89.798594 
L 648 89.798594 
" clip-path="url(#p45631c88ba)" style="fill: none; stroke: #b0b0b0; stroke-opacity: 0.5; stroke-width: 0.8; stroke-linecap: square"/>
     </g>
     <g id="line2d_58">
      <g>
       <use xlink:href="#mbec7aab314" x="90" y="89.798594" style="stroke: #000000; stroke-width: 0.6"/>
      </g>
     </g>
    </g>
    <g id="ytick_24">
     <g id="line2d_59">
      <path d="M 90 82.224569 
L 648 82.224569 
" clip-path="url(#p45631c88ba)" style="fill: none; stroke: #b0b0b0; stroke-opacity: 0.5; stroke-width: 0.8; stroke-linecap: square"/>
     </g>
     <g id="line2d_60">
      <g>
       <use xlink:href="#mbec7aab314" x="90" y="82.224569" style="stroke: #000000; stroke-width: 0.6"/>
      </g>
     </g>
    </g>
    <g id="ytick_25">
     <g id="line2d_61">
      <path d="M 90 75.820822 
L 648 75.820822 
" clip-path="url(#p45631c88ba)" style="fill: none; stroke: #b0b0b0; stroke-opacity: 0.5; stroke-width: 0.8; stroke-linecap: square"/>
     </g>
     <g id="line2d_62">
      <g>
       <use xlink:href="#mbec7aab314" x="90" y="75.820822" style="stroke: #000000; stroke-width: 0.6"/>
      </g>
     </g>
    </g>
    <g id="ytick_26">
     <g id="line2d_63">
      <path d="M 90 70.273643 
L 648 70.273643 
" clip-path="url(#p45631c88ba)" style="fill: none; stroke: #b0b0b0; stroke-opacity: 0.5; stroke-width: 0.8; stroke-linecap: square"/>
     </g>
     <g id="line2d_64">
      <g>
       <use xlink:href="#mbec7aab314" x="90" y="70.273643" style="stroke: #000000; stroke-width: 0.6"/>
      </g>
     </g>
    </g>
    <g id="ytick_27">
     <g id="line2d_65">
      <path d="M 90 65.380686 
L 648 65.380686 
" clip-path="url(#p45631c88ba)" style="fill: none; stroke: #b0b0b0; stroke-opacity: 0.5; stroke-width: 0.8; stroke-linecap: square"/>
     </g>
     <g id="line2d_66">
      <g>
       <use xlink:href="#mbec7aab314" x="90" y="65.380686" style="stroke: #000000; stroke-width: 0.6"/>
      </g>
     </g>
    </g>
    <g id="text_11">
     <!-- Velocity MSE Loss (Log Scale) -->
     <g transform="translate(53.420312 255.673437) rotate(-90) scale(0.1 -0.1)">
      <defs>
       <path id="DejaVuSans-56" d="M 1831 0 
L 50 4666 
L 709 4666 
L 2188 738 
L 3669 4666 
L 4325 4666 
L 2547 0 
L 1831 0 
z
" transform="scale(0.015625)"/>
       <path id="DejaVuSans-65" d="M 3597 1894 
L 3597 1613 
L 953 1613 
Q 991 1019 1311 708 
Q 1631 397 2203 397 
Q 2534 397 2845 478 
Q 3156 559 3463 722 
L 3463 178 
Q 3153 47 2828 -22 
Q 2503 -91 2169 -91 
Q 1331 -91 842 396 
Q 353 884 353 1716 
Q 353 2575 817 3079 
Q 1281 3584 2069 3584 
Q 2775 3584 3186 3129 
Q 3597 2675 3597 1894 
z
M 3022 2063 
Q 3016 2534 2758 2815 
Q 2500 3097 2075 3097 
Q 1594 3097 1305 2825 
Q 1016 2553 972 2059 
L 3022 2063 
z
" transform="scale(0.015625)"/>
       <path id="DejaVuSans-6c" d="M 603 4863 
L 1178 4863 
L 1178 0 
L 603 0 
L 603 4863 
z
" transform="scale(0.015625)"/>
       <path id="DejaVuSans-69" d="M 603 3500 
L 1178 3500 
L 1178 0 
L 603 0 
L 603 3500 
z
M 603 4863 
L 1178 4863 
L 1178 4134 
L 603 4134 
L 603 4863 
z
" transform="scale(0.015625)"/>
       <path id="DejaVuSans-74" d="M 1172 4494 
L 1172 3500 
L 2356 3500 
L 2356 3053 
L 1172 3053 
L 1172 1153 
Q 1172 725 1289 603 
Q 1406 481 1766 481 
L 2356 481 
L 2356 0 
L 1766 0 
Q 1100 0 847 248 
Q 594 497 594 1153 
L 594 3053 
L 172 3053 
L 172 3500 
L 594 3500 
L 594 4494 
L 1172 4494 
z
" transform="scale(0.015625)"/>
       <path id="DejaVuSans-79" d="M 2059 -325 
Q 1816 -950 1584 -1140 
Q 1353 -1331 966 -1331 
L 506 -1331 
L 506 -850 
L 844 -850 
Q 1081 -850 1212 -737 
Q 1344 -625 1503 -206 
L 1606 56 
L 191 3500 
L 800 3500 
L 1894 763 
L 2988 3500 
L 3597 3500 
L 2059 -325 
z
" transform="scale(0.015625)"/>
       <path id="DejaVuSans-20" transform="scale(0.015625)"/>
       <path id="DejaVuSans-4d" d="M 628 4666 
L 1569 4666 
L 2759 1491 
L 3956 4666 
L 4897 4666 
L 4897 0 
L 4281 0 
L 4281 4097 
L 3078 897 
L 2444 897 
L 1241 4097 
L 1241 0 
L 628 0 
L 628 4666 
z
" transform="scale(0.015625)"/>
       <path id="DejaVuSans-53" d="M 3425 4513 
L 3425 3897 
Q 3066 4069 2747 4153 
Q 2428 4238 2131 4238 
Q 1616 4238 1336 4038 
Q 1056 3838 1056 3469 
Q 1056 3159 1242 3001 
Q 1428 2844 1947 2747 
L 2328 2669 
Q 3034 2534 3370 2195 
Q 3706 1856 3706 1288 
Q 3706 609 3251 259 
Q 2797 -91 1919 -91 
Q 1588 -91 1214 -16 
Q 841 59 441 206 
L 441 856 
Q 825 641 1194 531 
Q 1563 422 1919 422 
Q 2459 422 2753 634 
Q 3047 847 3047 1241 
Q 3047 1584 2836 1778 
Q 2625 1972 2144 2069 
L 1759 2144 
Q 1053 2284 737 2584 
Q 422 2884 422 3419 
Q 422 4038 858 4394 
Q 1294 4750 2059 4750 
Q 2388 4750 2728 4690 
Q 3069 4631 3425 4513 
z
" transform="scale(0.015625)"/>
       <path id="DejaVuSans-4c" d="M 628 4666 
L 1259 4666 
L 1259 531 
L 3531 531 
L 3531 0 
L 628 0 
L 628 4666 
z
" transform="scale(0.015625)"/>
       <path id="DejaVuSans-28" d="M 1984 4856 
Q 1566 4138 1362 3434 
Q 1159 2731 1159 2009 
Q 1159 1288 1364 580 
Q 1569 -128 1984 -844 
L 1484 -844 
Q 1016 -109 783 600 
Q 550 1309 550 2009 
Q 550 2706 781 3412 
Q 1013 4119 1484 4856 
L 1984 4856 
z
" transform="scale(0.015625)"/>
       <path id="DejaVuSans-67" d="M 2906 1791 
Q 2906 2416 2648 2759 
Q 2391 3103 1925 3103 
Q 1463 3103 1205 2759 
Q 947 2416 947 1791 
Q 947 1169 1205 825 
Q 1463 481 1925 481 
Q 2391 481 2648 825 
Q 2906 1169 2906 1791 
z
M 3481 434 
Q 3481 -459 3084 -895 
Q 2688 -1331 1869 -1331 
Q 1566 -1331 1297 -1286 
Q 1028 -1241 775 -1147 
L 775 -588 
Q 1028 -725 1275 -790 
Q 1522 -856 1778 -856 
Q 2344 -856 2625 -561 
Q 2906 -266 2906 331 
L 2906 616 
Q 2728 306 2450 153 
Q 2172 0 1784 0 
Q 1141 0 747 490 
Q 353 981 353 1791 
Q 353 2603 747 3093 
Q 1141 3584 1784 3584 
Q 2172 3584 2450 3431 
Q 2728 3278 2906 2969 
L 2906 3500 
L 3481 3500 
L 3481 434 
z
" transform="scale(0.015625)"/>
       <path id="DejaVuSans-61" d="M 2194 1759 
Q 1497 1759 1228 1600 
Q 959 1441 959 1056 
Q 959 750 1161 570 
Q 1363 391 1709 391 
Q 2188 391 2477 730 
Q 2766 1069 2766 1631 
L 2766 1759 
L 2194 1759 
z
M 3341 1997 
L 3341 0 
L 2766 0 
L 2766 531 
Q 2569 213 2275 61 
Q 1981 -91 1556 -91 
Q 1019 -91 701 211 
Q 384 513 384 1019 
Q 384 1609 779 1909 
Q 1175 2209 1959 2209 
L 2766 2209 
L 2766 2266 
Q 2766 2663 2505 2880 
Q 2244 3097 1772 3097 
Q 1472 3097 1187 3025 
Q 903 2953 641 2809 
L 641 3341 
Q 956 3463 1253 3523 
Q 1550 3584 1831 3584 
Q 2591 3584 2966 3190 
Q 3341 2797 3341 1997 
z
" transform="scale(0.015625)"/>
       <path id="DejaVuSans-29" d="M 513 4856 
L 1013 4856 
Q 1481 4119 1714 3412 
Q 1947 2706 1947 2009 
Q 1947 1309 1714 600 
Q 1481 -109 1013 -844 
L 513 -844 
Q 928 -128 1133 580 
Q 1338 1288 1338 2009 
Q 1338 2731 1133 3434 
Q 928 4138 513 4856 
z
" transform="scale(0.015625)"/>
      </defs>
      <use xlink:href="#DejaVuSans-56"/>
      <use xlink:href="#DejaVuSans-65" transform="translate(60.658203 0)"/>
      <use xlink:href="#DejaVuSans-6c" transform="translate(122.181641 0)"/>
      <use xlink:href="#DejaVuSans-6f" transform="translate(149.964844 0)"/>
      <use xlink:href="#DejaVuSans-63" transform="translate(211.146484 0)"/>
      <use xlink:href="#DejaVuSans-69" transform="translate(266.126953 0)"/>
      <use xlink:href="#DejaVuSans-74" transform="translate(293.910156 0)"/>
      <use xlink:href="#DejaVuSans-79" transform="translate(333.119141 0)"/>
      <use xlink:href="#DejaVuSans-20" transform="translate(392.298828 0)"/>
      <use xlink:href="#DejaVuSans-4d" transform="translate(424.085938 0)"/>
      <use xlink:href="#DejaVuSans-53" transform="translate(510.365234 0)"/>
      <use xlink:href="#DejaVuSans-45" transform="translate(573.841797 0)"/>
      <use xlink:href="#DejaVuSans-20" transform="translate(637.025391 0)"/>
      <use xlink:href="#DejaVuSans-4c" transform="translate(668.8125 0)"/>
      <use xlink:href="#DejaVuSans-6f" transform="translate(722.775391 0)"/>
      <use xlink:href="#DejaVuSans-73" transform="translate(783.957031 0)"/>
      <use xlink:href="#DejaVuSans-73" transform="translate(836.056641 0)"/>
      <use xlink:href="#DejaVuSans-20" transform="translate(888.15625 0)"/>
      <use xlink:href="#DejaVuSans-28" transform="translate(919.943359 0)"/>
      <use xlink:href="#DejaVuSans-4c" transform="translate(958.957031 0)"/>
      <use xlink:href="#DejaVuSans-6f" transform="translate(1012.919922 0)"/>
      <use xlink:href="#DejaVuSans-67" transform="translate(1074.101562 0)"/>
      <use xlink:href="#DejaVuSans-20" transform="translate(1137.578125 0)"/>
      <use xlink:href="#DejaVuSans-53" transform="translate(1169.365234 0)"/>
      <use xlink:href="#DejaVuSans-63" transform="translate(1232.841797 0)"/>
      <use xlink:href="#DejaVuSans-61" transform="translate(1287.822266 0)"/>
      <use xlink:href="#DejaVuSans-6c" transform="translate(1349.101562 0)"/>
      <use xlink:href="#DejaVuSans-65" transform="translate(1376.884766 0)"/>
      <use xlink:href="#DejaVuSans-29" transform="translate(1438.408203 0)"/>
     </g>
    </g>
   </g>
   <g id="line2d_67">
    <path d="M 115.363636 55.8 
L 116.380215 67.074493 
L 117.396794 95.614539 
L 118.413372 116.510988 
L 119.429951 130.458207 
L 120.446529 142.674023 
L 121.463108 149.292848 
L 122.479687 154.746075 
L 123.496265 161.432875 
L 124.512844 164.983014 
L 125.529422 169.492359 
L 127.56258 181.533048 
L 128.579158 180.135853 
L 129.595737 183.295115 
L 130.612316 185.565124 
L 132.645473 187.978692 
L 133.662051 192.762351 
L 134.67863 191.718499 
L 135.695209 194.97319 
L 136.711787 198.704086 
L 137.728366 195.491089 
L 138.744944 202.037542 
L 139.761523 195.019285 
L 140.778102 200.930832 
L 141.79468 200.185318 
L 143.827837 203.104356 
L 144.844416 203.470622 
L 145.860995 206.085272 
L 146.877573 206.412019 
L 147.894152 209.082835 
L 148.910731 205.793013 
L 149.927309 207.416873 
L 150.943888 213.08989 
L 151.960466 210.871739 
L 152.977045 211.258441 
L 153.993624 212.913539 
L 155.010202 210.98164 
L 156.026781 213.436995 
L 157.043359 210.812422 
L 158.059938 215.609088 
L 159.076517 218.057761 
L 160.093095 214.173656 
L 161.109674 218.757886 
L 162.126253 216.356873 
L 163.142831 215.475738 
L 164.15941 219.110021 
L 165.175988 215.348908 
L 166.192567 216.085344 
L 167.209146 217.919246 
L 168.225724 215.509455 
L 169.242303 220.424133 
L 170.258881 216.955723 
L 171.27546 216.107381 
L 172.292039 221.087116 
L 173.308617 224.481605 
L 174.325196 224.323621 
L 175.341774 225.024133 
L 176.358353 222.382679 
L 177.374932 223.50208 
L 178.39151 226.425349 
L 179.408089 225.104004 
L 180.424668 227.017892 
L 181.441246 224.491308 
L 182.457825 224.781095 
L 183.474403 226.712984 
L 184.490982 226.460765 
L 185.507561 226.359735 
L 186.524139 223.585457 
L 187.540718 229.33588 
L 188.557296 228.707741 
L 189.573875 230.553238 
L 190.590454 223.675362 
L 191.607032 223.159355 
L 192.623611 230.952818 
L 193.640189 227.892881 
L 194.656768 228.406066 
L 195.673347 225.019456 
L 196.689925 230.081304 
L 197.706504 228.962305 
L 198.723083 229.795317 
L 199.739661 226.083341 
L 200.75624 229.965411 
L 201.772818 227.071254 
L 202.789397 232.511262 
L 203.805976 233.148118 
L 204.822554 229.580691 
L 205.839133 233.598354 
L 206.855711 226.490069 
L 207.87229 231.903091 
L 208.888869 235.393715 
L 209.905447 232.229469 
L 210.922026 234.59672 
L 211.938604 231.952305 
L 212.955183 235.536142 
L 213.971762 226.821356 
L 214.98834 235.138597 
L 216.004919 233.925138 
L 217.021498 233.676095 
L 218.038076 230.956712 
L 219.054655 237.366306 
L 220.071233 232.905131 
L 221.087812 233.187331 
L 222.104391 232.748383 
L 223.120969 234.471111 
L 225.154126 233.740321 
L 226.170705 238.136598 
L 227.187284 231.82667 
L 228.203862 233.25044 
L 229.220441 240.080453 
L 230.237019 237.074094 
L 231.253598 231.275193 
L 232.270177 239.845897 
L 233.286755 238.285143 
L 234.303334 234.12961 
L 235.319913 239.651067 
L 236.336491 241.762248 
L 237.35307 237.608164 
L 238.369648 236.676643 
L 239.386227 239.134655 
L 240.402806 242.324061 
L 241.419384 238.910826 
L 242.435963 239.022143 
L 243.452541 238.667284 
L 244.46912 237.712997 
L 245.485699 242.155678 
L 246.502277 238.022501 
L 247.518856 238.340336 
L 248.535435 236.5529 
L 249.552013 241.567005 
L 250.568592 244.083119 
L 251.58517 245.191232 
L 252.601749 243.836458 
L 253.618328 242.852061 
L 254.634906 238.195444 
L 255.651485 239.570638 
L 256.668063 242.959062 
L 257.684642 241.164263 
L 258.701221 245.732701 
L 259.717799 236.917176 
L 260.734378 242.618688 
L 261.750956 246.992142 
L 262.767535 242.859319 
L 263.784114 240.479162 
L 264.800692 241.478836 
L 265.817271 245.606952 
L 266.83385 239.502458 
L 267.850428 242.322524 
L 268.867007 247.001163 
L 269.883585 241.932568 
L 270.900164 241.494809 
L 271.916743 245.692826 
L 272.933321 247.647701 
L 273.9499 247.864748 
L 274.966478 242.948044 
L 275.983057 249.9263 
L 276.999636 240.972831 
L 278.016214 246.209676 
L 279.032793 243.044427 
L 280.049371 241.6317 
L 281.06595 244.007546 
L 282.082529 239.574493 
L 283.099107 247.476495 
L 284.115686 242.250777 
L 285.132265 242.519165 
L 286.148843 249.219129 
L 287.165422 245.635251 
L 288.182 243.908738 
L 289.198579 248.754146 
L 290.215158 242.857734 
L 291.231736 245.670819 
L 292.248315 245.223125 
L 293.264893 246.737669 
L 294.281472 241.93809 
L 295.298051 246.794671 
L 296.314629 250.69444 
L 297.331208 250.314903 
L 298.347786 248.003475 
L 299.364365 246.954015 
L 300.380944 246.111125 
L 301.397522 246.889184 
L 302.414101 249.469001 
L 303.43068 252.63734 
L 304.447258 245.091357 
L 305.463837 250.525025 
L 306.480415 249.449972 
L 307.496994 247.482905 
L 308.513573 247.951257 
L 309.530151 249.823403 
L 310.54673 252.587519 
L 311.563308 242.883811 
L 312.579887 251.80714 
L 313.596466 252.382996 
L 314.613044 252.398136 
L 315.629623 251.196645 
L 316.646201 251.478346 
L 317.66278 252.035868 
L 318.679359 249.655004 
L 319.695937 245.650066 
L 320.712516 249.69577 
L 321.729095 249.97323 
L 322.745673 251.757797 
L 323.762252 245.799151 
L 324.77883 251.694242 
L 325.795409 245.187389 
L 326.811988 253.597443 
L 327.828566 252.897778 
L 328.845145 259.676381 
L 329.861723 255.855498 
L 330.878302 251.333719 
L 331.894881 250.031004 
L 332.911459 248.980689 
L 333.928038 254.854673 
L 334.944617 251.052898 
L 335.961195 258.843741 
L 336.977774 257.230137 
L 337.994352 257.695946 
L 339.010931 257.504661 
L 340.02751 249.25946 
L 341.044088 257.000701 
L 342.060667 247.596075 
L 343.077245 251.947346 
L 344.093824 252.104136 
L 345.110403 251.516103 
L 346.126981 260.774953 
L 347.14356 257.26128 
L 348.160138 255.976643 
L 349.176717 253.449872 
L 350.193296 256.679017 
L 351.209874 255.746247 
L 352.226453 257.185089 
L 353.243032 253.100931 
L 354.25961 252.965895 
L 355.276189 255.930759 
L 356.292767 254.015982 
L 357.309346 256.135204 
L 358.325925 256.705965 
L 359.342503 256.182029 
L 360.359082 260.084554 
L 361.37566 257.527472 
L 362.392239 261.175404 
L 363.408818 261.020317 
L 364.425396 259.685673 
L 365.441975 255.801349 
L 366.458553 255.678889 
L 367.475132 257.192992 
L 368.491711 257.294553 
L 369.508289 263.576253 
L 370.524868 257.96709 
L 371.541447 259.036906 
L 372.558025 263.344189 
L 373.574604 261.289128 
L 374.591182 255.881339 
L 376.62434 259.250399 
L 377.640918 266.239597 
L 378.657497 262.013305 
L 379.674075 261.856112 
L 380.690654 263.172798 
L 381.707233 261.994441 
L 382.723811 258.804385 
L 383.74039 257.834388 
L 384.756968 260.363858 
L 385.773547 260.72043 
L 386.790126 258.766116 
L 387.806704 266.270144 
L 388.823283 259.951155 
L 389.839862 266.295737 
L 390.85644 262.590106 
L 391.873019 261.619418 
L 392.889597 260.137189 
L 393.906176 263.311979 
L 394.922755 261.603422 
L 395.939333 260.596382 
L 396.955912 267.10044 
L 397.97249 262.011374 
L 398.989069 264.087492 
L 400.005648 270.502057 
L 401.022226 263.315257 
L 402.038805 270.436065 
L 403.055383 261.379037 
L 404.071962 262.502911 
L 405.088541 260.661637 
L 406.105119 262.396954 
L 407.121698 261.958259 
L 408.138277 260.561442 
L 409.154855 266.906394 
L 410.171434 266.321674 
L 412.204591 260.205796 
L 413.22117 266.302372 
L 414.237748 257.800864 
L 415.254327 265.163927 
L 416.270905 265.241118 
L 417.287484 258.0199 
L 418.304063 266.032007 
L 419.320641 272.100825 
L 420.33722 268.887242 
L 421.353799 268.418336 
L 422.370377 269.311245 
L 423.386956 271.616574 
L 424.403534 268.042583 
L 425.420113 268.222171 
L 426.436692 268.549141 
L 427.45327 260.986602 
L 428.469849 265.852995 
L 429.486427 272.311818 
L 430.503006 266.330028 
L 431.519585 262.730618 
L 432.536163 267.730442 
L 433.552742 268.875176 
L 434.56932 271.390101 
L 435.585899 270.99389 
L 436.602478 268.971358 
L 437.619056 278.79746 
L 438.635635 267.590705 
L 439.652214 275.790983 
L 440.668792 270.514217 
L 441.685371 277.634466 
L 442.701949 266.406952 
L 443.718528 274.257785 
L 444.735107 266.900853 
L 445.751685 269.010238 
L 446.768264 268.476328 
L 448.801421 276.264187 
L 449.818 273.495361 
L 450.834578 266.073192 
L 451.851157 267.44166 
L 452.867735 275.455402 
L 453.884314 276.728484 
L 454.900893 271.875898 
L 455.917471 269.852989 
L 456.93405 276.937058 
L 457.950629 279.554206 
L 458.967207 271.965364 
L 459.983786 274.001492 
L 461.000364 280.058631 
L 462.016943 271.939929 
L 463.033522 273.177974 
L 464.0501 270.826187 
L 465.066679 273.800559 
L 466.083257 274.116281 
L 467.099836 275.050873 
L 468.116415 271.096684 
L 469.132993 277.706254 
L 470.149572 270.928676 
L 471.16615 282.708352 
L 472.182729 278.748056 
L 473.199308 271.20406 
L 474.215886 283.919864 
L 475.232465 273.082059 
L 476.249044 276.857053 
L 477.265622 276.895777 
L 478.282201 280.308987 
L 479.298779 275.897461 
L 480.315358 284.716058 
L 481.331937 274.299455 
L 482.348515 283.587868 
L 483.365094 277.714193 
L 484.381672 277.989858 
L 485.398251 277.651369 
L 486.41483 278.03523 
L 487.431408 284.980461 
L 488.447987 275.304624 
L 489.464565 276.181615 
L 490.481144 275.68122 
L 491.497723 274.954728 
L 492.514301 278.903288 
L 493.53088 282.22177 
L 494.547459 276.999848 
L 495.564037 277.794742 
L 496.580616 282.910501 
L 497.597194 286.474384 
L 498.613773 280.180858 
L 499.630352 279.479953 
L 500.64693 285.18438 
L 501.663509 275.849321 
L 502.680087 286.553319 
L 503.696666 284.839371 
L 504.713245 282.645954 
L 505.729823 283.586348 
L 506.746402 282.030821 
L 507.762981 286.171178 
L 508.779559 280.128489 
L 509.796138 278.553492 
L 510.812716 285.43368 
L 511.829295 276.404657 
L 512.845874 281.228347 
L 513.862452 283.398921 
L 514.879031 289.2005 
L 515.895609 281.989289 
L 516.912188 286.124023 
L 517.928767 278.021108 
L 518.945345 286.972669 
L 519.961924 286.441406 
L 520.978502 290.294694 
L 521.995081 285.948341 
L 523.01166 278.003337 
L 524.028238 288.266867 
L 525.044817 290.361685 
L 526.061396 285.745623 
L 527.077974 284.805017 
L 528.094553 285.242642 
L 529.111131 280.497349 
L 530.12771 287.811561 
L 531.144289 289.71249 
L 532.160867 290.570566 
L 534.194024 287.83371 
L 535.210603 287.728487 
L 536.227182 289.954467 
L 537.24376 282.789134 
L 538.260339 288.911186 
L 539.276917 289.298426 
L 540.293496 290.688363 
L 541.310075 290.628626 
L 542.326653 282.901588 
L 543.343232 297.211078 
L 544.359811 297.720117 
L 545.376389 281.720499 
L 546.392968 289.247602 
L 547.409546 291.028799 
L 548.426125 285.630459 
L 549.442704 296.795277 
L 550.459282 291.754299 
L 551.475861 290.193379 
L 552.492439 288.918844 
L 553.509018 290.465574 
L 554.525597 297.188587 
L 555.542175 287.72504 
L 556.558754 303.981156 
L 557.575332 284.731478 
L 558.591911 288.969509 
L 559.60849 291.074197 
L 560.625068 289.781798 
L 561.641647 291.83846 
L 562.658226 290.074985 
L 563.674804 291.211206 
L 564.691383 293.819049 
L 565.707961 293.574961 
L 566.72454 293.744542 
L 567.741119 294.347385 
L 568.757697 292.094604 
L 569.774276 292.639973 
L 571.807433 298.257523 
L 572.824012 294.199201 
L 573.84059 294.750163 
L 574.857169 300.676678 
L 575.873747 294.019322 
L 576.890326 288.406977 
L 578.923483 294.788219 
L 579.940062 289.469434 
L 580.956641 297.953963 
L 581.973219 291.73597 
L 582.989798 290.456359 
L 584.006376 294.109866 
L 585.022955 296.337558 
L 586.039534 299.178941 
L 587.056112 300.69211 
L 588.072691 299.723875 
L 589.089269 288.256933 
L 590.105848 302.729542 
L 591.122427 297.435182 
L 592.139005 298.026798 
L 593.155584 295.768678 
L 594.172163 293.12821 
L 595.188741 293.470963 
L 596.20532 296.236596 
L 597.221898 301.668831 
L 598.238477 304.430606 
L 599.255056 297.903622 
L 600.271634 299.383983 
L 601.288213 296.615163 
L 602.304791 283.336862 
L 603.32137 296.155365 
L 604.337949 300.438495 
L 605.354527 299.113828 
L 606.371106 294.340315 
L 607.387684 291.594622 
L 608.404263 290.569051 
L 609.420842 299.124047 
L 610.43742 303.487283 
L 611.453999 299.718792 
L 612.470578 298.637859 
L 613.487156 300.062644 
L 614.503735 297.859165 
L 615.520313 298.376304 
L 616.536892 296.272426 
L 617.553471 307.8 
L 618.570049 301.034073 
L 619.586628 295.838083 
L 620.603206 296.445273 
L 622.636364 291.794465 
L 622.636364 291.794465 
" clip-path="url(#p45631c88ba)" style="fill: none; stroke: #1f77b4; stroke-width: 2; stroke-linecap: square"/>
   </g>
   <g id="line2d_68">
    <path d="M 115.363636 58.942567 
L 116.380215 67.135423 
L 117.396794 91.329811 
L 118.413372 112.304308 
L 119.429951 126.178464 
L 120.446529 136.907966 
L 121.463108 150.750512 
L 122.479687 156.755855 
L 123.496265 161.122081 
L 124.512844 166.552971 
L 125.529422 168.887567 
L 127.56258 180.460583 
L 128.579158 174.960154 
L 129.595737 184.253446 
L 130.612316 183.592077 
L 131.628894 187.853703 
L 132.645473 189.552589 
L 133.662051 188.605063 
L 134.67863 190.747486 
L 135.695209 194.384868 
L 136.711787 193.394061 
L 137.728366 193.833172 
L 138.744944 192.923888 
L 139.761523 199.977336 
L 140.778102 198.262925 
L 141.79468 201.546459 
L 142.811259 199.227901 
L 143.827837 201.097317 
L 144.844416 200.833309 
L 145.860995 200.283785 
L 146.877573 205.534179 
L 147.894152 205.519366 
L 148.910731 204.699102 
L 149.927309 200.947819 
L 150.943888 206.572434 
L 151.960466 207.167458 
L 152.977045 210.315883 
L 153.993624 209.29505 
L 155.010202 206.763201 
L 156.026781 212.846665 
L 157.043359 210.549579 
L 158.059938 213.508282 
L 159.076517 212.66221 
L 160.093095 212.335813 
L 161.109674 216.630667 
L 162.126253 213.90123 
L 163.142831 215.939845 
L 164.15941 215.981079 
L 165.175988 215.654877 
L 166.192567 213.287949 
L 167.209146 214.283002 
L 168.225724 218.864916 
L 169.242303 212.378127 
L 170.258881 222.324539 
L 171.27546 214.499116 
L 172.292039 217.635253 
L 173.308617 211.328402 
L 174.325196 217.250873 
L 175.341774 220.549283 
L 176.358353 221.087362 
L 177.374932 216.765013 
L 178.39151 219.732444 
L 179.408089 220.045565 
L 180.424668 221.940589 
L 181.441246 222.971955 
L 182.457825 218.634218 
L 183.474403 221.684159 
L 184.490982 231.167355 
L 185.507561 222.429545 
L 186.524139 227.049528 
L 187.540718 222.749026 
L 188.557296 227.219184 
L 189.573875 226.43855 
L 190.590454 226.640254 
L 191.607032 227.709666 
L 192.623611 227.730895 
L 193.640189 225.254279 
L 194.656768 217.689856 
L 196.689925 228.724307 
L 197.706504 223.764685 
L 198.723083 217.237599 
L 199.739661 232.120209 
L 200.75624 223.006498 
L 201.772818 223.337245 
L 202.789397 221.574052 
L 203.805976 216.896817 
L 204.822554 222.588776 
L 205.839133 225.967972 
L 206.855711 226.370876 
L 207.87229 228.928389 
L 208.888869 226.606509 
L 209.905447 225.703422 
L 210.922026 224.34981 
L 211.938604 231.300345 
L 212.955183 228.660561 
L 213.971762 220.585649 
L 214.98834 228.356053 
L 216.004919 228.263529 
L 217.021498 227.142711 
L 218.038076 227.535999 
L 219.054655 222.651728 
L 220.071233 221.894691 
L 221.087812 223.973572 
L 222.104391 228.160503 
L 223.120969 223.139842 
L 224.137548 230.732648 
L 225.154126 224.321995 
L 226.170705 228.128569 
L 227.187284 223.750049 
L 228.203862 230.752156 
L 229.220441 225.77429 
L 230.237019 222.132484 
L 231.253598 226.631614 
L 232.270177 233.329572 
L 233.286755 233.478241 
L 234.303334 230.118514 
L 235.319913 225.446578 
L 236.336491 228.052663 
L 237.35307 228.499129 
L 238.369648 223.505922 
L 239.386227 229.229196 
L 240.402806 229.888316 
L 241.419384 228.287909 
L 242.435963 228.822878 
L 243.452541 225.493954 
L 244.46912 229.932208 
L 245.485699 224.331847 
L 246.502277 226.876166 
L 247.518856 234.282171 
L 248.535435 231.942375 
L 249.552013 230.659018 
L 250.568592 229.778408 
L 251.58517 226.259635 
L 252.601749 216.592792 
L 253.618328 219.099289 
L 254.634906 229.205063 
L 255.651485 232.280712 
L 256.668063 225.823968 
L 257.684642 225.532737 
L 258.701221 224.20984 
L 259.717799 225.03252 
L 260.734378 226.398266 
L 261.750956 228.411407 
L 262.767535 226.775801 
L 263.784114 229.355446 
L 264.800692 224.761767 
L 265.817271 225.60773 
L 266.83385 223.719713 
L 267.850428 221.340636 
L 268.867007 224.857605 
L 269.883585 234.109795 
L 270.900164 226.795231 
L 271.916743 231.940903 
L 272.933321 225.900776 
L 273.9499 235.406589 
L 274.966478 231.968575 
L 275.983057 231.422742 
L 276.999636 233.792112 
L 278.016214 224.852446 
L 279.032793 230.661732 
L 280.049371 223.469975 
L 281.06595 226.237222 
L 282.082529 229.851522 
L 283.099107 228.89947 
L 284.115686 222.089787 
L 285.132265 233.803095 
L 286.148843 233.590328 
L 287.165422 233.202402 
L 288.182 229.027603 
L 289.198579 229.108615 
L 290.215158 231.230722 
L 291.231736 234.742758 
L 292.248315 234.073541 
L 293.264893 229.447549 
L 294.281472 227.333728 
L 295.298051 225.508789 
L 296.314629 232.824613 
L 297.331208 226.786005 
L 298.347786 232.194617 
L 299.364365 227.868191 
L 300.380944 224.223733 
L 301.397522 229.303131 
L 302.414101 230.181573 
L 303.43068 231.557574 
L 304.447258 228.484111 
L 305.463837 221.527286 
L 306.480415 225.757714 
L 307.496994 223.593858 
L 308.513573 226.254606 
L 309.530151 229.829791 
L 310.54673 229.762352 
L 311.563308 220.064778 
L 312.579887 230.328919 
L 313.596466 232.031712 
L 314.613044 230.426741 
L 315.629623 232.880091 
L 316.646201 229.969608 
L 317.66278 227.463452 
L 318.679359 226.516191 
L 319.695937 226.8637 
L 320.712516 229.170866 
L 321.729095 229.334484 
L 322.745673 222.329001 
L 323.762252 225.524316 
L 324.77883 236.646707 
L 325.795409 229.075075 
L 326.811988 225.734114 
L 327.828566 229.503095 
L 328.845145 228.019174 
L 329.861723 224.009936 
L 330.878302 224.706331 
L 331.894881 222.191434 
L 332.911459 227.579558 
L 333.928038 213.560903 
L 334.944617 232.37602 
L 335.961195 229.586582 
L 336.977774 234.391313 
L 337.994352 230.708255 
L 339.010931 235.416493 
L 340.02751 228.96077 
L 341.044088 232.708734 
L 342.060667 226.691041 
L 343.077245 232.563316 
L 344.093824 217.869502 
L 345.110403 229.444989 
L 346.126981 224.97182 
L 347.14356 222.917416 
L 348.160138 230.655613 
L 349.176717 231.73302 
L 350.193296 224.096645 
L 352.226453 231.870052 
L 353.243032 229.320365 
L 354.25961 229.6609 
L 355.276189 228.772799 
L 356.292767 217.28128 
L 357.309346 228.518689 
L 358.325925 220.476443 
L 359.342503 230.666193 
L 360.359082 223.69208 
L 361.37566 231.930612 
L 362.392239 223.550954 
L 363.408818 228.424425 
L 364.425396 225.58071 
L 365.441975 232.750002 
L 366.458553 226.467606 
L 367.475132 222.811467 
L 368.491711 228.416441 
L 369.508289 230.684329 
L 370.524868 226.673435 
L 371.541447 227.244927 
L 372.558025 228.07609 
L 373.574604 224.382858 
L 374.591182 221.873621 
L 375.607761 219.847666 
L 376.62434 218.784299 
L 377.640918 222.615293 
L 378.657497 222.597666 
L 379.674075 228.865677 
L 380.690654 227.174501 
L 381.707233 226.50241 
L 382.723811 229.515705 
L 383.74039 223.961597 
L 384.756968 225.743136 
L 386.790126 219.641924 
L 387.806704 221.344525 
L 388.823283 221.703342 
L 389.839862 226.793001 
L 390.85644 222.238575 
L 391.873019 225.706148 
L 392.889597 220.136234 
L 393.906176 226.92602 
L 394.922755 222.025442 
L 395.939333 227.166294 
L 396.955912 231.234624 
L 397.97249 222.583057 
L 398.989069 224.464173 
L 400.005648 221.962334 
L 401.022226 224.277189 
L 402.038805 221.764615 
L 403.055383 218.856554 
L 404.071962 224.688506 
L 405.088541 218.286013 
L 406.105119 217.640656 
L 407.121698 222.273598 
L 408.138277 222.125974 
L 409.154855 220.495701 
L 410.171434 222.820286 
L 411.188012 226.658138 
L 412.204591 218.310805 
L 413.22117 218.108765 
L 414.237748 221.505369 
L 415.254327 223.997904 
L 416.270905 216.739159 
L 417.287484 219.73561 
L 418.304063 225.998509 
L 419.320641 219.338167 
L 420.33722 223.040322 
L 421.353799 219.274556 
L 422.370377 229.294726 
L 423.386956 221.28405 
L 424.403534 209.344179 
L 425.420113 224.180225 
L 426.436692 220.73444 
L 427.45327 224.925531 
L 428.469849 222.591625 
L 429.486427 222.764762 
L 430.503006 219.480893 
L 431.519585 219.312492 
L 432.536163 227.196499 
L 433.552742 215.967549 
L 434.56932 221.009266 
L 435.585899 222.631267 
L 436.602478 223.731574 
L 437.619056 226.773101 
L 438.635635 226.076823 
L 439.652214 224.447027 
L 440.668792 214.240104 
L 441.685371 223.77918 
L 442.701949 228.12735 
L 443.718528 217.421876 
L 444.735107 224.806864 
L 445.751685 222.223168 
L 446.768264 218.602206 
L 447.784842 226.14953 
L 448.801421 221.200069 
L 449.818 218.430951 
L 450.834578 209.864419 
L 451.851157 220.524241 
L 452.867735 215.19835 
L 453.884314 221.08844 
L 454.900893 219.610311 
L 455.917471 216.543906 
L 456.93405 220.287118 
L 457.950629 224.956289 
L 458.967207 216.354432 
L 459.983786 218.777468 
L 461.000364 219.969502 
L 462.016943 218.887693 
L 463.033522 226.506025 
L 464.0501 215.749638 
L 465.066679 215.468345 
L 466.083257 218.566031 
L 467.099836 219.457867 
L 468.116415 220.158403 
L 469.132993 214.854407 
L 470.149572 215.229407 
L 471.16615 219.511422 
L 472.182729 218.875725 
L 473.199308 223.419193 
L 474.215886 225.400263 
L 475.232465 217.287265 
L 476.249044 222.700932 
L 477.265622 213.414133 
L 478.282201 219.017183 
L 479.298779 216.951455 
L 480.315358 221.303502 
L 481.331937 222.073607 
L 482.348515 218.417151 
L 483.365094 215.906098 
L 484.381672 220.156596 
L 485.398251 222.362089 
L 486.41483 210.526707 
L 487.431408 216.432158 
L 488.447987 215.963637 
L 489.464565 214.979618 
L 490.481144 220.357317 
L 491.497723 212.080772 
L 492.514301 214.778448 
L 493.53088 216.668727 
L 494.547459 217.763092 
L 495.564037 215.791002 
L 496.580616 211.896977 
L 497.597194 215.763667 
L 498.613773 210.400931 
L 499.630352 207.743908 
L 500.64693 212.889297 
L 501.663509 207.750651 
L 502.680087 212.87885 
L 503.696666 218.874503 
L 504.713245 216.170584 
L 505.729823 212.888855 
L 506.746402 216.543797 
L 507.762981 215.140464 
L 508.779559 219.99168 
L 509.796138 206.967198 
L 510.812716 216.086136 
L 511.829295 212.581389 
L 512.845874 214.302946 
L 513.862452 214.647693 
L 514.879031 212.641634 
L 515.895609 206.052246 
L 516.912188 215.664406 
L 517.928767 212.633632 
L 518.945345 213.224259 
L 519.961924 216.840821 
L 520.978502 208.848736 
L 521.995081 218.111581 
L 523.01166 208.220324 
L 524.028238 213.184875 
L 525.044817 210.809082 
L 526.061396 215.718305 
L 527.077974 215.364381 
L 528.094553 212.852381 
L 529.111131 213.433269 
L 530.12771 209.31762 
L 531.144289 208.696478 
L 532.160867 206.544431 
L 533.177446 206.514741 
L 534.194024 214.282213 
L 535.210603 211.965024 
L 536.227182 210.160836 
L 537.24376 209.070598 
L 538.260339 205.435056 
L 539.276917 207.866612 
L 540.293496 218.722001 
L 541.310075 207.573028 
L 542.326653 207.030075 
L 543.343232 215.017755 
L 544.359811 204.795631 
L 545.376389 207.608821 
L 546.392968 207.99243 
L 547.409546 205.194325 
L 548.426125 209.120997 
L 549.442704 208.099389 
L 550.459282 209.146673 
L 551.475861 211.022172 
L 552.492439 213.799539 
L 553.509018 208.910999 
L 554.525597 200.796527 
L 555.542175 205.795635 
L 556.558754 204.189561 
L 557.575332 204.46704 
L 558.591911 209.329718 
L 559.60849 205.311452 
L 560.625068 207.576057 
L 561.641647 208.721414 
L 562.658226 205.925889 
L 563.674804 209.940261 
L 564.691383 209.063125 
L 565.707961 215.715069 
L 566.72454 211.69963 
L 567.741119 208.537945 
L 568.757697 199.18547 
L 569.774276 199.832832 
L 570.790854 212.543661 
L 571.807433 212.430413 
L 572.824012 206.156645 
L 573.84059 204.620172 
L 574.857169 198.596693 
L 575.873747 208.227292 
L 576.890326 205.855941 
L 577.906905 201.632623 
L 578.923483 207.449765 
L 579.940062 203.959623 
L 580.956641 198.89147 
L 581.973219 206.600586 
L 582.989798 209.919301 
L 584.006376 204.370362 
L 585.022955 196.338616 
L 586.039534 208.239816 
L 587.056112 205.932077 
L 588.072691 205.096928 
L 589.089269 206.580552 
L 590.105848 208.463451 
L 591.122427 204.912969 
L 592.139005 209.134254 
L 593.155584 207.239042 
L 594.172163 205.67079 
L 595.188741 202.534233 
L 596.20532 201.360028 
L 597.221898 207.357039 
L 598.238477 199.667186 
L 599.255056 203.914397 
L 600.271634 204.736859 
L 601.288213 206.027645 
L 602.304791 212.671727 
L 603.32137 199.715117 
L 604.337949 207.800484 
L 605.354527 214.831819 
L 606.371106 203.537577 
L 607.387684 208.119403 
L 608.404263 201.183796 
L 609.420842 204.485524 
L 610.43742 203.180028 
L 611.453999 209.616476 
L 612.470578 208.276873 
L 613.487156 203.515702 
L 614.503735 200.820992 
L 615.520313 212.208247 
L 616.536892 204.367632 
L 617.553471 204.402723 
L 618.570049 197.052622 
L 619.586628 198.996958 
L 621.619785 205.425662 
L 622.636364 201.375338 
L 622.636364 201.375338 
" clip-path="url(#p45631c88ba)" style="fill: none; stroke: #ff7f0e; stroke-width: 2; stroke-linecap: square"/>
   </g>
   <g id="patch_3">
    <path d="M 90 320.4 
L 90 43.2 
" style="fill: none; stroke: #000000; stroke-width: 0.8; stroke-linejoin: miter; stroke-linecap: square"/>
   </g>
   <g id="patch_4">
    <path d="M 648 320.4 
L 648 43.2 
" style="fill: none; stroke: #000000; stroke-width: 0.8; stroke-linejoin: miter; stroke-linecap: square"/>
   </g>
   <g id="patch_5">
    <path d="M 90 320.4 
L 648 320.4 
" style="fill: none; stroke: #000000; stroke-width: 0.8; stroke-linejoin: miter; stroke-linecap: square"/>
   </g>
   <g id="patch_6">
    <path d="M 90 43.2 
L 648 43.2 
" style="fill: none; stroke: #000000; stroke-width: 0.8; stroke-linejoin: miter; stroke-linecap: square"/>
   </g>
   <g id="text_12">
    <!-- Flow Matching Training Convergence -->
    <g transform="translate(258.764063 37.2) scale(0.12 -0.12)">
     <defs>
      <path id="DejaVuSans-46" d="M 628 4666 
L 3309 4666 
L 3309 4134 
L 1259 4134 
L 1259 2759 
L 3109 2759 
L 3109 2228 
L 1259 2228 
L 1259 0 
L 628 0 
L 628 4666 
z
" transform="scale(0.015625)"/>
      <path id="DejaVuSans-77" d="M 269 3500 
L 844 3500 
L 1563 769 
L 2278 3500 
L 2956 3500 
L 3675 769 
L 4391 3500 
L 4966 3500 
L 4050 0 
L 3372 0 
L 2619 2869 
L 1863 0 
L 1184 0 
L 269 3500 
z
" transform="scale(0.015625)"/>
      <path id="DejaVuSans-6e" d="M 3513 2113 
L 3513 0 
L 2938 0 
L 2938 2094 
Q 2938 2591 2744 2837 
Q 2550 3084 2163 3084 
Q 1697 3084 1428 2787 
Q 1159 2491 1159 1978 
L 1159 0 
L 581 0 
L 581 3500 
L 1159 3500 
L 1159 2956 
Q 1366 3272 1645 3428 
Q 1925 3584 2291 3584 
Q 2894 3584 3203 3211 
Q 3513 2838 3513 2113 
z
" transform="scale(0.015625)"/>
      <path id="DejaVuSans-54" d="M -19 4666 
L 3928 4666 
L 3928 4134 
L 2272 4134 
L 2272 0 
L 1638 0 
L 1638 4134 
L -19 4134 
L -19 4666 
z
" transform="scale(0.015625)"/>
      <path id="DejaVuSans-72" d="M 2631 2963 
Q 2534 3019 2420 3045 
Q 2306 3072 2169 3072 
Q 1681 3072 1420 2755 
Q 1159 2438 1159 1844 
L 1159 0 
L 581 0 
L 581 3500 
L 1159 3500 
L 1159 2956 
Q 1341 3275 1631 3429 
Q 1922 3584 2338 3584 
Q 2397 3584 2469 3576 
Q 2541 3569 2628 3553 
L 2631 2963 
z
" transform="scale(0.015625)"/>
      <path id="DejaVuSans-43" d="M 4122 4306 
L 4122 3641 
Q 3803 3938 3442 4084 
Q 3081 4231 2675 4231 
Q 1875 4231 1450 3742 
Q 1025 3253 1025 2328 
Q 1025 1406 1450 917 
Q 1875 428 2675 428 
Q 3081 428 3442 575 
Q 3803 722 4122 1019 
L 4122 359 
Q 3791 134 3420 21 
Q 3050 -91 2638 -91 
Q 1578 -91 968 557 
Q 359 1206 359 2328 
Q 359 3453 968 4101 
Q 1578 4750 2638 4750 
Q 3056 4750 3426 4639 
Q 3797 4528 4122 4306 
z
" transform="scale(0.015625)"/>
      <path id="DejaVuSans-76" d="M 191 3500 
L 800 3500 
L 1894 563 
L 2988 3500 
L 3597 3500 
L 2284 0 
L 1503 0 
L 191 3500 
z
" transform="scale(0.015625)"/>
     </defs>
     <use xlink:href="#DejaVuSans-46"/>
     <use xlink:href="#DejaVuSans-6c" transform="translate(57.519531 0)"/>
     <use xlink:href="#DejaVuSans-6f" transform="translate(85.302734 0)"/>
     <use xlink:href="#DejaVuSans-77" transform="translate(146.484375 0)"/>
     <use xlink:href="#DejaVuSans-20" transform="translate(228.271484 0)"/>
     <use xlink:href="#DejaVuSans-4d" transform="translate(260.058594 0)"/>
     <use xlink:href="#DejaVuSans-61" transform="translate(346.337891 0)"/>
     <use xlink:href="#DejaVuSans-74" transform="translate(407.617188 0)"/>
     <use xlink:href="#DejaVuSans-63" transform="translate(446.826172 0)"/>
     <use xlink:href="#DejaVuSans-68" transform="translate(501.806641 0)"/>
     <use xlink:href="#DejaVuSans-69" transform="translate(565.185547 0)"/>
     <use xlink:href="#DejaVuSans-6e" transform="translate(592.96875 0)"/>
     <use xlink:href="#DejaVuSans-67" transform="translate(656.347656 0)"/>
     <use xlink:href="#DejaVuSans-20" transform="translate(719.824219 0)"/>
     <use xlink:href="#DejaVuSans-54" transform="translate(751.611328 0)"/>
     <use xlink:href="#DejaVuSans-72" transform="translate(797.945312 0)"/>
     <use xlink:href="#DejaVuSans-61" transform="translate(839.058594 0)"/>
     <use xlink:href="#DejaVuSans-69" transform="translate(900.337891 0)"/>
     <use xlink:href="#DejaVuSans-6e" transform="translate(928.121094 0)"/>
     <use xlink:href="#DejaVuSans-69" transform="translate(991.5 0)"/>
     <use xlink:href="#DejaVuSans-6e" transform="translate(1019.283203 0)"/>
     <use xlink:href="#DejaVuSans-67" transform="translate(1082.662109 0)"/>
     <use xlink:href="#DejaVuSans-20" transform="translate(1146.138672 0)"/>
     <use xlink:href="#DejaVuSans-43" transform="translate(1177.925781 0)"/>
     <use xlink:href="#DejaVuSans-6f" transform="translate(1247.75 0)"/>
     <use xlink:href="#DejaVuSans-6e" transform="translate(1308.931641 0)"/>
     <use xlink:href="#DejaVuSans-76" transform="translate(1372.310547 0)"/>
     <use xlink:href="#DejaVuSans-65" transform="translate(1431.490234 0)"/>
     <use xlink:href="#DejaVuSans-72" transform="translate(1493.013672 0)"/>
     <use xlink:href="#DejaVuSans-67" transform="translate(1532.376953 0)"/>
     <use xlink:href="#DejaVuSans-65" transform="translate(1595.853516 0)"/>
     <use xlink:href="#DejaVuSans-6e" transform="translate(1657.376953 0)"/>
     <use xlink:href="#DejaVuSans-63" transform="translate(1720.755859 0)"/>
     <use xlink:href="#DejaVuSans-65" transform="translate(1775.736328 0)"/>
    </g>
   </g>
   <g id="legend_1">
    <g id="patch_7">
     <path d="M 534.50625 80.55625 
L 641 80.55625 
Q 643 80.55625 643 78.55625 
L 643 50.2 
Q 643 48.2 641 48.2 
L 534.50625 48.2 
Q 532.50625 48.2 532.50625 50.2 
L 532.50625 78.55625 
Q 532.50625 80.55625 534.50625 80.55625 
z
" style="fill: #ffffff; opacity: 0.8; stroke: #cccccc; stroke-linejoin: miter"/>
    </g>
    <g id="line2d_69">
     <path d="M 536.50625 56.298437 
L 546.50625 56.298437 
L 556.50625 56.298437 
" style="fill: none; stroke: #1f77b4; stroke-width: 2; stroke-linecap: square"/>
    </g>
    <g id="text_13">
     <!-- Train Loss -->
     <g transform="translate(564.50625 59.798437) scale(0.1 -0.1)">
      <use xlink:href="#DejaVuSans-54"/>
      <use xlink:href="#DejaVuSans-72" transform="translate(46.333984 0)"/>
      <use xlink:href="#DejaVuSans-61" transform="translate(87.447266 0)"/>
      <use xlink:href="#DejaVuSans-69" transform="translate(148.726562 0)"/>
      <use xlink:href="#DejaVuSans-6e" transform="translate(176.509766 0)"/>
      <use xlink:href="#DejaVuSans-20" transform="translate(239.888672 0)"/>
      <use xlink:href="#DejaVuSans-4c" transform="translate(271.675781 0)"/>
      <use xlink:href="#DejaVuSans-6f" transform="translate(325.638672 0)"/>
      <use xlink:href="#DejaVuSans-73" transform="translate(386.820312 0)"/>
      <use xlink:href="#DejaVuSans-73" transform="translate(438.919922 0)"/>
     </g>
    </g>
    <g id="line2d_70">
     <path d="M 536.50625 70.976562 
L 546.50625 70.976562 
L 556.50625 70.976562 
" style="fill: none; stroke: #ff7f0e; stroke-width: 2; stroke-linecap: square"/>
    </g>
    <g id="text_14">
     <!-- Validation Loss -->
     <g transform="translate(564.50625 74.476562) scale(0.1 -0.1)">
      <defs>
       <path id="DejaVuSans-64" d="M 2906 2969 
L 2906 4863 
L 3481 4863 
L 3481 0 
L 2906 0 
L 2906 525 
Q 2725 213 2448 61 
Q 2172 -91 1784 -91 
Q 1150 -91 751 415 
Q 353 922 353 1747 
Q 353 2572 751 3078 
Q 1150 3584 1784 3584 
Q 2172 3584 2448 3432 
Q 2725 3281 2906 2969 
z
M 947 1747 
Q 947 1113 1208 752 
Q 1469 391 1925 391 
Q 2381 391 2643 752 
Q 2906 1113 2906 1747 
Q 2906 2381 2643 2742 
Q 2381 3103 1925 3103 
Q 1469 3103 1208 2742 
Q 947 2381 947 1747 
z
" transform="scale(0.015625)"/>
      </defs>
      <use xlink:href="#DejaVuSans-56"/>
      <use xlink:href="#DejaVuSans-61" transform="translate(60.658203 0)"/>
      <use xlink:href="#DejaVuSans-6c" transform="translate(121.9375 0)"/>
      <use xlink:href="#DejaVuSans-69" transform="translate(149.720703 0)"/>
      <use xlink:href="#DejaVuSans-64" transform="translate(177.503906 0)"/>
      <use xlink:href="#DejaVuSans-61" transform="translate(240.980469 0)"/>
      <use xlink:href="#DejaVuSans-74" transform="translate(302.259766 0)"/>
      <use xlink:href="#DejaVuSans-69" transform="translate(341.46875 0)"/>
      <use xlink:href="#DejaVuSans-6f" transform="translate(369.251953 0)"/>
      <use xlink:href="#DejaVuSans-6e" transform="translate(430.433594 0)"/>
      <use xlink:href="#DejaVuSans-20" transform="translate(493.8125 0)"/>
      <use xlink:href="#DejaVuSans-4c" transform="translate(525.599609 0)"/>
      <use xlink:href="#DejaVuSans-6f" transform="translate(579.5625 0)"/>
      <use xlink:href="#DejaVuSans-73" transform="translate(640.744141 0)"/>
      <use xlink:href="#DejaVuSans-73" transform="translate(692.84375 0)"/>
     </g>
    </g>
   </g>
  </g>
 </g>
 <defs>
  <clipPath id="p45631c88ba">
   <rect x="90" y="43.2" width="558" height="277.2"/>
  </clipPath>
 </defs>
</svg>
