<?xml version="1.0" encoding="utf-8" standalone="no"?>
<!DOCTYPE svg PUBLIC "-//W3C//DTD SVG 1.1//EN"
  "http://www.w3.org/Graphics/SVG/1.1/DTD/svg11.dtd">
<svg xmlns:xlink="http://www.w3.org/1999/xlink" width="720pt" height="360pt" viewBox="0 0 720 360" xmlns="http://www.w3.org/2000/svg" version="1.1">
 <metadata>
  <rdf:RDF xmlns:dc="http://purl.org/dc/elements/1.1/" xmlns:cc="http://creativecommons.org/ns#" xmlns:rdf="http://www.w3.org/1999/02/22-rdf-syntax-ns#">
   <cc:Work>
    <dc:type rdf:resource="http://purl.org/dc/dcmitype/StillImage"/>
    <dc:date>2026-01-08T14:53:25.995840</dc:date>
    <dc:format>image/svg+xml</dc:format>
    <dc:creator>
     <cc:Agent>
      <dc:title>Matplotlib v3.10.7, https://matplotlib.org/</dc:title>
     </cc:Agent>
    </dc:creator>
   </cc:Work>
  </rdf:RDF>
 </metadata>
 <defs>
  <style type="text/css">*{stroke-linejoin: round; stroke-linecap: butt}</style>
 </defs>
 <g id="figure_1">
  <g id="patch_1">
   <path d="M 0 360 
L 720 360 
L 720 0 
L 0 0 
z
" style="fill: #ffffff"/>
  </g>
  <g id="axes_1">
   <g id="patch_2">
    <path d="M 90 320.4 
L 648 320.4 
L 648 43.2 
L 90 43.2 
z
" style="fill: #ffffff"/>
   </g>
   <g id="matplotlib.axis_1">
    <g id="xtick_1">
     <g id="line2d_1">
      <path d="M 115.363636 320.4 
L 115.363636 43.2 
" clip-path="url(#p945bbf89a8)" style="fill: none; stroke: #b0b0b0; stroke-opacity: 0.5; stroke-width: 0.8; stroke-linecap: square"/>
     </g>
     <g id="line2d_2">
      <defs>
       <path id="m3ac0f03abc" d="M 0 0 
L 0 3.5 
" style="stroke: #000000; stroke-width: 0.8"/>
      </defs>
      <g>
       <use xlink:href="#m3ac0f03abc" x="115.363636" y="320.4" style="stroke: #000000; stroke-width: 0.8"/>
      </g>
     </g>
     <g id="text_1">
      <!-- 0 -->
      <g transform="translate(112.182386 334.998438) scale(0.1 -0.1)">
       <defs>
        <path id="DejaVuSans-30" d="M 2034 4250 
Q 1547 4250 1301 3770 
Q 1056 3291 1056 2328 
Q 1056 1369 1301 889 
Q 1547 409 2034 409 
Q 2525 409 2770 889 
Q 3016 1369 3016 2328 
Q 3016 3291 2770 3770 
Q 2525 4250 2034 4250 
z
M 2034 4750 
Q 2819 4750 3233 4129 
Q 3647 3509 3647 2328 
Q 3647 1150 3233 529 
Q 2819 -91 2034 -91 
Q 1250 -91 836 529 
Q 422 1150 422 2328 
Q 422 3509 836 4129 
Q 1250 4750 2034 4750 
z
" transform="scale(0.015625)"/>
       </defs>
       <use xlink:href="#DejaVuSans-30"/>
      </g>
     </g>
    </g>
    <g id="xtick_2">
     <g id="line2d_3">
      <path d="M 216.919738 320.4 
L 216.919738 43.2 
" clip-path="url(#p945bbf89a8)" style="fill: none; stroke: #b0b0b0; stroke-opacity: 0.5; stroke-width: 0.8; stroke-linecap: square"/>
     </g>
     <g id="line2d_4">
      <g>
       <use xlink:href="#m3ac0f03abc" x="216.919738" y="320.4" style="stroke: #000000; stroke-width: 0.8"/>
      </g>
     </g>
     <g id="text_2">
      <!-- 200 -->
      <g transform="translate(207.375988 334.998438) scale(0.1 -0.1)">
       <defs>
        <path id="DejaVuSans-32" d="M 1228 531 
L 3431 531 
L 3431 0 
L 469 0 
L 469 531 
Q 828 903 1448 1529 
Q 2069 2156 2228 2338 
Q 2531 2678 2651 2914 
Q 2772 3150 2772 3378 
Q 2772 3750 2511 3984 
Q 2250 4219 1831 4219 
Q 1534 4219 1204 4116 
Q 875 4013 500 3803 
L 500 4441 
Q 881 4594 1212 4672 
Q 1544 4750 1819 4750 
Q 2544 4750 2975 4387 
Q 3406 4025 3406 3419 
Q 3406 3131 3298 2873 
Q 3191 2616 2906 2266 
Q 2828 2175 2409 1742 
Q 1991 1309 1228 531 
z
" transform="scale(0.015625)"/>
       </defs>
       <use xlink:href="#DejaVuSans-32"/>
       <use xlink:href="#DejaVuSans-30" transform="translate(63.623047 0)"/>
       <use xlink:href="#DejaVuSans-30" transform="translate(127.246094 0)"/>
      </g>
     </g>
    </g>
    <g id="xtick_3">
     <g id="line2d_5">
      <path d="M 318.475839 320.4 
L 318.475839 43.2 
" clip-path="url(#p945bbf89a8)" style="fill: none; stroke: #b0b0b0; stroke-opacity: 0.5; stroke-width: 0.8; stroke-linecap: square"/>
     </g>
     <g id="line2d_6">
      <g>
       <use xlink:href="#m3ac0f03abc" x="318.475839" y="320.4" style="stroke: #000000; stroke-width: 0.8"/>
      </g>
     </g>
     <g id="text_3">
      <!-- 400 -->
      <g transform="translate(308.932089 334.998438) scale(0.1 -0.1)">
       <defs>
        <path id="DejaVuSans-34" d="M 2419 4116 
L 825 1625 
L 2419 1625 
L 2419 4116 
z
M 2253 4666 
L 3047 4666 
L 3047 1625 
L 3713 1625 
L 3713 1100 
L 3047 1100 
L 3047 0 
L 2419 0 
L 2419 1100 
L 313 1100 
L 313 1709 
L 2253 4666 
z
" transform="scale(0.015625)"/>
       </defs>
       <use xlink:href="#DejaVuSans-34"/>
       <use xlink:href="#DejaVuSans-30" transform="translate(63.623047 0)"/>
       <use xlink:href="#DejaVuSans-30" transform="translate(127.246094 0)"/>
      </g>
     </g>
    </g>
    <g id="xtick_4">
     <g id="line2d_7">
      <path d="M 420.031941 320.4 
L 420.031941 43.2 
" clip-path="url(#p945bbf89a8)" style="fill: none; stroke: #b0b0b0; stroke-opacity: 0.5; stroke-width: 0.8; stroke-linecap: square"/>
     </g>
     <g id="line2d_8">
      <g>
       <use xlink:href="#m3ac0f03abc" x="420.031941" y="320.4" style="stroke: #000000; stroke-width: 0.8"/>
      </g>
     </g>
     <g id="text_4">
      <!-- 600 -->
      <g transform="translate(410.488191 334.998438) scale(0.1 -0.1)">
       <defs>
        <path id="DejaVuSans-36" d="M 2113 2584 
Q 1688 2584 1439 2293 
Q 1191 2003 1191 1497 
Q 1191 994 1439 701 
Q 1688 409 2113 409 
Q 2538 409 2786 701 
Q 3034 994 3034 1497 
Q 3034 2003 2786 2293 
Q 2538 2584 2113 2584 
z
M 3366 4563 
L 3366 3988 
Q 3128 4100 2886 4159 
Q 2644 4219 2406 4219 
Q 1781 4219 1451 3797 
Q 1122 3375 1075 2522 
Q 1259 2794 1537 2939 
Q 1816 3084 2150 3084 
Q 2853 3084 3261 2657 
Q 3669 2231 3669 1497 
Q 3669 778 3244 343 
Q 2819 -91 2113 -91 
Q 1303 -91 875 529 
Q 447 1150 447 2328 
Q 447 3434 972 4092 
Q 1497 4750 2381 4750 
Q 2619 4750 2861 4703 
Q 3103 4656 3366 4563 
z
" transform="scale(0.015625)"/>
       </defs>
       <use xlink:href="#DejaVuSans-36"/>
       <use xlink:href="#DejaVuSans-30" transform="translate(63.623047 0)"/>
       <use xlink:href="#DejaVuSans-30" transform="translate(127.246094 0)"/>
      </g>
     </g>
    </g>
    <g id="xtick_5">
     <g id="line2d_9">
      <path d="M 521.588043 320.4 
L 521.588043 43.2 
" clip-path="url(#p945bbf89a8)" style="fill: none; stroke: #b0b0b0; stroke-opacity: 0.5; stroke-width: 0.8; stroke-linecap: square"/>
     </g>
     <g id="line2d_10">
      <g>
       <use xlink:href="#m3ac0f03abc" x="521.588043" y="320.4" style="stroke: #000000; stroke-width: 0.8"/>
      </g>
     </g>
     <g id="text_5">
      <!-- 800 -->
      <g transform="translate(512.044293 334.998438) scale(0.1 -0.1)">
       <defs>
        <path id="DejaVuSans-38" d="M 2034 2216 
Q 1584 2216 1326 1975 
Q 1069 1734 1069 1313 
Q 1069 891 1326 650 
Q 1584 409 2034 409 
Q 2484 409 2743 651 
Q 3003 894 3003 1313 
Q 3003 1734 2745 1975 
Q 2488 2216 2034 2216 
z
M 1403 2484 
Q 997 2584 770 2862 
Q 544 3141 544 3541 
Q 544 4100 942 4425 
Q 1341 4750 2034 4750 
Q 2731 4750 3128 4425 
Q 3525 4100 3525 3541 
Q 3525 3141 3298 2862 
Q 3072 2584 2669 2484 
Q 3125 2378 3379 2068 
Q 3634 1759 3634 1313 
Q 3634 634 3220 271 
Q 2806 -91 2034 -91 
Q 1263 -91 848 271 
Q 434 634 434 1313 
Q 434 1759 690 2068 
Q 947 2378 1403 2484 
z
M 1172 3481 
Q 1172 3119 1398 2916 
Q 1625 2713 2034 2713 
Q 2441 2713 2670 2916 
Q 2900 3119 2900 3481 
Q 2900 3844 2670 4047 
Q 2441 4250 2034 4250 
Q 1625 4250 1398 4047 
Q 1172 3844 1172 3481 
z
" transform="scale(0.015625)"/>
       </defs>
       <use xlink:href="#DejaVuSans-38"/>
       <use xlink:href="#DejaVuSans-30" transform="translate(63.623047 0)"/>
       <use xlink:href="#DejaVuSans-30" transform="translate(127.246094 0)"/>
      </g>
     </g>
    </g>
    <g id="xtick_6">
     <g id="line2d_11">
      <path d="M 623.144144 320.4 
L 623.144144 43.2 
" clip-path="url(#p945bbf89a8)" style="fill: none; stroke: #b0b0b0; stroke-opacity: 0.5; stroke-width: 0.8; stroke-linecap: square"/>
     </g>
     <g id="line2d_12">
      <g>
       <use xlink:href="#m3ac0f03abc" x="623.144144" y="320.4" style="stroke: #000000; stroke-width: 0.8"/>
      </g>
     </g>
     <g id="text_6">
      <!-- 1000 -->
      <g transform="translate(610.419144 334.998438) scale(0.1 -0.1)">
       <defs>
        <path id="DejaVuSans-31" d="M 794 531 
L 1825 531 
L 1825 4091 
L 703 3866 
L 703 4441 
L 1819 4666 
L 2450 4666 
L 2450 531 
L 3481 531 
L 3481 0 
L 794 0 
L 794 531 
z
" transform="scale(0.015625)"/>
       </defs>
       <use xlink:href="#DejaVuSans-31"/>
       <use xlink:href="#DejaVuSans-30" transform="translate(63.623047 0)"/>
       <use xlink:href="#DejaVuSans-30" transform="translate(127.246094 0)"/>
       <use xlink:href="#DejaVuSans-30" transform="translate(190.869141 0)"/>
      </g>
     </g>
    </g>
    <g id="text_7">
     <!-- Époques -->
     <g transform="translate(347.582812 350.329688) scale(0.1 -0.1)">
      <defs>
       <path id="DejaVuSans-c9" d="M 628 4666 
L 3578 4666 
L 3578 4134 
L 1259 4134 
L 1259 2753 
L 3481 2753 
L 3481 2222 
L 1259 2222 
L 1259 531 
L 3634 531 
L 3634 0 
L 628 0 
L 628 4666 
z
M 2268 5921 
L 2846 5921 
L 2134 5096 
L 1655 5096 
L 2268 5921 
z
" transform="scale(0.015625)"/>
       <path id="DejaVuSans-70" d="M 1159 525 
L 1159 -1331 
L 581 -1331 
L 581 3500 
L 1159 3500 
L 1159 2969 
Q 1341 3281 1617 3432 
Q 1894 3584 2278 3584 
Q 2916 3584 3314 3078 
Q 3713 2572 3713 1747 
Q 3713 922 3314 415 
Q 2916 -91 2278 -91 
Q 1894 -91 1617 61 
Q 1341 213 1159 525 
z
M 3116 1747 
Q 3116 2381 2855 2742 
Q 2594 3103 2138 3103 
Q 1681 3103 1420 2742 
Q 1159 2381 1159 1747 
Q 1159 1113 1420 752 
Q 1681 391 2138 391 
Q 2594 391 2855 752 
Q 3116 1113 3116 1747 
z
" transform="scale(0.015625)"/>
       <path id="DejaVuSans-6f" d="M 1959 3097 
Q 1497 3097 1228 2736 
Q 959 2375 959 1747 
Q 959 1119 1226 758 
Q 1494 397 1959 397 
Q 2419 397 2687 759 
Q 2956 1122 2956 1747 
Q 2956 2369 2687 2733 
Q 2419 3097 1959 3097 
z
M 1959 3584 
Q 2709 3584 3137 3096 
Q 3566 2609 3566 1747 
Q 3566 888 3137 398 
Q 2709 -91 1959 -91 
Q 1206 -91 779 398 
Q 353 888 353 1747 
Q 353 2609 779 3096 
Q 1206 3584 1959 3584 
z
" transform="scale(0.015625)"/>
       <path id="DejaVuSans-71" d="M 947 1747 
Q 947 1113 1208 752 
Q 1469 391 1925 391 
Q 2381 391 2643 752 
Q 2906 1113 2906 1747 
Q 2906 2381 2643 2742 
Q 2381 3103 1925 3103 
Q 1469 3103 1208 2742 
Q 947 2381 947 1747 
z
M 2906 525 
Q 2725 213 2448 61 
Q 2172 -91 1784 -91 
Q 1150 -91 751 415 
Q 353 922 353 1747 
Q 353 2572 751 3078 
Q 1150 3584 1784 3584 
Q 2172 3584 2448 3432 
Q 2725 3281 2906 2969 
L 2906 3500 
L 3481 3500 
L 3481 -1331 
L 2906 -1331 
L 2906 525 
z
" transform="scale(0.015625)"/>
       <path id="DejaVuSans-75" d="M 544 1381 
L 544 3500 
L 1119 3500 
L 1119 1403 
Q 1119 906 1312 657 
Q 1506 409 1894 409 
Q 2359 409 2629 706 
Q 2900 1003 2900 1516 
L 2900 3500 
L 3475 3500 
L 3475 0 
L 2900 0 
L 2900 538 
Q 2691 219 2414 64 
Q 2138 -91 1772 -91 
Q 1169 -91 856 284 
Q 544 659 544 1381 
z
M 1991 3584 
L 1991 3584 
z
" transform="scale(0.015625)"/>
       <path id="DejaVuSans-65" d="M 3597 1894 
L 3597 1613 
L 953 1613 
Q 991 1019 1311 708 
Q 1631 397 2203 397 
Q 2534 397 2845 478 
Q 3156 559 3463 722 
L 3463 178 
Q 3153 47 2828 -22 
Q 2503 -91 2169 -91 
Q 1331 -91 842 396 
Q 353 884 353 1716 
Q 353 2575 817 3079 
Q 1281 3584 2069 3584 
Q 2775 3584 3186 3129 
Q 3597 2675 3597 1894 
z
M 3022 2063 
Q 3016 2534 2758 2815 
Q 2500 3097 2075 3097 
Q 1594 3097 1305 2825 
Q 1016 2553 972 2059 
L 3022 2063 
z
" transform="scale(0.015625)"/>
       <path id="DejaVuSans-73" d="M 2834 3397 
L 2834 2853 
Q 2591 2978 2328 3040 
Q 2066 3103 1784 3103 
Q 1356 3103 1142 2972 
Q 928 2841 928 2578 
Q 928 2378 1081 2264 
Q 1234 2150 1697 2047 
L 1894 2003 
Q 2506 1872 2764 1633 
Q 3022 1394 3022 966 
Q 3022 478 2636 193 
Q 2250 -91 1575 -91 
Q 1294 -91 989 -36 
Q 684 19 347 128 
L 347 722 
Q 666 556 975 473 
Q 1284 391 1588 391 
Q 1994 391 2212 530 
Q 2431 669 2431 922 
Q 2431 1156 2273 1281 
Q 2116 1406 1581 1522 
L 1381 1569 
Q 847 1681 609 1914 
Q 372 2147 372 2553 
Q 372 3047 722 3315 
Q 1072 3584 1716 3584 
Q 2034 3584 2315 3537 
Q 2597 3491 2834 3397 
z
" transform="scale(0.015625)"/>
      </defs>
      <use xlink:href="#DejaVuSans-c9"/>
      <use xlink:href="#DejaVuSans-70" transform="translate(63.183594 0)"/>
      <use xlink:href="#DejaVuSans-6f" transform="translate(126.660156 0)"/>
      <use xlink:href="#DejaVuSans-71" transform="translate(187.841797 0)"/>
      <use xlink:href="#DejaVuSans-75" transform="translate(251.318359 0)"/>
      <use xlink:href="#DejaVuSans-65" transform="translate(314.697266 0)"/>
      <use xlink:href="#DejaVuSans-73" transform="translate(376.220703 0)"/>
     </g>
    </g>
   </g>
   <g id="matplotlib.axis_2">
    <g id="ytick_1">
     <g id="line2d_13">
      <path d="M 90 290.475212 
L 648 290.475212 
" clip-path="url(#p945bbf89a8)" style="fill: none; stroke: #b0b0b0; stroke-opacity: 0.5; stroke-width: 0.8; stroke-linecap: square"/>
     </g>
     <g id="line2d_14">
      <defs>
       <path id="m542da0d015" d="M 0 0 
L -3.5 0 
" style="stroke: #000000; stroke-width: 0.8"/>
      </defs>
      <g>
       <use xlink:href="#m542da0d015" x="90" y="290.475212" style="stroke: #000000; stroke-width: 0.8"/>
      </g>
     </g>
     <g id="text_8">
      <!-- $\mathdefault{10^{-4}}$ -->
      <g transform="translate(59.5 294.27443) scale(0.1 -0.1)">
       <defs>
        <path id="DejaVuSans-2212" d="M 678 2272 
L 4684 2272 
L 4684 1741 
L 678 1741 
L 678 2272 
z
" transform="scale(0.015625)"/>
       </defs>
       <use xlink:href="#DejaVuSans-31" transform="translate(0 0.684375)"/>
       <use xlink:href="#DejaVuSans-30" transform="translate(63.623047 0.684375)"/>
       <use xlink:href="#DejaVuSans-2212" transform="translate(128.203125 38.965625) scale(0.7)"/>
       <use xlink:href="#DejaVuSans-34" transform="translate(186.855469 38.965625) scale(0.7)"/>
      </g>
     </g>
    </g>
    <g id="ytick_2">
     <g id="line2d_15">
      <path d="M 90 218.079232 
L 648 218.079232 
" clip-path="url(#p945bbf89a8)" style="fill: none; stroke: #b0b0b0; stroke-opacity: 0.5; stroke-width: 0.8; stroke-linecap: square"/>
     </g>
     <g id="line2d_16">
      <g>
       <use xlink:href="#m542da0d015" x="90" y="218.079232" style="stroke: #000000; stroke-width: 0.8"/>
      </g>
     </g>
     <g id="text_9">
      <!-- $\mathdefault{10^{-3}}$ -->
      <g transform="translate(59.5 221.878451) scale(0.1 -0.1)">
       <defs>
        <path id="DejaVuSans-33" d="M 2597 2516 
Q 3050 2419 3304 2112 
Q 3559 1806 3559 1356 
Q 3559 666 3084 287 
Q 2609 -91 1734 -91 
Q 1441 -91 1130 -33 
Q 819 25 488 141 
L 488 750 
Q 750 597 1062 519 
Q 1375 441 1716 441 
Q 2309 441 2620 675 
Q 2931 909 2931 1356 
Q 2931 1769 2642 2001 
Q 2353 2234 1838 2234 
L 1294 2234 
L 1294 2753 
L 1863 2753 
Q 2328 2753 2575 2939 
Q 2822 3125 2822 3475 
Q 2822 3834 2567 4026 
Q 2313 4219 1838 4219 
Q 1578 4219 1281 4162 
Q 984 4106 628 3988 
L 628 4550 
Q 988 4650 1302 4700 
Q 1616 4750 1894 4750 
Q 2613 4750 3031 4423 
Q 3450 4097 3450 3541 
Q 3450 3153 3228 2886 
Q 3006 2619 2597 2516 
z
" transform="scale(0.015625)"/>
       </defs>
       <use xlink:href="#DejaVuSans-31" transform="translate(0 0.765625)"/>
       <use xlink:href="#DejaVuSans-30" transform="translate(63.623047 0.765625)"/>
       <use xlink:href="#DejaVuSans-2212" transform="translate(128.203125 39.046875) scale(0.7)"/>
       <use xlink:href="#DejaVuSans-33" transform="translate(186.855469 39.046875) scale(0.7)"/>
      </g>
     </g>
    </g>
    <g id="ytick_3">
     <g id="line2d_17">
      <path d="M 90 145.683252 
L 648 145.683252 
" clip-path="url(#p945bbf89a8)" style="fill: none; stroke: #b0b0b0; stroke-opacity: 0.5; stroke-width: 0.8; stroke-linecap: square"/>
     </g>
     <g id="line2d_18">
      <g>
       <use xlink:href="#m542da0d015" x="90" y="145.683252" style="stroke: #000000; stroke-width: 0.8"/>
      </g>
     </g>
     <g id="text_10">
      <!-- $\mathdefault{10^{-2}}$ -->
      <g transform="translate(59.5 149.482471) scale(0.1 -0.1)">
       <use xlink:href="#DejaVuSans-31" transform="translate(0 0.765625)"/>
       <use xlink:href="#DejaVuSans-30" transform="translate(63.623047 0.765625)"/>
       <use xlink:href="#DejaVuSans-2212" transform="translate(128.203125 39.046875) scale(0.7)"/>
       <use xlink:href="#DejaVuSans-32" transform="translate(186.855469 39.046875) scale(0.7)"/>
      </g>
     </g>
    </g>
    <g id="ytick_4">
     <g id="line2d_19">
      <path d="M 90 73.287272 
L 648 73.287272 
" clip-path="url(#p945bbf89a8)" style="fill: none; stroke: #b0b0b0; stroke-opacity: 0.5; stroke-width: 0.8; stroke-linecap: square"/>
     </g>
     <g id="line2d_20">
      <g>
       <use xlink:href="#m542da0d015" x="90" y="73.287272" style="stroke: #000000; stroke-width: 0.8"/>
      </g>
     </g>
     <g id="text_11">
      <!-- $\mathdefault{10^{-1}}$ -->
      <g transform="translate(59.5 77.086491) scale(0.1 -0.1)">
       <use xlink:href="#DejaVuSans-31" transform="translate(0 0.684375)"/>
       <use xlink:href="#DejaVuSans-30" transform="translate(63.623047 0.684375)"/>
       <use xlink:href="#DejaVuSans-2212" transform="translate(128.203125 38.965625) scale(0.7)"/>
       <use xlink:href="#DejaVuSans-31" transform="translate(186.855469 38.965625) scale(0.7)"/>
      </g>
     </g>
    </g>
    <g id="ytick_5">
     <g id="line2d_21">
      <path d="M 90 319.284469 
L 648 319.284469 
" clip-path="url(#p945bbf89a8)" style="fill: none; stroke: #b0b0b0; stroke-opacity: 0.5; stroke-width: 0.8; stroke-linecap: square"/>
     </g>
     <g id="line2d_22">
      <defs>
       <path id="m36f329cc2d" d="M 0 0 
L -2 0 
" style="stroke: #000000; stroke-width: 0.6"/>
      </defs>
      <g>
       <use xlink:href="#m36f329cc2d" x="90" y="319.284469" style="stroke: #000000; stroke-width: 0.6"/>
      </g>
     </g>
    </g>
    <g id="ytick_6">
     <g id="line2d_23">
      <path d="M 90 312.268573 
L 648 312.268573 
" clip-path="url(#p945bbf89a8)" style="fill: none; stroke: #b0b0b0; stroke-opacity: 0.5; stroke-width: 0.8; stroke-linecap: square"/>
     </g>
     <g id="line2d_24">
      <g>
       <use xlink:href="#m36f329cc2d" x="90" y="312.268573" style="stroke: #000000; stroke-width: 0.6"/>
      </g>
     </g>
    </g>
    <g id="ytick_7">
     <g id="line2d_25">
      <path d="M 90 306.536169 
L 648 306.536169 
" clip-path="url(#p945bbf89a8)" style="fill: none; stroke: #b0b0b0; stroke-opacity: 0.5; stroke-width: 0.8; stroke-linecap: square"/>
     </g>
     <g id="line2d_26">
      <g>
       <use xlink:href="#m36f329cc2d" x="90" y="306.536169" style="stroke: #000000; stroke-width: 0.6"/>
      </g>
     </g>
    </g>
    <g id="ytick_8">
     <g id="line2d_27">
      <path d="M 90 301.689491 
L 648 301.689491 
" clip-path="url(#p945bbf89a8)" style="fill: none; stroke: #b0b0b0; stroke-opacity: 0.5; stroke-width: 0.8; stroke-linecap: square"/>
     </g>
     <g id="line2d_28">
      <g>
       <use xlink:href="#m36f329cc2d" x="90" y="301.689491" style="stroke: #000000; stroke-width: 0.6"/>
      </g>
     </g>
    </g>
    <g id="ytick_9">
     <g id="line2d_29">
      <path d="M 90 297.491107 
L 648 297.491107 
" clip-path="url(#p945bbf89a8)" style="fill: none; stroke: #b0b0b0; stroke-opacity: 0.5; stroke-width: 0.8; stroke-linecap: square"/>
     </g>
     <g id="line2d_30">
      <g>
       <use xlink:href="#m36f329cc2d" x="90" y="297.491107" style="stroke: #000000; stroke-width: 0.6"/>
      </g>
     </g>
    </g>
    <g id="ytick_10">
     <g id="line2d_31">
      <path d="M 90 293.78787 
L 648 293.78787 
" clip-path="url(#p945bbf89a8)" style="fill: none; stroke: #b0b0b0; stroke-opacity: 0.5; stroke-width: 0.8; stroke-linecap: square"/>
     </g>
     <g id="line2d_32">
      <g>
       <use xlink:href="#m36f329cc2d" x="90" y="293.78787" style="stroke: #000000; stroke-width: 0.6"/>
      </g>
     </g>
    </g>
    <g id="ytick_11">
     <g id="line2d_33">
      <path d="M 90 268.68185 
L 648 268.68185 
" clip-path="url(#p945bbf89a8)" style="fill: none; stroke: #b0b0b0; stroke-opacity: 0.5; stroke-width: 0.8; stroke-linecap: square"/>
     </g>
     <g id="line2d_34">
      <g>
       <use xlink:href="#m36f329cc2d" x="90" y="268.68185" style="stroke: #000000; stroke-width: 0.6"/>
      </g>
     </g>
    </g>
    <g id="ytick_12">
     <g id="line2d_35">
      <path d="M 90 255.933551 
L 648 255.933551 
" clip-path="url(#p945bbf89a8)" style="fill: none; stroke: #b0b0b0; stroke-opacity: 0.5; stroke-width: 0.8; stroke-linecap: square"/>
     </g>
     <g id="line2d_36">
      <g>
       <use xlink:href="#m36f329cc2d" x="90" y="255.933551" style="stroke: #000000; stroke-width: 0.6"/>
      </g>
     </g>
    </g>
    <g id="ytick_13">
     <g id="line2d_37">
      <path d="M 90 246.888489 
L 648 246.888489 
" clip-path="url(#p945bbf89a8)" style="fill: none; stroke: #b0b0b0; stroke-opacity: 0.5; stroke-width: 0.8; stroke-linecap: square"/>
     </g>
     <g id="line2d_38">
      <g>
       <use xlink:href="#m36f329cc2d" x="90" y="246.888489" style="stroke: #000000; stroke-width: 0.6"/>
      </g>
     </g>
    </g>
    <g id="ytick_14">
     <g id="line2d_39">
      <path d="M 90 239.872593 
L 648 239.872593 
" clip-path="url(#p945bbf89a8)" style="fill: none; stroke: #b0b0b0; stroke-opacity: 0.5; stroke-width: 0.8; stroke-linecap: square"/>
     </g>
     <g id="line2d_40">
      <g>
       <use xlink:href="#m36f329cc2d" x="90" y="239.872593" style="stroke: #000000; stroke-width: 0.6"/>
      </g>
     </g>
    </g>
    <g id="ytick_15">
     <g id="line2d_41">
      <path d="M 90 234.14019 
L 648 234.14019 
" clip-path="url(#p945bbf89a8)" style="fill: none; stroke: #b0b0b0; stroke-opacity: 0.5; stroke-width: 0.8; stroke-linecap: square"/>
     </g>
     <g id="line2d_42">
      <g>
       <use xlink:href="#m36f329cc2d" x="90" y="234.14019" style="stroke: #000000; stroke-width: 0.6"/>
      </g>
     </g>
    </g>
    <g id="ytick_16">
     <g id="line2d_43">
      <path d="M 90 229.293511 
L 648 229.293511 
" clip-path="url(#p945bbf89a8)" style="fill: none; stroke: #b0b0b0; stroke-opacity: 0.5; stroke-width: 0.8; stroke-linecap: square"/>
     </g>
     <g id="line2d_44">
      <g>
       <use xlink:href="#m36f329cc2d" x="90" y="229.293511" style="stroke: #000000; stroke-width: 0.6"/>
      </g>
     </g>
    </g>
    <g id="ytick_17">
     <g id="line2d_45">
      <path d="M 90 225.095127 
L 648 225.095127 
" clip-path="url(#p945bbf89a8)" style="fill: none; stroke: #b0b0b0; stroke-opacity: 0.5; stroke-width: 0.8; stroke-linecap: square"/>
     </g>
     <g id="line2d_46">
      <g>
       <use xlink:href="#m36f329cc2d" x="90" y="225.095127" style="stroke: #000000; stroke-width: 0.6"/>
      </g>
     </g>
    </g>
    <g id="ytick_18">
     <g id="line2d_47">
      <path d="M 90 221.39189 
L 648 221.39189 
" clip-path="url(#p945bbf89a8)" style="fill: none; stroke: #b0b0b0; stroke-opacity: 0.5; stroke-width: 0.8; stroke-linecap: square"/>
     </g>
     <g id="line2d_48">
      <g>
       <use xlink:href="#m36f329cc2d" x="90" y="221.39189" style="stroke: #000000; stroke-width: 0.6"/>
      </g>
     </g>
    </g>
    <g id="ytick_19">
     <g id="line2d_49">
      <path d="M 90 196.28587 
L 648 196.28587 
" clip-path="url(#p945bbf89a8)" style="fill: none; stroke: #b0b0b0; stroke-opacity: 0.5; stroke-width: 0.8; stroke-linecap: square"/>
     </g>
     <g id="line2d_50">
      <g>
       <use xlink:href="#m36f329cc2d" x="90" y="196.28587" style="stroke: #000000; stroke-width: 0.6"/>
      </g>
     </g>
    </g>
    <g id="ytick_20">
     <g id="line2d_51">
      <path d="M 90 183.537571 
L 648 183.537571 
" clip-path="url(#p945bbf89a8)" style="fill: none; stroke: #b0b0b0; stroke-opacity: 0.5; stroke-width: 0.8; stroke-linecap: square"/>
     </g>
     <g id="line2d_52">
      <g>
       <use xlink:href="#m36f329cc2d" x="90" y="183.537571" style="stroke: #000000; stroke-width: 0.6"/>
      </g>
     </g>
    </g>
    <g id="ytick_21">
     <g id="line2d_53">
      <path d="M 90 174.492509 
L 648 174.492509 
" clip-path="url(#p945bbf89a8)" style="fill: none; stroke: #b0b0b0; stroke-opacity: 0.5; stroke-width: 0.8; stroke-linecap: square"/>
     </g>
     <g id="line2d_54">
      <g>
       <use xlink:href="#m36f329cc2d" x="90" y="174.492509" style="stroke: #000000; stroke-width: 0.6"/>
      </g>
     </g>
    </g>
    <g id="ytick_22">
     <g id="line2d_55">
      <path d="M 90 167.476614 
L 648 167.476614 
" clip-path="url(#p945bbf89a8)" style="fill: none; stroke: #b0b0b0; stroke-opacity: 0.5; stroke-width: 0.8; stroke-linecap: square"/>
     </g>
     <g id="line2d_56">
      <g>
       <use xlink:href="#m36f329cc2d" x="90" y="167.476614" style="stroke: #000000; stroke-width: 0.6"/>
      </g>
     </g>
    </g>
    <g id="ytick_23">
     <g id="line2d_57">
      <path d="M 90 161.74421 
L 648 161.74421 
" clip-path="url(#p945bbf89a8)" style="fill: none; stroke: #b0b0b0; stroke-opacity: 0.5; stroke-width: 0.8; stroke-linecap: square"/>
     </g>
     <g id="line2d_58">
      <g>
       <use xlink:href="#m36f329cc2d" x="90" y="161.74421" style="stroke: #000000; stroke-width: 0.6"/>
      </g>
     </g>
    </g>
    <g id="ytick_24">
     <g id="line2d_59">
      <path d="M 90 156.897531 
L 648 156.897531 
" clip-path="url(#p945bbf89a8)" style="fill: none; stroke: #b0b0b0; stroke-opacity: 0.5; stroke-width: 0.8; stroke-linecap: square"/>
     </g>
     <g id="line2d_60">
      <g>
       <use xlink:href="#m36f329cc2d" x="90" y="156.897531" style="stroke: #000000; stroke-width: 0.6"/>
      </g>
     </g>
    </g>
    <g id="ytick_25">
     <g id="line2d_61">
      <path d="M 90 152.699147 
L 648 152.699147 
" clip-path="url(#p945bbf89a8)" style="fill: none; stroke: #b0b0b0; stroke-opacity: 0.5; stroke-width: 0.8; stroke-linecap: square"/>
     </g>
     <g id="line2d_62">
      <g>
       <use xlink:href="#m36f329cc2d" x="90" y="152.699147" style="stroke: #000000; stroke-width: 0.6"/>
      </g>
     </g>
    </g>
    <g id="ytick_26">
     <g id="line2d_63">
      <path d="M 90 148.99591 
L 648 148.99591 
" clip-path="url(#p945bbf89a8)" style="fill: none; stroke: #b0b0b0; stroke-opacity: 0.5; stroke-width: 0.8; stroke-linecap: square"/>
     </g>
     <g id="line2d_64">
      <g>
       <use xlink:href="#m36f329cc2d" x="90" y="148.99591" style="stroke: #000000; stroke-width: 0.6"/>
      </g>
     </g>
    </g>
    <g id="ytick_27">
     <g id="line2d_65">
      <path d="M 90 123.889891 
L 648 123.889891 
" clip-path="url(#p945bbf89a8)" style="fill: none; stroke: #b0b0b0; stroke-opacity: 0.5; stroke-width: 0.8; stroke-linecap: square"/>
     </g>
     <g id="line2d_66">
      <g>
       <use xlink:href="#m36f329cc2d" x="90" y="123.889891" style="stroke: #000000; stroke-width: 0.6"/>
      </g>
     </g>
    </g>
    <g id="ytick_28">
     <g id="line2d_67">
      <path d="M 90 111.141591 
L 648 111.141591 
" clip-path="url(#p945bbf89a8)" style="fill: none; stroke: #b0b0b0; stroke-opacity: 0.5; stroke-width: 0.8; stroke-linecap: square"/>
     </g>
     <g id="line2d_68">
      <g>
       <use xlink:href="#m36f329cc2d" x="90" y="111.141591" style="stroke: #000000; stroke-width: 0.6"/>
      </g>
     </g>
    </g>
    <g id="ytick_29">
     <g id="line2d_69">
      <path d="M 90 102.096529 
L 648 102.096529 
" clip-path="url(#p945bbf89a8)" style="fill: none; stroke: #b0b0b0; stroke-opacity: 0.5; stroke-width: 0.8; stroke-linecap: square"/>
     </g>
     <g id="line2d_70">
      <g>
       <use xlink:href="#m36f329cc2d" x="90" y="102.096529" style="stroke: #000000; stroke-width: 0.6"/>
      </g>
     </g>
    </g>
    <g id="ytick_30">
     <g id="line2d_71">
      <path d="M 90 95.080634 
L 648 95.080634 
" clip-path="url(#p945bbf89a8)" style="fill: none; stroke: #b0b0b0; stroke-opacity: 0.5; stroke-width: 0.8; stroke-linecap: square"/>
     </g>
     <g id="line2d_72">
      <g>
       <use xlink:href="#m36f329cc2d" x="90" y="95.080634" style="stroke: #000000; stroke-width: 0.6"/>
      </g>
     </g>
    </g>
    <g id="ytick_31">
     <g id="line2d_73">
      <path d="M 90 89.34823 
L 648 89.34823 
" clip-path="url(#p945bbf89a8)" style="fill: none; stroke: #b0b0b0; stroke-opacity: 0.5; stroke-width: 0.8; stroke-linecap: square"/>
     </g>
     <g id="line2d_74">
      <g>
       <use xlink:href="#m36f329cc2d" x="90" y="89.34823" style="stroke: #000000; stroke-width: 0.6"/>
      </g>
     </g>
    </g>
    <g id="ytick_32">
     <g id="line2d_75">
      <path d="M 90 84.501551 
L 648 84.501551 
" clip-path="url(#p945bbf89a8)" style="fill: none; stroke: #b0b0b0; stroke-opacity: 0.5; stroke-width: 0.8; stroke-linecap: square"/>
     </g>
     <g id="line2d_76">
      <g>
       <use xlink:href="#m36f329cc2d" x="90" y="84.501551" style="stroke: #000000; stroke-width: 0.6"/>
      </g>
     </g>
    </g>
    <g id="ytick_33">
     <g id="line2d_77">
      <path d="M 90 80.303168 
L 648 80.303168 
" clip-path="url(#p945bbf89a8)" style="fill: none; stroke: #b0b0b0; stroke-opacity: 0.5; stroke-width: 0.8; stroke-linecap: square"/>
     </g>
     <g id="line2d_78">
      <g>
       <use xlink:href="#m36f329cc2d" x="90" y="80.303168" style="stroke: #000000; stroke-width: 0.6"/>
      </g>
     </g>
    </g>
    <g id="ytick_34">
     <g id="line2d_79">
      <path d="M 90 76.599931 
L 648 76.599931 
" clip-path="url(#p945bbf89a8)" style="fill: none; stroke: #b0b0b0; stroke-opacity: 0.5; stroke-width: 0.8; stroke-linecap: square"/>
     </g>
     <g id="line2d_80">
      <g>
       <use xlink:href="#m36f329cc2d" x="90" y="76.599931" style="stroke: #000000; stroke-width: 0.6"/>
      </g>
     </g>
    </g>
    <g id="ytick_35">
     <g id="line2d_81">
      <path d="M 90 51.493911 
L 648 51.493911 
" clip-path="url(#p945bbf89a8)" style="fill: none; stroke: #b0b0b0; stroke-opacity: 0.5; stroke-width: 0.8; stroke-linecap: square"/>
     </g>
     <g id="line2d_82">
      <g>
       <use xlink:href="#m36f329cc2d" x="90" y="51.493911" style="stroke: #000000; stroke-width: 0.6"/>
      </g>
     </g>
    </g>
    <g id="text_12">
     <!-- MSE Loss (Log Scale) -->
     <g transform="translate(53.420312 234.46875) rotate(-90) scale(0.1 -0.1)">
      <defs>
       <path id="DejaVuSans-4d" d="M 628 4666 
L 1569 4666 
L 2759 1491 
L 3956 4666 
L 4897 4666 
L 4897 0 
L 4281 0 
L 4281 4097 
L 3078 897 
L 2444 897 
L 1241 4097 
L 1241 0 
L 628 0 
L 628 4666 
z
" transform="scale(0.015625)"/>
       <path id="DejaVuSans-53" d="M 3425 4513 
L 3425 3897 
Q 3066 4069 2747 4153 
Q 2428 4238 2131 4238 
Q 1616 4238 1336 4038 
Q 1056 3838 1056 3469 
Q 1056 3159 1242 3001 
Q 1428 2844 1947 2747 
L 2328 2669 
Q 3034 2534 3370 2195 
Q 3706 1856 3706 1288 
Q 3706 609 3251 259 
Q 2797 -91 1919 -91 
Q 1588 -91 1214 -16 
Q 841 59 441 206 
L 441 856 
Q 825 641 1194 531 
Q 1563 422 1919 422 
Q 2459 422 2753 634 
Q 3047 847 3047 1241 
Q 3047 1584 2836 1778 
Q 2625 1972 2144 2069 
L 1759 2144 
Q 1053 2284 737 2584 
Q 422 2884 422 3419 
Q 422 4038 858 4394 
Q 1294 4750 2059 4750 
Q 2388 4750 2728 4690 
Q 3069 4631 3425 4513 
z
" transform="scale(0.015625)"/>
       <path id="DejaVuSans-45" d="M 628 4666 
L 3578 4666 
L 3578 4134 
L 1259 4134 
L 1259 2753 
L 3481 2753 
L 3481 2222 
L 1259 2222 
L 1259 531 
L 3634 531 
L 3634 0 
L 628 0 
L 628 4666 
z
" transform="scale(0.015625)"/>
       <path id="DejaVuSans-20" transform="scale(0.015625)"/>
       <path id="DejaVuSans-4c" d="M 628 4666 
L 1259 4666 
L 1259 531 
L 3531 531 
L 3531 0 
L 628 0 
L 628 4666 
z
" transform="scale(0.015625)"/>
       <path id="DejaVuSans-28" d="M 1984 4856 
Q 1566 4138 1362 3434 
Q 1159 2731 1159 2009 
Q 1159 1288 1364 580 
Q 1569 -128 1984 -844 
L 1484 -844 
Q 1016 -109 783 600 
Q 550 1309 550 2009 
Q 550 2706 781 3412 
Q 1013 4119 1484 4856 
L 1984 4856 
z
" transform="scale(0.015625)"/>
       <path id="DejaVuSans-67" d="M 2906 1791 
Q 2906 2416 2648 2759 
Q 2391 3103 1925 3103 
Q 1463 3103 1205 2759 
Q 947 2416 947 1791 
Q 947 1169 1205 825 
Q 1463 481 1925 481 
Q 2391 481 2648 825 
Q 2906 1169 2906 1791 
z
M 3481 434 
Q 3481 -459 3084 -895 
Q 2688 -1331 1869 -1331 
Q 1566 -1331 1297 -1286 
Q 1028 -1241 775 -1147 
L 775 -588 
Q 1028 -725 1275 -790 
Q 1522 -856 1778 -856 
Q 2344 -856 2625 -561 
Q 2906 -266 2906 331 
L 2906 616 
Q 2728 306 2450 153 
Q 2172 0 1784 0 
Q 1141 0 747 490 
Q 353 981 353 1791 
Q 353 2603 747 3093 
Q 1141 3584 1784 3584 
Q 2172 3584 2450 3431 
Q 2728 3278 2906 2969 
L 2906 3500 
L 3481 3500 
L 3481 434 
z
" transform="scale(0.015625)"/>
       <path id="DejaVuSans-63" d="M 3122 3366 
L 3122 2828 
Q 2878 2963 2633 3030 
Q 2388 3097 2138 3097 
Q 1578 3097 1268 2742 
Q 959 2388 959 1747 
Q 959 1106 1268 751 
Q 1578 397 2138 397 
Q 2388 397 2633 464 
Q 2878 531 3122 666 
L 3122 134 
Q 2881 22 2623 -34 
Q 2366 -91 2075 -91 
Q 1284 -91 818 406 
Q 353 903 353 1747 
Q 353 2603 823 3093 
Q 1294 3584 2113 3584 
Q 2378 3584 2631 3529 
Q 2884 3475 3122 3366 
z
" transform="scale(0.015625)"/>
       <path id="DejaVuSans-61" d="M 2194 1759 
Q 1497 1759 1228 1600 
Q 959 1441 959 1056 
Q 959 750 1161 570 
Q 1363 391 1709 391 
Q 2188 391 2477 730 
Q 2766 1069 2766 1631 
L 2766 1759 
L 2194 1759 
z
M 3341 1997 
L 3341 0 
L 2766 0 
L 2766 531 
Q 2569 213 2275 61 
Q 1981 -91 1556 -91 
Q 1019 -91 701 211 
Q 384 513 384 1019 
Q 384 1609 779 1909 
Q 1175 2209 1959 2209 
L 2766 2209 
L 2766 2266 
Q 2766 2663 2505 2880 
Q 2244 3097 1772 3097 
Q 1472 3097 1187 3025 
Q 903 2953 641 2809 
L 641 3341 
Q 956 3463 1253 3523 
Q 1550 3584 1831 3584 
Q 2591 3584 2966 3190 
Q 3341 2797 3341 1997 
z
" transform="scale(0.015625)"/>
       <path id="DejaVuSans-6c" d="M 603 4863 
L 1178 4863 
L 1178 0 
L 603 0 
L 603 4863 
z
" transform="scale(0.015625)"/>
       <path id="DejaVuSans-29" d="M 513 4856 
L 1013 4856 
Q 1481 4119 1714 3412 
Q 1947 2706 1947 2009 
Q 1947 1309 1714 600 
Q 1481 -109 1013 -844 
L 513 -844 
Q 928 -128 1133 580 
Q 1338 1288 1338 2009 
Q 1338 2731 1133 3434 
Q 928 4138 513 4856 
z
" transform="scale(0.015625)"/>
      </defs>
      <use xlink:href="#DejaVuSans-4d"/>
      <use xlink:href="#DejaVuSans-53" transform="translate(86.279297 0)"/>
      <use xlink:href="#DejaVuSans-45" transform="translate(149.755859 0)"/>
      <use xlink:href="#DejaVuSans-20" transform="translate(212.939453 0)"/>
      <use xlink:href="#DejaVuSans-4c" transform="translate(244.726562 0)"/>
      <use xlink:href="#DejaVuSans-6f" transform="translate(298.689453 0)"/>
      <use xlink:href="#DejaVuSans-73" transform="translate(359.871094 0)"/>
      <use xlink:href="#DejaVuSans-73" transform="translate(411.970703 0)"/>
      <use xlink:href="#DejaVuSans-20" transform="translate(464.070312 0)"/>
      <use xlink:href="#DejaVuSans-28" transform="translate(495.857422 0)"/>
      <use xlink:href="#DejaVuSans-4c" transform="translate(534.871094 0)"/>
      <use xlink:href="#DejaVuSans-6f" transform="translate(588.833984 0)"/>
      <use xlink:href="#DejaVuSans-67" transform="translate(650.015625 0)"/>
      <use xlink:href="#DejaVuSans-20" transform="translate(713.492188 0)"/>
      <use xlink:href="#DejaVuSans-53" transform="translate(745.279297 0)"/>
      <use xlink:href="#DejaVuSans-63" transform="translate(808.755859 0)"/>
      <use xlink:href="#DejaVuSans-61" transform="translate(863.736328 0)"/>
      <use xlink:href="#DejaVuSans-6c" transform="translate(925.015625 0)"/>
      <use xlink:href="#DejaVuSans-65" transform="translate(952.798828 0)"/>
      <use xlink:href="#DejaVuSans-29" transform="translate(1014.322266 0)"/>
     </g>
    </g>
   </g>
   <g id="line2d_83">
    <path d="M 115.363636 55.8 
L 115.871417 102.094457 
L 116.379197 137.316748 
L 116.886978 156.244541 
L 117.394758 165.117802 
L 117.902539 169.23644 
L 118.9181 182.833891 
L 119.42588 184.269191 
L 119.933661 185.08406 
L 120.441441 193.610021 
L 120.949222 193.852885 
L 121.457002 196.383445 
L 121.964783 197.898339 
L 122.472563 202.19938 
L 122.980344 200.172169 
L 123.488124 197.268487 
L 123.995905 204.337417 
L 124.503686 206.803788 
L 125.011466 206.907395 
L 125.519247 207.607608 
L 126.027027 207.567958 
L 126.534808 210.63775 
L 127.042588 212.646867 
L 127.550369 210.983514 
L 128.56593 214.360223 
L 129.07371 213.846938 
L 129.581491 215.135287 
L 130.089271 215.539105 
L 130.597052 219.912444 
L 131.104832 216.754494 
L 131.612613 216.79986 
L 132.120393 218.963073 
L 132.628174 221.85027 
L 133.135954 219.086494 
L 133.643735 222.720691 
L 134.151515 223.335584 
L 134.659296 218.513528 
L 135.167076 219.09565 
L 135.674857 225.084292 
L 136.182637 222.995114 
L 136.690418 224.433128 
L 137.198198 224.658149 
L 137.705979 222.772448 
L 138.213759 226.587903 
L 138.72154 225.222216 
L 139.22932 228.306402 
L 139.737101 226.06018 
L 140.244881 222.144868 
L 140.752662 229.479727 
L 141.260442 228.772327 
L 141.768223 230.105911 
L 142.276003 229.266759 
L 142.783784 230.929032 
L 143.291564 233.39963 
L 143.799345 234.37518 
L 144.307125 234.363541 
L 144.814906 232.452825 
L 145.322686 233.233485 
L 145.830467 232.366194 
L 146.338247 235.497764 
L 146.846028 233.031154 
L 147.353808 229.428621 
L 147.861589 235.845048 
L 148.369369 235.938999 
L 148.87715 230.365783 
L 149.38493 237.214925 
L 149.892711 236.057063 
L 150.400491 235.282446 
L 150.908272 228.481473 
L 151.416052 231.532795 
L 151.923833 236.477724 
L 152.431613 237.01447 
L 152.939394 239.966725 
L 153.447174 244.539517 
L 154.462735 238.034272 
L 154.970516 241.5331 
L 155.478296 234.697438 
L 155.986077 239.739259 
L 156.493857 232.224539 
L 157.001638 238.384086 
L 157.509419 234.739152 
L 158.017199 238.696204 
L 158.52498 243.66821 
L 159.03276 240.977213 
L 159.540541 239.159904 
L 160.048321 242.210787 
L 160.556102 248.454818 
L 161.063882 241.94394 
L 161.571663 238.432672 
L 162.079443 235.917821 
L 162.587224 232.840154 
L 163.095004 242.542038 
L 163.602785 240.294945 
L 164.110565 241.974966 
L 164.618346 242.103145 
L 165.126126 241.993582 
L 166.141687 235.19285 
L 166.649468 245.409058 
L 167.157248 246.761381 
L 167.665029 240.240311 
L 168.172809 245.614882 
L 168.68059 240.337889 
L 169.18837 246.879583 
L 169.696151 244.665932 
L 170.203931 247.524777 
L 170.711712 243.927782 
L 171.219492 247.961352 
L 171.727273 247.428131 
L 172.235053 244.168448 
L 172.742834 250.1396 
L 173.250614 243.098353 
L 173.758395 242.509902 
L 174.266175 244.49196 
L 174.773956 248.976176 
L 175.281736 249.256373 
L 175.789517 243.92658 
L 176.805078 246.2538 
L 177.820639 242.200609 
L 178.328419 246.131322 
L 178.8362 246.249091 
L 179.34398 238.554859 
L 179.851761 243.605374 
L 180.359541 244.057298 
L 180.867322 249.273566 
L 181.375102 243.02384 
L 181.882883 244.200325 
L 182.390663 253.61373 
L 182.898444 248.0488 
L 183.406224 249.819981 
L 184.421785 246.870133 
L 184.929566 250.614606 
L 185.437346 246.386977 
L 185.945127 246.878279 
L 186.452907 246.935099 
L 186.960688 254.664124 
L 187.976249 246.424499 
L 188.484029 245.308135 
L 188.99181 246.116406 
L 189.49959 248.462237 
L 190.007371 244.691014 
L 191.022932 250.820892 
L 191.530713 251.817939 
L 192.038493 254.872532 
L 192.546274 249.353908 
L 193.054054 250.289564 
L 193.561835 250.083834 
L 194.069615 247.725736 
L 194.577396 253.634204 
L 195.085176 240.033756 
L 195.592957 252.428805 
L 196.100737 252.058872 
L 196.608518 245.076225 
L 197.116298 250.66528 
L 197.624079 250.378437 
L 198.131859 247.909202 
L 198.63964 250.836234 
L 199.14742 255.112192 
L 199.655201 261.987186 
L 200.162981 255.068896 
L 200.670762 250.85319 
L 201.178542 255.39857 
L 201.686323 256.262213 
L 202.194103 242.741787 
L 202.701884 249.366324 
L 203.209664 249.680631 
L 203.717445 251.152673 
L 204.225225 254.0962 
L 204.733006 242.496428 
L 205.748567 256.916132 
L 206.256347 250.561873 
L 207.271908 249.577987 
L 207.779689 253.598813 
L 208.287469 252.816321 
L 208.79525 250.729068 
L 209.30303 256.68303 
L 209.810811 259.252006 
L 210.318591 253.994105 
L 210.826372 255.992564 
L 211.334152 255.70944 
L 211.841933 251.803911 
L 212.349713 252.523628 
L 212.857494 256.886501 
L 213.873055 247.087158 
L 214.380835 255.182064 
L 214.888616 257.781097 
L 215.396396 252.958847 
L 215.904177 258.652943 
L 216.411957 255.897674 
L 216.919738 259.690184 
L 217.427518 254.000281 
L 217.935299 261.496069 
L 218.443079 255.774946 
L 218.95086 258.225044 
L 219.45864 256.420341 
L 219.966421 259.773837 
L 220.474201 254.357837 
L 220.981982 256.655465 
L 221.489762 252.881915 
L 221.997543 254.767972 
L 223.013104 261.994929 
L 223.520885 256.820606 
L 224.028665 252.832304 
L 224.536446 255.171445 
L 225.044226 254.02696 
L 225.552007 257.015355 
L 226.059787 261.069449 
L 226.567568 257.098709 
L 227.075348 258.218336 
L 227.583129 260.634126 
L 228.090909 260.083306 
L 228.59869 260.859728 
L 229.10647 253.675417 
L 229.614251 255.38098 
L 230.122031 259.27099 
L 230.629812 253.024606 
L 231.137592 262.114992 
L 231.645373 267.23925 
L 232.153153 261.757211 
L 232.660934 259.066953 
L 233.168714 259.125404 
L 233.676495 258.421898 
L 234.184275 260.869864 
L 234.692056 258.33866 
L 235.199836 258.237984 
L 235.707617 256.532247 
L 236.215397 262.084257 
L 236.723178 258.410131 
L 237.230958 263.602643 
L 237.738739 262.024634 
L 238.246519 261.677699 
L 238.7543 268.655467 
L 239.26208 264.643437 
L 239.769861 265.535887 
L 240.277641 254.63325 
L 240.785422 264.033319 
L 241.293202 258.986514 
L 241.800983 262.584237 
L 242.308763 262.710101 
L 242.816544 256.775077 
L 243.324324 258.30858 
L 243.832105 265.67754 
L 244.339885 257.373456 
L 244.847666 254.981686 
L 245.355446 265.50056 
L 245.863227 253.797377 
L 246.371007 260.952809 
L 246.878788 262.149297 
L 247.386568 259.79043 
L 247.894349 255.544143 
L 248.402129 255.78578 
L 248.90991 257.569833 
L 249.41769 264.075635 
L 249.925471 257.934951 
L 250.433251 261.104039 
L 250.941032 266.4742 
L 251.448812 264.341831 
L 251.956593 263.405749 
L 252.464373 264.430621 
L 252.972154 256.672177 
L 253.479934 259.2976 
L 253.987715 259.929905 
L 254.495495 262.594413 
L 255.003276 264.043298 
L 255.511057 259.260491 
L 256.018837 262.615722 
L 256.526618 262.296496 
L 257.034398 262.488821 
L 257.542179 266.213826 
L 258.049959 271.291539 
L 258.55774 270.603866 
L 259.06552 265.246818 
L 259.573301 271.397184 
L 260.081081 265.851032 
L 260.588862 264.065253 
L 261.096642 260.213862 
L 261.604423 260.362789 
L 262.112203 267.991112 
L 262.619984 263.788863 
L 263.127764 265.222069 
L 263.635545 259.150305 
L 264.143325 266.703825 
L 264.651106 267.57969 
L 265.158886 266.125841 
L 265.666667 263.582944 
L 266.174447 265.856597 
L 266.682228 266.452716 
L 267.190008 263.525977 
L 267.697789 265.053563 
L 268.205569 268.153979 
L 268.71335 266.879176 
L 269.22113 271.55235 
L 269.728911 269.759655 
L 270.236691 269.911625 
L 270.744472 260.773575 
L 271.252252 268.473698 
L 271.760033 266.167126 
L 272.267813 268.090938 
L 272.775594 267.524255 
L 273.283374 268.436014 
L 273.791155 261.152796 
L 274.298935 273.328637 
L 274.806716 269.181157 
L 275.314496 273.617339 
L 275.822277 268.219612 
L 276.330057 264.277207 
L 276.837838 266.86027 
L 277.345618 267.613861 
L 277.853399 269.728892 
L 278.361179 254.3813 
L 278.86896 261.166602 
L 279.37674 263.998763 
L 279.884521 262.882026 
L 280.392301 264.807784 
L 280.900082 264.642083 
L 281.407862 271.233734 
L 281.915643 270.440703 
L 282.423423 272.673202 
L 282.931204 270.912167 
L 283.438984 270.619507 
L 283.946765 267.979551 
L 284.454545 269.423583 
L 284.962326 271.903256 
L 285.470106 268.80508 
L 285.977887 270.042018 
L 286.993448 272.97989 
L 287.501229 276.399849 
L 288.009009 266.294989 
L 288.51679 265.881325 
L 289.02457 271.87172 
L 289.532351 272.575369 
L 290.040131 270.214577 
L 290.547912 266.92601 
L 291.055692 268.19466 
L 291.563473 271.707226 
L 292.071253 271.471328 
L 292.579034 272.286394 
L 293.086814 275.521454 
L 293.594595 273.638029 
L 294.102375 276.07037 
L 294.610156 266.459113 
L 295.117936 264.800579 
L 295.625717 260.62485 
L 296.641278 272.415411 
L 297.149058 274.698439 
L 297.656839 274.193931 
L 298.164619 267.381616 
L 298.6724 271.06233 
L 299.18018 266.961479 
L 299.687961 274.085217 
L 300.195741 261.233616 
L 300.703522 270.270245 
L 301.211302 269.536154 
L 301.719083 272.018014 
L 302.226863 273.422516 
L 302.734644 269.326531 
L 303.242424 277.174952 
L 303.750205 271.88976 
L 304.257985 271.056411 
L 304.765766 277.091247 
L 305.273546 270.648527 
L 305.781327 276.376947 
L 306.289107 271.958674 
L 306.796888 271.897389 
L 307.304668 276.213629 
L 307.812449 267.062005 
L 308.320229 269.944569 
L 308.82801 264.306021 
L 309.33579 273.952536 
L 309.843571 277.684753 
L 310.351351 274.185673 
L 310.859132 276.929189 
L 311.366912 276.106589 
L 311.874693 275.993672 
L 312.382473 274.878688 
L 312.890254 271.02581 
L 313.398034 272.428138 
L 313.905815 266.448264 
L 314.413595 272.727333 
L 314.921376 274.460354 
L 315.429156 274.587596 
L 315.936937 268.411733 
L 316.444717 271.420366 
L 316.952498 268.27788 
L 317.460278 271.844184 
L 317.968059 270.974197 
L 318.98362 278.645173 
L 319.4914 271.979388 
L 319.999181 276.270321 
L 320.506962 272.953688 
L 321.014742 278.183227 
L 321.522523 280.165404 
L 322.030303 270.868166 
L 322.538084 269.642674 
L 323.045864 272.469436 
L 323.553645 278.943598 
L 324.061425 275.665199 
L 324.569206 269.095675 
L 325.076986 275.607709 
L 325.584767 276.50837 
L 326.092547 271.128013 
L 326.600328 273.956668 
L 327.108108 268.22466 
L 327.615889 270.277717 
L 328.123669 277.316786 
L 328.63145 277.30685 
L 329.13923 282.629082 
L 329.647011 277.732211 
L 330.154791 275.795823 
L 330.662572 275.969883 
L 331.170352 279.06477 
L 331.678133 276.295728 
L 332.185913 279.81869 
L 333.201474 273.014931 
L 333.709255 279.716396 
L 334.217035 276.53279 
L 334.724816 276.953945 
L 335.232596 277.88557 
L 335.740377 277.045901 
L 336.248157 277.478216 
L 337.263718 267.378799 
L 337.771499 269.901751 
L 338.279279 278.066551 
L 339.29484 280.597289 
L 339.802621 273.220841 
L 340.310401 282.879463 
L 340.818182 279.065744 
L 341.325962 269.138624 
L 341.833743 274.205972 
L 342.341523 275.785286 
L 342.849304 280.173399 
L 343.357084 280.464182 
L 343.864865 285.046923 
L 344.372645 276.604555 
L 344.880426 275.25012 
L 345.388206 276.97701 
L 345.895987 276.191956 
L 346.403767 275.891578 
L 346.911548 276.112564 
L 347.419328 281.125693 
L 347.927109 280.477493 
L 348.434889 279.484326 
L 348.94267 276.306247 
L 349.45045 282.625391 
L 349.958231 277.54495 
L 350.466011 278.653777 
L 350.973792 275.93342 
L 351.481572 277.643533 
L 351.989353 277.206055 
L 352.497133 279.462139 
L 353.004914 270.564742 
L 353.512695 278.07686 
L 354.020475 272.241251 
L 354.528256 280.741117 
L 355.036036 280.089642 
L 355.543817 282.327812 
L 356.051597 277.002455 
L 356.559378 277.633384 
L 357.067158 276.815247 
L 357.574939 283.103336 
L 358.5905 271.626034 
L 359.09828 281.998829 
L 359.606061 277.273722 
L 360.113841 280.347699 
L 361.129402 276.76766 
L 361.637183 272.963493 
L 362.144963 278.202194 
L 363.160524 285.545982 
L 363.668305 273.071542 
L 364.176085 274.410959 
L 364.683866 281.590441 
L 365.191646 282.966579 
L 365.699427 277.780641 
L 366.207207 287.53687 
L 366.714988 279.611598 
L 367.222768 284.800755 
L 367.730549 281.933823 
L 368.238329 280.863515 
L 368.74611 284.725869 
L 369.761671 284.373315 
L 370.269451 278.90035 
L 370.777232 284.695318 
L 371.285012 282.039078 
L 371.792793 274.843573 
L 372.808354 281.34757 
L 373.316134 282.500693 
L 373.823915 282.901239 
L 374.331695 271.803417 
L 375.347256 286.138365 
L 375.855037 282.63102 
L 376.870598 277.804769 
L 377.378378 282.599 
L 377.886159 285.52521 
L 378.393939 269.565525 
L 378.90172 278.583785 
L 379.4095 277.962405 
L 379.917281 281.132497 
L 380.932842 285.063925 
L 381.440622 288.686793 
L 381.948403 281.482691 
L 382.456183 284.416591 
L 382.963964 288.191657 
L 383.471744 280.123711 
L 383.979525 282.851537 
L 384.487305 286.445309 
L 384.995086 284.537235 
L 385.502867 287.056519 
L 386.010647 284.221368 
L 386.518428 283.779299 
L 387.026208 282.94202 
L 387.533989 275.325302 
L 388.041769 284.485791 
L 388.54955 286.364424 
L 389.05733 286.049959 
L 389.565111 274.899264 
L 390.072891 286.965582 
L 390.580672 283.665244 
L 391.088452 284.357474 
L 391.596233 278.53752 
L 392.104013 281.690962 
L 392.611794 281.415889 
L 393.119574 283.070043 
L 393.627355 279.175865 
L 394.135135 286.988689 
L 394.642916 284.522479 
L 395.150696 286.857679 
L 395.658477 278.362206 
L 396.166257 284.577858 
L 396.674038 281.682046 
L 397.181818 285.227377 
L 397.689599 289.69627 
L 398.197379 276.815767 
L 398.70516 285.364584 
L 399.21294 286.009768 
L 399.720721 286.156618 
L 400.228501 286.926765 
L 401.244062 273.658428 
L 401.751843 270.873267 
L 402.259623 281.627197 
L 402.767404 284.199092 
L 403.275184 284.754174 
L 403.782965 289.174496 
L 404.798526 285.731574 
L 405.306306 285.957666 
L 405.814087 281.507679 
L 406.321867 285.00928 
L 406.829648 281.351371 
L 407.337428 279.979847 
L 407.845209 290.00479 
L 408.352989 289.304698 
L 408.86077 289.057252 
L 409.36855 284.283558 
L 409.876331 281.960369 
L 410.384111 282.985134 
L 410.891892 283.251648 
L 411.399672 280.21766 
L 411.907453 282.974703 
L 412.415233 286.86757 
L 412.923014 285.890287 
L 413.430794 284.425575 
L 413.938575 287.052084 
L 414.446355 288.292818 
L 414.954136 289.232762 
L 415.461916 285.788472 
L 415.969697 292.370185 
L 416.477477 288.686541 
L 416.985258 287.177866 
L 417.493038 289.739709 
L 418.000819 282.116604 
L 418.5086 290.083379 
L 419.01638 289.711836 
L 419.524161 286.088269 
L 420.031941 280.283248 
L 420.539722 282.187585 
L 421.047502 286.84883 
L 421.555283 283.072891 
L 422.063063 285.837443 
L 422.570844 291.353071 
L 423.078624 287.72199 
L 423.586405 286.276371 
L 424.094185 286.581821 
L 424.601966 290.153455 
L 425.109746 283.31252 
L 425.617527 285.787885 
L 426.125307 290.84284 
L 426.633088 289.417874 
L 427.140868 279.206509 
L 427.648649 285.408431 
L 428.156429 277.779974 
L 428.66421 289.66744 
L 429.17199 294.962322 
L 429.679771 286.142778 
L 430.187551 285.181063 
L 430.695332 294.902807 
L 431.203112 285.011935 
L 431.710893 286.197141 
L 432.218673 288.317986 
L 432.726454 289.940238 
L 433.234234 293.398844 
L 433.742015 293.091947 
L 434.249795 293.039223 
L 434.757576 293.939968 
L 435.265356 280.664038 
L 435.773137 289.51405 
L 436.280917 290.193996 
L 436.788698 287.336192 
L 437.296478 290.887089 
L 437.804259 286.453555 
L 438.312039 293.721976 
L 438.81982 287.25213 
L 439.835381 292.253558 
L 440.343161 292.864267 
L 440.850942 293.693464 
L 441.358722 287.71653 
L 441.866503 293.472924 
L 442.374283 293.245322 
L 442.882064 283.61768 
L 443.389844 284.012137 
L 443.897625 286.278819 
L 444.405405 291.797448 
L 444.913186 294.303611 
L 445.420966 288.017029 
L 445.928747 290.923324 
L 446.436527 288.701324 
L 446.944308 289.180495 
L 447.452088 284.791302 
L 447.959869 277.606451 
L 448.467649 286.613549 
L 448.97543 289.522863 
L 449.48321 289.364875 
L 449.990991 291.977023 
L 450.498771 283.445497 
L 451.006552 287.194482 
L 451.514333 289.149934 
L 452.022113 292.112491 
L 452.529894 280.454528 
L 453.037674 278.132984 
L 453.545455 286.689514 
L 454.053235 284.462473 
L 454.561016 283.754786 
L 455.068796 288.571712 
L 456.592138 293.881113 
L 457.099918 292.404009 
L 457.607699 295.30686 
L 458.115479 291.687024 
L 458.62326 295.952061 
L 459.13104 282.089584 
L 459.638821 293.575012 
L 460.146601 286.551631 
L 460.654382 294.506304 
L 461.162162 293.786573 
L 461.669943 295.623348 
L 462.177723 294.14083 
L 463.193284 289.208153 
L 463.701065 296.132607 
L 464.208845 293.308359 
L 464.716626 289.647343 
L 465.224406 294.403594 
L 465.732187 295.266918 
L 466.239967 289.645653 
L 466.747748 293.380888 
L 467.255528 288.842551 
L 467.763309 292.029599 
L 468.271089 293.124107 
L 468.77887 293.077983 
L 469.28665 296.316188 
L 469.794431 286.610631 
L 470.302211 291.236203 
L 470.809992 289.597468 
L 471.317772 292.043052 
L 471.825553 293.583295 
L 472.333333 289.008887 
L 472.841114 294.149999 
L 473.856675 290.983788 
L 474.364455 297.109022 
L 474.872236 286.22557 
L 475.887797 294.280857 
L 476.395577 294.431805 
L 476.903358 292.200227 
L 477.411138 291.432336 
L 477.918919 296.96667 
L 478.93448 288.647192 
L 479.44226 295.831819 
L 479.950041 296.808034 
L 480.457821 295.876426 
L 480.965602 288.421025 
L 481.473382 288.568994 
L 481.981163 291.686276 
L 482.488943 290.942889 
L 482.996724 295.426507 
L 483.504505 295.399073 
L 484.012285 297.710738 
L 484.520066 296.519603 
L 485.027846 294.744074 
L 485.535627 293.519024 
L 486.043407 290.842922 
L 486.551188 296.147982 
L 487.058968 289.197336 
L 487.566749 295.760141 
L 488.074529 296.248165 
L 488.58231 296.3048 
L 489.09009 298.497791 
L 489.597871 294.226064 
L 490.105651 296.689826 
L 490.613432 291.240192 
L 491.121212 292.590261 
L 491.628993 299.429171 
L 492.136773 297.817783 
L 492.644554 294.476906 
L 493.152334 296.943274 
L 493.660115 295.642055 
L 494.675676 295.662916 
L 495.183456 285.670065 
L 495.691237 292.21748 
L 496.199017 293.718764 
L 496.706798 292.565684 
L 497.214578 295.598782 
L 497.722359 296.337321 
L 498.73792 300.386723 
L 499.2457 294.026125 
L 499.753481 293.183463 
L 500.261261 300.772091 
L 500.769042 299.596275 
L 501.276822 295.397146 
L 501.784603 297.037007 
L 502.292383 297.238507 
L 503.307944 297.906483 
L 503.815725 298.837623 
L 504.323505 296.725154 
L 504.831286 295.212241 
L 505.339066 294.969327 
L 505.846847 290.549609 
L 506.862408 296.823507 
L 507.370188 290.790658 
L 507.877969 289.950545 
L 508.385749 293.888388 
L 508.89353 292.239218 
L 509.909091 299.583734 
L 510.416871 290.383668 
L 510.924652 295.148631 
L 511.432432 298.197159 
L 511.940213 295.051209 
L 512.447993 294.163619 
L 512.955774 293.728816 
L 513.463554 293.639087 
L 513.971335 298.687362 
L 514.479115 297.157146 
L 514.986896 297.659548 
L 515.494676 300.473358 
L 516.002457 299.640334 
L 516.510238 299.348475 
L 517.018018 298.831799 
L 517.525799 301.198098 
L 518.033579 299.601902 
L 518.54136 299.602406 
L 519.04914 296.457616 
L 519.556921 298.101913 
L 520.064701 297.014038 
L 520.572482 297.783084 
L 521.080262 299.636505 
L 521.588043 296.040391 
L 522.095823 295.685978 
L 522.603604 292.143378 
L 523.111384 300.272214 
L 523.619165 300.618521 
L 524.126945 300.027035 
L 524.634726 294.376785 
L 525.142506 293.829323 
L 525.650287 300.646205 
L 526.158067 298.796992 
L 526.665848 295.86855 
L 527.173628 290.166291 
L 527.681409 296.261402 
L 528.189189 298.243089 
L 528.69697 296.84637 
L 529.20475 299.920417 
L 529.712531 298.881402 
L 530.220311 299.041095 
L 530.728092 300.497099 
L 531.235872 298.359029 
L 532.251433 301.034287 
L 532.759214 301.596492 
L 533.266994 296.78084 
L 533.774775 296.143607 
L 534.282555 297.643315 
L 534.790336 302.001033 
L 535.805897 299.536966 
L 536.313677 296.377219 
L 536.821458 299.407916 
L 537.329238 299.948269 
L 537.837019 299.500607 
L 538.344799 300.678115 
L 538.85258 301.539531 
L 539.36036 300.986043 
L 539.868141 299.788125 
L 540.375921 301.416179 
L 541.391482 299.383509 
L 541.899263 297.659069 
L 542.407043 298.57587 
L 542.914824 301.021912 
L 543.422604 300.367368 
L 543.930385 295.341202 
L 544.438165 298.990209 
L 544.945946 299.465644 
L 545.453726 300.35331 
L 545.961507 300.274879 
L 546.469287 303.852436 
L 546.977068 300.819316 
L 547.484848 300.671467 
L 547.992629 300.140293 
L 548.50041 301.708188 
L 549.00819 299.378855 
L 549.515971 301.625631 
L 550.023751 299.843568 
L 550.531532 299.755444 
L 551.039312 302.117788 
L 551.547093 301.274527 
L 552.054873 299.518524 
L 552.562654 301.65964 
L 553.070434 299.808772 
L 553.578215 301.758327 
L 554.085995 300.719578 
L 554.593776 300.355538 
L 555.101556 296.4971 
L 555.609337 300.046992 
L 556.117117 299.337572 
L 556.624898 301.756176 
L 557.132678 301.706525 
L 557.640459 300.536669 
L 558.148239 298.525079 
L 558.65602 297.501909 
L 559.1638 301.130379 
L 559.671581 298.641523 
L 560.179361 300.217439 
L 560.687142 300.627868 
L 561.194922 302.343442 
L 561.702703 299.110418 
L 562.210483 302.055933 
L 562.718264 303.007078 
L 563.226044 301.382868 
L 563.733825 301.188182 
L 564.241605 299.444759 
L 564.749386 301.052868 
L 565.257166 303.816278 
L 565.764947 300.908349 
L 566.272727 301.231357 
L 566.780508 301.704896 
L 567.288288 306.094645 
L 567.796069 301.516367 
L 568.303849 301.224435 
L 568.81163 300.566612 
L 569.827191 303.733559 
L 570.334971 304.290709 
L 570.842752 303.8364 
L 571.350532 303.888452 
L 571.858313 301.002294 
L 572.366093 302.692871 
L 572.873874 301.688543 
L 573.381654 302.389212 
L 573.889435 302.26792 
L 574.397215 304.30352 
L 574.904996 303.565847 
L 575.412776 301.831088 
L 575.920557 301.511631 
L 576.428337 300.256133 
L 576.936118 295.725078 
L 577.443898 299.104719 
L 577.951679 298.333548 
L 578.459459 300.505902 
L 578.96724 305.445047 
L 579.47502 301.333911 
L 579.982801 302.49364 
L 580.490581 300.835719 
L 580.998362 302.545261 
L 581.506143 301.679434 
L 582.013923 304.388298 
L 583.029484 302.208373 
L 583.537265 303.832176 
L 584.045045 304.861247 
L 584.552826 306.915609 
L 585.060606 302.401538 
L 585.568387 303.798628 
L 586.076167 302.08901 
L 586.583948 302.10895 
L 587.091728 304.249485 
L 587.599509 303.873434 
L 588.61507 305.573537 
L 589.12285 301.31716 
L 589.630631 303.308436 
L 590.138411 304.480607 
L 590.646192 302.950209 
L 591.153972 306.558651 
L 591.661753 303.085604 
L 592.169533 302.127342 
L 592.677314 304.522799 
L 593.185094 303.909054 
L 593.692875 304.237931 
L 594.200655 303.902063 
L 594.708436 305.767699 
L 595.216216 303.381013 
L 595.723997 304.88647 
L 596.231777 303.726096 
L 596.739558 302.045129 
L 597.247338 306.852985 
L 597.755119 304.987549 
L 598.262899 300.774454 
L 598.77068 304.48741 
L 599.27846 305.993214 
L 599.786241 305.630823 
L 600.294021 304.079712 
L 600.801802 303.761166 
L 601.309582 306.083126 
L 601.817363 301.109839 
L 602.832924 306.401944 
L 603.340704 304.127676 
L 603.848485 305.298477 
L 604.356265 304.443827 
L 604.864046 303.080715 
L 605.371826 304.391575 
L 605.879607 303.865568 
L 606.387387 307.077685 
L 607.402948 303.194464 
L 607.910729 305.779361 
L 608.418509 302.82538 
L 608.92629 303.85748 
L 609.43407 305.194679 
L 609.941851 304.71844 
L 610.449631 304.66287 
L 610.957412 305.784027 
L 611.465192 303.232971 
L 611.972973 304.701766 
L 612.480753 302.833257 
L 612.988534 305.43543 
L 613.496314 307.179592 
L 614.004095 304.918447 
L 614.511876 305.278744 
L 615.019656 306.122169 
L 615.527437 304.519977 
L 616.035217 304.818684 
L 616.542998 305.834792 
L 617.050778 304.853038 
L 617.558559 307.8 
L 618.066339 303.872547 
L 618.57412 302.434583 
L 619.0819 307.606969 
L 619.589681 303.952417 
L 620.097461 303.006141 
L 620.605242 307.255366 
L 621.113022 305.312686 
L 621.620803 306.076155 
L 622.128583 305.20202 
L 622.636364 306.463896 
L 622.636364 306.463896 
" clip-path="url(#p945bbf89a8)" style="fill: none; stroke: #1f77b4; stroke-width: 2; stroke-linecap: square"/>
   </g>
   <g id="line2d_84">
    <path d="M 115.363636 64.811078 
L 116.379197 117.305468 
L 116.886978 135.603421 
L 117.394758 148.139946 
L 117.902539 155.810251 
L 118.410319 161.636497 
L 119.42588 169.007204 
L 121.457002 175.258013 
L 121.964783 176.326538 
L 122.472563 176.782744 
L 122.980344 177.777222 
L 123.995905 178.40502 
L 124.503686 178.971477 
L 125.011466 178.99458 
L 125.519247 179.179773 
L 126.027027 179.222498 
L 126.534808 179.732015 
L 127.042588 179.191732 
L 127.550369 179.41455 
L 128.058149 179.458258 
L 128.56593 179.760958 
L 129.07371 179.590202 
L 129.581491 179.768072 
L 130.089271 179.727168 
L 131.104832 180.016997 
L 131.612613 179.75466 
L 132.120393 179.879322 
L 132.628174 179.712226 
L 133.135954 180.173387 
L 133.643735 179.878179 
L 134.151515 180.120853 
L 135.674857 179.847436 
L 136.182637 180.091318 
L 136.690418 179.724028 
L 137.198198 179.504023 
L 138.72154 179.289312 
L 140.752662 179.337109 
L 141.260442 178.766942 
L 141.768223 178.936384 
L 142.276003 178.939782 
L 142.783784 178.741101 
L 143.291564 179.044882 
L 143.799345 179.0824 
L 144.307125 178.91373 
L 144.814906 178.467869 
L 145.322686 178.577299 
L 145.830467 178.472556 
L 146.338247 178.760832 
L 146.846028 178.457182 
L 147.861589 178.46956 
L 148.369369 178.250184 
L 148.87715 178.343625 
L 149.38493 178.085205 
L 155.478296 177.572218 
L 155.986077 177.868534 
L 157.001638 177.108785 
L 157.509419 177.487539 
L 158.017199 177.338441 
L 158.52498 177.359509 
L 159.03276 177.148294 
L 160.048321 176.868428 
L 160.556102 177.061377 
L 162.587224 176.658244 
L 163.602785 176.701025 
L 164.110565 176.36466 
L 164.618346 176.652679 
L 165.126126 176.764314 
L 166.141687 176.667198 
L 166.649468 176.353432 
L 167.665029 176.684001 
L 168.68059 176.211984 
L 169.18837 176.567193 
L 171.219492 176.100894 
L 171.727273 176.117391 
L 172.235053 175.852985 
L 172.742834 176.107071 
L 173.250614 175.813663 
L 173.758395 176.120494 
L 174.266175 175.885343 
L 174.773956 175.817703 
L 175.281736 176.027879 
L 176.805078 175.666559 
L 177.312858 175.635614 
L 177.820639 175.733263 
L 178.328419 175.4899 
L 178.8362 175.612476 
L 179.34398 175.602663 
L 179.851761 175.462023 
L 180.359541 175.545697 
L 181.375102 175.443686 
L 181.882883 175.499309 
L 182.390663 175.743568 
L 182.898444 175.75008 
L 183.406224 175.570111 
L 183.914005 175.580994 
L 184.929566 175.396213 
L 185.437346 175.497353 
L 185.945127 175.33643 
L 186.452907 175.498091 
L 186.960688 175.458251 
L 187.468468 175.235644 
L 187.976249 175.341805 
L 188.484029 175.200512 
L 188.99181 175.350266 
L 190.007371 175.068067 
L 190.515152 174.950286 
L 191.022932 174.698107 
L 191.530713 174.957955 
L 192.546274 174.576832 
L 193.054054 174.743647 
L 194.069615 174.51559 
L 194.577396 174.741123 
L 195.592957 174.688231 
L 196.100737 174.439388 
L 196.608518 174.579142 
L 197.116298 174.600493 
L 198.131859 174.317991 
L 198.63964 174.48218 
L 199.14742 174.352807 
L 200.162981 174.489629 
L 200.670762 174.297585 
L 201.178542 174.234018 
L 201.686323 174.291682 
L 202.194103 174.466175 
L 202.701884 174.022909 
L 203.209664 174.197759 
L 205.748567 173.867039 
L 206.256347 173.99397 
L 207.779689 173.780267 
L 208.287469 173.827017 
L 210.826372 173.459289 
L 211.334152 173.620098 
L 211.841933 173.402599 
L 212.857494 173.613134 
L 213.873055 173.293419 
L 214.380835 173.52399 
L 215.396396 173.414478 
L 215.904177 173.274935 
L 216.919738 173.252096 
L 217.935299 173.135053 
L 218.443079 173.059861 
L 219.45864 173.092508 
L 220.474201 172.872477 
L 220.981982 173.065117 
L 221.997543 172.784274 
L 222.505324 172.999051 
L 223.013104 172.744623 
L 223.520885 172.781338 
L 224.028665 172.981011 
L 224.536446 172.706301 
L 225.552007 172.680461 
L 228.59869 172.575893 
L 229.10647 172.685464 
L 229.614251 172.602562 
L 230.122031 172.399244 
L 230.629812 172.548535 
L 231.137592 172.403849 
L 232.660934 172.576722 
L 233.168714 172.629011 
L 233.676495 172.32941 
L 234.184275 172.558442 
L 234.692056 172.499744 
L 235.199836 172.563615 
L 237.738739 172.308482 
L 238.246519 172.498065 
L 241.800983 172.268446 
L 242.308763 172.092994 
L 242.816544 172.180999 
L 243.832105 172.043054 
L 244.847666 172.251587 
L 245.355446 171.956668 
L 245.863227 172.081314 
L 246.878788 171.859677 
L 247.894349 172.029558 
L 249.41769 172.074379 
L 249.925471 171.890009 
L 250.941032 172.037702 
L 251.448812 171.926023 
L 251.956593 171.971397 
L 252.464373 171.887472 
L 253.479934 171.948587 
L 253.987715 171.88748 
L 254.495495 172.136506 
L 255.003276 171.88886 
L 255.511057 171.777951 
L 256.018837 171.807622 
L 256.526618 171.958943 
L 257.034398 171.795978 
L 258.55774 171.79836 
L 259.06552 171.721064 
L 259.573301 171.851509 
L 260.081081 171.720473 
L 260.588862 171.746116 
L 261.096642 171.656351 
L 262.112203 171.771563 
L 262.619984 171.649142 
L 263.635545 171.793498 
L 264.143325 171.471046 
L 265.158886 171.702567 
L 265.666667 171.594616 
L 266.174447 171.637957 
L 267.190008 171.410202 
L 267.697789 171.653791 
L 268.205569 171.34872 
L 268.71335 171.405757 
L 269.22113 171.624021 
L 269.728911 171.443593 
L 270.236691 171.511304 
L 270.744472 171.21075 
L 271.760033 171.581732 
L 272.775594 171.279839 
L 273.283374 171.410295 
L 273.791155 171.282077 
L 274.298935 171.353977 
L 276.330057 171.202634 
L 276.837838 171.290114 
L 277.853399 171.168614 
L 278.361179 171.272727 
L 279.37674 171.132455 
L 281.407862 171.13431 
L 281.915643 171.162018 
L 282.931204 170.942544 
L 283.438984 171.20447 
L 283.946765 170.966831 
L 284.454545 170.862295 
L 284.962326 170.910992 
L 285.470106 170.764664 
L 285.977887 171.010085 
L 286.485667 170.839987 
L 287.501229 170.972039 
L 288.51679 170.760139 
L 289.532351 170.660036 
L 290.040131 170.858218 
L 291.055692 170.760145 
L 294.102375 170.71446 
L 294.610156 170.443206 
L 295.117936 170.657802 
L 295.625717 170.701428 
L 296.641278 170.552842 
L 297.149058 170.682444 
L 297.656839 170.509978 
L 298.6724 170.545307 
L 299.18018 170.734206 
L 300.195741 170.542781 
L 300.703522 170.540725 
L 301.211302 170.395696 
L 301.719083 170.532011 
L 302.734644 170.536404 
L 303.242424 170.457075 
L 303.750205 170.61164 
L 304.257985 170.437308 
L 304.765766 170.517728 
L 305.273546 170.393005 
L 305.781327 170.573945 
L 306.289107 170.386204 
L 307.304668 170.350217 
L 308.320229 170.447723 
L 308.82801 170.293446 
L 309.33579 170.452318 
L 310.351351 170.246724 
L 310.859132 170.465528 
L 311.366912 170.468542 
L 312.382473 170.218796 
L 314.413595 170.327994 
L 315.429156 170.15218 
L 315.936937 170.353176 
L 316.952498 170.286239 
L 323.045864 170.286722 
L 323.553645 170.137302 
L 324.061425 170.140066 
L 325.076986 170.346717 
L 325.584767 170.181911 
L 326.600328 170.230031 
L 327.108108 170.091299 
L 327.615889 170.261458 
L 328.63145 170.216009 
L 331.170352 170.119508 
L 331.678133 170.057285 
L 332.185913 170.343182 
L 332.693694 170.270092 
L 333.201474 170.060459 
L 334.217035 170.189351 
L 336.755938 170.035518 
L 337.263718 170.198461 
L 338.279279 170.071515 
L 338.78706 170.216923 
L 339.29484 170.045859 
L 340.310401 170.078758 
L 341.325962 169.969248 
L 341.833743 170.019669 
L 342.341523 170.264863 
L 342.849304 170.035118 
L 344.880426 170.090986 
L 345.388206 170.008134 
L 346.403767 170.120297 
L 347.419328 169.931824 
L 347.927109 170.049688 
L 348.434889 169.946424 
L 348.94267 170.125922 
L 349.958231 169.948515 
L 371.792793 169.906636 
L 372.300573 169.769648 
L 375.347256 169.855768 
L 376.362817 169.792312 
L 376.870598 169.901523 
L 377.886159 169.830882 
L 386.518428 169.698233 
L 387.533989 169.905189 
L 388.041769 169.767944 
L 389.05733 169.933214 
L 389.565111 169.695379 
L 390.580672 169.87942 
L 391.088452 169.746321 
L 391.596233 169.840617 
L 393.119574 169.758718 
L 393.627355 169.875988 
L 397.689599 169.661023 
L 398.197379 169.876488 
L 398.70516 169.699596 
L 399.21294 169.763569 
L 400.228501 169.700905 
L 401.751843 169.651374 
L 402.259623 169.563879 
L 404.290745 169.695824 
L 405.814087 169.64313 
L 406.321867 169.818312 
L 406.829648 169.859763 
L 407.845209 169.592846 
L 408.352989 169.68783 
L 409.876331 169.66072 
L 410.384111 169.773087 
L 411.399672 169.67535 
L 412.415233 169.634459 
L 413.430794 169.647564 
L 414.446355 169.827307 
L 414.954136 169.671455 
L 415.461916 169.692251 
L 416.477477 169.572707 
L 416.985258 169.742303 
L 417.493038 169.592616 
L 418.000819 169.704524 
L 418.5086 169.605522 
L 420.031941 169.70289 
L 420.539722 169.46487 
L 421.555283 169.629176 
L 423.586405 169.413467 
L 424.094185 169.609699 
L 425.617527 169.515394 
L 426.125307 169.592535 
L 428.156429 169.391803 
L 429.679771 169.48562 
L 430.187551 169.421064 
L 431.710893 169.551317 
L 432.726454 169.482004 
L 433.234234 169.591186 
L 434.249795 169.478516 
L 438.81982 169.500582 
L 439.3276 169.41329 
L 439.835381 169.453387 
L 440.343161 169.369826 
L 441.358722 169.376547 
L 441.866503 169.278474 
L 442.374283 169.431492 
L 445.420966 169.370631 
L 450.498771 169.358087 
L 452.529894 169.316736 
L 456.084357 169.263472 
L 456.592138 169.185076 
L 457.607699 169.292923 
L 458.115479 169.219915 
L 459.13104 169.374716 
L 461.162162 169.238807 
L 461.669943 169.223834 
L 462.177723 169.401268 
L 463.193284 169.275936 
L 463.701065 169.340109 
L 464.208845 169.218562 
L 465.224406 169.222403 
L 485.535627 169.015263 
L 486.043407 169.153426 
L 486.551188 168.984582 
L 487.058968 169.077738 
L 487.566749 168.965913 
L 491.121212 169.051824 
L 492.136773 168.988895 
L 493.152334 168.924656 
L 493.660115 168.839358 
L 494.167895 168.99591 
L 497.722359 168.995536 
L 498.230139 168.839938 
L 498.73792 168.876871 
L 499.2457 169.054073 
L 499.753481 168.874997 
L 500.261261 168.998513 
L 501.276822 168.945568 
L 502.292383 168.826985 
L 502.800164 168.917639 
L 503.815725 168.797655 
L 504.831286 168.934302 
L 506.354627 168.876736 
L 507.370188 168.943582 
L 508.385749 168.785687 
L 509.40131 168.894233 
L 513.463554 168.845984 
L 513.971335 168.92529 
L 514.479115 168.795642 
L 514.986896 168.887579 
L 515.494676 168.752629 
L 517.018018 168.7742 
L 517.525799 168.720472 
L 518.54136 168.793483 
L 519.556921 168.75935 
L 520.572482 168.871711 
L 521.080262 168.727081 
L 521.588043 168.8599 
L 523.111384 168.795238 
L 523.619165 168.829253 
L 524.126945 168.708356 
L 524.634726 168.80709 
L 525.142506 168.719995 
L 526.158067 168.761818 
L 528.69697 168.74944 
L 529.712531 168.736887 
L 532.759214 168.710075 
L 533.266994 168.651488 
L 533.774775 168.708063 
L 534.282555 168.631319 
L 535.805897 168.690498 
L 538.85258 168.689908 
L 539.36036 168.756029 
L 540.375921 168.592 
L 541.391482 168.748245 
L 542.914824 168.727894 
L 543.422604 168.576207 
L 543.930385 168.79679 
L 544.438165 168.656129 
L 545.453726 168.66308 
L 546.977068 168.778461 
L 547.484848 168.634495 
L 548.50041 168.661119 
L 549.00819 168.718859 
L 550.531532 168.578584 
L 553.578215 168.585316 
L 558.65602 168.543296 
L 559.671581 168.697947 
L 562.210483 168.558683 
L 563.226044 168.562974 
L 566.780508 168.539372 
L 568.81163 168.63829 
L 569.31941 168.56427 
L 569.827191 168.744962 
L 570.334971 168.559877 
L 571.350532 168.532431 
L 572.366093 168.576923 
L 572.873874 168.660821 
L 573.889435 168.567165 
L 575.412776 168.641684 
L 575.920557 168.705696 
L 576.428337 168.526121 
L 577.951679 168.554414 
L 578.459459 168.480629 
L 580.490581 168.652279 
L 580.998362 168.48018 
L 581.506143 168.598598 
L 583.537265 168.496435 
L 584.045045 168.625216 
L 584.552826 168.573298 
L 585.060606 168.659561 
L 587.091728 168.552046 
L 587.599509 168.392765 
L 588.107289 168.587865 
L 598.77068 168.617968 
L 599.27846 168.437798 
L 599.786241 168.663524 
L 600.294021 168.453656 
L 600.801802 168.583015 
L 601.817363 168.528236 
L 602.325143 168.626843 
L 602.832924 168.527445 
L 604.864046 168.649493 
L 605.879607 168.528417 
L 607.910729 168.48783 
L 608.418509 168.623763 
L 610.449631 168.574447 
L 611.465192 168.496543 
L 612.988534 168.590744 
L 622.636364 168.545713 
L 622.636364 168.545713 
" clip-path="url(#p945bbf89a8)" style="fill: none; stroke: #ff7f0e; stroke-width: 2; stroke-linecap: square"/>
   </g>
   <g id="patch_3">
    <path d="M 90 320.4 
L 90 43.2 
" style="fill: none; stroke: #000000; stroke-width: 0.8; stroke-linejoin: miter; stroke-linecap: square"/>
   </g>
   <g id="patch_4">
    <path d="M 648 320.4 
L 648 43.2 
" style="fill: none; stroke: #000000; stroke-width: 0.8; stroke-linejoin: miter; stroke-linecap: square"/>
   </g>
   <g id="patch_5">
    <path d="M 90 320.4 
L 648 320.4 
" style="fill: none; stroke: #000000; stroke-width: 0.8; stroke-linejoin: miter; stroke-linecap: square"/>
   </g>
   <g id="patch_6">
    <path d="M 90 43.2 
L 648 43.2 
" style="fill: none; stroke: #000000; stroke-width: 0.8; stroke-linejoin: miter; stroke-linecap: square"/>
   </g>
   <g id="text_13">
    <!-- Convergence - DP3_Robust_DiffusersEMA_URDF -->
    <g transform="translate(225.316875 37.2) scale(0.12 -0.12)">
     <defs>
      <path id="DejaVuSans-43" d="M 4122 4306 
L 4122 3641 
Q 3803 3938 3442 4084 
Q 3081 4231 2675 4231 
Q 1875 4231 1450 3742 
Q 1025 3253 1025 2328 
Q 1025 1406 1450 917 
Q 1875 428 2675 428 
Q 3081 428 3442 575 
Q 3803 722 4122 1019 
L 4122 359 
Q 3791 134 3420 21 
Q 3050 -91 2638 -91 
Q 1578 -91 968 557 
Q 359 1206 359 2328 
Q 359 3453 968 4101 
Q 1578 4750 2638 4750 
Q 3056 4750 3426 4639 
Q 3797 4528 4122 4306 
z
" transform="scale(0.015625)"/>
      <path id="DejaVuSans-6e" d="M 3513 2113 
L 3513 0 
L 2938 0 
L 2938 2094 
Q 2938 2591 2744 2837 
Q 2550 3084 2163 3084 
Q 1697 3084 1428 2787 
Q 1159 2491 1159 1978 
L 1159 0 
L 581 0 
L 581 3500 
L 1159 3500 
L 1159 2956 
Q 1366 3272 1645 3428 
Q 1925 3584 2291 3584 
Q 2894 3584 3203 3211 
Q 3513 2838 3513 2113 
z
" transform="scale(0.015625)"/>
      <path id="DejaVuSans-76" d="M 191 3500 
L 800 3500 
L 1894 563 
L 2988 3500 
L 3597 3500 
L 2284 0 
L 1503 0 
L 191 3500 
z
" transform="scale(0.015625)"/>
      <path id="DejaVuSans-72" d="M 2631 2963 
Q 2534 3019 2420 3045 
Q 2306 3072 2169 3072 
Q 1681 3072 1420 2755 
Q 1159 2438 1159 1844 
L 1159 0 
L 581 0 
L 581 3500 
L 1159 3500 
L 1159 2956 
Q 1341 3275 1631 3429 
Q 1922 3584 2338 3584 
Q 2397 3584 2469 3576 
Q 2541 3569 2628 3553 
L 2631 2963 
z
" transform="scale(0.015625)"/>
      <path id="DejaVuSans-2d" d="M 313 2009 
L 1997 2009 
L 1997 1497 
L 313 1497 
L 313 2009 
z
" transform="scale(0.015625)"/>
      <path id="DejaVuSans-44" d="M 1259 4147 
L 1259 519 
L 2022 519 
Q 2988 519 3436 956 
Q 3884 1394 3884 2338 
Q 3884 3275 3436 3711 
Q 2988 4147 2022 4147 
L 1259 4147 
z
M 628 4666 
L 1925 4666 
Q 3281 4666 3915 4102 
Q 4550 3538 4550 2338 
Q 4550 1131 3912 565 
Q 3275 0 1925 0 
L 628 0 
L 628 4666 
z
" transform="scale(0.015625)"/>
      <path id="DejaVuSans-50" d="M 1259 4147 
L 1259 2394 
L 2053 2394 
Q 2494 2394 2734 2622 
Q 2975 2850 2975 3272 
Q 2975 3691 2734 3919 
Q 2494 4147 2053 4147 
L 1259 4147 
z
M 628 4666 
L 2053 4666 
Q 2838 4666 3239 4311 
Q 3641 3956 3641 3272 
Q 3641 2581 3239 2228 
Q 2838 1875 2053 1875 
L 1259 1875 
L 1259 0 
L 628 0 
L 628 4666 
z
" transform="scale(0.015625)"/>
      <path id="DejaVuSans-5f" d="M 3263 -1063 
L 3263 -1509 
L -63 -1509 
L -63 -1063 
L 3263 -1063 
z
" transform="scale(0.015625)"/>
      <path id="DejaVuSans-52" d="M 2841 2188 
Q 3044 2119 3236 1894 
Q 3428 1669 3622 1275 
L 4263 0 
L 3584 0 
L 2988 1197 
Q 2756 1666 2539 1819 
Q 2322 1972 1947 1972 
L 1259 1972 
L 1259 0 
L 628 0 
L 628 4666 
L 2053 4666 
Q 2853 4666 3247 4331 
Q 3641 3997 3641 3322 
Q 3641 2881 3436 2590 
Q 3231 2300 2841 2188 
z
M 1259 4147 
L 1259 2491 
L 2053 2491 
Q 2509 2491 2742 2702 
Q 2975 2913 2975 3322 
Q 2975 3731 2742 3939 
Q 2509 4147 2053 4147 
L 1259 4147 
z
" transform="scale(0.015625)"/>
      <path id="DejaVuSans-62" d="M 3116 1747 
Q 3116 2381 2855 2742 
Q 2594 3103 2138 3103 
Q 1681 3103 1420 2742 
Q 1159 2381 1159 1747 
Q 1159 1113 1420 752 
Q 1681 391 2138 391 
Q 2594 391 2855 752 
Q 3116 1113 3116 1747 
z
M 1159 2969 
Q 1341 3281 1617 3432 
Q 1894 3584 2278 3584 
Q 2916 3584 3314 3078 
Q 3713 2572 3713 1747 
Q 3713 922 3314 415 
Q 2916 -91 2278 -91 
Q 1894 -91 1617 61 
Q 1341 213 1159 525 
L 1159 0 
L 581 0 
L 581 4863 
L 1159 4863 
L 1159 2969 
z
" transform="scale(0.015625)"/>
      <path id="DejaVuSans-74" d="M 1172 4494 
L 1172 3500 
L 2356 3500 
L 2356 3053 
L 1172 3053 
L 1172 1153 
Q 1172 725 1289 603 
Q 1406 481 1766 481 
L 2356 481 
L 2356 0 
L 1766 0 
Q 1100 0 847 248 
Q 594 497 594 1153 
L 594 3053 
L 172 3053 
L 172 3500 
L 594 3500 
L 594 4494 
L 1172 4494 
z
" transform="scale(0.015625)"/>
      <path id="DejaVuSans-69" d="M 603 3500 
L 1178 3500 
L 1178 0 
L 603 0 
L 603 3500 
z
M 603 4863 
L 1178 4863 
L 1178 4134 
L 603 4134 
L 603 4863 
z
" transform="scale(0.015625)"/>
      <path id="DejaVuSans-66" d="M 2375 4863 
L 2375 4384 
L 1825 4384 
Q 1516 4384 1395 4259 
Q 1275 4134 1275 3809 
L 1275 3500 
L 2222 3500 
L 2222 3053 
L 1275 3053 
L 1275 0 
L 697 0 
L 697 3053 
L 147 3053 
L 147 3500 
L 697 3500 
L 697 3744 
Q 697 4328 969 4595 
Q 1241 4863 1831 4863 
L 2375 4863 
z
" transform="scale(0.015625)"/>
      <path id="DejaVuSans-41" d="M 2188 4044 
L 1331 1722 
L 3047 1722 
L 2188 4044 
z
M 1831 4666 
L 2547 4666 
L 4325 0 
L 3669 0 
L 3244 1197 
L 1141 1197 
L 716 0 
L 50 0 
L 1831 4666 
z
" transform="scale(0.015625)"/>
      <path id="DejaVuSans-55" d="M 556 4666 
L 1191 4666 
L 1191 1831 
Q 1191 1081 1462 751 
Q 1734 422 2344 422 
Q 2950 422 3222 751 
Q 3494 1081 3494 1831 
L 3494 4666 
L 4128 4666 
L 4128 1753 
Q 4128 841 3676 375 
Q 3225 -91 2344 -91 
Q 1459 -91 1007 375 
Q 556 841 556 1753 
L 556 4666 
z
" transform="scale(0.015625)"/>
      <path id="DejaVuSans-46" d="M 628 4666 
L 3309 4666 
L 3309 4134 
L 1259 4134 
L 1259 2759 
L 3109 2759 
L 3109 2228 
L 1259 2228 
L 1259 0 
L 628 0 
L 628 4666 
z
" transform="scale(0.015625)"/>
     </defs>
     <use xlink:href="#DejaVuSans-43"/>
     <use xlink:href="#DejaVuSans-6f" transform="translate(69.824219 0)"/>
     <use xlink:href="#DejaVuSans-6e" transform="translate(131.005859 0)"/>
     <use xlink:href="#DejaVuSans-76" transform="translate(194.384766 0)"/>
     <use xlink:href="#DejaVuSans-65" transform="translate(253.564453 0)"/>
     <use xlink:href="#DejaVuSans-72" transform="translate(315.087891 0)"/>
     <use xlink:href="#DejaVuSans-67" transform="translate(354.451172 0)"/>
     <use xlink:href="#DejaVuSans-65" transform="translate(417.927734 0)"/>
     <use xlink:href="#DejaVuSans-6e" transform="translate(479.451172 0)"/>
     <use xlink:href="#DejaVuSans-63" transform="translate(542.830078 0)"/>
     <use xlink:href="#DejaVuSans-65" transform="translate(597.810547 0)"/>
     <use xlink:href="#DejaVuSans-20" transform="translate(659.333984 0)"/>
     <use xlink:href="#DejaVuSans-2d" transform="translate(691.121094 0)"/>
     <use xlink:href="#DejaVuSans-20" transform="translate(727.205078 0)"/>
     <use xlink:href="#DejaVuSans-44" transform="translate(758.992188 0)"/>
     <use xlink:href="#DejaVuSans-50" transform="translate(835.994141 0)"/>
     <use xlink:href="#DejaVuSans-33" transform="translate(896.296875 0)"/>
     <use xlink:href="#DejaVuSans-5f" transform="translate(959.919922 0)"/>
     <use xlink:href="#DejaVuSans-52" transform="translate(1009.919922 0)"/>
     <use xlink:href="#DejaVuSans-6f" transform="translate(1074.902344 0)"/>
     <use xlink:href="#DejaVuSans-62" transform="translate(1136.083984 0)"/>
     <use xlink:href="#DejaVuSans-75" transform="translate(1199.560547 0)"/>
     <use xlink:href="#DejaVuSans-73" transform="translate(1262.939453 0)"/>
     <use xlink:href="#DejaVuSans-74" transform="translate(1315.039062 0)"/>
     <use xlink:href="#DejaVuSans-5f" transform="translate(1354.248047 0)"/>
     <use xlink:href="#DejaVuSans-44" transform="translate(1404.248047 0)"/>
     <use xlink:href="#DejaVuSans-69" transform="translate(1481.25 0)"/>
     <use xlink:href="#DejaVuSans-66" transform="translate(1509.033203 0)"/>
     <use xlink:href="#DejaVuSans-66" transform="translate(1544.238281 0)"/>
     <use xlink:href="#DejaVuSans-75" transform="translate(1579.443359 0)"/>
     <use xlink:href="#DejaVuSans-73" transform="translate(1642.822266 0)"/>
     <use xlink:href="#DejaVuSans-65" transform="translate(1694.921875 0)"/>
     <use xlink:href="#DejaVuSans-72" transform="translate(1756.445312 0)"/>
     <use xlink:href="#DejaVuSans-73" transform="translate(1797.558594 0)"/>
     <use xlink:href="#DejaVuSans-45" transform="translate(1849.658203 0)"/>
     <use xlink:href="#DejaVuSans-4d" transform="translate(1912.841797 0)"/>
     <use xlink:href="#DejaVuSans-41" transform="translate(1999.121094 0)"/>
     <use xlink:href="#DejaVuSans-5f" transform="translate(2067.529297 0)"/>
     <use xlink:href="#DejaVuSans-55" transform="translate(2117.529297 0)"/>
     <use xlink:href="#DejaVuSans-52" transform="translate(2190.722656 0)"/>
     <use xlink:href="#DejaVuSans-44" transform="translate(2260.205078 0)"/>
     <use xlink:href="#DejaVuSans-46" transform="translate(2337.207031 0)"/>
    </g>
   </g>
   <g id="legend_1">
    <g id="patch_7">
     <path d="M 534.50625 80.55625 
L 641 80.55625 
Q 643 80.55625 643 78.55625 
L 643 50.2 
Q 643 48.2 641 48.2 
L 534.50625 48.2 
Q 532.50625 48.2 532.50625 50.2 
L 532.50625 78.55625 
Q 532.50625 80.55625 534.50625 80.55625 
z
" style="fill: #ffffff; opacity: 0.8; stroke: #cccccc; stroke-linejoin: miter"/>
    </g>
    <g id="line2d_85">
     <path d="M 536.50625 56.298437 
L 546.50625 56.298437 
L 556.50625 56.298437 
" style="fill: none; stroke: #1f77b4; stroke-width: 2; stroke-linecap: square"/>
    </g>
    <g id="text_14">
     <!-- Train Loss -->
     <g transform="translate(564.50625 59.798437) scale(0.1 -0.1)">
      <defs>
       <path id="DejaVuSans-54" d="M -19 4666 
L 3928 4666 
L 3928 4134 
L 2272 4134 
L 2272 0 
L 1638 0 
L 1638 4134 
L -19 4134 
L -19 4666 
z
" transform="scale(0.015625)"/>
      </defs>
      <use xlink:href="#DejaVuSans-54"/>
      <use xlink:href="#DejaVuSans-72" transform="translate(46.333984 0)"/>
      <use xlink:href="#DejaVuSans-61" transform="translate(87.447266 0)"/>
      <use xlink:href="#DejaVuSans-69" transform="translate(148.726562 0)"/>
      <use xlink:href="#DejaVuSans-6e" transform="translate(176.509766 0)"/>
      <use xlink:href="#DejaVuSans-20" transform="translate(239.888672 0)"/>
      <use xlink:href="#DejaVuSans-4c" transform="translate(271.675781 0)"/>
      <use xlink:href="#DejaVuSans-6f" transform="translate(325.638672 0)"/>
      <use xlink:href="#DejaVuSans-73" transform="translate(386.820312 0)"/>
      <use xlink:href="#DejaVuSans-73" transform="translate(438.919922 0)"/>
     </g>
    </g>
    <g id="line2d_86">
     <path d="M 536.50625 70.976562 
L 546.50625 70.976562 
L 556.50625 70.976562 
" style="fill: none; stroke: #ff7f0e; stroke-width: 2; stroke-linecap: square"/>
    </g>
    <g id="text_15">
     <!-- Validation Loss -->
     <g transform="translate(564.50625 74.476562) scale(0.1 -0.1)">
      <defs>
       <path id="DejaVuSans-56" d="M 1831 0 
L 50 4666 
L 709 4666 
L 2188 738 
L 3669 4666 
L 4325 4666 
L 2547 0 
L 1831 0 
z
" transform="scale(0.015625)"/>
       <path id="DejaVuSans-64" d="M 2906 2969 
L 2906 4863 
L 3481 4863 
L 3481 0 
L 2906 0 
L 2906 525 
Q 2725 213 2448 61 
Q 2172 -91 1784 -91 
Q 1150 -91 751 415 
Q 353 922 353 1747 
Q 353 2572 751 3078 
Q 1150 3584 1784 3584 
Q 2172 3584 2448 3432 
Q 2725 3281 2906 2969 
z
M 947 1747 
Q 947 1113 1208 752 
Q 1469 391 1925 391 
Q 2381 391 2643 752 
Q 2906 1113 2906 1747 
Q 2906 2381 2643 2742 
Q 2381 3103 1925 3103 
Q 1469 3103 1208 2742 
Q 947 2381 947 1747 
z
" transform="scale(0.015625)"/>
      </defs>
      <use xlink:href="#DejaVuSans-56"/>
      <use xlink:href="#DejaVuSans-61" transform="translate(60.658203 0)"/>
      <use xlink:href="#DejaVuSans-6c" transform="translate(121.9375 0)"/>
      <use xlink:href="#DejaVuSans-69" transform="translate(149.720703 0)"/>
      <use xlink:href="#DejaVuSans-64" transform="translate(177.503906 0)"/>
      <use xlink:href="#DejaVuSans-61" transform="translate(240.980469 0)"/>
      <use xlink:href="#DejaVuSans-74" transform="translate(302.259766 0)"/>
      <use xlink:href="#DejaVuSans-69" transform="translate(341.46875 0)"/>
      <use xlink:href="#DejaVuSans-6f" transform="translate(369.251953 0)"/>
      <use xlink:href="#DejaVuSans-6e" transform="translate(430.433594 0)"/>
      <use xlink:href="#DejaVuSans-20" transform="translate(493.8125 0)"/>
      <use xlink:href="#DejaVuSans-4c" transform="translate(525.599609 0)"/>
      <use xlink:href="#DejaVuSans-6f" transform="translate(579.5625 0)"/>
      <use xlink:href="#DejaVuSans-73" transform="translate(640.744141 0)"/>
      <use xlink:href="#DejaVuSans-73" transform="translate(692.84375 0)"/>
     </g>
    </g>
   </g>
  </g>
 </g>
 <defs>
  <clipPath id="p945bbf89a8">
   <rect x="90" y="43.2" width="558" height="277.2"/>
  </clipPath>
 </defs>
</svg>
