<?xml version="1.0" encoding="utf-8" standalone="no"?>
<!DOCTYPE svg PUBLIC "-//W3C//DTD SVG 1.1//EN"
  "http://www.w3.org/Graphics/SVG/1.1/DTD/svg11.dtd">
<svg xmlns:xlink="http://www.w3.org/1999/xlink" width="720pt" height="360pt" viewBox="0 0 720 360" xmlns="http://www.w3.org/2000/svg" version="1.1">
 <metadata>
  <rdf:RDF xmlns:dc="http://purl.org/dc/elements/1.1/" xmlns:cc="http://creativecommons.org/ns#" xmlns:rdf="http://www.w3.org/1999/02/22-rdf-syntax-ns#">
   <cc:Work>
    <dc:type rdf:resource="http://purl.org/dc/dcmitype/StillImage"/>
    <dc:date>2026-02-11T11:55:58.263843</dc:date>
    <dc:format>image/svg+xml</dc:format>
    <dc:creator>
     <cc:Agent>
      <dc:title>Matplotlib v3.10.7, https://matplotlib.org/</dc:title>
     </cc:Agent>
    </dc:creator>
   </cc:Work>
  </rdf:RDF>
 </metadata>
 <defs>
  <style type="text/css">*{stroke-linejoin: round; stroke-linecap: butt}</style>
 </defs>
 <g id="figure_1">
  <g id="patch_1">
   <path d="M 0 360 
L 720 360 
L 720 0 
L 0 0 
z
" style="fill: #ffffff"/>
  </g>
  <g id="axes_1">
   <g id="patch_2">
    <path d="M 90 320.4 
L 648 320.4 
L 648 43.2 
L 90 43.2 
z
" style="fill: #ffffff"/>
   </g>
   <g id="matplotlib.axis_1">
    <g id="xtick_1">
     <g id="line2d_1">
      <path d="M 115.363636 320.4 
L 115.363636 43.2 
" clip-path="url(#p519cc266b0)" style="fill: none; stroke: #b0b0b0; stroke-opacity: 0.5; stroke-width: 0.8; stroke-linecap: square"/>
     </g>
     <g id="line2d_2">
      <defs>
       <path id="ma1a2374b57" d="M 0 0 
L 0 3.5 
" style="stroke: #000000; stroke-width: 0.8"/>
      </defs>
      <g>
       <use xlink:href="#ma1a2374b57" x="115.363636" y="320.4" style="stroke: #000000; stroke-width: 0.8"/>
      </g>
     </g>
     <g id="text_1">
      <!-- 0 -->
      <g transform="translate(112.182386 334.998438) scale(0.1 -0.1)">
       <defs>
        <path id="DejaVuSans-30" d="M 2034 4250 
Q 1547 4250 1301 3770 
Q 1056 3291 1056 2328 
Q 1056 1369 1301 889 
Q 1547 409 2034 409 
Q 2525 409 2770 889 
Q 3016 1369 3016 2328 
Q 3016 3291 2770 3770 
Q 2525 4250 2034 4250 
z
M 2034 4750 
Q 2819 4750 3233 4129 
Q 3647 3509 3647 2328 
Q 3647 1150 3233 529 
Q 2819 -91 2034 -91 
Q 1250 -91 836 529 
Q 422 1150 422 2328 
Q 422 3509 836 4129 
Q 1250 4750 2034 4750 
z
" transform="scale(0.015625)"/>
       </defs>
       <use xlink:href="#DejaVuSans-30"/>
      </g>
     </g>
    </g>
    <g id="xtick_2">
     <g id="line2d_3">
      <path d="M 217.021498 320.4 
L 217.021498 43.2 
" clip-path="url(#p519cc266b0)" style="fill: none; stroke: #b0b0b0; stroke-opacity: 0.5; stroke-width: 0.8; stroke-linecap: square"/>
     </g>
     <g id="line2d_4">
      <g>
       <use xlink:href="#ma1a2374b57" x="217.021498" y="320.4" style="stroke: #000000; stroke-width: 0.8"/>
      </g>
     </g>
     <g id="text_2">
      <!-- 100 -->
      <g transform="translate(207.477748 334.998438) scale(0.1 -0.1)">
       <defs>
        <path id="DejaVuSans-31" d="M 794 531 
L 1825 531 
L 1825 4091 
L 703 3866 
L 703 4441 
L 1819 4666 
L 2450 4666 
L 2450 531 
L 3481 531 
L 3481 0 
L 794 0 
L 794 531 
z
" transform="scale(0.015625)"/>
       </defs>
       <use xlink:href="#DejaVuSans-31"/>
       <use xlink:href="#DejaVuSans-30" transform="translate(63.623047 0)"/>
       <use xlink:href="#DejaVuSans-30" transform="translate(127.246094 0)"/>
      </g>
     </g>
    </g>
    <g id="xtick_3">
     <g id="line2d_5">
      <path d="M 318.679359 320.4 
L 318.679359 43.2 
" clip-path="url(#p519cc266b0)" style="fill: none; stroke: #b0b0b0; stroke-opacity: 0.5; stroke-width: 0.8; stroke-linecap: square"/>
     </g>
     <g id="line2d_6">
      <g>
       <use xlink:href="#ma1a2374b57" x="318.679359" y="320.4" style="stroke: #000000; stroke-width: 0.8"/>
      </g>
     </g>
     <g id="text_3">
      <!-- 200 -->
      <g transform="translate(309.135609 334.998438) scale(0.1 -0.1)">
       <defs>
        <path id="DejaVuSans-32" d="M 1228 531 
L 3431 531 
L 3431 0 
L 469 0 
L 469 531 
Q 828 903 1448 1529 
Q 2069 2156 2228 2338 
Q 2531 2678 2651 2914 
Q 2772 3150 2772 3378 
Q 2772 3750 2511 3984 
Q 2250 4219 1831 4219 
Q 1534 4219 1204 4116 
Q 875 4013 500 3803 
L 500 4441 
Q 881 4594 1212 4672 
Q 1544 4750 1819 4750 
Q 2544 4750 2975 4387 
Q 3406 4025 3406 3419 
Q 3406 3131 3298 2873 
Q 3191 2616 2906 2266 
Q 2828 2175 2409 1742 
Q 1991 1309 1228 531 
z
" transform="scale(0.015625)"/>
       </defs>
       <use xlink:href="#DejaVuSans-32"/>
       <use xlink:href="#DejaVuSans-30" transform="translate(63.623047 0)"/>
       <use xlink:href="#DejaVuSans-30" transform="translate(127.246094 0)"/>
      </g>
     </g>
    </g>
    <g id="xtick_4">
     <g id="line2d_7">
      <path d="M 420.33722 320.4 
L 420.33722 43.2 
" clip-path="url(#p519cc266b0)" style="fill: none; stroke: #b0b0b0; stroke-opacity: 0.5; stroke-width: 0.8; stroke-linecap: square"/>
     </g>
     <g id="line2d_8">
      <g>
       <use xlink:href="#ma1a2374b57" x="420.33722" y="320.4" style="stroke: #000000; stroke-width: 0.8"/>
      </g>
     </g>
     <g id="text_4">
      <!-- 300 -->
      <g transform="translate(410.79347 334.998438) scale(0.1 -0.1)">
       <defs>
        <path id="DejaVuSans-33" d="M 2597 2516 
Q 3050 2419 3304 2112 
Q 3559 1806 3559 1356 
Q 3559 666 3084 287 
Q 2609 -91 1734 -91 
Q 1441 -91 1130 -33 
Q 819 25 488 141 
L 488 750 
Q 750 597 1062 519 
Q 1375 441 1716 441 
Q 2309 441 2620 675 
Q 2931 909 2931 1356 
Q 2931 1769 2642 2001 
Q 2353 2234 1838 2234 
L 1294 2234 
L 1294 2753 
L 1863 2753 
Q 2328 2753 2575 2939 
Q 2822 3125 2822 3475 
Q 2822 3834 2567 4026 
Q 2313 4219 1838 4219 
Q 1578 4219 1281 4162 
Q 984 4106 628 3988 
L 628 4550 
Q 988 4650 1302 4700 
Q 1616 4750 1894 4750 
Q 2613 4750 3031 4423 
Q 3450 4097 3450 3541 
Q 3450 3153 3228 2886 
Q 3006 2619 2597 2516 
z
" transform="scale(0.015625)"/>
       </defs>
       <use xlink:href="#DejaVuSans-33"/>
       <use xlink:href="#DejaVuSans-30" transform="translate(63.623047 0)"/>
       <use xlink:href="#DejaVuSans-30" transform="translate(127.246094 0)"/>
      </g>
     </g>
    </g>
    <g id="xtick_5">
     <g id="line2d_9">
      <path d="M 521.995081 320.4 
L 521.995081 43.2 
" clip-path="url(#p519cc266b0)" style="fill: none; stroke: #b0b0b0; stroke-opacity: 0.5; stroke-width: 0.8; stroke-linecap: square"/>
     </g>
     <g id="line2d_10">
      <g>
       <use xlink:href="#ma1a2374b57" x="521.995081" y="320.4" style="stroke: #000000; stroke-width: 0.8"/>
      </g>
     </g>
     <g id="text_5">
      <!-- 400 -->
      <g transform="translate(512.451331 334.998438) scale(0.1 -0.1)">
       <defs>
        <path id="DejaVuSans-34" d="M 2419 4116 
L 825 1625 
L 2419 1625 
L 2419 4116 
z
M 2253 4666 
L 3047 4666 
L 3047 1625 
L 3713 1625 
L 3713 1100 
L 3047 1100 
L 3047 0 
L 2419 0 
L 2419 1100 
L 313 1100 
L 313 1709 
L 2253 4666 
z
" transform="scale(0.015625)"/>
       </defs>
       <use xlink:href="#DejaVuSans-34"/>
       <use xlink:href="#DejaVuSans-30" transform="translate(63.623047 0)"/>
       <use xlink:href="#DejaVuSans-30" transform="translate(127.246094 0)"/>
      </g>
     </g>
    </g>
    <g id="xtick_6">
     <g id="line2d_11">
      <path d="M 623.652942 320.4 
L 623.652942 43.2 
" clip-path="url(#p519cc266b0)" style="fill: none; stroke: #b0b0b0; stroke-opacity: 0.5; stroke-width: 0.8; stroke-linecap: square"/>
     </g>
     <g id="line2d_12">
      <g>
       <use xlink:href="#ma1a2374b57" x="623.652942" y="320.4" style="stroke: #000000; stroke-width: 0.8"/>
      </g>
     </g>
     <g id="text_6">
      <!-- 500 -->
      <g transform="translate(614.109192 334.998438) scale(0.1 -0.1)">
       <defs>
        <path id="DejaVuSans-35" d="M 691 4666 
L 3169 4666 
L 3169 4134 
L 1269 4134 
L 1269 2991 
Q 1406 3038 1543 3061 
Q 1681 3084 1819 3084 
Q 2600 3084 3056 2656 
Q 3513 2228 3513 1497 
Q 3513 744 3044 326 
Q 2575 -91 1722 -91 
Q 1428 -91 1123 -41 
Q 819 9 494 109 
L 494 744 
Q 775 591 1075 516 
Q 1375 441 1709 441 
Q 2250 441 2565 725 
Q 2881 1009 2881 1497 
Q 2881 1984 2565 2268 
Q 2250 2553 1709 2553 
Q 1456 2553 1204 2497 
Q 953 2441 691 2322 
L 691 4666 
z
" transform="scale(0.015625)"/>
       </defs>
       <use xlink:href="#DejaVuSans-35"/>
       <use xlink:href="#DejaVuSans-30" transform="translate(63.623047 0)"/>
       <use xlink:href="#DejaVuSans-30" transform="translate(127.246094 0)"/>
      </g>
     </g>
    </g>
    <g id="text_7">
     <!-- Époques -->
     <g transform="translate(347.582812 350.329688) scale(0.1 -0.1)">
      <defs>
       <path id="DejaVuSans-c9" d="M 628 4666 
L 3578 4666 
L 3578 4134 
L 1259 4134 
L 1259 2753 
L 3481 2753 
L 3481 2222 
L 1259 2222 
L 1259 531 
L 3634 531 
L 3634 0 
L 628 0 
L 628 4666 
z
M 2268 5921 
L 2846 5921 
L 2134 5096 
L 1655 5096 
L 2268 5921 
z
" transform="scale(0.015625)"/>
       <path id="DejaVuSans-70" d="M 1159 525 
L 1159 -1331 
L 581 -1331 
L 581 3500 
L 1159 3500 
L 1159 2969 
Q 1341 3281 1617 3432 
Q 1894 3584 2278 3584 
Q 2916 3584 3314 3078 
Q 3713 2572 3713 1747 
Q 3713 922 3314 415 
Q 2916 -91 2278 -91 
Q 1894 -91 1617 61 
Q 1341 213 1159 525 
z
M 3116 1747 
Q 3116 2381 2855 2742 
Q 2594 3103 2138 3103 
Q 1681 3103 1420 2742 
Q 1159 2381 1159 1747 
Q 1159 1113 1420 752 
Q 1681 391 2138 391 
Q 2594 391 2855 752 
Q 3116 1113 3116 1747 
z
" transform="scale(0.015625)"/>
       <path id="DejaVuSans-6f" d="M 1959 3097 
Q 1497 3097 1228 2736 
Q 959 2375 959 1747 
Q 959 1119 1226 758 
Q 1494 397 1959 397 
Q 2419 397 2687 759 
Q 2956 1122 2956 1747 
Q 2956 2369 2687 2733 
Q 2419 3097 1959 3097 
z
M 1959 3584 
Q 2709 3584 3137 3096 
Q 3566 2609 3566 1747 
Q 3566 888 3137 398 
Q 2709 -91 1959 -91 
Q 1206 -91 779 398 
Q 353 888 353 1747 
Q 353 2609 779 3096 
Q 1206 3584 1959 3584 
z
" transform="scale(0.015625)"/>
       <path id="DejaVuSans-71" d="M 947 1747 
Q 947 1113 1208 752 
Q 1469 391 1925 391 
Q 2381 391 2643 752 
Q 2906 1113 2906 1747 
Q 2906 2381 2643 2742 
Q 2381 3103 1925 3103 
Q 1469 3103 1208 2742 
Q 947 2381 947 1747 
z
M 2906 525 
Q 2725 213 2448 61 
Q 2172 -91 1784 -91 
Q 1150 -91 751 415 
Q 353 922 353 1747 
Q 353 2572 751 3078 
Q 1150 3584 1784 3584 
Q 2172 3584 2448 3432 
Q 2725 3281 2906 2969 
L 2906 3500 
L 3481 3500 
L 3481 -1331 
L 2906 -1331 
L 2906 525 
z
" transform="scale(0.015625)"/>
       <path id="DejaVuSans-75" d="M 544 1381 
L 544 3500 
L 1119 3500 
L 1119 1403 
Q 1119 906 1312 657 
Q 1506 409 1894 409 
Q 2359 409 2629 706 
Q 2900 1003 2900 1516 
L 2900 3500 
L 3475 3500 
L 3475 0 
L 2900 0 
L 2900 538 
Q 2691 219 2414 64 
Q 2138 -91 1772 -91 
Q 1169 -91 856 284 
Q 544 659 544 1381 
z
M 1991 3584 
L 1991 3584 
z
" transform="scale(0.015625)"/>
       <path id="DejaVuSans-65" d="M 3597 1894 
L 3597 1613 
L 953 1613 
Q 991 1019 1311 708 
Q 1631 397 2203 397 
Q 2534 397 2845 478 
Q 3156 559 3463 722 
L 3463 178 
Q 3153 47 2828 -22 
Q 2503 -91 2169 -91 
Q 1331 -91 842 396 
Q 353 884 353 1716 
Q 353 2575 817 3079 
Q 1281 3584 2069 3584 
Q 2775 3584 3186 3129 
Q 3597 2675 3597 1894 
z
M 3022 2063 
Q 3016 2534 2758 2815 
Q 2500 3097 2075 3097 
Q 1594 3097 1305 2825 
Q 1016 2553 972 2059 
L 3022 2063 
z
" transform="scale(0.015625)"/>
       <path id="DejaVuSans-73" d="M 2834 3397 
L 2834 2853 
Q 2591 2978 2328 3040 
Q 2066 3103 1784 3103 
Q 1356 3103 1142 2972 
Q 928 2841 928 2578 
Q 928 2378 1081 2264 
Q 1234 2150 1697 2047 
L 1894 2003 
Q 2506 1872 2764 1633 
Q 3022 1394 3022 966 
Q 3022 478 2636 193 
Q 2250 -91 1575 -91 
Q 1294 -91 989 -36 
Q 684 19 347 128 
L 347 722 
Q 666 556 975 473 
Q 1284 391 1588 391 
Q 1994 391 2212 530 
Q 2431 669 2431 922 
Q 2431 1156 2273 1281 
Q 2116 1406 1581 1522 
L 1381 1569 
Q 847 1681 609 1914 
Q 372 2147 372 2553 
Q 372 3047 722 3315 
Q 1072 3584 1716 3584 
Q 2034 3584 2315 3537 
Q 2597 3491 2834 3397 
z
" transform="scale(0.015625)"/>
      </defs>
      <use xlink:href="#DejaVuSans-c9"/>
      <use xlink:href="#DejaVuSans-70" transform="translate(63.183594 0)"/>
      <use xlink:href="#DejaVuSans-6f" transform="translate(126.660156 0)"/>
      <use xlink:href="#DejaVuSans-71" transform="translate(187.841797 0)"/>
      <use xlink:href="#DejaVuSans-75" transform="translate(251.318359 0)"/>
      <use xlink:href="#DejaVuSans-65" transform="translate(314.697266 0)"/>
      <use xlink:href="#DejaVuSans-73" transform="translate(376.220703 0)"/>
     </g>
    </g>
   </g>
   <g id="matplotlib.axis_2">
    <g id="ytick_1">
     <g id="line2d_13">
      <path d="M 90 243.712536 
L 648 243.712536 
" clip-path="url(#p519cc266b0)" style="fill: none; stroke: #b0b0b0; stroke-opacity: 0.5; stroke-width: 0.8; stroke-linecap: square"/>
     </g>
     <g id="line2d_14">
      <defs>
       <path id="m1cb867872d" d="M 0 0 
L -3.5 0 
" style="stroke: #000000; stroke-width: 0.8"/>
      </defs>
      <g>
       <use xlink:href="#m1cb867872d" x="90" y="243.712536" style="stroke: #000000; stroke-width: 0.8"/>
      </g>
     </g>
     <g id="text_8">
      <!-- $\mathdefault{10^{-3}}$ -->
      <g transform="translate(59.5 247.511755) scale(0.1 -0.1)">
       <defs>
        <path id="DejaVuSans-2212" d="M 678 2272 
L 4684 2272 
L 4684 1741 
L 678 1741 
L 678 2272 
z
" transform="scale(0.015625)"/>
       </defs>
       <use xlink:href="#DejaVuSans-31" transform="translate(0 0.765625)"/>
       <use xlink:href="#DejaVuSans-30" transform="translate(63.623047 0.765625)"/>
       <use xlink:href="#DejaVuSans-2212" transform="translate(128.203125 39.046875) scale(0.7)"/>
       <use xlink:href="#DejaVuSans-33" transform="translate(186.855469 39.046875) scale(0.7)"/>
      </g>
     </g>
    </g>
    <g id="ytick_2">
     <g id="line2d_15">
      <path d="M 90 158.311739 
L 648 158.311739 
" clip-path="url(#p519cc266b0)" style="fill: none; stroke: #b0b0b0; stroke-opacity: 0.5; stroke-width: 0.8; stroke-linecap: square"/>
     </g>
     <g id="line2d_16">
      <g>
       <use xlink:href="#m1cb867872d" x="90" y="158.311739" style="stroke: #000000; stroke-width: 0.8"/>
      </g>
     </g>
     <g id="text_9">
      <!-- $\mathdefault{10^{-2}}$ -->
      <g transform="translate(59.5 162.110958) scale(0.1 -0.1)">
       <use xlink:href="#DejaVuSans-31" transform="translate(0 0.765625)"/>
       <use xlink:href="#DejaVuSans-30" transform="translate(63.623047 0.765625)"/>
       <use xlink:href="#DejaVuSans-2212" transform="translate(128.203125 39.046875) scale(0.7)"/>
       <use xlink:href="#DejaVuSans-32" transform="translate(186.855469 39.046875) scale(0.7)"/>
      </g>
     </g>
    </g>
    <g id="ytick_3">
     <g id="line2d_17">
      <path d="M 90 72.910942 
L 648 72.910942 
" clip-path="url(#p519cc266b0)" style="fill: none; stroke: #b0b0b0; stroke-opacity: 0.5; stroke-width: 0.8; stroke-linecap: square"/>
     </g>
     <g id="line2d_18">
      <g>
       <use xlink:href="#m1cb867872d" x="90" y="72.910942" style="stroke: #000000; stroke-width: 0.8"/>
      </g>
     </g>
     <g id="text_10">
      <!-- $\mathdefault{10^{-1}}$ -->
      <g transform="translate(59.5 76.710161) scale(0.1 -0.1)">
       <use xlink:href="#DejaVuSans-31" transform="translate(0 0.684375)"/>
       <use xlink:href="#DejaVuSans-30" transform="translate(63.623047 0.684375)"/>
       <use xlink:href="#DejaVuSans-2212" transform="translate(128.203125 38.965625) scale(0.7)"/>
       <use xlink:href="#DejaVuSans-31" transform="translate(186.855469 38.965625) scale(0.7)"/>
      </g>
     </g>
    </g>
    <g id="ytick_4">
     <g id="line2d_19">
      <path d="M 90 303.405131 
L 648 303.405131 
" clip-path="url(#p519cc266b0)" style="fill: none; stroke: #b0b0b0; stroke-opacity: 0.5; stroke-width: 0.8; stroke-linecap: square"/>
     </g>
     <g id="line2d_20">
      <defs>
       <path id="mf8265a3fed" d="M 0 0 
L -2 0 
" style="stroke: #000000; stroke-width: 0.6"/>
      </defs>
      <g>
       <use xlink:href="#mf8265a3fed" x="90" y="303.405131" style="stroke: #000000; stroke-width: 0.6"/>
      </g>
     </g>
    </g>
    <g id="ytick_5">
     <g id="line2d_21">
      <path d="M 90 288.366797 
L 648 288.366797 
" clip-path="url(#p519cc266b0)" style="fill: none; stroke: #b0b0b0; stroke-opacity: 0.5; stroke-width: 0.8; stroke-linecap: square"/>
     </g>
     <g id="line2d_22">
      <g>
       <use xlink:href="#mf8265a3fed" x="90" y="288.366797" style="stroke: #000000; stroke-width: 0.6"/>
      </g>
     </g>
    </g>
    <g id="ytick_6">
     <g id="line2d_23">
      <path d="M 90 277.69693 
L 648 277.69693 
" clip-path="url(#p519cc266b0)" style="fill: none; stroke: #b0b0b0; stroke-opacity: 0.5; stroke-width: 0.8; stroke-linecap: square"/>
     </g>
     <g id="line2d_24">
      <g>
       <use xlink:href="#mf8265a3fed" x="90" y="277.69693" style="stroke: #000000; stroke-width: 0.6"/>
      </g>
     </g>
    </g>
    <g id="ytick_7">
     <g id="line2d_25">
      <path d="M 90 269.420737 
L 648 269.420737 
" clip-path="url(#p519cc266b0)" style="fill: none; stroke: #b0b0b0; stroke-opacity: 0.5; stroke-width: 0.8; stroke-linecap: square"/>
     </g>
     <g id="line2d_26">
      <g>
       <use xlink:href="#mf8265a3fed" x="90" y="269.420737" style="stroke: #000000; stroke-width: 0.6"/>
      </g>
     </g>
    </g>
    <g id="ytick_8">
     <g id="line2d_27">
      <path d="M 90 262.658596 
L 648 262.658596 
" clip-path="url(#p519cc266b0)" style="fill: none; stroke: #b0b0b0; stroke-opacity: 0.5; stroke-width: 0.8; stroke-linecap: square"/>
     </g>
     <g id="line2d_28">
      <g>
       <use xlink:href="#mf8265a3fed" x="90" y="262.658596" style="stroke: #000000; stroke-width: 0.6"/>
      </g>
     </g>
    </g>
    <g id="ytick_9">
     <g id="line2d_29">
      <path d="M 90 256.941287 
L 648 256.941287 
" clip-path="url(#p519cc266b0)" style="fill: none; stroke: #b0b0b0; stroke-opacity: 0.5; stroke-width: 0.8; stroke-linecap: square"/>
     </g>
     <g id="line2d_30">
      <g>
       <use xlink:href="#mf8265a3fed" x="90" y="256.941287" style="stroke: #000000; stroke-width: 0.6"/>
      </g>
     </g>
    </g>
    <g id="ytick_10">
     <g id="line2d_31">
      <path d="M 90 251.988728 
L 648 251.988728 
" clip-path="url(#p519cc266b0)" style="fill: none; stroke: #b0b0b0; stroke-opacity: 0.5; stroke-width: 0.8; stroke-linecap: square"/>
     </g>
     <g id="line2d_32">
      <g>
       <use xlink:href="#mf8265a3fed" x="90" y="251.988728" style="stroke: #000000; stroke-width: 0.6"/>
      </g>
     </g>
    </g>
    <g id="ytick_11">
     <g id="line2d_33">
      <path d="M 90 247.620262 
L 648 247.620262 
" clip-path="url(#p519cc266b0)" style="fill: none; stroke: #b0b0b0; stroke-opacity: 0.5; stroke-width: 0.8; stroke-linecap: square"/>
     </g>
     <g id="line2d_34">
      <g>
       <use xlink:href="#mf8265a3fed" x="90" y="247.620262" style="stroke: #000000; stroke-width: 0.6"/>
      </g>
     </g>
    </g>
    <g id="ytick_12">
     <g id="line2d_35">
      <path d="M 90 218.004334 
L 648 218.004334 
" clip-path="url(#p519cc266b0)" style="fill: none; stroke: #b0b0b0; stroke-opacity: 0.5; stroke-width: 0.8; stroke-linecap: square"/>
     </g>
     <g id="line2d_36">
      <g>
       <use xlink:href="#mf8265a3fed" x="90" y="218.004334" style="stroke: #000000; stroke-width: 0.6"/>
      </g>
     </g>
    </g>
    <g id="ytick_13">
     <g id="line2d_37">
      <path d="M 90 202.966001 
L 648 202.966001 
" clip-path="url(#p519cc266b0)" style="fill: none; stroke: #b0b0b0; stroke-opacity: 0.5; stroke-width: 0.8; stroke-linecap: square"/>
     </g>
     <g id="line2d_38">
      <g>
       <use xlink:href="#mf8265a3fed" x="90" y="202.966001" style="stroke: #000000; stroke-width: 0.6"/>
      </g>
     </g>
    </g>
    <g id="ytick_14">
     <g id="line2d_39">
      <path d="M 90 192.296133 
L 648 192.296133 
" clip-path="url(#p519cc266b0)" style="fill: none; stroke: #b0b0b0; stroke-opacity: 0.5; stroke-width: 0.8; stroke-linecap: square"/>
     </g>
     <g id="line2d_40">
      <g>
       <use xlink:href="#mf8265a3fed" x="90" y="192.296133" style="stroke: #000000; stroke-width: 0.6"/>
      </g>
     </g>
    </g>
    <g id="ytick_15">
     <g id="line2d_41">
      <path d="M 90 184.019941 
L 648 184.019941 
" clip-path="url(#p519cc266b0)" style="fill: none; stroke: #b0b0b0; stroke-opacity: 0.5; stroke-width: 0.8; stroke-linecap: square"/>
     </g>
     <g id="line2d_42">
      <g>
       <use xlink:href="#mf8265a3fed" x="90" y="184.019941" style="stroke: #000000; stroke-width: 0.6"/>
      </g>
     </g>
    </g>
    <g id="ytick_16">
     <g id="line2d_43">
      <path d="M 90 177.257799 
L 648 177.257799 
" clip-path="url(#p519cc266b0)" style="fill: none; stroke: #b0b0b0; stroke-opacity: 0.5; stroke-width: 0.8; stroke-linecap: square"/>
     </g>
     <g id="line2d_44">
      <g>
       <use xlink:href="#mf8265a3fed" x="90" y="177.257799" style="stroke: #000000; stroke-width: 0.6"/>
      </g>
     </g>
    </g>
    <g id="ytick_17">
     <g id="line2d_45">
      <path d="M 90 171.54049 
L 648 171.54049 
" clip-path="url(#p519cc266b0)" style="fill: none; stroke: #b0b0b0; stroke-opacity: 0.5; stroke-width: 0.8; stroke-linecap: square"/>
     </g>
     <g id="line2d_46">
      <g>
       <use xlink:href="#mf8265a3fed" x="90" y="171.54049" style="stroke: #000000; stroke-width: 0.6"/>
      </g>
     </g>
    </g>
    <g id="ytick_18">
     <g id="line2d_47">
      <path d="M 90 166.587931 
L 648 166.587931 
" clip-path="url(#p519cc266b0)" style="fill: none; stroke: #b0b0b0; stroke-opacity: 0.5; stroke-width: 0.8; stroke-linecap: square"/>
     </g>
     <g id="line2d_48">
      <g>
       <use xlink:href="#mf8265a3fed" x="90" y="166.587931" style="stroke: #000000; stroke-width: 0.6"/>
      </g>
     </g>
    </g>
    <g id="ytick_19">
     <g id="line2d_49">
      <path d="M 90 162.219465 
L 648 162.219465 
" clip-path="url(#p519cc266b0)" style="fill: none; stroke: #b0b0b0; stroke-opacity: 0.5; stroke-width: 0.8; stroke-linecap: square"/>
     </g>
     <g id="line2d_50">
      <g>
       <use xlink:href="#mf8265a3fed" x="90" y="162.219465" style="stroke: #000000; stroke-width: 0.6"/>
      </g>
     </g>
    </g>
    <g id="ytick_20">
     <g id="line2d_51">
      <path d="M 90 132.603538 
L 648 132.603538 
" clip-path="url(#p519cc266b0)" style="fill: none; stroke: #b0b0b0; stroke-opacity: 0.5; stroke-width: 0.8; stroke-linecap: square"/>
     </g>
     <g id="line2d_52">
      <g>
       <use xlink:href="#mf8265a3fed" x="90" y="132.603538" style="stroke: #000000; stroke-width: 0.6"/>
      </g>
     </g>
    </g>
    <g id="ytick_21">
     <g id="line2d_53">
      <path d="M 90 117.565204 
L 648 117.565204 
" clip-path="url(#p519cc266b0)" style="fill: none; stroke: #b0b0b0; stroke-opacity: 0.5; stroke-width: 0.8; stroke-linecap: square"/>
     </g>
     <g id="line2d_54">
      <g>
       <use xlink:href="#mf8265a3fed" x="90" y="117.565204" style="stroke: #000000; stroke-width: 0.6"/>
      </g>
     </g>
    </g>
    <g id="ytick_22">
     <g id="line2d_55">
      <path d="M 90 106.895336 
L 648 106.895336 
" clip-path="url(#p519cc266b0)" style="fill: none; stroke: #b0b0b0; stroke-opacity: 0.5; stroke-width: 0.8; stroke-linecap: square"/>
     </g>
     <g id="line2d_56">
      <g>
       <use xlink:href="#mf8265a3fed" x="90" y="106.895336" style="stroke: #000000; stroke-width: 0.6"/>
      </g>
     </g>
    </g>
    <g id="ytick_23">
     <g id="line2d_57">
      <path d="M 90 98.619144 
L 648 98.619144 
" clip-path="url(#p519cc266b0)" style="fill: none; stroke: #b0b0b0; stroke-opacity: 0.5; stroke-width: 0.8; stroke-linecap: square"/>
     </g>
     <g id="line2d_58">
      <g>
       <use xlink:href="#mf8265a3fed" x="90" y="98.619144" style="stroke: #000000; stroke-width: 0.6"/>
      </g>
     </g>
    </g>
    <g id="ytick_24">
     <g id="line2d_59">
      <path d="M 90 91.857002 
L 648 91.857002 
" clip-path="url(#p519cc266b0)" style="fill: none; stroke: #b0b0b0; stroke-opacity: 0.5; stroke-width: 0.8; stroke-linecap: square"/>
     </g>
     <g id="line2d_60">
      <g>
       <use xlink:href="#mf8265a3fed" x="90" y="91.857002" style="stroke: #000000; stroke-width: 0.6"/>
      </g>
     </g>
    </g>
    <g id="ytick_25">
     <g id="line2d_61">
      <path d="M 90 86.139693 
L 648 86.139693 
" clip-path="url(#p519cc266b0)" style="fill: none; stroke: #b0b0b0; stroke-opacity: 0.5; stroke-width: 0.8; stroke-linecap: square"/>
     </g>
     <g id="line2d_62">
      <g>
       <use xlink:href="#mf8265a3fed" x="90" y="86.139693" style="stroke: #000000; stroke-width: 0.6"/>
      </g>
     </g>
    </g>
    <g id="ytick_26">
     <g id="line2d_63">
      <path d="M 90 81.187135 
L 648 81.187135 
" clip-path="url(#p519cc266b0)" style="fill: none; stroke: #b0b0b0; stroke-opacity: 0.5; stroke-width: 0.8; stroke-linecap: square"/>
     </g>
     <g id="line2d_64">
      <g>
       <use xlink:href="#mf8265a3fed" x="90" y="81.187135" style="stroke: #000000; stroke-width: 0.6"/>
      </g>
     </g>
    </g>
    <g id="ytick_27">
     <g id="line2d_65">
      <path d="M 90 76.818668 
L 648 76.818668 
" clip-path="url(#p519cc266b0)" style="fill: none; stroke: #b0b0b0; stroke-opacity: 0.5; stroke-width: 0.8; stroke-linecap: square"/>
     </g>
     <g id="line2d_66">
      <g>
       <use xlink:href="#mf8265a3fed" x="90" y="76.818668" style="stroke: #000000; stroke-width: 0.6"/>
      </g>
     </g>
    </g>
    <g id="ytick_28">
     <g id="line2d_67">
      <path d="M 90 47.202741 
L 648 47.202741 
" clip-path="url(#p519cc266b0)" style="fill: none; stroke: #b0b0b0; stroke-opacity: 0.5; stroke-width: 0.8; stroke-linecap: square"/>
     </g>
     <g id="line2d_68">
      <g>
       <use xlink:href="#mf8265a3fed" x="90" y="47.202741" style="stroke: #000000; stroke-width: 0.6"/>
      </g>
     </g>
    </g>
    <g id="text_11">
     <!-- MSE Loss (Log Scale) -->
     <g transform="translate(53.420312 234.46875) rotate(-90) scale(0.1 -0.1)">
      <defs>
       <path id="DejaVuSans-4d" d="M 628 4666 
L 1569 4666 
L 2759 1491 
L 3956 4666 
L 4897 4666 
L 4897 0 
L 4281 0 
L 4281 4097 
L 3078 897 
L 2444 897 
L 1241 4097 
L 1241 0 
L 628 0 
L 628 4666 
z
" transform="scale(0.015625)"/>
       <path id="DejaVuSans-53" d="M 3425 4513 
L 3425 3897 
Q 3066 4069 2747 4153 
Q 2428 4238 2131 4238 
Q 1616 4238 1336 4038 
Q 1056 3838 1056 3469 
Q 1056 3159 1242 3001 
Q 1428 2844 1947 2747 
L 2328 2669 
Q 3034 2534 3370 2195 
Q 3706 1856 3706 1288 
Q 3706 609 3251 259 
Q 2797 -91 1919 -91 
Q 1588 -91 1214 -16 
Q 841 59 441 206 
L 441 856 
Q 825 641 1194 531 
Q 1563 422 1919 422 
Q 2459 422 2753 634 
Q 3047 847 3047 1241 
Q 3047 1584 2836 1778 
Q 2625 1972 2144 2069 
L 1759 2144 
Q 1053 2284 737 2584 
Q 422 2884 422 3419 
Q 422 4038 858 4394 
Q 1294 4750 2059 4750 
Q 2388 4750 2728 4690 
Q 3069 4631 3425 4513 
z
" transform="scale(0.015625)"/>
       <path id="DejaVuSans-45" d="M 628 4666 
L 3578 4666 
L 3578 4134 
L 1259 4134 
L 1259 2753 
L 3481 2753 
L 3481 2222 
L 1259 2222 
L 1259 531 
L 3634 531 
L 3634 0 
L 628 0 
L 628 4666 
z
" transform="scale(0.015625)"/>
       <path id="DejaVuSans-20" transform="scale(0.015625)"/>
       <path id="DejaVuSans-4c" d="M 628 4666 
L 1259 4666 
L 1259 531 
L 3531 531 
L 3531 0 
L 628 0 
L 628 4666 
z
" transform="scale(0.015625)"/>
       <path id="DejaVuSans-28" d="M 1984 4856 
Q 1566 4138 1362 3434 
Q 1159 2731 1159 2009 
Q 1159 1288 1364 580 
Q 1569 -128 1984 -844 
L 1484 -844 
Q 1016 -109 783 600 
Q 550 1309 550 2009 
Q 550 2706 781 3412 
Q 1013 4119 1484 4856 
L 1984 4856 
z
" transform="scale(0.015625)"/>
       <path id="DejaVuSans-67" d="M 2906 1791 
Q 2906 2416 2648 2759 
Q 2391 3103 1925 3103 
Q 1463 3103 1205 2759 
Q 947 2416 947 1791 
Q 947 1169 1205 825 
Q 1463 481 1925 481 
Q 2391 481 2648 825 
Q 2906 1169 2906 1791 
z
M 3481 434 
Q 3481 -459 3084 -895 
Q 2688 -1331 1869 -1331 
Q 1566 -1331 1297 -1286 
Q 1028 -1241 775 -1147 
L 775 -588 
Q 1028 -725 1275 -790 
Q 1522 -856 1778 -856 
Q 2344 -856 2625 -561 
Q 2906 -266 2906 331 
L 2906 616 
Q 2728 306 2450 153 
Q 2172 0 1784 0 
Q 1141 0 747 490 
Q 353 981 353 1791 
Q 353 2603 747 3093 
Q 1141 3584 1784 3584 
Q 2172 3584 2450 3431 
Q 2728 3278 2906 2969 
L 2906 3500 
L 3481 3500 
L 3481 434 
z
" transform="scale(0.015625)"/>
       <path id="DejaVuSans-63" d="M 3122 3366 
L 3122 2828 
Q 2878 2963 2633 3030 
Q 2388 3097 2138 3097 
Q 1578 3097 1268 2742 
Q 959 2388 959 1747 
Q 959 1106 1268 751 
Q 1578 397 2138 397 
Q 2388 397 2633 464 
Q 2878 531 3122 666 
L 3122 134 
Q 2881 22 2623 -34 
Q 2366 -91 2075 -91 
Q 1284 -91 818 406 
Q 353 903 353 1747 
Q 353 2603 823 3093 
Q 1294 3584 2113 3584 
Q 2378 3584 2631 3529 
Q 2884 3475 3122 3366 
z
" transform="scale(0.015625)"/>
       <path id="DejaVuSans-61" d="M 2194 1759 
Q 1497 1759 1228 1600 
Q 959 1441 959 1056 
Q 959 750 1161 570 
Q 1363 391 1709 391 
Q 2188 391 2477 730 
Q 2766 1069 2766 1631 
L 2766 1759 
L 2194 1759 
z
M 3341 1997 
L 3341 0 
L 2766 0 
L 2766 531 
Q 2569 213 2275 61 
Q 1981 -91 1556 -91 
Q 1019 -91 701 211 
Q 384 513 384 1019 
Q 384 1609 779 1909 
Q 1175 2209 1959 2209 
L 2766 2209 
L 2766 2266 
Q 2766 2663 2505 2880 
Q 2244 3097 1772 3097 
Q 1472 3097 1187 3025 
Q 903 2953 641 2809 
L 641 3341 
Q 956 3463 1253 3523 
Q 1550 3584 1831 3584 
Q 2591 3584 2966 3190 
Q 3341 2797 3341 1997 
z
" transform="scale(0.015625)"/>
       <path id="DejaVuSans-6c" d="M 603 4863 
L 1178 4863 
L 1178 0 
L 603 0 
L 603 4863 
z
" transform="scale(0.015625)"/>
       <path id="DejaVuSans-29" d="M 513 4856 
L 1013 4856 
Q 1481 4119 1714 3412 
Q 1947 2706 1947 2009 
Q 1947 1309 1714 600 
Q 1481 -109 1013 -844 
L 513 -844 
Q 928 -128 1133 580 
Q 1338 1288 1338 2009 
Q 1338 2731 1133 3434 
Q 928 4138 513 4856 
z
" transform="scale(0.015625)"/>
      </defs>
      <use xlink:href="#DejaVuSans-4d"/>
      <use xlink:href="#DejaVuSans-53" transform="translate(86.279297 0)"/>
      <use xlink:href="#DejaVuSans-45" transform="translate(149.755859 0)"/>
      <use xlink:href="#DejaVuSans-20" transform="translate(212.939453 0)"/>
      <use xlink:href="#DejaVuSans-4c" transform="translate(244.726562 0)"/>
      <use xlink:href="#DejaVuSans-6f" transform="translate(298.689453 0)"/>
      <use xlink:href="#DejaVuSans-73" transform="translate(359.871094 0)"/>
      <use xlink:href="#DejaVuSans-73" transform="translate(411.970703 0)"/>
      <use xlink:href="#DejaVuSans-20" transform="translate(464.070312 0)"/>
      <use xlink:href="#DejaVuSans-28" transform="translate(495.857422 0)"/>
      <use xlink:href="#DejaVuSans-4c" transform="translate(534.871094 0)"/>
      <use xlink:href="#DejaVuSans-6f" transform="translate(588.833984 0)"/>
      <use xlink:href="#DejaVuSans-67" transform="translate(650.015625 0)"/>
      <use xlink:href="#DejaVuSans-20" transform="translate(713.492188 0)"/>
      <use xlink:href="#DejaVuSans-53" transform="translate(745.279297 0)"/>
      <use xlink:href="#DejaVuSans-63" transform="translate(808.755859 0)"/>
      <use xlink:href="#DejaVuSans-61" transform="translate(863.736328 0)"/>
      <use xlink:href="#DejaVuSans-6c" transform="translate(925.015625 0)"/>
      <use xlink:href="#DejaVuSans-65" transform="translate(952.798828 0)"/>
      <use xlink:href="#DejaVuSans-29" transform="translate(1014.322266 0)"/>
     </g>
    </g>
   </g>
   <g id="line2d_69">
    <path d="M 115.363636 55.8 
L 116.380215 110.893873 
L 117.396794 141.592586 
L 118.413372 156.784368 
L 119.429951 163.787485 
L 120.446529 167.49756 
L 121.463108 171.876035 
L 122.479687 173.429324 
L 123.496265 177.949885 
L 124.512844 178.792928 
L 125.529422 180.829482 
L 126.546001 184.140251 
L 127.56258 185.77869 
L 128.579158 185.841381 
L 129.595737 187.095596 
L 130.612316 190.679961 
L 131.628894 189.363823 
L 132.645473 189.71352 
L 134.67863 191.118392 
L 135.695209 194.113511 
L 136.711787 194.681309 
L 137.728366 193.651538 
L 138.744944 193.543829 
L 139.761523 195.0854 
L 140.778102 194.283822 
L 141.79468 195.970894 
L 142.811259 197.239904 
L 143.827837 196.919854 
L 144.844416 196.796431 
L 145.860995 196.481899 
L 146.877573 197.268456 
L 147.894152 198.211934 
L 148.910731 200.007898 
L 149.927309 200.338409 
L 150.943888 198.853114 
L 151.960466 200.737417 
L 152.977045 199.438164 
L 153.993624 199.657292 
L 155.010202 201.756815 
L 156.026781 200.956554 
L 157.043359 203.102743 
L 159.076517 203.240229 
L 160.093095 201.562449 
L 161.109674 202.774569 
L 162.126253 202.009536 
L 163.142831 203.011089 
L 164.15941 202.629763 
L 165.175988 203.427531 
L 166.192567 203.726023 
L 167.209146 204.199422 
L 168.225724 206.842172 
L 169.242303 206.642074 
L 170.258881 206.61674 
L 171.27546 208.283385 
L 172.292039 203.863759 
L 173.308617 208.260104 
L 174.325196 204.223723 
L 175.341774 207.369517 
L 176.358353 206.176211 
L 177.374932 207.409035 
L 178.39151 207.064358 
L 179.408089 209.811369 
L 180.424668 209.70334 
L 181.441246 209.023102 
L 182.457825 211.298149 
L 183.474403 208.527872 
L 184.490982 210.126441 
L 185.507561 211.516306 
L 186.524139 211.41273 
L 187.540718 211.645527 
L 188.557296 213.358755 
L 189.573875 211.261792 
L 190.590454 214.882054 
L 191.607032 212.360684 
L 192.623611 214.814706 
L 194.656768 214.234918 
L 195.673347 216.312532 
L 196.689925 217.271972 
L 197.706504 213.191253 
L 198.723083 215.935685 
L 199.739661 216.321608 
L 200.75624 217.035403 
L 201.772818 217.285981 
L 202.789397 215.866575 
L 203.805976 219.102295 
L 204.822554 218.416313 
L 205.839133 221.029558 
L 206.855711 218.683021 
L 207.87229 219.122562 
L 208.888869 221.465214 
L 209.905447 221.484057 
L 210.922026 218.768225 
L 211.938604 221.14094 
L 212.955183 222.639051 
L 213.971762 218.861267 
L 214.98834 220.012905 
L 216.004919 223.459915 
L 217.021498 224.681262 
L 218.038076 227.226601 
L 219.054655 224.56983 
L 220.071233 223.242309 
L 221.087812 225.793977 
L 222.104391 224.615832 
L 223.120969 225.642127 
L 224.137548 228.579273 
L 225.154126 225.970422 
L 226.170705 225.886477 
L 227.187284 226.933127 
L 228.203862 225.598504 
L 229.220441 230.888328 
L 230.237019 226.836954 
L 231.253598 228.664612 
L 232.270177 227.026803 
L 233.286755 229.865561 
L 234.303334 224.452651 
L 235.319913 224.072824 
L 236.336491 229.33921 
L 237.35307 232.469805 
L 238.369648 232.30191 
L 239.386227 232.807238 
L 240.402806 231.80797 
L 241.419384 232.515697 
L 242.435963 228.940999 
L 243.452541 226.921995 
L 244.46912 235.702797 
L 245.485699 233.315948 
L 246.502277 232.757871 
L 247.518856 232.840468 
L 248.535435 236.557716 
L 249.552013 233.882791 
L 250.568592 236.284317 
L 251.58517 233.038679 
L 252.601749 232.345163 
L 253.618328 233.139217 
L 254.634906 238.07736 
L 255.651485 236.242527 
L 256.668063 237.37523 
L 257.684642 236.212294 
L 258.701221 238.065617 
L 259.717799 234.13475 
L 260.734378 237.028745 
L 261.750956 233.711506 
L 262.767535 237.719735 
L 263.784114 233.877653 
L 264.800692 238.629142 
L 265.817271 237.240669 
L 266.83385 237.461967 
L 267.850428 242.161466 
L 269.883585 242.449447 
L 270.900164 243.156231 
L 271.916743 241.754341 
L 272.933321 242.35396 
L 273.9499 236.534567 
L 274.966478 232.424373 
L 275.983057 241.897098 
L 276.999636 241.902247 
L 278.016214 239.382708 
L 279.032793 243.425656 
L 280.049371 240.953038 
L 281.06595 240.64704 
L 282.082529 242.773945 
L 283.099107 244.216631 
L 284.115686 247.666049 
L 285.132265 245.701425 
L 286.148843 245.186329 
L 287.165422 234.644818 
L 288.182 245.034642 
L 289.198579 241.258363 
L 290.215158 245.723651 
L 292.248315 242.577291 
L 293.264893 246.287513 
L 294.281472 247.80081 
L 295.298051 247.646067 
L 296.314629 246.424272 
L 297.331208 245.481634 
L 298.347786 249.951781 
L 299.364365 242.576529 
L 300.380944 241.451208 
L 301.397522 248.348371 
L 302.414101 247.06684 
L 303.43068 248.254106 
L 304.447258 253.547601 
L 305.463837 249.215717 
L 306.480415 250.649125 
L 307.496994 243.245418 
L 308.513573 247.260207 
L 310.54673 253.036142 
L 311.563308 244.931059 
L 312.579887 246.681283 
L 313.596466 250.020324 
L 314.613044 254.227534 
L 315.629623 253.294854 
L 316.646201 244.304824 
L 317.66278 247.674434 
L 318.679359 245.937674 
L 319.695937 245.39125 
L 320.712516 247.070564 
L 321.729095 244.248983 
L 322.745673 250.802547 
L 323.762252 249.06263 
L 324.77883 255.325546 
L 325.795409 254.386249 
L 326.811988 254.985774 
L 327.828566 249.100524 
L 328.845145 250.676096 
L 329.861723 249.686431 
L 330.878302 257.098818 
L 331.894881 255.411872 
L 332.911459 252.702274 
L 333.928038 256.27641 
L 334.944617 255.895059 
L 336.977774 258.112282 
L 337.994352 252.578458 
L 339.010931 252.065343 
L 340.02751 251.836335 
L 341.044088 260.327349 
L 342.060667 257.702747 
L 343.077245 253.012965 
L 344.093824 254.58638 
L 345.110403 253.915972 
L 346.126981 257.855961 
L 347.14356 256.586554 
L 348.160138 258.932343 
L 349.176717 260.57214 
L 350.193296 262.514247 
L 351.209874 259.119674 
L 352.226453 263.865758 
L 353.243032 259.742251 
L 354.25961 261.178254 
L 355.276189 258.708985 
L 356.292767 261.949546 
L 357.309346 257.368952 
L 358.325925 262.619521 
L 359.342503 257.972218 
L 360.359082 260.47698 
L 361.37566 261.935519 
L 362.392239 263.695905 
L 363.408818 256.82743 
L 364.425396 254.780821 
L 365.441975 262.765828 
L 366.458553 267.029783 
L 367.475132 264.550332 
L 368.491711 263.355818 
L 369.508289 265.921226 
L 370.524868 266.367455 
L 371.541447 263.202319 
L 372.558025 267.224324 
L 373.574604 263.923813 
L 375.607761 261.774013 
L 376.62434 262.398297 
L 377.640918 266.763509 
L 378.657497 258.247276 
L 379.674075 259.608868 
L 380.690654 254.736395 
L 381.707233 262.628178 
L 382.723811 260.85111 
L 383.74039 260.021762 
L 384.756968 260.402466 
L 385.773547 264.085804 
L 386.790126 269.287975 
L 387.806704 269.662438 
L 388.823283 274.313654 
L 389.839862 268.129835 
L 390.85644 268.832152 
L 391.873019 269.28953 
L 392.889597 268.906978 
L 393.906176 271.956599 
L 394.922755 273.969742 
L 395.939333 259.70888 
L 396.955912 260.200272 
L 397.97249 261.857813 
L 398.989069 266.54455 
L 400.005648 265.20958 
L 401.022226 258.630658 
L 402.038805 259.905799 
L 403.055383 268.418863 
L 404.071962 273.254165 
L 405.088541 267.857244 
L 407.121698 273.079964 
L 408.138277 271.577154 
L 409.154855 273.508628 
L 410.171434 276.277276 
L 411.188012 272.178566 
L 412.204591 271.137819 
L 413.22117 269.376486 
L 414.237748 268.723025 
L 415.254327 266.523115 
L 416.270905 261.314528 
L 417.287484 266.24847 
L 418.304063 269.729784 
L 419.320641 276.37004 
L 420.33722 276.628866 
L 421.353799 274.165408 
L 422.370377 276.25505 
L 423.386956 273.734848 
L 424.403534 277.079142 
L 425.420113 269.85412 
L 426.436692 276.82419 
L 427.45327 269.452526 
L 428.469849 274.485741 
L 429.486427 274.750405 
L 430.503006 275.667673 
L 431.519585 278.397013 
L 432.536163 277.865902 
L 433.552742 279.950891 
L 434.56932 280.610527 
L 435.585899 274.388043 
L 436.602478 275.576783 
L 437.619056 276.025325 
L 438.635635 280.753005 
L 439.652214 278.213791 
L 440.668792 276.27504 
L 441.685371 278.501699 
L 442.701949 279.424396 
L 443.718528 281.857274 
L 444.735107 280.608105 
L 445.751685 280.777185 
L 446.768264 276.578912 
L 447.784842 278.753144 
L 448.801421 283.458607 
L 449.818 283.014668 
L 450.834578 275.877225 
L 451.851157 278.437335 
L 452.867735 275.208609 
L 453.884314 283.726599 
L 454.900893 283.263417 
L 455.917471 278.901256 
L 456.93405 280.085132 
L 457.950629 285.309598 
L 458.967207 286.491652 
L 459.983786 282.355377 
L 461.000364 281.930741 
L 462.016943 284.517131 
L 463.033522 280.941059 
L 464.0501 280.669066 
L 465.066679 284.914628 
L 466.083257 286.603807 
L 467.099836 283.426327 
L 468.116415 282.114889 
L 469.132993 285.29682 
L 470.149572 283.588813 
L 471.16615 288.082129 
L 472.182729 286.198168 
L 473.199308 287.412956 
L 474.215886 284.854153 
L 475.232465 285.13482 
L 476.249044 285.558055 
L 478.282201 292.727719 
L 479.298779 290.633373 
L 480.315358 290.468178 
L 481.331937 291.900042 
L 482.348515 285.331435 
L 483.365094 286.323885 
L 484.381672 281.842147 
L 485.398251 289.557398 
L 486.41483 283.597579 
L 487.431408 288.002082 
L 488.447987 289.556559 
L 489.464565 280.53899 
L 490.481144 282.062622 
L 491.497723 291.787795 
L 492.514301 290.888998 
L 493.53088 288.814717 
L 494.547459 282.881667 
L 495.564037 288.851806 
L 496.580616 289.729077 
L 497.597194 290.943623 
L 498.613773 292.551078 
L 499.630352 291.003792 
L 500.64693 292.617846 
L 501.663509 292.777252 
L 502.680087 293.573048 
L 503.696666 294.067938 
L 504.713245 295.391906 
L 505.729823 294.660117 
L 506.746402 296.360278 
L 507.762981 293.195839 
L 508.779559 295.511911 
L 509.796138 294.483187 
L 510.812716 289.665211 
L 511.829295 292.345748 
L 512.845874 292.632235 
L 513.862452 296.052326 
L 514.879031 290.953707 
L 515.895609 292.80757 
L 516.912188 296.213072 
L 517.928767 293.263378 
L 519.961924 297.88256 
L 520.978502 292.587894 
L 521.995081 296.121246 
L 523.01166 297.977713 
L 524.028238 294.846398 
L 525.044817 296.5887 
L 526.061396 296.404071 
L 527.077974 295.522934 
L 529.111131 300.398931 
L 530.12771 297.189295 
L 531.144289 297.47609 
L 532.160867 299.970105 
L 533.177446 298.369262 
L 535.210603 299.886107 
L 536.227182 300.019879 
L 537.24376 294.78226 
L 538.260339 297.815034 
L 539.276917 299.455389 
L 540.293496 299.565172 
L 541.310075 300.666165 
L 542.326653 298.281098 
L 544.359811 301.110151 
L 545.376389 298.768582 
L 546.392968 297.169583 
L 547.409546 301.323647 
L 548.426125 297.343568 
L 549.442704 299.864962 
L 550.459282 301.909291 
L 551.475861 300.283286 
L 552.492439 301.86851 
L 553.509018 302.204886 
L 554.525597 298.09643 
L 555.542175 300.635526 
L 556.558754 302.522224 
L 557.575332 303.538436 
L 558.591911 302.179043 
L 560.625068 300.226689 
L 561.641647 303.218405 
L 562.658226 302.946428 
L 563.674804 303.755444 
L 564.691383 302.944317 
L 565.707961 301.811726 
L 566.72454 302.125024 
L 567.741119 301.12632 
L 568.757697 302.420703 
L 569.774276 302.588205 
L 570.790854 299.988551 
L 571.807433 303.004398 
L 572.824012 303.941749 
L 573.84059 305.513049 
L 574.857169 302.756124 
L 575.873747 306.541156 
L 576.890326 303.988912 
L 577.906905 303.092025 
L 578.923483 303.489859 
L 579.940062 303.760631 
L 580.956641 302.488737 
L 581.973219 304.850144 
L 586.039534 303.744583 
L 587.056112 304.5753 
L 588.072691 302.880602 
L 589.089269 306.892149 
L 590.105848 303.406365 
L 591.122427 304.600855 
L 592.139005 304.892345 
L 593.155584 303.213145 
L 594.172163 306.016453 
L 595.188741 306.072132 
L 596.20532 304.309858 
L 597.221898 301.679307 
L 598.238477 304.099035 
L 599.255056 303.763727 
L 600.271634 304.765782 
L 601.288213 307.8 
L 602.304791 305.70662 
L 603.32137 305.001857 
L 604.337949 304.60328 
L 605.354527 304.692885 
L 606.371106 306.355262 
L 607.387684 305.587766 
L 608.404263 305.371845 
L 610.43742 303.932777 
L 611.453999 306.053335 
L 612.470578 305.601203 
L 613.487156 303.904353 
L 614.503735 304.077351 
L 615.520313 306.767451 
L 616.536892 304.661824 
L 617.553471 304.32545 
L 618.570049 305.866396 
L 619.586628 305.622458 
L 620.603206 303.658886 
L 621.619785 304.536876 
L 622.636364 304.062011 
L 622.636364 304.062011 
" clip-path="url(#p519cc266b0)" style="fill: none; stroke: #1f77b4; stroke-width: 2; stroke-linecap: square"/>
   </g>
   <g id="line2d_70">
    <path d="M 115.363636 76.744581 
L 117.396794 127.097501 
L 118.413372 145.713561 
L 119.429951 157.421626 
L 120.446529 164.32576 
L 121.463108 169.646844 
L 122.479687 173.6348 
L 123.496265 176.152198 
L 124.512844 177.718934 
L 125.529422 181.041122 
L 126.546001 181.438931 
L 127.56258 184.146318 
L 129.595737 184.684989 
L 130.612316 185.422423 
L 131.628894 188.188522 
L 132.645473 186.508827 
L 133.662051 188.753635 
L 134.67863 188.236731 
L 136.711787 188.9937 
L 138.744944 188.604108 
L 139.761523 189.015015 
L 140.778102 191.158167 
L 141.79468 191.993542 
L 142.811259 190.444345 
L 143.827837 191.595761 
L 144.844416 190.721738 
L 145.860995 191.741388 
L 146.877573 193.614507 
L 147.894152 192.041628 
L 148.910731 192.78349 
L 149.927309 192.416398 
L 150.943888 192.90881 
L 151.960466 191.529294 
L 152.977045 192.979615 
L 153.993624 193.620342 
L 155.010202 192.292817 
L 156.026781 191.981866 
L 157.043359 193.556903 
L 158.059938 192.31421 
L 159.076517 194.236818 
L 160.093095 193.334744 
L 161.109674 193.040774 
L 162.126253 193.714826 
L 163.142831 192.872999 
L 164.15941 192.772258 
L 165.175988 194.775573 
L 166.192567 194.824019 
L 168.225724 194.581784 
L 169.242303 194.93572 
L 170.258881 194.266489 
L 171.27546 194.517808 
L 172.292039 194.542104 
L 173.308617 194.206753 
L 174.325196 195.871566 
L 175.341774 195.321965 
L 176.358353 194.313939 
L 178.39151 194.72797 
L 179.408089 195.794412 
L 180.424668 195.828509 
L 181.441246 195.385666 
L 182.457825 194.796639 
L 183.474403 196.39767 
L 184.490982 194.788288 
L 185.507561 194.811578 
L 186.524139 195.843524 
L 187.540718 195.130617 
L 189.573875 194.516213 
L 190.590454 195.603924 
L 191.607032 194.68186 
L 192.623611 195.972734 
L 193.640189 195.277178 
L 194.656768 195.437482 
L 195.673347 194.068405 
L 196.689925 194.032305 
L 197.706504 193.784569 
L 198.723083 193.830862 
L 199.739661 194.741805 
L 200.75624 193.656113 
L 201.772818 193.989446 
L 202.789397 193.232384 
L 203.805976 192.831396 
L 204.822554 194.196939 
L 205.839133 194.977635 
L 206.855711 194.135802 
L 207.87229 194.294961 
L 208.888869 194.605457 
L 209.905447 194.25926 
L 210.922026 193.698196 
L 211.938604 194.354089 
L 212.955183 193.677336 
L 213.971762 193.261383 
L 214.98834 194.415573 
L 216.004919 195.308358 
L 217.021498 192.81857 
L 218.038076 193.821812 
L 219.054655 192.7564 
L 220.071233 192.884248 
L 221.087812 193.47827 
L 222.104391 193.419744 
L 223.120969 194.144266 
L 224.137548 192.418872 
L 225.154126 194.921665 
L 226.170705 193.133103 
L 227.187284 193.93951 
L 229.220441 193.834587 
L 230.237019 193.539722 
L 231.253598 192.828929 
L 232.270177 194.150336 
L 233.286755 193.942135 
L 234.303334 194.416319 
L 235.319913 192.38351 
L 236.336491 192.905378 
L 237.35307 193.092513 
L 238.369648 192.564158 
L 239.386227 192.85671 
L 240.402806 192.385096 
L 241.419384 192.997253 
L 243.452541 192.235316 
L 244.46912 192.13238 
L 245.485699 193.358933 
L 246.502277 191.990774 
L 247.518856 192.843253 
L 248.535435 192.81819 
L 249.552013 191.384921 
L 250.568592 192.0376 
L 251.58517 191.079672 
L 252.601749 192.356432 
L 253.618328 190.694797 
L 254.634906 191.758397 
L 255.651485 191.737025 
L 256.668063 191.099518 
L 257.684642 191.878359 
L 259.717799 191.767311 
L 260.734378 190.914149 
L 261.750956 191.514746 
L 262.767535 191.503825 
L 263.784114 191.673452 
L 264.800692 191.95718 
L 265.817271 191.702213 
L 266.83385 190.815027 
L 267.850428 191.708259 
L 268.867007 191.360999 
L 269.883585 191.32289 
L 270.900164 192.021549 
L 271.916743 191.38719 
L 272.933321 191.240578 
L 273.9499 190.534805 
L 274.966478 191.907274 
L 275.983057 191.592602 
L 276.999636 190.486116 
L 278.016214 191.646325 
L 279.032793 190.375243 
L 280.049371 191.532233 
L 281.06595 190.527228 
L 282.082529 191.58331 
L 283.099107 190.246293 
L 284.115686 190.026341 
L 286.148843 190.738616 
L 287.165422 189.357637 
L 288.182 190.437383 
L 289.198579 189.777998 
L 291.231736 190.022059 
L 292.248315 189.409747 
L 294.281472 189.805707 
L 295.298051 189.535272 
L 296.314629 189.736018 
L 297.331208 189.355477 
L 298.347786 189.886799 
L 299.364365 190.584147 
L 301.397522 189.612929 
L 302.414101 189.409241 
L 303.43068 190.572181 
L 304.447258 189.025669 
L 305.463837 188.898205 
L 306.480415 190.070617 
L 307.496994 189.870699 
L 308.513573 190.058871 
L 309.530151 190.102823 
L 310.54673 189.009275 
L 311.563308 190.153134 
L 312.579887 189.636994 
L 313.596466 188.484421 
L 314.613044 189.008775 
L 315.629623 189.296836 
L 316.646201 189.251407 
L 317.66278 188.254248 
L 318.679359 189.708354 
L 319.695937 190.776554 
L 320.712516 189.366902 
L 321.729095 189.438458 
L 322.745673 188.566132 
L 323.762252 189.698109 
L 324.77883 189.540073 
L 325.795409 189.562903 
L 326.811988 189.932813 
L 327.828566 189.933003 
L 329.861723 188.543939 
L 330.878302 189.655027 
L 331.894881 189.015253 
L 332.911459 189.842111 
L 333.928038 190.00386 
L 334.944617 188.90622 
L 335.961195 189.200628 
L 336.977774 188.677468 
L 337.994352 189.988717 
L 339.010931 189.332841 
L 340.02751 190.14233 
L 341.044088 188.855789 
L 342.060667 189.459193 
L 343.077245 189.200373 
L 344.093824 188.759057 
L 345.110403 189.196158 
L 346.126981 188.164562 
L 347.14356 189.883725 
L 348.160138 188.436991 
L 349.176717 188.528686 
L 350.193296 189.858897 
L 351.209874 188.485379 
L 352.226453 188.225391 
L 353.243032 189.094714 
L 354.25961 188.665768 
L 355.276189 188.662192 
L 356.292767 188.002423 
L 358.325925 187.831617 
L 359.342503 188.295994 
L 360.359082 189.278659 
L 361.37566 188.898569 
L 362.392239 188.877507 
L 363.408818 187.804944 
L 365.441975 187.621695 
L 366.458553 188.285908 
L 367.475132 187.946572 
L 368.491711 188.055679 
L 369.508289 186.695673 
L 370.524868 186.916628 
L 371.541447 187.58014 
L 372.558025 187.688593 
L 373.574604 188.100334 
L 374.591182 187.226189 
L 376.62434 187.685326 
L 377.640918 187.03651 
L 378.657497 187.481954 
L 379.674075 187.045242 
L 380.690654 188.13586 
L 381.707233 187.407494 
L 382.723811 187.573439 
L 383.74039 187.583871 
L 384.756968 187.707848 
L 385.773547 186.916738 
L 386.790126 187.075688 
L 387.806704 187.398962 
L 388.823283 186.840778 
L 389.839862 187.279127 
L 390.85644 187.104552 
L 391.873019 187.263726 
L 393.906176 186.300308 
L 395.939333 187.342435 
L 396.955912 186.619161 
L 397.97249 186.402154 
L 400.005648 187.074753 
L 401.022226 187.773653 
L 402.038805 187.195582 
L 403.055383 187.374831 
L 404.071962 187.73987 
L 405.088541 187.338604 
L 406.105119 186.671472 
L 407.121698 187.101112 
L 408.138277 187.01974 
L 409.154855 187.150229 
L 411.188012 186.577925 
L 412.204591 186.634762 
L 413.22117 187.354861 
L 414.237748 186.733227 
L 415.254327 186.269364 
L 416.270905 186.343726 
L 417.287484 186.912068 
L 418.304063 186.321248 
L 419.320641 187.407228 
L 420.33722 186.940275 
L 421.353799 187.399851 
L 422.370377 186.882074 
L 423.386956 186.614866 
L 424.403534 186.841728 
L 425.420113 186.903696 
L 426.436692 186.816755 
L 427.45327 185.922475 
L 428.469849 186.854652 
L 429.486427 186.539989 
L 430.503006 185.680361 
L 432.536163 186.784884 
L 433.552742 186.023798 
L 434.56932 186.462058 
L 435.585899 185.913689 
L 436.602478 185.566334 
L 437.619056 186.350733 
L 438.635635 185.654052 
L 439.652214 185.701617 
L 440.668792 185.633566 
L 441.685371 186.172553 
L 442.701949 186.045347 
L 443.718528 185.471503 
L 444.735107 186.249913 
L 445.751685 186.157294 
L 446.768264 185.937807 
L 447.784842 185.901102 
L 448.801421 185.362421 
L 450.834578 186.141425 
L 451.851157 186.328742 
L 452.867735 186.081098 
L 453.884314 186.445875 
L 454.900893 185.807305 
L 455.917471 185.602776 
L 456.93405 185.818603 
L 457.950629 185.488809 
L 458.967207 186.120724 
L 459.983786 184.569448 
L 461.000364 185.516707 
L 463.033522 185.189061 
L 464.0501 185.358241 
L 465.066679 185.104246 
L 466.083257 185.188614 
L 467.099836 185.056503 
L 468.116415 185.336967 
L 469.132993 184.450839 
L 470.149572 184.947442 
L 471.16615 184.559899 
L 472.182729 185.189651 
L 473.199308 185.375599 
L 474.215886 185.37391 
L 475.232465 184.422807 
L 476.249044 184.880794 
L 477.265622 184.757228 
L 478.282201 185.176084 
L 479.298779 184.256997 
L 480.315358 185.203797 
L 481.331937 184.713579 
L 482.348515 184.464105 
L 483.365094 184.435632 
L 485.398251 185.415117 
L 487.431408 184.823339 
L 488.447987 184.185805 
L 489.464565 184.316404 
L 490.481144 184.297364 
L 491.497723 184.108786 
L 492.514301 185.286073 
L 493.53088 184.583243 
L 494.547459 185.049728 
L 495.564037 185.276784 
L 496.580616 183.979718 
L 497.597194 184.998291 
L 498.613773 184.435223 
L 499.630352 184.129047 
L 500.64693 184.840422 
L 501.663509 184.09302 
L 502.680087 184.319799 
L 503.696666 183.723588 
L 504.713245 184.451986 
L 505.729823 183.974025 
L 506.746402 184.0136 
L 507.762981 184.474786 
L 508.779559 183.902264 
L 509.796138 183.914751 
L 510.812716 183.783094 
L 511.829295 183.994025 
L 512.845874 183.895175 
L 513.862452 183.538846 
L 514.879031 184.307806 
L 516.912188 183.396616 
L 518.945345 183.687411 
L 519.961924 184.105043 
L 520.978502 183.259798 
L 521.995081 183.461161 
L 523.01166 184.349674 
L 524.028238 184.016671 
L 525.044817 183.344138 
L 527.077974 183.045986 
L 529.111131 183.738808 
L 530.12771 183.262408 
L 531.144289 183.045717 
L 532.160867 183.512529 
L 533.177446 183.311841 
L 534.194024 183.290081 
L 535.210603 183.465413 
L 536.227182 183.459268 
L 537.24376 183.034377 
L 538.260339 182.769023 
L 539.276917 183.28925 
L 540.293496 183.102849 
L 541.310075 183.651636 
L 542.326653 182.902326 
L 543.343232 183.447251 
L 544.359811 183.074484 
L 545.376389 182.845153 
L 546.392968 182.768533 
L 547.409546 182.475416 
L 549.442704 183.325484 
L 550.459282 182.616359 
L 551.475861 182.563035 
L 552.492439 182.728792 
L 553.509018 182.558785 
L 554.525597 182.724448 
L 555.542175 182.311902 
L 556.558754 182.5906 
L 558.591911 182.693246 
L 559.60849 182.47458 
L 560.625068 182.960967 
L 562.658226 183.019814 
L 564.691383 182.83111 
L 565.707961 182.16666 
L 566.72454 182.65834 
L 568.757697 182.422597 
L 569.774276 182.353258 
L 570.790854 182.639646 
L 571.807433 182.585069 
L 572.824012 182.836822 
L 573.84059 182.093068 
L 574.857169 182.252628 
L 575.873747 182.5949 
L 576.890326 182.4534 
L 577.906905 183.141078 
L 578.923483 182.24426 
L 579.940062 181.921702 
L 580.956641 182.820104 
L 581.973219 181.859024 
L 582.989798 181.764402 
L 584.006376 182.314266 
L 585.022955 182.563711 
L 586.039534 182.079913 
L 588.072691 182.921951 
L 589.089269 181.487557 
L 590.105848 181.5595 
L 591.122427 181.949662 
L 592.139005 182.548714 
L 593.155584 182.053531 
L 594.172163 181.869515 
L 595.188741 182.326407 
L 596.20532 182.449653 
L 597.221898 182.129696 
L 598.238477 181.963826 
L 599.255056 182.364394 
L 600.271634 182.570906 
L 601.288213 181.505209 
L 603.32137 182.49498 
L 604.337949 181.789041 
L 605.354527 182.409992 
L 606.371106 182.426287 
L 607.387684 182.04979 
L 608.404263 182.323296 
L 609.420842 182.377498 
L 610.43742 182.118528 
L 611.453999 181.68669 
L 612.470578 181.592374 
L 613.487156 181.828544 
L 614.503735 181.697553 
L 615.520313 182.11316 
L 616.536892 182.225686 
L 617.553471 182.071297 
L 618.570049 182.212858 
L 619.586628 181.85967 
L 620.603206 181.702254 
L 622.636364 182.461628 
L 622.636364 182.461628 
" clip-path="url(#p519cc266b0)" style="fill: none; stroke: #ff7f0e; stroke-width: 2; stroke-linecap: square"/>
   </g>
   <g id="patch_3">
    <path d="M 90 320.4 
L 90 43.2 
" style="fill: none; stroke: #000000; stroke-width: 0.8; stroke-linejoin: miter; stroke-linecap: square"/>
   </g>
   <g id="patch_4">
    <path d="M 648 320.4 
L 648 43.2 
" style="fill: none; stroke: #000000; stroke-width: 0.8; stroke-linejoin: miter; stroke-linecap: square"/>
   </g>
   <g id="patch_5">
    <path d="M 90 320.4 
L 648 320.4 
" style="fill: none; stroke: #000000; stroke-width: 0.8; stroke-linejoin: miter; stroke-linecap: square"/>
   </g>
   <g id="patch_6">
    <path d="M 90 43.2 
L 648 43.2 
" style="fill: none; stroke: #000000; stroke-width: 0.8; stroke-linejoin: miter; stroke-linecap: square"/>
   </g>
   <g id="text_12">
    <!-- Convergence de l'entraînement -->
    <g transform="translate(273.964687 37.2) scale(0.12 -0.12)">
     <defs>
      <path id="DejaVuSans-43" d="M 4122 4306 
L 4122 3641 
Q 3803 3938 3442 4084 
Q 3081 4231 2675 4231 
Q 1875 4231 1450 3742 
Q 1025 3253 1025 2328 
Q 1025 1406 1450 917 
Q 1875 428 2675 428 
Q 3081 428 3442 575 
Q 3803 722 4122 1019 
L 4122 359 
Q 3791 134 3420 21 
Q 3050 -91 2638 -91 
Q 1578 -91 968 557 
Q 359 1206 359 2328 
Q 359 3453 968 4101 
Q 1578 4750 2638 4750 
Q 3056 4750 3426 4639 
Q 3797 4528 4122 4306 
z
" transform="scale(0.015625)"/>
      <path id="DejaVuSans-6e" d="M 3513 2113 
L 3513 0 
L 2938 0 
L 2938 2094 
Q 2938 2591 2744 2837 
Q 2550 3084 2163 3084 
Q 1697 3084 1428 2787 
Q 1159 2491 1159 1978 
L 1159 0 
L 581 0 
L 581 3500 
L 1159 3500 
L 1159 2956 
Q 1366 3272 1645 3428 
Q 1925 3584 2291 3584 
Q 2894 3584 3203 3211 
Q 3513 2838 3513 2113 
z
" transform="scale(0.015625)"/>
      <path id="DejaVuSans-76" d="M 191 3500 
L 800 3500 
L 1894 563 
L 2988 3500 
L 3597 3500 
L 2284 0 
L 1503 0 
L 191 3500 
z
" transform="scale(0.015625)"/>
      <path id="DejaVuSans-72" d="M 2631 2963 
Q 2534 3019 2420 3045 
Q 2306 3072 2169 3072 
Q 1681 3072 1420 2755 
Q 1159 2438 1159 1844 
L 1159 0 
L 581 0 
L 581 3500 
L 1159 3500 
L 1159 2956 
Q 1341 3275 1631 3429 
Q 1922 3584 2338 3584 
Q 2397 3584 2469 3576 
Q 2541 3569 2628 3553 
L 2631 2963 
z
" transform="scale(0.015625)"/>
      <path id="DejaVuSans-64" d="M 2906 2969 
L 2906 4863 
L 3481 4863 
L 3481 0 
L 2906 0 
L 2906 525 
Q 2725 213 2448 61 
Q 2172 -91 1784 -91 
Q 1150 -91 751 415 
Q 353 922 353 1747 
Q 353 2572 751 3078 
Q 1150 3584 1784 3584 
Q 2172 3584 2448 3432 
Q 2725 3281 2906 2969 
z
M 947 1747 
Q 947 1113 1208 752 
Q 1469 391 1925 391 
Q 2381 391 2643 752 
Q 2906 1113 2906 1747 
Q 2906 2381 2643 2742 
Q 2381 3103 1925 3103 
Q 1469 3103 1208 2742 
Q 947 2381 947 1747 
z
" transform="scale(0.015625)"/>
      <path id="DejaVuSans-27" d="M 1147 4666 
L 1147 2931 
L 616 2931 
L 616 4666 
L 1147 4666 
z
" transform="scale(0.015625)"/>
      <path id="DejaVuSans-74" d="M 1172 4494 
L 1172 3500 
L 2356 3500 
L 2356 3053 
L 1172 3053 
L 1172 1153 
Q 1172 725 1289 603 
Q 1406 481 1766 481 
L 2356 481 
L 2356 0 
L 1766 0 
Q 1100 0 847 248 
Q 594 497 594 1153 
L 594 3053 
L 172 3053 
L 172 3500 
L 594 3500 
L 594 4494 
L 1172 4494 
z
" transform="scale(0.015625)"/>
      <path id="DejaVuSans-ee" d="M 603 3500 
L 1178 3500 
L 1178 0 
L 603 0 
L 603 3500 
z
M 891 3584 
L 891 3584 
z
M 657 5119 
L 1119 5119 
L 1885 3944 
L 1451 3944 
L 888 4709 
L 326 3944 
L -109 3944 
L 657 5119 
z
" transform="scale(0.015625)"/>
      <path id="DejaVuSans-6d" d="M 3328 2828 
Q 3544 3216 3844 3400 
Q 4144 3584 4550 3584 
Q 5097 3584 5394 3201 
Q 5691 2819 5691 2113 
L 5691 0 
L 5113 0 
L 5113 2094 
Q 5113 2597 4934 2840 
Q 4756 3084 4391 3084 
Q 3944 3084 3684 2787 
Q 3425 2491 3425 1978 
L 3425 0 
L 2847 0 
L 2847 2094 
Q 2847 2600 2669 2842 
Q 2491 3084 2119 3084 
Q 1678 3084 1418 2786 
Q 1159 2488 1159 1978 
L 1159 0 
L 581 0 
L 581 3500 
L 1159 3500 
L 1159 2956 
Q 1356 3278 1631 3431 
Q 1906 3584 2284 3584 
Q 2666 3584 2933 3390 
Q 3200 3197 3328 2828 
z
" transform="scale(0.015625)"/>
     </defs>
     <use xlink:href="#DejaVuSans-43"/>
     <use xlink:href="#DejaVuSans-6f" transform="translate(69.824219 0)"/>
     <use xlink:href="#DejaVuSans-6e" transform="translate(131.005859 0)"/>
     <use xlink:href="#DejaVuSans-76" transform="translate(194.384766 0)"/>
     <use xlink:href="#DejaVuSans-65" transform="translate(253.564453 0)"/>
     <use xlink:href="#DejaVuSans-72" transform="translate(315.087891 0)"/>
     <use xlink:href="#DejaVuSans-67" transform="translate(354.451172 0)"/>
     <use xlink:href="#DejaVuSans-65" transform="translate(417.927734 0)"/>
     <use xlink:href="#DejaVuSans-6e" transform="translate(479.451172 0)"/>
     <use xlink:href="#DejaVuSans-63" transform="translate(542.830078 0)"/>
     <use xlink:href="#DejaVuSans-65" transform="translate(597.810547 0)"/>
     <use xlink:href="#DejaVuSans-20" transform="translate(659.333984 0)"/>
     <use xlink:href="#DejaVuSans-64" transform="translate(691.121094 0)"/>
     <use xlink:href="#DejaVuSans-65" transform="translate(754.597656 0)"/>
     <use xlink:href="#DejaVuSans-20" transform="translate(816.121094 0)"/>
     <use xlink:href="#DejaVuSans-6c" transform="translate(847.908203 0)"/>
     <use xlink:href="#DejaVuSans-27" transform="translate(875.691406 0)"/>
     <use xlink:href="#DejaVuSans-65" transform="translate(903.181641 0)"/>
     <use xlink:href="#DejaVuSans-6e" transform="translate(964.705078 0)"/>
     <use xlink:href="#DejaVuSans-74" transform="translate(1028.083984 0)"/>
     <use xlink:href="#DejaVuSans-72" transform="translate(1067.292969 0)"/>
     <use xlink:href="#DejaVuSans-61" transform="translate(1108.40625 0)"/>
     <use xlink:href="#DejaVuSans-ee" transform="translate(1169.685547 0)"/>
     <use xlink:href="#DejaVuSans-6e" transform="translate(1197.46875 0)"/>
     <use xlink:href="#DejaVuSans-65" transform="translate(1260.847656 0)"/>
     <use xlink:href="#DejaVuSans-6d" transform="translate(1322.371094 0)"/>
     <use xlink:href="#DejaVuSans-65" transform="translate(1419.783203 0)"/>
     <use xlink:href="#DejaVuSans-6e" transform="translate(1481.306641 0)"/>
     <use xlink:href="#DejaVuSans-74" transform="translate(1544.685547 0)"/>
    </g>
   </g>
   <g id="legend_1">
    <g id="patch_7">
     <path d="M 534.50625 80.55625 
L 641 80.55625 
Q 643 80.55625 643 78.55625 
L 643 50.2 
Q 643 48.2 641 48.2 
L 534.50625 48.2 
Q 532.50625 48.2 532.50625 50.2 
L 532.50625 78.55625 
Q 532.50625 80.55625 534.50625 80.55625 
z
" style="fill: #ffffff; opacity: 0.8; stroke: #cccccc; stroke-linejoin: miter"/>
    </g>
    <g id="line2d_71">
     <path d="M 536.50625 56.298437 
L 546.50625 56.298437 
L 556.50625 56.298437 
" style="fill: none; stroke: #1f77b4; stroke-width: 2; stroke-linecap: square"/>
    </g>
    <g id="text_13">
     <!-- Train Loss -->
     <g transform="translate(564.50625 59.798437) scale(0.1 -0.1)">
      <defs>
       <path id="DejaVuSans-54" d="M -19 4666 
L 3928 4666 
L 3928 4134 
L 2272 4134 
L 2272 0 
L 1638 0 
L 1638 4134 
L -19 4134 
L -19 4666 
z
" transform="scale(0.015625)"/>
       <path id="DejaVuSans-69" d="M 603 3500 
L 1178 3500 
L 1178 0 
L 603 0 
L 603 3500 
z
M 603 4863 
L 1178 4863 
L 1178 4134 
L 603 4134 
L 603 4863 
z
" transform="scale(0.015625)"/>
      </defs>
      <use xlink:href="#DejaVuSans-54"/>
      <use xlink:href="#DejaVuSans-72" transform="translate(46.333984 0)"/>
      <use xlink:href="#DejaVuSans-61" transform="translate(87.447266 0)"/>
      <use xlink:href="#DejaVuSans-69" transform="translate(148.726562 0)"/>
      <use xlink:href="#DejaVuSans-6e" transform="translate(176.509766 0)"/>
      <use xlink:href="#DejaVuSans-20" transform="translate(239.888672 0)"/>
      <use xlink:href="#DejaVuSans-4c" transform="translate(271.675781 0)"/>
      <use xlink:href="#DejaVuSans-6f" transform="translate(325.638672 0)"/>
      <use xlink:href="#DejaVuSans-73" transform="translate(386.820312 0)"/>
      <use xlink:href="#DejaVuSans-73" transform="translate(438.919922 0)"/>
     </g>
    </g>
    <g id="line2d_72">
     <path d="M 536.50625 70.976562 
L 546.50625 70.976562 
L 556.50625 70.976562 
" style="fill: none; stroke: #ff7f0e; stroke-width: 2; stroke-linecap: square"/>
    </g>
    <g id="text_14">
     <!-- Validation Loss -->
     <g transform="translate(564.50625 74.476562) scale(0.1 -0.1)">
      <defs>
       <path id="DejaVuSans-56" d="M 1831 0 
L 50 4666 
L 709 4666 
L 2188 738 
L 3669 4666 
L 4325 4666 
L 2547 0 
L 1831 0 
z
" transform="scale(0.015625)"/>
      </defs>
      <use xlink:href="#DejaVuSans-56"/>
      <use xlink:href="#DejaVuSans-61" transform="translate(60.658203 0)"/>
      <use xlink:href="#DejaVuSans-6c" transform="translate(121.9375 0)"/>
      <use xlink:href="#DejaVuSans-69" transform="translate(149.720703 0)"/>
      <use xlink:href="#DejaVuSans-64" transform="translate(177.503906 0)"/>
      <use xlink:href="#DejaVuSans-61" transform="translate(240.980469 0)"/>
      <use xlink:href="#DejaVuSans-74" transform="translate(302.259766 0)"/>
      <use xlink:href="#DejaVuSans-69" transform="translate(341.46875 0)"/>
      <use xlink:href="#DejaVuSans-6f" transform="translate(369.251953 0)"/>
      <use xlink:href="#DejaVuSans-6e" transform="translate(430.433594 0)"/>
      <use xlink:href="#DejaVuSans-20" transform="translate(493.8125 0)"/>
      <use xlink:href="#DejaVuSans-4c" transform="translate(525.599609 0)"/>
      <use xlink:href="#DejaVuSans-6f" transform="translate(579.5625 0)"/>
      <use xlink:href="#DejaVuSans-73" transform="translate(640.744141 0)"/>
      <use xlink:href="#DejaVuSans-73" transform="translate(692.84375 0)"/>
     </g>
    </g>
   </g>
  </g>
 </g>
 <defs>
  <clipPath id="p519cc266b0">
   <rect x="90" y="43.2" width="558" height="277.2"/>
  </clipPath>
 </defs>
</svg>
