<?xml version="1.0" encoding="utf-8" standalone="no"?>
<!DOCTYPE svg PUBLIC "-//W3C//DTD SVG 1.1//EN"
  "http://www.w3.org/Graphics/SVG/1.1/DTD/svg11.dtd">
<svg xmlns:xlink="http://www.w3.org/1999/xlink" width="720pt" height="360pt" viewBox="0 0 720 360" xmlns="http://www.w3.org/2000/svg" version="1.1">
 <metadata>
  <rdf:RDF xmlns:dc="http://purl.org/dc/elements/1.1/" xmlns:cc="http://creativecommons.org/ns#" xmlns:rdf="http://www.w3.org/1999/02/22-rdf-syntax-ns#">
   <cc:Work>
    <dc:type rdf:resource="http://purl.org/dc/dcmitype/StillImage"/>
    <dc:date>2026-01-13T11:49:37.708771</dc:date>
    <dc:format>image/svg+xml</dc:format>
    <dc:creator>
     <cc:Agent>
      <dc:title>Matplotlib v3.10.7, https://matplotlib.org/</dc:title>
     </cc:Agent>
    </dc:creator>
   </cc:Work>
  </rdf:RDF>
 </metadata>
 <defs>
  <style type="text/css">*{stroke-linejoin: round; stroke-linecap: butt}</style>
 </defs>
 <g id="figure_1">
  <g id="patch_1">
   <path d="M 0 360 
L 720 360 
L 720 0 
L 0 0 
z
" style="fill: #ffffff"/>
  </g>
  <g id="axes_1">
   <g id="patch_2">
    <path d="M 90 320.4 
L 648 320.4 
L 648 43.2 
L 90 43.2 
z
" style="fill: #ffffff"/>
   </g>
   <g id="matplotlib.axis_1">
    <g id="xtick_1">
     <g id="line2d_1">
      <path d="M 115.363636 320.4 
L 115.363636 43.2 
" clip-path="url(#p428f30b094)" style="fill: none; stroke: #b0b0b0; stroke-opacity: 0.5; stroke-width: 0.8; stroke-linecap: square"/>
     </g>
     <g id="line2d_2">
      <defs>
       <path id="medba81b793" d="M 0 0 
L 0 3.5 
" style="stroke: #000000; stroke-width: 0.8"/>
      </defs>
      <g>
       <use xlink:href="#medba81b793" x="115.363636" y="320.4" style="stroke: #000000; stroke-width: 0.8"/>
      </g>
     </g>
     <g id="text_1">
      <!-- 0 -->
      <g transform="translate(112.182386 334.998438) scale(0.1 -0.1)">
       <defs>
        <path id="DejaVuSans-30" d="M 2034 4250 
Q 1547 4250 1301 3770 
Q 1056 3291 1056 2328 
Q 1056 1369 1301 889 
Q 1547 409 2034 409 
Q 2525 409 2770 889 
Q 3016 1369 3016 2328 
Q 3016 3291 2770 3770 
Q 2525 4250 2034 4250 
z
M 2034 4750 
Q 2819 4750 3233 4129 
Q 3647 3509 3647 2328 
Q 3647 1150 3233 529 
Q 2819 -91 2034 -91 
Q 1250 -91 836 529 
Q 422 1150 422 2328 
Q 422 3509 836 4129 
Q 1250 4750 2034 4750 
z
" transform="scale(0.015625)"/>
       </defs>
       <use xlink:href="#DejaVuSans-30"/>
      </g>
     </g>
    </g>
    <g id="xtick_2">
     <g id="line2d_3">
      <path d="M 216.919738 320.4 
L 216.919738 43.2 
" clip-path="url(#p428f30b094)" style="fill: none; stroke: #b0b0b0; stroke-opacity: 0.5; stroke-width: 0.8; stroke-linecap: square"/>
     </g>
     <g id="line2d_4">
      <g>
       <use xlink:href="#medba81b793" x="216.919738" y="320.4" style="stroke: #000000; stroke-width: 0.8"/>
      </g>
     </g>
     <g id="text_2">
      <!-- 200 -->
      <g transform="translate(207.375988 334.998438) scale(0.1 -0.1)">
       <defs>
        <path id="DejaVuSans-32" d="M 1228 531 
L 3431 531 
L 3431 0 
L 469 0 
L 469 531 
Q 828 903 1448 1529 
Q 2069 2156 2228 2338 
Q 2531 2678 2651 2914 
Q 2772 3150 2772 3378 
Q 2772 3750 2511 3984 
Q 2250 4219 1831 4219 
Q 1534 4219 1204 4116 
Q 875 4013 500 3803 
L 500 4441 
Q 881 4594 1212 4672 
Q 1544 4750 1819 4750 
Q 2544 4750 2975 4387 
Q 3406 4025 3406 3419 
Q 3406 3131 3298 2873 
Q 3191 2616 2906 2266 
Q 2828 2175 2409 1742 
Q 1991 1309 1228 531 
z
" transform="scale(0.015625)"/>
       </defs>
       <use xlink:href="#DejaVuSans-32"/>
       <use xlink:href="#DejaVuSans-30" transform="translate(63.623047 0)"/>
       <use xlink:href="#DejaVuSans-30" transform="translate(127.246094 0)"/>
      </g>
     </g>
    </g>
    <g id="xtick_3">
     <g id="line2d_5">
      <path d="M 318.475839 320.4 
L 318.475839 43.2 
" clip-path="url(#p428f30b094)" style="fill: none; stroke: #b0b0b0; stroke-opacity: 0.5; stroke-width: 0.8; stroke-linecap: square"/>
     </g>
     <g id="line2d_6">
      <g>
       <use xlink:href="#medba81b793" x="318.475839" y="320.4" style="stroke: #000000; stroke-width: 0.8"/>
      </g>
     </g>
     <g id="text_3">
      <!-- 400 -->
      <g transform="translate(308.932089 334.998438) scale(0.1 -0.1)">
       <defs>
        <path id="DejaVuSans-34" d="M 2419 4116 
L 825 1625 
L 2419 1625 
L 2419 4116 
z
M 2253 4666 
L 3047 4666 
L 3047 1625 
L 3713 1625 
L 3713 1100 
L 3047 1100 
L 3047 0 
L 2419 0 
L 2419 1100 
L 313 1100 
L 313 1709 
L 2253 4666 
z
" transform="scale(0.015625)"/>
       </defs>
       <use xlink:href="#DejaVuSans-34"/>
       <use xlink:href="#DejaVuSans-30" transform="translate(63.623047 0)"/>
       <use xlink:href="#DejaVuSans-30" transform="translate(127.246094 0)"/>
      </g>
     </g>
    </g>
    <g id="xtick_4">
     <g id="line2d_7">
      <path d="M 420.031941 320.4 
L 420.031941 43.2 
" clip-path="url(#p428f30b094)" style="fill: none; stroke: #b0b0b0; stroke-opacity: 0.5; stroke-width: 0.8; stroke-linecap: square"/>
     </g>
     <g id="line2d_8">
      <g>
       <use xlink:href="#medba81b793" x="420.031941" y="320.4" style="stroke: #000000; stroke-width: 0.8"/>
      </g>
     </g>
     <g id="text_4">
      <!-- 600 -->
      <g transform="translate(410.488191 334.998438) scale(0.1 -0.1)">
       <defs>
        <path id="DejaVuSans-36" d="M 2113 2584 
Q 1688 2584 1439 2293 
Q 1191 2003 1191 1497 
Q 1191 994 1439 701 
Q 1688 409 2113 409 
Q 2538 409 2786 701 
Q 3034 994 3034 1497 
Q 3034 2003 2786 2293 
Q 2538 2584 2113 2584 
z
M 3366 4563 
L 3366 3988 
Q 3128 4100 2886 4159 
Q 2644 4219 2406 4219 
Q 1781 4219 1451 3797 
Q 1122 3375 1075 2522 
Q 1259 2794 1537 2939 
Q 1816 3084 2150 3084 
Q 2853 3084 3261 2657 
Q 3669 2231 3669 1497 
Q 3669 778 3244 343 
Q 2819 -91 2113 -91 
Q 1303 -91 875 529 
Q 447 1150 447 2328 
Q 447 3434 972 4092 
Q 1497 4750 2381 4750 
Q 2619 4750 2861 4703 
Q 3103 4656 3366 4563 
z
" transform="scale(0.015625)"/>
       </defs>
       <use xlink:href="#DejaVuSans-36"/>
       <use xlink:href="#DejaVuSans-30" transform="translate(63.623047 0)"/>
       <use xlink:href="#DejaVuSans-30" transform="translate(127.246094 0)"/>
      </g>
     </g>
    </g>
    <g id="xtick_5">
     <g id="line2d_9">
      <path d="M 521.588043 320.4 
L 521.588043 43.2 
" clip-path="url(#p428f30b094)" style="fill: none; stroke: #b0b0b0; stroke-opacity: 0.5; stroke-width: 0.8; stroke-linecap: square"/>
     </g>
     <g id="line2d_10">
      <g>
       <use xlink:href="#medba81b793" x="521.588043" y="320.4" style="stroke: #000000; stroke-width: 0.8"/>
      </g>
     </g>
     <g id="text_5">
      <!-- 800 -->
      <g transform="translate(512.044293 334.998438) scale(0.1 -0.1)">
       <defs>
        <path id="DejaVuSans-38" d="M 2034 2216 
Q 1584 2216 1326 1975 
Q 1069 1734 1069 1313 
Q 1069 891 1326 650 
Q 1584 409 2034 409 
Q 2484 409 2743 651 
Q 3003 894 3003 1313 
Q 3003 1734 2745 1975 
Q 2488 2216 2034 2216 
z
M 1403 2484 
Q 997 2584 770 2862 
Q 544 3141 544 3541 
Q 544 4100 942 4425 
Q 1341 4750 2034 4750 
Q 2731 4750 3128 4425 
Q 3525 4100 3525 3541 
Q 3525 3141 3298 2862 
Q 3072 2584 2669 2484 
Q 3125 2378 3379 2068 
Q 3634 1759 3634 1313 
Q 3634 634 3220 271 
Q 2806 -91 2034 -91 
Q 1263 -91 848 271 
Q 434 634 434 1313 
Q 434 1759 690 2068 
Q 947 2378 1403 2484 
z
M 1172 3481 
Q 1172 3119 1398 2916 
Q 1625 2713 2034 2713 
Q 2441 2713 2670 2916 
Q 2900 3119 2900 3481 
Q 2900 3844 2670 4047 
Q 2441 4250 2034 4250 
Q 1625 4250 1398 4047 
Q 1172 3844 1172 3481 
z
" transform="scale(0.015625)"/>
       </defs>
       <use xlink:href="#DejaVuSans-38"/>
       <use xlink:href="#DejaVuSans-30" transform="translate(63.623047 0)"/>
       <use xlink:href="#DejaVuSans-30" transform="translate(127.246094 0)"/>
      </g>
     </g>
    </g>
    <g id="xtick_6">
     <g id="line2d_11">
      <path d="M 623.144144 320.4 
L 623.144144 43.2 
" clip-path="url(#p428f30b094)" style="fill: none; stroke: #b0b0b0; stroke-opacity: 0.5; stroke-width: 0.8; stroke-linecap: square"/>
     </g>
     <g id="line2d_12">
      <g>
       <use xlink:href="#medba81b793" x="623.144144" y="320.4" style="stroke: #000000; stroke-width: 0.8"/>
      </g>
     </g>
     <g id="text_6">
      <!-- 1000 -->
      <g transform="translate(610.419144 334.998438) scale(0.1 -0.1)">
       <defs>
        <path id="DejaVuSans-31" d="M 794 531 
L 1825 531 
L 1825 4091 
L 703 3866 
L 703 4441 
L 1819 4666 
L 2450 4666 
L 2450 531 
L 3481 531 
L 3481 0 
L 794 0 
L 794 531 
z
" transform="scale(0.015625)"/>
       </defs>
       <use xlink:href="#DejaVuSans-31"/>
       <use xlink:href="#DejaVuSans-30" transform="translate(63.623047 0)"/>
       <use xlink:href="#DejaVuSans-30" transform="translate(127.246094 0)"/>
       <use xlink:href="#DejaVuSans-30" transform="translate(190.869141 0)"/>
      </g>
     </g>
    </g>
    <g id="text_7">
     <!-- Époques -->
     <g transform="translate(347.582812 350.329688) scale(0.1 -0.1)">
      <defs>
       <path id="DejaVuSans-c9" d="M 628 4666 
L 3578 4666 
L 3578 4134 
L 1259 4134 
L 1259 2753 
L 3481 2753 
L 3481 2222 
L 1259 2222 
L 1259 531 
L 3634 531 
L 3634 0 
L 628 0 
L 628 4666 
z
M 2268 5921 
L 2846 5921 
L 2134 5096 
L 1655 5096 
L 2268 5921 
z
" transform="scale(0.015625)"/>
       <path id="DejaVuSans-70" d="M 1159 525 
L 1159 -1331 
L 581 -1331 
L 581 3500 
L 1159 3500 
L 1159 2969 
Q 1341 3281 1617 3432 
Q 1894 3584 2278 3584 
Q 2916 3584 3314 3078 
Q 3713 2572 3713 1747 
Q 3713 922 3314 415 
Q 2916 -91 2278 -91 
Q 1894 -91 1617 61 
Q 1341 213 1159 525 
z
M 3116 1747 
Q 3116 2381 2855 2742 
Q 2594 3103 2138 3103 
Q 1681 3103 1420 2742 
Q 1159 2381 1159 1747 
Q 1159 1113 1420 752 
Q 1681 391 2138 391 
Q 2594 391 2855 752 
Q 3116 1113 3116 1747 
z
" transform="scale(0.015625)"/>
       <path id="DejaVuSans-6f" d="M 1959 3097 
Q 1497 3097 1228 2736 
Q 959 2375 959 1747 
Q 959 1119 1226 758 
Q 1494 397 1959 397 
Q 2419 397 2687 759 
Q 2956 1122 2956 1747 
Q 2956 2369 2687 2733 
Q 2419 3097 1959 3097 
z
M 1959 3584 
Q 2709 3584 3137 3096 
Q 3566 2609 3566 1747 
Q 3566 888 3137 398 
Q 2709 -91 1959 -91 
Q 1206 -91 779 398 
Q 353 888 353 1747 
Q 353 2609 779 3096 
Q 1206 3584 1959 3584 
z
" transform="scale(0.015625)"/>
       <path id="DejaVuSans-71" d="M 947 1747 
Q 947 1113 1208 752 
Q 1469 391 1925 391 
Q 2381 391 2643 752 
Q 2906 1113 2906 1747 
Q 2906 2381 2643 2742 
Q 2381 3103 1925 3103 
Q 1469 3103 1208 2742 
Q 947 2381 947 1747 
z
M 2906 525 
Q 2725 213 2448 61 
Q 2172 -91 1784 -91 
Q 1150 -91 751 415 
Q 353 922 353 1747 
Q 353 2572 751 3078 
Q 1150 3584 1784 3584 
Q 2172 3584 2448 3432 
Q 2725 3281 2906 2969 
L 2906 3500 
L 3481 3500 
L 3481 -1331 
L 2906 -1331 
L 2906 525 
z
" transform="scale(0.015625)"/>
       <path id="DejaVuSans-75" d="M 544 1381 
L 544 3500 
L 1119 3500 
L 1119 1403 
Q 1119 906 1312 657 
Q 1506 409 1894 409 
Q 2359 409 2629 706 
Q 2900 1003 2900 1516 
L 2900 3500 
L 3475 3500 
L 3475 0 
L 2900 0 
L 2900 538 
Q 2691 219 2414 64 
Q 2138 -91 1772 -91 
Q 1169 -91 856 284 
Q 544 659 544 1381 
z
M 1991 3584 
L 1991 3584 
z
" transform="scale(0.015625)"/>
       <path id="DejaVuSans-65" d="M 3597 1894 
L 3597 1613 
L 953 1613 
Q 991 1019 1311 708 
Q 1631 397 2203 397 
Q 2534 397 2845 478 
Q 3156 559 3463 722 
L 3463 178 
Q 3153 47 2828 -22 
Q 2503 -91 2169 -91 
Q 1331 -91 842 396 
Q 353 884 353 1716 
Q 353 2575 817 3079 
Q 1281 3584 2069 3584 
Q 2775 3584 3186 3129 
Q 3597 2675 3597 1894 
z
M 3022 2063 
Q 3016 2534 2758 2815 
Q 2500 3097 2075 3097 
Q 1594 3097 1305 2825 
Q 1016 2553 972 2059 
L 3022 2063 
z
" transform="scale(0.015625)"/>
       <path id="DejaVuSans-73" d="M 2834 3397 
L 2834 2853 
Q 2591 2978 2328 3040 
Q 2066 3103 1784 3103 
Q 1356 3103 1142 2972 
Q 928 2841 928 2578 
Q 928 2378 1081 2264 
Q 1234 2150 1697 2047 
L 1894 2003 
Q 2506 1872 2764 1633 
Q 3022 1394 3022 966 
Q 3022 478 2636 193 
Q 2250 -91 1575 -91 
Q 1294 -91 989 -36 
Q 684 19 347 128 
L 347 722 
Q 666 556 975 473 
Q 1284 391 1588 391 
Q 1994 391 2212 530 
Q 2431 669 2431 922 
Q 2431 1156 2273 1281 
Q 2116 1406 1581 1522 
L 1381 1569 
Q 847 1681 609 1914 
Q 372 2147 372 2553 
Q 372 3047 722 3315 
Q 1072 3584 1716 3584 
Q 2034 3584 2315 3537 
Q 2597 3491 2834 3397 
z
" transform="scale(0.015625)"/>
      </defs>
      <use xlink:href="#DejaVuSans-c9"/>
      <use xlink:href="#DejaVuSans-70" transform="translate(63.183594 0)"/>
      <use xlink:href="#DejaVuSans-6f" transform="translate(126.660156 0)"/>
      <use xlink:href="#DejaVuSans-71" transform="translate(187.841797 0)"/>
      <use xlink:href="#DejaVuSans-75" transform="translate(251.318359 0)"/>
      <use xlink:href="#DejaVuSans-65" transform="translate(314.697266 0)"/>
      <use xlink:href="#DejaVuSans-73" transform="translate(376.220703 0)"/>
     </g>
    </g>
   </g>
   <g id="matplotlib.axis_2">
    <g id="ytick_1">
     <g id="line2d_13">
      <path d="M 90 294.198182 
L 648 294.198182 
" clip-path="url(#p428f30b094)" style="fill: none; stroke: #b0b0b0; stroke-opacity: 0.5; stroke-width: 0.8; stroke-linecap: square"/>
     </g>
     <g id="line2d_14">
      <defs>
       <path id="mb6624992a8" d="M 0 0 
L -3.5 0 
" style="stroke: #000000; stroke-width: 0.8"/>
      </defs>
      <g>
       <use xlink:href="#mb6624992a8" x="90" y="294.198182" style="stroke: #000000; stroke-width: 0.8"/>
      </g>
     </g>
     <g id="text_8">
      <!-- $\mathdefault{10^{-4}}$ -->
      <g transform="translate(59.5 297.997401) scale(0.1 -0.1)">
       <defs>
        <path id="DejaVuSans-2212" d="M 678 2272 
L 4684 2272 
L 4684 1741 
L 678 1741 
L 678 2272 
z
" transform="scale(0.015625)"/>
       </defs>
       <use xlink:href="#DejaVuSans-31" transform="translate(0 0.684375)"/>
       <use xlink:href="#DejaVuSans-30" transform="translate(63.623047 0.684375)"/>
       <use xlink:href="#DejaVuSans-2212" transform="translate(128.203125 38.965625) scale(0.7)"/>
       <use xlink:href="#DejaVuSans-34" transform="translate(186.855469 38.965625) scale(0.7)"/>
      </g>
     </g>
    </g>
    <g id="ytick_2">
     <g id="line2d_15">
      <path d="M 90 221.848774 
L 648 221.848774 
" clip-path="url(#p428f30b094)" style="fill: none; stroke: #b0b0b0; stroke-opacity: 0.5; stroke-width: 0.8; stroke-linecap: square"/>
     </g>
     <g id="line2d_16">
      <g>
       <use xlink:href="#mb6624992a8" x="90" y="221.848774" style="stroke: #000000; stroke-width: 0.8"/>
      </g>
     </g>
     <g id="text_9">
      <!-- $\mathdefault{10^{-3}}$ -->
      <g transform="translate(59.5 225.647993) scale(0.1 -0.1)">
       <defs>
        <path id="DejaVuSans-33" d="M 2597 2516 
Q 3050 2419 3304 2112 
Q 3559 1806 3559 1356 
Q 3559 666 3084 287 
Q 2609 -91 1734 -91 
Q 1441 -91 1130 -33 
Q 819 25 488 141 
L 488 750 
Q 750 597 1062 519 
Q 1375 441 1716 441 
Q 2309 441 2620 675 
Q 2931 909 2931 1356 
Q 2931 1769 2642 2001 
Q 2353 2234 1838 2234 
L 1294 2234 
L 1294 2753 
L 1863 2753 
Q 2328 2753 2575 2939 
Q 2822 3125 2822 3475 
Q 2822 3834 2567 4026 
Q 2313 4219 1838 4219 
Q 1578 4219 1281 4162 
Q 984 4106 628 3988 
L 628 4550 
Q 988 4650 1302 4700 
Q 1616 4750 1894 4750 
Q 2613 4750 3031 4423 
Q 3450 4097 3450 3541 
Q 3450 3153 3228 2886 
Q 3006 2619 2597 2516 
z
" transform="scale(0.015625)"/>
       </defs>
       <use xlink:href="#DejaVuSans-31" transform="translate(0 0.765625)"/>
       <use xlink:href="#DejaVuSans-30" transform="translate(63.623047 0.765625)"/>
       <use xlink:href="#DejaVuSans-2212" transform="translate(128.203125 39.046875) scale(0.7)"/>
       <use xlink:href="#DejaVuSans-33" transform="translate(186.855469 39.046875) scale(0.7)"/>
      </g>
     </g>
    </g>
    <g id="ytick_3">
     <g id="line2d_17">
      <path d="M 90 149.499366 
L 648 149.499366 
" clip-path="url(#p428f30b094)" style="fill: none; stroke: #b0b0b0; stroke-opacity: 0.5; stroke-width: 0.8; stroke-linecap: square"/>
     </g>
     <g id="line2d_18">
      <g>
       <use xlink:href="#mb6624992a8" x="90" y="149.499366" style="stroke: #000000; stroke-width: 0.8"/>
      </g>
     </g>
     <g id="text_10">
      <!-- $\mathdefault{10^{-2}}$ -->
      <g transform="translate(59.5 153.298585) scale(0.1 -0.1)">
       <use xlink:href="#DejaVuSans-31" transform="translate(0 0.765625)"/>
       <use xlink:href="#DejaVuSans-30" transform="translate(63.623047 0.765625)"/>
       <use xlink:href="#DejaVuSans-2212" transform="translate(128.203125 39.046875) scale(0.7)"/>
       <use xlink:href="#DejaVuSans-32" transform="translate(186.855469 39.046875) scale(0.7)"/>
      </g>
     </g>
    </g>
    <g id="ytick_4">
     <g id="line2d_19">
      <path d="M 90 77.149959 
L 648 77.149959 
" clip-path="url(#p428f30b094)" style="fill: none; stroke: #b0b0b0; stroke-opacity: 0.5; stroke-width: 0.8; stroke-linecap: square"/>
     </g>
     <g id="line2d_20">
      <g>
       <use xlink:href="#mb6624992a8" x="90" y="77.149959" style="stroke: #000000; stroke-width: 0.8"/>
      </g>
     </g>
     <g id="text_11">
      <!-- $\mathdefault{10^{-1}}$ -->
      <g transform="translate(59.5 80.949177) scale(0.1 -0.1)">
       <use xlink:href="#DejaVuSans-31" transform="translate(0 0.684375)"/>
       <use xlink:href="#DejaVuSans-30" transform="translate(63.623047 0.684375)"/>
       <use xlink:href="#DejaVuSans-2212" transform="translate(128.203125 38.965625) scale(0.7)"/>
       <use xlink:href="#DejaVuSans-31" transform="translate(186.855469 38.965625) scale(0.7)"/>
      </g>
     </g>
    </g>
    <g id="ytick_5">
     <g id="line2d_21">
      <path d="M 90 315.977524 
L 648 315.977524 
" clip-path="url(#p428f30b094)" style="fill: none; stroke: #b0b0b0; stroke-opacity: 0.5; stroke-width: 0.8; stroke-linecap: square"/>
     </g>
     <g id="line2d_22">
      <defs>
       <path id="ma753a253e9" d="M 0 0 
L -2 0 
" style="stroke: #000000; stroke-width: 0.6"/>
      </defs>
      <g>
       <use xlink:href="#ma753a253e9" x="90" y="315.977524" style="stroke: #000000; stroke-width: 0.6"/>
      </g>
     </g>
    </g>
    <g id="ytick_6">
     <g id="line2d_23">
      <path d="M 90 310.248808 
L 648 310.248808 
" clip-path="url(#p428f30b094)" style="fill: none; stroke: #b0b0b0; stroke-opacity: 0.5; stroke-width: 0.8; stroke-linecap: square"/>
     </g>
     <g id="line2d_24">
      <g>
       <use xlink:href="#ma753a253e9" x="90" y="310.248808" style="stroke: #000000; stroke-width: 0.6"/>
      </g>
     </g>
    </g>
    <g id="ytick_7">
     <g id="line2d_25">
      <path d="M 90 305.405247 
L 648 305.405247 
" clip-path="url(#p428f30b094)" style="fill: none; stroke: #b0b0b0; stroke-opacity: 0.5; stroke-width: 0.8; stroke-linecap: square"/>
     </g>
     <g id="line2d_26">
      <g>
       <use xlink:href="#ma753a253e9" x="90" y="305.405247" style="stroke: #000000; stroke-width: 0.6"/>
      </g>
     </g>
    </g>
    <g id="ytick_8">
     <g id="line2d_27">
      <path d="M 90 301.209564 
L 648 301.209564 
" clip-path="url(#p428f30b094)" style="fill: none; stroke: #b0b0b0; stroke-opacity: 0.5; stroke-width: 0.8; stroke-linecap: square"/>
     </g>
     <g id="line2d_28">
      <g>
       <use xlink:href="#ma753a253e9" x="90" y="301.209564" style="stroke: #000000; stroke-width: 0.6"/>
      </g>
     </g>
    </g>
    <g id="ytick_9">
     <g id="line2d_29">
      <path d="M 90 297.508709 
L 648 297.508709 
" clip-path="url(#p428f30b094)" style="fill: none; stroke: #b0b0b0; stroke-opacity: 0.5; stroke-width: 0.8; stroke-linecap: square"/>
     </g>
     <g id="line2d_30">
      <g>
       <use xlink:href="#ma753a253e9" x="90" y="297.508709" style="stroke: #000000; stroke-width: 0.6"/>
      </g>
     </g>
    </g>
    <g id="ytick_10">
     <g id="line2d_31">
      <path d="M 90 272.41884 
L 648 272.41884 
" clip-path="url(#p428f30b094)" style="fill: none; stroke: #b0b0b0; stroke-opacity: 0.5; stroke-width: 0.8; stroke-linecap: square"/>
     </g>
     <g id="line2d_32">
      <g>
       <use xlink:href="#ma753a253e9" x="90" y="272.41884" style="stroke: #000000; stroke-width: 0.6"/>
      </g>
     </g>
    </g>
    <g id="ytick_11">
     <g id="line2d_33">
      <path d="M 90 259.678742 
L 648 259.678742 
" clip-path="url(#p428f30b094)" style="fill: none; stroke: #b0b0b0; stroke-opacity: 0.5; stroke-width: 0.8; stroke-linecap: square"/>
     </g>
     <g id="line2d_34">
      <g>
       <use xlink:href="#ma753a253e9" x="90" y="259.678742" style="stroke: #000000; stroke-width: 0.6"/>
      </g>
     </g>
    </g>
    <g id="ytick_12">
     <g id="line2d_35">
      <path d="M 90 250.639498 
L 648 250.639498 
" clip-path="url(#p428f30b094)" style="fill: none; stroke: #b0b0b0; stroke-opacity: 0.5; stroke-width: 0.8; stroke-linecap: square"/>
     </g>
     <g id="line2d_36">
      <g>
       <use xlink:href="#ma753a253e9" x="90" y="250.639498" style="stroke: #000000; stroke-width: 0.6"/>
      </g>
     </g>
    </g>
    <g id="ytick_13">
     <g id="line2d_37">
      <path d="M 90 243.628116 
L 648 243.628116 
" clip-path="url(#p428f30b094)" style="fill: none; stroke: #b0b0b0; stroke-opacity: 0.5; stroke-width: 0.8; stroke-linecap: square"/>
     </g>
     <g id="line2d_38">
      <g>
       <use xlink:href="#ma753a253e9" x="90" y="243.628116" style="stroke: #000000; stroke-width: 0.6"/>
      </g>
     </g>
    </g>
    <g id="ytick_14">
     <g id="line2d_39">
      <path d="M 90 237.8994 
L 648 237.8994 
" clip-path="url(#p428f30b094)" style="fill: none; stroke: #b0b0b0; stroke-opacity: 0.5; stroke-width: 0.8; stroke-linecap: square"/>
     </g>
     <g id="line2d_40">
      <g>
       <use xlink:href="#ma753a253e9" x="90" y="237.8994" style="stroke: #000000; stroke-width: 0.6"/>
      </g>
     </g>
    </g>
    <g id="ytick_15">
     <g id="line2d_41">
      <path d="M 90 233.055839 
L 648 233.055839 
" clip-path="url(#p428f30b094)" style="fill: none; stroke: #b0b0b0; stroke-opacity: 0.5; stroke-width: 0.8; stroke-linecap: square"/>
     </g>
     <g id="line2d_42">
      <g>
       <use xlink:href="#ma753a253e9" x="90" y="233.055839" style="stroke: #000000; stroke-width: 0.6"/>
      </g>
     </g>
    </g>
    <g id="ytick_16">
     <g id="line2d_43">
      <path d="M 90 228.860156 
L 648 228.860156 
" clip-path="url(#p428f30b094)" style="fill: none; stroke: #b0b0b0; stroke-opacity: 0.5; stroke-width: 0.8; stroke-linecap: square"/>
     </g>
     <g id="line2d_44">
      <g>
       <use xlink:href="#ma753a253e9" x="90" y="228.860156" style="stroke: #000000; stroke-width: 0.6"/>
      </g>
     </g>
    </g>
    <g id="ytick_17">
     <g id="line2d_45">
      <path d="M 90 225.159302 
L 648 225.159302 
" clip-path="url(#p428f30b094)" style="fill: none; stroke: #b0b0b0; stroke-opacity: 0.5; stroke-width: 0.8; stroke-linecap: square"/>
     </g>
     <g id="line2d_46">
      <g>
       <use xlink:href="#ma753a253e9" x="90" y="225.159302" style="stroke: #000000; stroke-width: 0.6"/>
      </g>
     </g>
    </g>
    <g id="ytick_18">
     <g id="line2d_47">
      <path d="M 90 200.069432 
L 648 200.069432 
" clip-path="url(#p428f30b094)" style="fill: none; stroke: #b0b0b0; stroke-opacity: 0.5; stroke-width: 0.8; stroke-linecap: square"/>
     </g>
     <g id="line2d_48">
      <g>
       <use xlink:href="#ma753a253e9" x="90" y="200.069432" style="stroke: #000000; stroke-width: 0.6"/>
      </g>
     </g>
    </g>
    <g id="ytick_19">
     <g id="line2d_49">
      <path d="M 90 187.329334 
L 648 187.329334 
" clip-path="url(#p428f30b094)" style="fill: none; stroke: #b0b0b0; stroke-opacity: 0.5; stroke-width: 0.8; stroke-linecap: square"/>
     </g>
     <g id="line2d_50">
      <g>
       <use xlink:href="#ma753a253e9" x="90" y="187.329334" style="stroke: #000000; stroke-width: 0.6"/>
      </g>
     </g>
    </g>
    <g id="ytick_20">
     <g id="line2d_51">
      <path d="M 90 178.29009 
L 648 178.29009 
" clip-path="url(#p428f30b094)" style="fill: none; stroke: #b0b0b0; stroke-opacity: 0.5; stroke-width: 0.8; stroke-linecap: square"/>
     </g>
     <g id="line2d_52">
      <g>
       <use xlink:href="#ma753a253e9" x="90" y="178.29009" style="stroke: #000000; stroke-width: 0.6"/>
      </g>
     </g>
    </g>
    <g id="ytick_21">
     <g id="line2d_53">
      <path d="M 90 171.278708 
L 648 171.278708 
" clip-path="url(#p428f30b094)" style="fill: none; stroke: #b0b0b0; stroke-opacity: 0.5; stroke-width: 0.8; stroke-linecap: square"/>
     </g>
     <g id="line2d_54">
      <g>
       <use xlink:href="#ma753a253e9" x="90" y="171.278708" style="stroke: #000000; stroke-width: 0.6"/>
      </g>
     </g>
    </g>
    <g id="ytick_22">
     <g id="line2d_55">
      <path d="M 90 165.549992 
L 648 165.549992 
" clip-path="url(#p428f30b094)" style="fill: none; stroke: #b0b0b0; stroke-opacity: 0.5; stroke-width: 0.8; stroke-linecap: square"/>
     </g>
     <g id="line2d_56">
      <g>
       <use xlink:href="#ma753a253e9" x="90" y="165.549992" style="stroke: #000000; stroke-width: 0.6"/>
      </g>
     </g>
    </g>
    <g id="ytick_23">
     <g id="line2d_57">
      <path d="M 90 160.706432 
L 648 160.706432 
" clip-path="url(#p428f30b094)" style="fill: none; stroke: #b0b0b0; stroke-opacity: 0.5; stroke-width: 0.8; stroke-linecap: square"/>
     </g>
     <g id="line2d_58">
      <g>
       <use xlink:href="#ma753a253e9" x="90" y="160.706432" style="stroke: #000000; stroke-width: 0.6"/>
      </g>
     </g>
    </g>
    <g id="ytick_24">
     <g id="line2d_59">
      <path d="M 90 156.510749 
L 648 156.510749 
" clip-path="url(#p428f30b094)" style="fill: none; stroke: #b0b0b0; stroke-opacity: 0.5; stroke-width: 0.8; stroke-linecap: square"/>
     </g>
     <g id="line2d_60">
      <g>
       <use xlink:href="#ma753a253e9" x="90" y="156.510749" style="stroke: #000000; stroke-width: 0.6"/>
      </g>
     </g>
    </g>
    <g id="ytick_25">
     <g id="line2d_61">
      <path d="M 90 152.809894 
L 648 152.809894 
" clip-path="url(#p428f30b094)" style="fill: none; stroke: #b0b0b0; stroke-opacity: 0.5; stroke-width: 0.8; stroke-linecap: square"/>
     </g>
     <g id="line2d_62">
      <g>
       <use xlink:href="#ma753a253e9" x="90" y="152.809894" style="stroke: #000000; stroke-width: 0.6"/>
      </g>
     </g>
    </g>
    <g id="ytick_26">
     <g id="line2d_63">
      <path d="M 90 127.720025 
L 648 127.720025 
" clip-path="url(#p428f30b094)" style="fill: none; stroke: #b0b0b0; stroke-opacity: 0.5; stroke-width: 0.8; stroke-linecap: square"/>
     </g>
     <g id="line2d_64">
      <g>
       <use xlink:href="#ma753a253e9" x="90" y="127.720025" style="stroke: #000000; stroke-width: 0.6"/>
      </g>
     </g>
    </g>
    <g id="ytick_27">
     <g id="line2d_65">
      <path d="M 90 114.979926 
L 648 114.979926 
" clip-path="url(#p428f30b094)" style="fill: none; stroke: #b0b0b0; stroke-opacity: 0.5; stroke-width: 0.8; stroke-linecap: square"/>
     </g>
     <g id="line2d_66">
      <g>
       <use xlink:href="#ma753a253e9" x="90" y="114.979926" style="stroke: #000000; stroke-width: 0.6"/>
      </g>
     </g>
    </g>
    <g id="ytick_28">
     <g id="line2d_67">
      <path d="M 90 105.940683 
L 648 105.940683 
" clip-path="url(#p428f30b094)" style="fill: none; stroke: #b0b0b0; stroke-opacity: 0.5; stroke-width: 0.8; stroke-linecap: square"/>
     </g>
     <g id="line2d_68">
      <g>
       <use xlink:href="#ma753a253e9" x="90" y="105.940683" style="stroke: #000000; stroke-width: 0.6"/>
      </g>
     </g>
    </g>
    <g id="ytick_29">
     <g id="line2d_69">
      <path d="M 90 98.929301 
L 648 98.929301 
" clip-path="url(#p428f30b094)" style="fill: none; stroke: #b0b0b0; stroke-opacity: 0.5; stroke-width: 0.8; stroke-linecap: square"/>
     </g>
     <g id="line2d_70">
      <g>
       <use xlink:href="#ma753a253e9" x="90" y="98.929301" style="stroke: #000000; stroke-width: 0.6"/>
      </g>
     </g>
    </g>
    <g id="ytick_30">
     <g id="line2d_71">
      <path d="M 90 93.200584 
L 648 93.200584 
" clip-path="url(#p428f30b094)" style="fill: none; stroke: #b0b0b0; stroke-opacity: 0.5; stroke-width: 0.8; stroke-linecap: square"/>
     </g>
     <g id="line2d_72">
      <g>
       <use xlink:href="#ma753a253e9" x="90" y="93.200584" style="stroke: #000000; stroke-width: 0.6"/>
      </g>
     </g>
    </g>
    <g id="ytick_31">
     <g id="line2d_73">
      <path d="M 90 88.357024 
L 648 88.357024 
" clip-path="url(#p428f30b094)" style="fill: none; stroke: #b0b0b0; stroke-opacity: 0.5; stroke-width: 0.8; stroke-linecap: square"/>
     </g>
     <g id="line2d_74">
      <g>
       <use xlink:href="#ma753a253e9" x="90" y="88.357024" style="stroke: #000000; stroke-width: 0.6"/>
      </g>
     </g>
    </g>
    <g id="ytick_32">
     <g id="line2d_75">
      <path d="M 90 84.161341 
L 648 84.161341 
" clip-path="url(#p428f30b094)" style="fill: none; stroke: #b0b0b0; stroke-opacity: 0.5; stroke-width: 0.8; stroke-linecap: square"/>
     </g>
     <g id="line2d_76">
      <g>
       <use xlink:href="#ma753a253e9" x="90" y="84.161341" style="stroke: #000000; stroke-width: 0.6"/>
      </g>
     </g>
    </g>
    <g id="ytick_33">
     <g id="line2d_77">
      <path d="M 90 80.460486 
L 648 80.460486 
" clip-path="url(#p428f30b094)" style="fill: none; stroke: #b0b0b0; stroke-opacity: 0.5; stroke-width: 0.8; stroke-linecap: square"/>
     </g>
     <g id="line2d_78">
      <g>
       <use xlink:href="#ma753a253e9" x="90" y="80.460486" style="stroke: #000000; stroke-width: 0.6"/>
      </g>
     </g>
    </g>
    <g id="ytick_34">
     <g id="line2d_79">
      <path d="M 90 55.370617 
L 648 55.370617 
" clip-path="url(#p428f30b094)" style="fill: none; stroke: #b0b0b0; stroke-opacity: 0.5; stroke-width: 0.8; stroke-linecap: square"/>
     </g>
     <g id="line2d_80">
      <g>
       <use xlink:href="#ma753a253e9" x="90" y="55.370617" style="stroke: #000000; stroke-width: 0.6"/>
      </g>
     </g>
    </g>
    <g id="text_12">
     <!-- MSE Loss (Log Scale) -->
     <g transform="translate(53.420312 234.46875) rotate(-90) scale(0.1 -0.1)">
      <defs>
       <path id="DejaVuSans-4d" d="M 628 4666 
L 1569 4666 
L 2759 1491 
L 3956 4666 
L 4897 4666 
L 4897 0 
L 4281 0 
L 4281 4097 
L 3078 897 
L 2444 897 
L 1241 4097 
L 1241 0 
L 628 0 
L 628 4666 
z
" transform="scale(0.015625)"/>
       <path id="DejaVuSans-53" d="M 3425 4513 
L 3425 3897 
Q 3066 4069 2747 4153 
Q 2428 4238 2131 4238 
Q 1616 4238 1336 4038 
Q 1056 3838 1056 3469 
Q 1056 3159 1242 3001 
Q 1428 2844 1947 2747 
L 2328 2669 
Q 3034 2534 3370 2195 
Q 3706 1856 3706 1288 
Q 3706 609 3251 259 
Q 2797 -91 1919 -91 
Q 1588 -91 1214 -16 
Q 841 59 441 206 
L 441 856 
Q 825 641 1194 531 
Q 1563 422 1919 422 
Q 2459 422 2753 634 
Q 3047 847 3047 1241 
Q 3047 1584 2836 1778 
Q 2625 1972 2144 2069 
L 1759 2144 
Q 1053 2284 737 2584 
Q 422 2884 422 3419 
Q 422 4038 858 4394 
Q 1294 4750 2059 4750 
Q 2388 4750 2728 4690 
Q 3069 4631 3425 4513 
z
" transform="scale(0.015625)"/>
       <path id="DejaVuSans-45" d="M 628 4666 
L 3578 4666 
L 3578 4134 
L 1259 4134 
L 1259 2753 
L 3481 2753 
L 3481 2222 
L 1259 2222 
L 1259 531 
L 3634 531 
L 3634 0 
L 628 0 
L 628 4666 
z
" transform="scale(0.015625)"/>
       <path id="DejaVuSans-20" transform="scale(0.015625)"/>
       <path id="DejaVuSans-4c" d="M 628 4666 
L 1259 4666 
L 1259 531 
L 3531 531 
L 3531 0 
L 628 0 
L 628 4666 
z
" transform="scale(0.015625)"/>
       <path id="DejaVuSans-28" d="M 1984 4856 
Q 1566 4138 1362 3434 
Q 1159 2731 1159 2009 
Q 1159 1288 1364 580 
Q 1569 -128 1984 -844 
L 1484 -844 
Q 1016 -109 783 600 
Q 550 1309 550 2009 
Q 550 2706 781 3412 
Q 1013 4119 1484 4856 
L 1984 4856 
z
" transform="scale(0.015625)"/>
       <path id="DejaVuSans-67" d="M 2906 1791 
Q 2906 2416 2648 2759 
Q 2391 3103 1925 3103 
Q 1463 3103 1205 2759 
Q 947 2416 947 1791 
Q 947 1169 1205 825 
Q 1463 481 1925 481 
Q 2391 481 2648 825 
Q 2906 1169 2906 1791 
z
M 3481 434 
Q 3481 -459 3084 -895 
Q 2688 -1331 1869 -1331 
Q 1566 -1331 1297 -1286 
Q 1028 -1241 775 -1147 
L 775 -588 
Q 1028 -725 1275 -790 
Q 1522 -856 1778 -856 
Q 2344 -856 2625 -561 
Q 2906 -266 2906 331 
L 2906 616 
Q 2728 306 2450 153 
Q 2172 0 1784 0 
Q 1141 0 747 490 
Q 353 981 353 1791 
Q 353 2603 747 3093 
Q 1141 3584 1784 3584 
Q 2172 3584 2450 3431 
Q 2728 3278 2906 2969 
L 2906 3500 
L 3481 3500 
L 3481 434 
z
" transform="scale(0.015625)"/>
       <path id="DejaVuSans-63" d="M 3122 3366 
L 3122 2828 
Q 2878 2963 2633 3030 
Q 2388 3097 2138 3097 
Q 1578 3097 1268 2742 
Q 959 2388 959 1747 
Q 959 1106 1268 751 
Q 1578 397 2138 397 
Q 2388 397 2633 464 
Q 2878 531 3122 666 
L 3122 134 
Q 2881 22 2623 -34 
Q 2366 -91 2075 -91 
Q 1284 -91 818 406 
Q 353 903 353 1747 
Q 353 2603 823 3093 
Q 1294 3584 2113 3584 
Q 2378 3584 2631 3529 
Q 2884 3475 3122 3366 
z
" transform="scale(0.015625)"/>
       <path id="DejaVuSans-61" d="M 2194 1759 
Q 1497 1759 1228 1600 
Q 959 1441 959 1056 
Q 959 750 1161 570 
Q 1363 391 1709 391 
Q 2188 391 2477 730 
Q 2766 1069 2766 1631 
L 2766 1759 
L 2194 1759 
z
M 3341 1997 
L 3341 0 
L 2766 0 
L 2766 531 
Q 2569 213 2275 61 
Q 1981 -91 1556 -91 
Q 1019 -91 701 211 
Q 384 513 384 1019 
Q 384 1609 779 1909 
Q 1175 2209 1959 2209 
L 2766 2209 
L 2766 2266 
Q 2766 2663 2505 2880 
Q 2244 3097 1772 3097 
Q 1472 3097 1187 3025 
Q 903 2953 641 2809 
L 641 3341 
Q 956 3463 1253 3523 
Q 1550 3584 1831 3584 
Q 2591 3584 2966 3190 
Q 3341 2797 3341 1997 
z
" transform="scale(0.015625)"/>
       <path id="DejaVuSans-6c" d="M 603 4863 
L 1178 4863 
L 1178 0 
L 603 0 
L 603 4863 
z
" transform="scale(0.015625)"/>
       <path id="DejaVuSans-29" d="M 513 4856 
L 1013 4856 
Q 1481 4119 1714 3412 
Q 1947 2706 1947 2009 
Q 1947 1309 1714 600 
Q 1481 -109 1013 -844 
L 513 -844 
Q 928 -128 1133 580 
Q 1338 1288 1338 2009 
Q 1338 2731 1133 3434 
Q 928 4138 513 4856 
z
" transform="scale(0.015625)"/>
      </defs>
      <use xlink:href="#DejaVuSans-4d"/>
      <use xlink:href="#DejaVuSans-53" transform="translate(86.279297 0)"/>
      <use xlink:href="#DejaVuSans-45" transform="translate(149.755859 0)"/>
      <use xlink:href="#DejaVuSans-20" transform="translate(212.939453 0)"/>
      <use xlink:href="#DejaVuSans-4c" transform="translate(244.726562 0)"/>
      <use xlink:href="#DejaVuSans-6f" transform="translate(298.689453 0)"/>
      <use xlink:href="#DejaVuSans-73" transform="translate(359.871094 0)"/>
      <use xlink:href="#DejaVuSans-73" transform="translate(411.970703 0)"/>
      <use xlink:href="#DejaVuSans-20" transform="translate(464.070312 0)"/>
      <use xlink:href="#DejaVuSans-28" transform="translate(495.857422 0)"/>
      <use xlink:href="#DejaVuSans-4c" transform="translate(534.871094 0)"/>
      <use xlink:href="#DejaVuSans-6f" transform="translate(588.833984 0)"/>
      <use xlink:href="#DejaVuSans-67" transform="translate(650.015625 0)"/>
      <use xlink:href="#DejaVuSans-20" transform="translate(713.492188 0)"/>
      <use xlink:href="#DejaVuSans-53" transform="translate(745.279297 0)"/>
      <use xlink:href="#DejaVuSans-63" transform="translate(808.755859 0)"/>
      <use xlink:href="#DejaVuSans-61" transform="translate(863.736328 0)"/>
      <use xlink:href="#DejaVuSans-6c" transform="translate(925.015625 0)"/>
      <use xlink:href="#DejaVuSans-65" transform="translate(952.798828 0)"/>
      <use xlink:href="#DejaVuSans-29" transform="translate(1014.322266 0)"/>
     </g>
    </g>
   </g>
   <g id="line2d_81">
    <path d="M 115.363636 55.8 
L 115.871417 108.029377 
L 116.379197 143.852156 
L 116.886978 163.798534 
L 117.394758 173.257428 
L 117.902539 178.322189 
L 118.410319 185.878607 
L 118.9181 189.398568 
L 119.42588 186.557909 
L 120.441441 193.605685 
L 120.949222 195.731026 
L 121.457002 201.455807 
L 121.964783 199.92865 
L 122.472563 204.768884 
L 123.488124 208.840954 
L 123.995905 209.447362 
L 124.503686 212.714481 
L 125.011466 211.578827 
L 126.027027 215.656632 
L 126.534808 213.76754 
L 127.042588 215.353552 
L 127.550369 218.206317 
L 128.058149 219.974587 
L 128.56593 218.424116 
L 129.07371 219.425687 
L 129.581491 221.678507 
L 130.089271 222.57288 
L 130.597052 217.641929 
L 131.104832 223.548554 
L 131.612613 220.258402 
L 132.120393 225.82014 
L 132.628174 227.481817 
L 133.135954 226.318269 
L 133.643735 227.450562 
L 134.151515 222.9615 
L 134.659296 231.65729 
L 135.167076 230.61714 
L 135.674857 226.403661 
L 136.182637 230.949564 
L 136.690418 226.078094 
L 137.198198 232.519939 
L 137.705979 232.381126 
L 138.213759 228.861763 
L 138.72154 232.368874 
L 139.22932 237.838184 
L 139.737101 237.959837 
L 140.244881 234.412726 
L 140.752662 234.243348 
L 141.260442 230.595026 
L 142.276003 236.937973 
L 142.783784 235.90474 
L 143.291564 233.78453 
L 143.799345 234.629191 
L 144.307125 238.032882 
L 144.814906 237.371794 
L 145.322686 237.378738 
L 145.830467 238.955399 
L 146.338247 239.165984 
L 146.846028 237.538753 
L 147.353808 238.006159 
L 147.861589 238.95286 
L 148.369369 244.60694 
L 148.87715 237.851381 
L 149.38493 238.263683 
L 149.892711 236.379694 
L 150.400491 237.287713 
L 150.908272 239.932434 
L 151.416052 240.73582 
L 151.923833 243.627166 
L 152.431613 239.80617 
L 152.939394 238.333739 
L 153.447174 243.483733 
L 153.954955 243.419071 
L 154.462735 240.663111 
L 154.970516 241.072342 
L 155.478296 240.885088 
L 155.986077 240.193996 
L 156.493857 244.813427 
L 157.001638 242.810548 
L 157.509419 244.192212 
L 158.017199 247.190788 
L 159.03276 244.46077 
L 159.540541 244.219678 
L 160.048321 244.959026 
L 160.556102 243.555393 
L 161.063882 242.559644 
L 161.571663 239.885555 
L 162.079443 248.060531 
L 162.587224 240.98464 
L 163.095004 241.720039 
L 163.602785 245.043457 
L 164.110565 240.600171 
L 164.618346 246.568137 
L 165.126126 241.772578 
L 165.633907 244.512494 
L 166.141687 248.461957 
L 166.649468 245.356301 
L 167.157248 249.078014 
L 167.665029 249.188272 
L 168.172809 247.871815 
L 168.68059 243.167042 
L 169.18837 248.708878 
L 169.696151 241.505378 
L 170.203931 249.175944 
L 170.711712 244.70436 
L 171.219492 249.333036 
L 171.727273 246.572247 
L 172.235053 251.296814 
L 172.742834 251.378697 
L 173.250614 246.376523 
L 173.758395 244.609653 
L 174.266175 242.430628 
L 174.773956 247.615166 
L 175.281736 247.538153 
L 175.789517 248.872815 
L 176.297297 254.655233 
L 176.805078 255.545995 
L 177.312858 250.089234 
L 177.820639 246.136701 
L 178.328419 245.331633 
L 178.8362 249.082549 
L 179.34398 248.833108 
L 179.851761 245.578483 
L 180.359541 248.555052 
L 180.867322 252.819785 
L 181.375102 248.56895 
L 181.882883 248.217815 
L 182.390663 248.056022 
L 182.898444 243.80203 
L 183.406224 249.904976 
L 183.914005 253.694855 
L 184.421785 253.531091 
L 184.929566 255.693636 
L 185.945127 245.500914 
L 186.452907 252.544908 
L 186.960688 256.471461 
L 187.468468 252.162772 
L 187.976249 248.820852 
L 188.484029 252.545511 
L 188.99181 253.409243 
L 189.49959 251.901632 
L 190.007371 249.350764 
L 190.515152 256.672368 
L 191.022932 252.265018 
L 191.530713 251.812709 
L 192.038493 248.904844 
L 192.546274 255.634172 
L 193.054054 251.220976 
L 193.561835 251.709372 
L 194.069615 253.482456 
L 194.577396 251.650139 
L 195.085176 253.637991 
L 195.592957 251.088731 
L 196.608518 254.030169 
L 197.116298 256.628356 
L 197.624079 253.506223 
L 198.63964 258.665388 
L 199.14742 263.056536 
L 199.655201 260.463539 
L 200.162981 250.704897 
L 200.670762 246.068982 
L 201.178542 253.425906 
L 201.686323 256.031253 
L 202.194103 250.859354 
L 202.701884 257.018065 
L 203.209664 254.757299 
L 203.717445 257.45642 
L 204.225225 259.202658 
L 204.733006 251.007189 
L 205.240786 251.895054 
L 205.748567 256.177872 
L 206.256347 252.288358 
L 206.764128 249.320259 
L 207.271908 255.375077 
L 207.779689 257.527546 
L 208.287469 256.556964 
L 208.79525 257.020644 
L 209.30303 260.823565 
L 210.318591 255.676083 
L 210.826372 258.600599 
L 211.334152 252.294895 
L 211.841933 260.609519 
L 212.349713 256.300209 
L 213.365274 261.204663 
L 213.873055 258.279059 
L 214.380835 263.181315 
L 214.888616 254.842103 
L 215.396396 250.85093 
L 215.904177 253.520338 
L 216.411957 263.000736 
L 217.427518 255.450407 
L 217.935299 259.587632 
L 218.443079 260.554885 
L 218.95086 255.920805 
L 219.45864 259.78941 
L 219.966421 260.134097 
L 220.474201 262.333179 
L 220.981982 261.415906 
L 221.489762 258.471466 
L 221.997543 256.654573 
L 222.505324 247.592032 
L 223.013104 258.964806 
L 223.520885 260.560607 
L 224.028665 256.818072 
L 224.536446 258.21473 
L 225.044226 261.796083 
L 225.552007 260.800352 
L 226.059787 256.337302 
L 226.567568 259.120014 
L 227.075348 263.27536 
L 227.583129 261.56643 
L 228.090909 262.949594 
L 228.59869 265.882746 
L 229.10647 260.920938 
L 229.614251 261.940626 
L 230.122031 258.350442 
L 230.629812 259.329917 
L 231.137592 259.605567 
L 231.645373 257.442063 
L 232.153153 256.8325 
L 232.660934 262.911658 
L 233.168714 262.929918 
L 233.676495 266.542184 
L 234.184275 268.142706 
L 234.692056 242.917558 
L 235.199836 252.633038 
L 235.707617 257.654925 
L 236.215397 259.226211 
L 236.723178 264.372095 
L 237.230958 255.055347 
L 238.246519 265.306496 
L 238.7543 261.353171 
L 239.26208 259.209058 
L 239.769861 263.886279 
L 240.277641 262.339468 
L 240.785422 266.326974 
L 241.293202 265.089954 
L 242.308763 258.975189 
L 242.816544 264.409379 
L 243.324324 259.776546 
L 243.832105 261.516446 
L 244.339885 260.953879 
L 244.847666 256.773782 
L 245.863227 264.125658 
L 246.371007 261.731173 
L 247.386568 265.384324 
L 248.402129 268.143695 
L 248.90991 263.346537 
L 249.41769 260.184008 
L 249.925471 266.009097 
L 250.433251 269.563394 
L 250.941032 269.615163 
L 251.448812 266.292172 
L 252.464373 269.733624 
L 252.972154 266.20078 
L 253.479934 259.802892 
L 253.987715 260.927867 
L 254.495495 267.024782 
L 255.003276 265.420106 
L 255.511057 271.013491 
L 256.018837 257.00777 
L 257.034398 264.180162 
L 257.542179 265.152496 
L 258.049959 268.461709 
L 258.55774 267.337682 
L 259.06552 267.83769 
L 259.573301 264.758355 
L 260.081081 262.746612 
L 260.588862 264.620763 
L 261.096642 267.951391 
L 261.604423 265.294589 
L 262.112203 269.562398 
L 262.619984 266.065954 
L 263.635545 272.157038 
L 264.651106 261.877637 
L 265.158886 265.851367 
L 265.666667 267.3389 
L 266.174447 270.104424 
L 266.682228 267.277966 
L 267.190008 270.372635 
L 267.697789 262.98213 
L 268.205569 250.884623 
L 268.71335 260.670227 
L 269.728911 269.526792 
L 270.236691 271.76848 
L 271.252252 262.819491 
L 272.775594 273.281855 
L 273.283374 271.75644 
L 273.791155 263.050976 
L 274.298935 270.203839 
L 274.806716 265.584665 
L 275.314496 267.119864 
L 275.822277 275.281701 
L 276.330057 266.069834 
L 276.837838 268.347979 
L 277.345618 268.861251 
L 277.853399 264.403302 
L 278.361179 269.999387 
L 278.86896 270.078458 
L 279.37674 271.650232 
L 279.884521 262.522235 
L 280.392301 269.158413 
L 280.900082 269.72959 
L 281.407862 272.058297 
L 281.915643 262.781357 
L 282.423423 274.011349 
L 282.931204 273.685427 
L 283.438984 268.173747 
L 283.946765 270.631397 
L 284.454545 271.342484 
L 284.962326 273.538923 
L 285.470106 268.646136 
L 285.977887 274.115542 
L 286.485667 266.371846 
L 286.993448 261.438175 
L 288.009009 270.738656 
L 288.51679 272.396088 
L 289.02457 272.583139 
L 289.532351 273.45781 
L 290.547912 268.719572 
L 291.055692 257.357447 
L 291.563473 265.935279 
L 292.071253 262.958455 
L 292.579034 271.631617 
L 293.086814 275.116875 
L 293.594595 271.711651 
L 294.102375 267.465113 
L 294.610156 273.078892 
L 295.117936 270.649307 
L 295.625717 269.198994 
L 296.133497 270.687772 
L 296.641278 276.337951 
L 297.149058 274.758803 
L 297.656839 272.229409 
L 298.164619 272.487459 
L 298.6724 271.201748 
L 299.18018 273.272299 
L 299.687961 277.180852 
L 300.195741 278.038011 
L 300.703522 272.62128 
L 301.211302 272.296748 
L 301.719083 275.092026 
L 302.226863 275.638966 
L 302.734644 279.047961 
L 303.242424 275.41058 
L 303.750205 266.378768 
L 304.257985 264.318774 
L 304.765766 274.248644 
L 305.273546 274.843729 
L 305.781327 267.445031 
L 306.796888 276.675525 
L 307.304668 274.702345 
L 307.812449 274.610573 
L 308.320229 278.905024 
L 308.82801 273.00011 
L 309.33579 278.226974 
L 309.843571 276.584621 
L 310.351351 276.025697 
L 310.859132 266.004551 
L 311.366912 268.135094 
L 312.382473 275.404766 
L 312.890254 277.317473 
L 313.398034 276.454221 
L 313.905815 276.247792 
L 314.413595 275.418735 
L 314.921376 273.387055 
L 315.429156 274.346391 
L 315.936937 274.389028 
L 316.444717 276.805774 
L 316.952498 263.641632 
L 317.460278 266.583093 
L 317.968059 270.572568 
L 318.475839 273.238647 
L 318.98362 273.388321 
L 319.4914 273.757829 
L 319.999181 275.063901 
L 320.506962 273.458882 
L 321.014742 278.52287 
L 321.522523 273.522785 
L 322.030303 274.172018 
L 322.538084 278.904068 
L 323.045864 277.910733 
L 323.553645 271.792527 
L 324.061425 268.937824 
L 324.569206 278.464441 
L 325.076986 277.841312 
L 325.584767 274.527751 
L 326.092547 275.11996 
L 326.600328 280.355666 
L 327.108108 279.856243 
L 327.615889 280.948548 
L 328.123669 276.794717 
L 328.63145 282.090956 
L 329.13923 270.734233 
L 329.647011 274.802258 
L 330.154791 280.62164 
L 330.662572 271.872708 
L 331.170352 274.871824 
L 331.678133 278.787306 
L 332.693694 270.458718 
L 333.201474 276.546598 
L 333.709255 279.903816 
L 334.217035 277.177469 
L 334.724816 277.356208 
L 335.232596 276.76179 
L 335.740377 260.442646 
L 336.248157 270.565608 
L 336.755938 273.65399 
L 337.263718 277.999639 
L 337.771499 278.525314 
L 338.279279 270.358694 
L 338.78706 279.649982 
L 339.29484 266.222792 
L 339.802621 276.2314 
L 340.310401 272.183028 
L 340.818182 271.535646 
L 341.325962 278.288019 
L 341.833743 278.526717 
L 342.341523 278.107499 
L 342.849304 275.053525 
L 343.357084 278.521359 
L 343.864865 279.598696 
L 344.372645 282.604291 
L 344.880426 278.049014 
L 345.388206 272.384713 
L 345.895987 277.294369 
L 346.403767 276.316656 
L 347.419328 283.146383 
L 347.927109 275.820157 
L 348.434889 279.777011 
L 348.94267 271.996189 
L 349.45045 274.61904 
L 349.958231 281.179085 
L 350.466011 281.81147 
L 350.973792 283.27653 
L 351.481572 282.092141 
L 352.497133 278.106811 
L 353.004914 269.632834 
L 353.512695 279.335294 
L 354.020475 276.356058 
L 355.036036 281.23993 
L 355.543817 283.386604 
L 356.051597 278.15331 
L 356.559378 270.782978 
L 357.067158 282.189159 
L 357.574939 283.065985 
L 358.082719 278.762438 
L 358.5905 281.66486 
L 359.09828 282.341115 
L 359.606061 278.564636 
L 360.113841 275.724461 
L 360.621622 278.158261 
L 361.129402 281.965608 
L 361.637183 281.190561 
L 362.144963 277.509322 
L 362.652744 281.789203 
L 363.160524 272.470619 
L 363.668305 279.644619 
L 364.176085 284.140905 
L 364.683866 278.949438 
L 365.191646 279.166189 
L 365.699427 274.1065 
L 366.207207 278.996991 
L 367.222768 286.822344 
L 367.730549 283.676527 
L 368.238329 278.777824 
L 368.74611 279.362525 
L 369.25389 278.161766 
L 369.761671 281.538497 
L 370.269451 280.264343 
L 370.777232 282.325741 
L 371.285012 285.589581 
L 371.792793 278.417837 
L 372.300573 284.384603 
L 372.808354 285.953371 
L 373.316134 279.398232 
L 373.823915 278.884079 
L 374.331695 283.771184 
L 374.839476 280.090188 
L 375.347256 285.145766 
L 375.855037 285.112915 
L 376.362817 281.861643 
L 376.870598 286.586804 
L 377.378378 277.322292 
L 377.886159 281.01762 
L 378.393939 286.65057 
L 378.90172 281.306886 
L 379.917281 285.750348 
L 380.425061 283.65227 
L 380.932842 282.068855 
L 381.440622 282.016051 
L 381.948403 286.808134 
L 382.456183 281.878116 
L 382.963964 283.692433 
L 383.471744 279.755423 
L 383.979525 281.182351 
L 384.487305 287.687426 
L 384.995086 283.871044 
L 385.502867 281.443233 
L 386.010647 285.302203 
L 386.518428 282.337213 
L 387.026208 285.655554 
L 387.533989 283.18934 
L 388.041769 284.659606 
L 388.54955 280.521134 
L 389.05733 285.476684 
L 389.565111 285.239718 
L 390.072891 279.045269 
L 391.088452 284.952973 
L 391.596233 276.845152 
L 392.104013 281.177115 
L 392.611794 286.693938 
L 393.627355 286.573495 
L 394.135135 283.219799 
L 394.642916 288.372156 
L 395.150696 286.98495 
L 395.658477 288.342924 
L 396.166257 276.305613 
L 396.674038 277.601552 
L 397.181818 286.659997 
L 397.689599 281.777606 
L 398.197379 278.250893 
L 398.70516 287.990312 
L 399.21294 287.413549 
L 399.720721 284.202866 
L 400.736282 287.280996 
L 401.244062 284.917034 
L 401.751843 285.215004 
L 402.259623 282.027273 
L 402.767404 285.185516 
L 403.275184 280.900735 
L 403.782965 281.603141 
L 404.290745 287.183775 
L 404.798526 290.700839 
L 405.306306 289.325084 
L 405.814087 280.142417 
L 406.321867 288.322861 
L 406.829648 282.800761 
L 407.337428 285.524257 
L 407.845209 276.362932 
L 408.352989 284.527413 
L 408.86077 284.978325 
L 409.36855 284.644259 
L 409.876331 286.564416 
L 410.384111 285.781063 
L 410.891892 287.35842 
L 411.399672 284.469439 
L 411.907453 284.87941 
L 412.415233 290.020882 
L 412.923014 288.64274 
L 413.938575 278.171974 
L 414.446355 280.799439 
L 414.954136 287.922945 
L 415.461916 285.405349 
L 416.477477 272.467948 
L 417.493038 286.943503 
L 418.000819 282.793381 
L 419.01638 288.282932 
L 419.524161 289.822647 
L 420.031941 282.314606 
L 420.539722 283.509973 
L 421.047502 283.203482 
L 421.555283 291.17417 
L 422.063063 289.659992 
L 422.570844 290.743527 
L 423.078624 277.622538 
L 423.586405 285.045309 
L 424.601966 287.829801 
L 425.109746 288.335336 
L 425.617527 282.932299 
L 426.125307 288.957871 
L 426.633088 285.454102 
L 427.140868 290.790398 
L 427.648649 290.268663 
L 428.156429 289.172111 
L 428.66421 283.048349 
L 429.17199 293.157773 
L 429.679771 288.896172 
L 430.187551 288.46167 
L 430.695332 288.858718 
L 431.203112 281.901803 
L 431.710893 284.583279 
L 432.218673 282.950463 
L 432.726454 287.866107 
L 433.234234 287.65163 
L 433.742015 286.372825 
L 434.249795 287.547316 
L 434.757576 278.682392 
L 435.265356 285.588094 
L 435.773137 286.984865 
L 436.280917 290.517959 
L 436.788698 283.502966 
L 437.296478 288.304816 
L 437.804259 290.879987 
L 438.312039 284.931319 
L 438.81982 288.933817 
L 439.3276 287.210065 
L 439.835381 289.88783 
L 440.343161 290.124716 
L 440.850942 287.904648 
L 441.358722 287.389295 
L 441.866503 291.539952 
L 442.882064 287.524905 
L 443.389844 277.32524 
L 443.897625 283.338324 
L 444.405405 287.606471 
L 444.913186 290.527467 
L 445.420966 292.610288 
L 445.928747 290.941966 
L 446.436527 284.882738 
L 446.944308 287.244218 
L 447.452088 287.568164 
L 447.959869 288.286476 
L 448.97543 292.339233 
L 449.48321 289.957199 
L 449.990991 288.369055 
L 450.498771 287.992703 
L 451.006552 286.557334 
L 451.514333 288.847131 
L 452.022113 288.005757 
L 452.529894 288.77527 
L 453.037674 290.637564 
L 453.545455 290.545668 
L 454.053235 291.2858 
L 454.561016 293.373942 
L 455.068796 282.739928 
L 455.576577 286.249289 
L 456.084357 286.121214 
L 456.592138 285.583983 
L 457.099918 294.338378 
L 457.607699 298.225408 
L 458.115479 290.016078 
L 458.62326 290.401491 
L 459.13104 295.428776 
L 459.638821 291.646008 
L 460.146601 285.026625 
L 460.654382 291.576787 
L 461.162162 290.482607 
L 461.669943 287.923318 
L 462.177723 296.038405 
L 462.685504 290.516648 
L 463.193284 289.007809 
L 463.701065 289.104538 
L 464.716626 290.704783 
L 465.224406 287.805522 
L 465.732187 290.848521 
L 466.239967 289.519027 
L 466.747748 288.890992 
L 467.255528 283.911267 
L 467.763309 286.56094 
L 468.271089 293.025084 
L 468.77887 289.332512 
L 469.28665 297.661014 
L 469.794431 287.964493 
L 470.302211 293.672123 
L 470.809992 293.683158 
L 471.317772 289.44729 
L 471.825553 286.878878 
L 472.333333 298.457417 
L 472.841114 294.650704 
L 473.348894 294.123224 
L 473.856675 277.151428 
L 474.872236 294.896155 
L 475.380016 293.221753 
L 475.887797 290.638168 
L 476.395577 295.117313 
L 476.903358 293.262918 
L 477.411138 283.258852 
L 477.918919 284.237126 
L 478.426699 289.610881 
L 478.93448 286.77993 
L 479.44226 284.673603 
L 479.950041 290.052146 
L 480.457821 297.867401 
L 480.965602 295.887088 
L 481.473382 296.132807 
L 481.981163 289.110102 
L 482.996724 292.990165 
L 483.504505 294.123991 
L 484.012285 296.665925 
L 484.520066 288.416504 
L 485.027846 292.623117 
L 485.535627 294.715167 
L 486.043407 290.175572 
L 486.551188 291.608025 
L 487.566749 293.169502 
L 488.074529 294.148148 
L 488.58231 297.781538 
L 489.09009 292.614121 
L 489.597871 296.995324 
L 490.105651 288.927495 
L 490.613432 286.353791 
L 491.121212 292.002653 
L 491.628993 295.058596 
L 492.136773 291.442466 
L 492.644554 292.903706 
L 493.152334 293.019838 
L 493.660115 296.229853 
L 494.167895 295.275383 
L 494.675676 292.425827 
L 495.183456 288.400292 
L 495.691237 292.261337 
L 496.199017 293.978099 
L 496.706798 294.087572 
L 497.214578 301.0523 
L 497.722359 291.656869 
L 498.230139 297.598444 
L 498.73792 280.116798 
L 499.753481 292.610468 
L 500.261261 295.280753 
L 500.769042 294.666906 
L 501.276822 297.14493 
L 501.784603 298.176533 
L 502.292383 291.349478 
L 502.800164 297.723704 
L 503.307944 291.406552 
L 503.815725 294.588251 
L 504.323505 295.712624 
L 504.831286 296.294361 
L 505.846847 294.084743 
L 506.354627 294.175429 
L 506.862408 289.101511 
L 507.370188 296.212564 
L 507.877969 296.877201 
L 508.385749 292.417967 
L 508.89353 296.987512 
L 509.40131 296.783176 
L 509.909091 298.973534 
L 510.416871 292.864129 
L 510.924652 297.273866 
L 511.432432 295.784593 
L 511.940213 297.463118 
L 512.447993 294.6716 
L 512.955774 283.96265 
L 513.463554 285.328967 
L 514.479115 290.83678 
L 514.986896 292.026435 
L 515.494676 292.300339 
L 516.002457 295.966809 
L 516.510238 293.329747 
L 517.018018 296.115571 
L 517.525799 296.835795 
L 518.033579 298.775319 
L 518.54136 287.962984 
L 519.04914 289.984962 
L 519.556921 294.914454 
L 520.064701 298.294033 
L 520.572482 297.758243 
L 521.080262 296.879627 
L 521.588043 298.543466 
L 522.095823 294.064287 
L 522.603604 297.28931 
L 523.111384 296.890616 
L 523.619165 299.695015 
L 524.126945 299.554368 
L 524.634726 297.711962 
L 525.142506 292.479446 
L 525.650287 298.225258 
L 526.158067 299.173745 
L 526.665848 298.876764 
L 527.173628 286.56646 
L 527.681409 293.618042 
L 528.189189 295.464852 
L 528.69697 298.507558 
L 529.20475 296.851372 
L 529.712531 300.506013 
L 530.220311 299.178999 
L 530.728092 301.592998 
L 531.235872 299.338601 
L 531.743653 297.858498 
L 532.251433 297.191806 
L 532.759214 295.450523 
L 533.266994 298.847693 
L 533.774775 295.23836 
L 534.282555 299.83715 
L 534.790336 298.811572 
L 535.298116 300.161702 
L 535.805897 295.54374 
L 536.313677 294.075676 
L 536.821458 296.926777 
L 537.329238 298.922369 
L 537.837019 298.036418 
L 538.344799 298.18453 
L 538.85258 299.528705 
L 539.36036 299.1028 
L 539.868141 301.108516 
L 540.375921 297.703682 
L 540.883702 298.417658 
L 541.391482 300.775754 
L 541.899263 300.279888 
L 542.407043 295.784897 
L 542.914824 300.974953 
L 543.422604 300.199657 
L 543.930385 295.594993 
L 544.438165 298.552905 
L 544.945946 296.351687 
L 545.453726 299.556201 
L 545.961507 301.006403 
L 546.469287 298.296454 
L 546.977068 301.657972 
L 547.484848 298.639648 
L 547.992629 302.272487 
L 548.50041 298.572771 
L 549.00819 297.055176 
L 549.515971 299.898439 
L 550.023751 296.278237 
L 550.531532 297.926668 
L 551.039312 300.53914 
L 551.547093 295.79528 
L 552.054873 301.847802 
L 552.562654 300.306362 
L 553.070434 301.582309 
L 553.578215 301.029966 
L 554.085995 299.870687 
L 555.101556 299.861181 
L 555.609337 300.685581 
L 556.117117 298.976682 
L 556.624898 300.537031 
L 557.132678 295.016467 
L 557.640459 294.892076 
L 558.148239 300.621257 
L 558.65602 298.583308 
L 559.1638 299.585961 
L 559.671581 301.604251 
L 560.179361 298.857428 
L 560.687142 299.366837 
L 561.194922 301.05241 
L 561.702703 301.703985 
L 562.210483 301.897561 
L 562.718264 302.574441 
L 563.226044 301.467206 
L 563.733825 297.134973 
L 564.241605 296.640005 
L 564.749386 297.310958 
L 565.257166 301.190045 
L 565.764947 298.697889 
L 566.272727 299.640438 
L 566.780508 300.970466 
L 567.288288 296.717252 
L 567.796069 299.238374 
L 568.303849 298.330035 
L 568.81163 301.368227 
L 569.31941 298.323228 
L 569.827191 301.347392 
L 570.334971 300.761573 
L 570.842752 303.225825 
L 571.350532 298.34244 
L 571.858313 299.485844 
L 572.366093 303.334821 
L 572.873874 301.696779 
L 573.381654 299.57251 
L 573.889435 301.566002 
L 574.397215 301.956612 
L 574.904996 300.507013 
L 575.412776 301.038673 
L 575.920557 304.0144 
L 577.443898 299.842191 
L 577.951679 301.598271 
L 578.459459 301.017545 
L 578.96724 300.842036 
L 579.47502 300.226013 
L 579.982801 301.779836 
L 580.490581 299.201394 
L 580.998362 302.315636 
L 581.506143 302.205018 
L 582.013923 302.711094 
L 582.521704 302.312788 
L 583.029484 300.753872 
L 583.537265 301.729282 
L 584.045045 300.671502 
L 584.552826 297.474395 
L 585.060606 302.801637 
L 585.568387 302.569756 
L 586.076167 303.783367 
L 586.583948 302.551928 
L 587.091728 303.293991 
L 587.599509 301.093578 
L 588.107289 304.797579 
L 589.12285 302.218741 
L 589.630631 303.193805 
L 590.138411 302.458312 
L 590.646192 302.989237 
L 591.153972 300.395316 
L 592.169533 304.391105 
L 592.677314 301.450868 
L 593.185094 301.337707 
L 593.692875 302.850331 
L 594.200655 302.185119 
L 594.708436 302.521548 
L 595.216216 304.787246 
L 595.723997 301.974551 
L 596.231777 300.777361 
L 596.739558 304.876132 
L 597.247338 302.40906 
L 597.755119 299.090684 
L 598.262899 302.494448 
L 598.77068 302.988886 
L 599.27846 305.257846 
L 599.786241 303.226603 
L 600.294021 305.678076 
L 600.801802 301.358545 
L 601.309582 302.526881 
L 601.817363 305.41059 
L 602.325143 300.862391 
L 602.832924 301.876263 
L 603.340704 300.64833 
L 603.848485 300.723903 
L 604.356265 301.662054 
L 604.864046 305.178837 
L 605.371826 307.8 
L 605.879607 302.805559 
L 606.387387 303.061345 
L 606.895168 304.485014 
L 607.402948 302.770189 
L 607.910729 303.852098 
L 608.418509 301.038737 
L 608.92629 301.045131 
L 609.43407 305.425064 
L 609.941851 301.499658 
L 610.449631 302.749806 
L 610.957412 304.366994 
L 611.465192 301.532511 
L 611.972973 305.298405 
L 612.480753 301.86267 
L 612.988534 301.506791 
L 613.496314 300.325078 
L 614.004095 301.026009 
L 614.511876 304.130247 
L 615.019656 303.570796 
L 615.527437 306.74575 
L 616.035217 302.229604 
L 616.542998 300.958258 
L 617.050778 301.628859 
L 617.558559 303.426618 
L 618.066339 302.33521 
L 618.57412 300.294529 
L 619.0819 302.513435 
L 619.589681 302.58358 
L 620.097461 304.4754 
L 620.605242 303.755924 
L 621.113022 300.918752 
L 621.620803 302.984718 
L 622.128583 300.715834 
L 622.636364 305.35983 
L 622.636364 305.35983 
" clip-path="url(#p428f30b094)" style="fill: none; stroke: #1f77b4; stroke-width: 2; stroke-linecap: square"/>
   </g>
   <g id="line2d_82">
    <path d="M 115.363636 72.408154 
L 116.379197 119.030888 
L 116.886978 136.553573 
L 117.394758 149.030534 
L 117.902539 157.144178 
L 118.410319 162.77833 
L 118.9181 166.827053 
L 119.42588 169.571881 
L 121.457002 174.649801 
L 122.472563 176.095311 
L 123.488124 176.513293 
L 123.995905 177.116494 
L 124.503686 177.41193 
L 125.011466 177.210152 
L 125.519247 177.298526 
L 126.027027 177.640869 
L 126.534808 177.663406 
L 127.042588 177.538784 
L 128.058149 177.887922 
L 128.56593 177.949096 
L 129.07371 177.743523 
L 130.089271 177.821762 
L 130.597052 177.591665 
L 131.104832 178.012453 
L 131.612613 177.691345 
L 132.120393 177.84716 
L 132.628174 177.405876 
L 133.135954 177.878382 
L 133.643735 177.374063 
L 134.659296 177.596746 
L 136.182637 177.296849 
L 137.198198 177.109279 
L 137.705979 177.019686 
L 138.72154 177.018303 
L 139.22932 176.990695 
L 139.737101 176.675742 
L 140.244881 177.015296 
L 140.752662 176.658666 
L 141.260442 176.771869 
L 141.768223 176.571262 
L 142.276003 176.63757 
L 143.291564 176.308982 
L 143.799345 176.382168 
L 146.846028 175.752585 
L 147.353808 175.92722 
L 148.369369 175.748819 
L 148.87715 175.512192 
L 149.38493 175.674775 
L 149.892711 175.649089 
L 150.400491 175.366157 
L 151.416052 175.398617 
L 152.431613 175.007629 
L 152.939394 175.205709 
L 153.447174 175.036049 
L 154.462735 175.038863 
L 154.970516 174.855419 
L 155.986077 174.861993 
L 156.493857 174.663636 
L 157.001638 174.64192 
L 157.509419 174.791283 
L 158.52498 174.529188 
L 159.540541 174.525276 
L 161.063882 174.513497 
L 161.571663 174.656647 
L 162.079443 174.426655 
L 163.095004 174.49919 
L 164.110565 174.397183 
L 165.126126 174.174486 
L 165.633907 174.195248 
L 166.141687 173.977156 
L 166.649468 173.948371 
L 167.157248 174.201711 
L 167.665029 173.955449 
L 170.203931 173.868976 
L 170.711712 173.586996 
L 171.727273 173.937785 
L 172.742834 173.668271 
L 175.281736 173.61886 
L 175.789517 173.433322 
L 178.8362 173.478251 
L 179.34398 173.359018 
L 180.867322 173.428059 
L 181.375102 173.314295 
L 181.882883 173.446232 
L 182.390663 173.269084 
L 182.898444 173.440823 
L 183.406224 173.322639 
L 183.914005 173.389757 
L 184.421785 173.118655 
L 184.929566 173.282106 
L 186.452907 173.337312 
L 186.960688 173.141558 
L 187.468468 173.367244 
L 187.976249 173.114291 
L 188.484029 173.21036 
L 191.022932 173.085539 
L 191.530713 172.91168 
L 193.054054 173.173727 
L 195.085176 172.723459 
L 195.592957 172.86814 
L 196.608518 172.747147 
L 197.116298 172.841723 
L 197.624079 172.69438 
L 198.63964 172.647078 
L 201.178542 172.646328 
L 201.686323 172.721939 
L 202.194103 172.565277 
L 202.701884 172.572221 
L 203.209664 172.695602 
L 203.717445 172.469331 
L 205.240786 172.618058 
L 205.748567 172.558785 
L 206.256347 172.364968 
L 207.271908 172.687708 
L 207.779689 172.3762 
L 208.287469 172.589101 
L 211.841933 172.493277 
L 212.349713 172.626403 
L 212.857494 172.417905 
L 213.365274 172.612431 
L 214.380835 172.175562 
L 214.888616 172.333306 
L 215.396396 172.285751 
L 215.904177 172.402045 
L 220.981982 172.098324 
L 221.489762 172.242104 
L 221.997543 172.032791 
L 223.013104 172.229798 
L 223.520885 172.200759 
L 224.028665 172.300775 
L 225.044226 172.173999 
L 225.552007 172.247942 
L 226.059787 172.15385 
L 226.567568 172.207245 
L 227.075348 172.129237 
L 227.583129 172.241884 
L 229.10647 171.952751 
L 229.614251 172.048473 
L 230.122031 171.868444 
L 231.645373 172.032085 
L 232.660934 171.95004 
L 233.168714 171.963785 
L 233.676495 171.742756 
L 235.707617 171.967592 
L 236.723178 171.914614 
L 237.230958 171.880769 
L 237.738739 172.006162 
L 238.246519 171.852797 
L 238.7543 171.941098 
L 240.785422 171.78338 
L 241.293202 171.954044 
L 241.800983 171.947169 
L 243.324324 171.633308 
L 243.832105 171.928596 
L 244.847666 171.87035 
L 245.355446 171.973958 
L 245.863227 171.765119 
L 246.371007 171.830875 
L 246.878788 171.635218 
L 248.402129 171.790828 
L 248.90991 171.645728 
L 251.448812 171.506479 
L 251.956593 171.621968 
L 252.464373 171.392113 
L 253.479934 171.408984 
L 253.987715 171.146333 
L 254.495495 171.371038 
L 255.003276 171.212969 
L 255.511057 171.284076 
L 256.018837 171.170453 
L 256.526618 171.281648 
L 257.542179 171.210393 
L 258.049959 171.264721 
L 259.06552 171.112645 
L 259.573301 171.244724 
L 260.081081 171.172041 
L 260.588862 170.977836 
L 262.112203 171.107307 
L 263.127764 171.024311 
L 264.651106 170.98807 
L 265.158886 170.762939 
L 266.174447 170.838886 
L 266.682228 170.731399 
L 267.697789 170.920275 
L 268.205569 170.959573 
L 268.71335 170.814589 
L 269.22113 170.956182 
L 270.236691 170.834775 
L 270.744472 170.835497 
L 271.252252 171.050757 
L 271.760033 170.974112 
L 272.267813 170.746209 
L 272.775594 170.897996 
L 275.822277 170.758235 
L 276.330057 170.959778 
L 276.837838 170.746463 
L 278.361179 170.69712 
L 278.86896 170.699056 
L 279.37674 170.567608 
L 279.884521 170.715492 
L 283.438984 170.712004 
L 283.946765 170.751563 
L 284.962326 170.633096 
L 285.977887 170.597597 
L 287.501229 170.47192 
L 288.009009 170.600163 
L 297.149058 170.195677 
L 297.656839 170.390788 
L 298.6724 170.15042 
L 300.195741 170.12491 
L 300.703522 170.075611 
L 301.211302 170.214465 
L 302.226863 169.953282 
L 303.242424 169.979021 
L 303.750205 170.083873 
L 309.33579 169.916472 
L 309.843571 169.984114 
L 310.351351 169.867969 
L 311.366912 169.957206 
L 311.874693 169.802925 
L 312.382473 169.95066 
L 314.413595 169.908451 
L 314.921376 170.024095 
L 315.429156 169.800406 
L 315.936937 169.909792 
L 316.952498 169.963101 
L 317.460278 169.959852 
L 317.968059 169.815787 
L 318.475839 169.948059 
L 321.014742 169.809398 
L 321.522523 169.651281 
L 323.045864 169.858431 
L 323.553645 169.851566 
L 324.061425 169.701984 
L 324.569206 169.903705 
L 326.092547 169.5869 
L 326.600328 169.712682 
L 327.615889 169.634571 
L 328.123669 169.809077 
L 330.154791 169.579735 
L 335.740377 169.50961 
L 336.248157 169.477772 
L 336.755938 169.717575 
L 337.263718 169.534404 
L 337.771499 169.68564 
L 338.78706 169.654828 
L 339.29484 169.694094 
L 339.802621 169.588231 
L 341.325962 169.656645 
L 343.357084 169.462262 
L 343.864865 169.70153 
L 344.372645 169.554797 
L 344.880426 169.591414 
L 345.388206 169.495693 
L 346.403767 169.628082 
L 346.911548 169.528262 
L 348.434889 169.539526 
L 350.466011 169.412996 
L 351.481572 169.552719 
L 351.989353 169.431372 
L 353.004914 169.48873 
L 353.512695 169.416768 
L 354.020475 169.521755 
L 356.051597 169.409274 
L 356.559378 169.502159 
L 357.067158 169.468076 
L 357.574939 169.591893 
L 358.082719 169.294548 
L 359.09828 169.41213 
L 359.606061 169.463833 
L 360.113841 169.311553 
L 360.621622 169.442469 
L 361.129402 169.42406 
L 361.637183 169.533416 
L 362.144963 169.374013 
L 364.176085 169.356032 
L 364.683866 169.409944 
L 365.699427 169.284441 
L 367.222768 169.280476 
L 367.730549 169.186195 
L 368.238329 169.356905 
L 370.269451 169.266887 
L 370.777232 169.419301 
L 371.285012 169.413064 
L 372.300573 169.222772 
L 372.808354 169.321579 
L 375.855037 169.262512 
L 376.870598 169.169147 
L 377.378378 169.07503 
L 378.393939 169.198892 
L 380.425061 169.092552 
L 380.932842 169.204135 
L 381.440622 169.091939 
L 386.518428 169.245025 
L 387.026208 169.067975 
L 388.54955 169.280265 
L 389.565111 169.070675 
L 390.580672 169.100463 
L 391.596233 169.175502 
L 392.104013 168.909476 
L 392.611794 169.049608 
L 394.135135 169.004556 
L 395.150696 169.098213 
L 396.166257 168.978186 
L 396.674038 169.084107 
L 398.70516 168.944453 
L 399.720721 169.018728 
L 400.228501 169.060898 
L 400.736282 168.901843 
L 401.244062 169.048397 
L 403.275184 168.977796 
L 408.86077 168.942947 
L 409.36855 168.874831 
L 409.876331 168.963187 
L 412.923014 168.795029 
L 414.446355 169.07611 
L 414.954136 168.840114 
L 415.461916 168.785584 
L 416.477477 169.019695 
L 420.539722 168.83491 
L 425.109746 168.916464 
L 425.617527 168.779677 
L 426.125307 168.760399 
L 426.633088 168.930533 
L 427.140868 168.773561 
L 428.66421 168.605148 
L 429.17199 168.816263 
L 431.203112 168.826661 
L 431.710893 168.755518 
L 432.726454 168.813406 
L 433.234234 168.694673 
L 436.280917 168.904131 
L 436.788698 168.743046 
L 437.804259 168.748057 
L 438.312039 168.887472 
L 439.3276 168.729933 
L 439.835381 168.651919 
L 440.343161 168.816998 
L 440.850942 168.742759 
L 441.866503 168.784803 
L 442.374283 168.704323 
L 442.882064 168.829729 
L 443.389844 168.656767 
L 443.897625 168.819693 
L 444.405405 168.627553 
L 445.420966 168.75079 
L 447.452088 168.659215 
L 447.959869 168.801152 
L 448.467649 168.691067 
L 449.48321 168.709585 
L 449.990991 168.75146 
L 450.498771 168.679979 
L 451.006552 168.748943 
L 452.022113 168.673557 
L 453.037674 168.849896 
L 453.545455 168.789597 
L 454.053235 168.614321 
L 454.561016 168.819075 
L 455.068796 168.680288 
L 456.084357 168.709181 
L 457.607699 168.718248 
L 458.115479 168.693769 
L 458.62326 168.799533 
L 460.146601 168.799767 
L 461.162162 168.715968 
L 461.669943 168.655403 
L 462.685504 168.700642 
L 463.193284 168.634974 
L 463.701065 168.706975 
L 464.208845 168.643782 
L 464.716626 168.739747 
L 466.239967 168.623421 
L 466.747748 168.735887 
L 467.763309 168.71259 
L 468.271089 168.834116 
L 469.28665 168.711764 
L 469.794431 168.780464 
L 470.809992 168.675814 
L 471.825553 168.727416 
L 474.364455 168.739363 
L 474.872236 168.756435 
L 475.380016 168.583098 
L 475.887797 168.773156 
L 477.411138 168.792352 
L 477.918919 168.806947 
L 478.93448 168.706073 
L 479.44226 168.636852 
L 479.950041 168.752331 
L 486.551188 168.757241 
L 487.058968 168.87516 
L 487.566749 168.718841 
L 488.074529 168.704523 
L 488.58231 168.814154 
L 489.597871 168.73164 
L 490.105651 168.857681 
L 490.613432 168.597497 
L 491.121212 168.803332 
L 492.136773 168.775315 
L 492.644554 168.845809 
L 493.660115 168.738909 
L 496.199017 168.897445 
L 496.706798 168.755253 
L 497.722359 168.877478 
L 499.2457 168.71467 
L 499.753481 168.774925 
L 500.261261 168.680818 
L 503.307944 168.894079 
L 504.831286 168.78063 
L 506.862408 168.916809 
L 507.370188 168.79897 
L 508.385749 168.850007 
L 508.89353 168.751523 
L 509.909091 168.837271 
L 510.416871 168.748141 
L 510.924652 168.894784 
L 511.940213 168.79219 
L 512.955774 168.872405 
L 513.463554 168.80715 
L 514.479115 168.945252 
L 514.986896 168.771888 
L 518.033579 168.868235 
L 518.54136 168.766792 
L 519.04914 168.895788 
L 523.111384 168.89971 
L 523.619165 168.741251 
L 524.126945 168.891422 
L 525.142506 168.772853 
L 526.665848 168.892391 
L 527.173628 168.745256 
L 527.681409 168.919317 
L 528.189189 168.913249 
L 528.69697 168.780166 
L 530.220311 168.932679 
L 531.743653 168.786497 
L 532.251433 168.907955 
L 542.407043 168.779958 
L 542.914824 168.887099 
L 543.930385 168.764282 
L 544.945946 168.855147 
L 545.961507 168.766802 
L 550.531532 168.801616 
L 552.562654 168.715173 
L 553.070434 168.893454 
L 554.085995 168.774863 
L 556.624898 168.861228 
L 557.132678 168.713509 
L 558.65602 168.888357 
L 559.1638 168.725415 
L 560.179361 168.685567 
L 560.687142 168.661021 
L 561.194922 168.836629 
L 562.210483 168.784639 
L 566.780508 168.811517 
L 568.303849 168.694545 
L 569.31941 168.743789 
L 571.858313 168.831255 
L 572.366093 168.690631 
L 574.397215 168.850586 
L 574.904996 168.717152 
L 576.936118 168.697721 
L 577.443898 168.816735 
L 577.951679 168.651405 
L 578.459459 168.816009 
L 578.96724 168.693953 
L 579.982801 168.763542 
L 580.998362 168.654026 
L 582.521704 168.841059 
L 583.537265 168.725867 
L 585.060606 168.753779 
L 586.583948 168.683326 
L 587.091728 168.796364 
L 592.169533 168.692659 
L 592.677314 168.813911 
L 594.708436 168.741809 
L 596.231777 168.774599 
L 598.262899 168.779705 
L 600.294021 168.825496 
L 601.309582 168.689412 
L 602.325143 168.761284 
L 604.356265 168.659913 
L 605.371826 168.778517 
L 606.387387 168.708609 
L 607.402948 168.786196 
L 607.910729 168.703357 
L 608.418509 168.801697 
L 610.449631 168.704614 
L 610.957412 168.768365 
L 611.972973 168.745163 
L 612.480753 168.795945 
L 612.988534 168.707332 
L 613.496314 168.858819 
L 616.035217 168.731915 
L 616.542998 168.85752 
L 618.57412 168.660928 
L 619.0819 168.700683 
L 619.589681 168.620986 
L 620.605242 168.919617 
L 621.113022 168.644848 
L 621.620803 168.771306 
L 622.128583 168.67279 
L 622.636364 168.817498 
L 622.636364 168.817498 
" clip-path="url(#p428f30b094)" style="fill: none; stroke: #ff7f0e; stroke-width: 2; stroke-linecap: square"/>
   </g>
   <g id="patch_3">
    <path d="M 90 320.4 
L 90 43.2 
" style="fill: none; stroke: #000000; stroke-width: 0.8; stroke-linejoin: miter; stroke-linecap: square"/>
   </g>
   <g id="patch_4">
    <path d="M 648 320.4 
L 648 43.2 
" style="fill: none; stroke: #000000; stroke-width: 0.8; stroke-linejoin: miter; stroke-linecap: square"/>
   </g>
   <g id="patch_5">
    <path d="M 90 320.4 
L 648 320.4 
" style="fill: none; stroke: #000000; stroke-width: 0.8; stroke-linejoin: miter; stroke-linecap: square"/>
   </g>
   <g id="patch_6">
    <path d="M 90 43.2 
L 648 43.2 
" style="fill: none; stroke: #000000; stroke-width: 0.8; stroke-linejoin: miter; stroke-linecap: square"/>
   </g>
   <g id="text_13">
    <!-- Convergence - DP3_Robust_DiffusersEMA -->
    <g transform="translate(244.948125 37.2) scale(0.12 -0.12)">
     <defs>
      <path id="DejaVuSans-43" d="M 4122 4306 
L 4122 3641 
Q 3803 3938 3442 4084 
Q 3081 4231 2675 4231 
Q 1875 4231 1450 3742 
Q 1025 3253 1025 2328 
Q 1025 1406 1450 917 
Q 1875 428 2675 428 
Q 3081 428 3442 575 
Q 3803 722 4122 1019 
L 4122 359 
Q 3791 134 3420 21 
Q 3050 -91 2638 -91 
Q 1578 -91 968 557 
Q 359 1206 359 2328 
Q 359 3453 968 4101 
Q 1578 4750 2638 4750 
Q 3056 4750 3426 4639 
Q 3797 4528 4122 4306 
z
" transform="scale(0.015625)"/>
      <path id="DejaVuSans-6e" d="M 3513 2113 
L 3513 0 
L 2938 0 
L 2938 2094 
Q 2938 2591 2744 2837 
Q 2550 3084 2163 3084 
Q 1697 3084 1428 2787 
Q 1159 2491 1159 1978 
L 1159 0 
L 581 0 
L 581 3500 
L 1159 3500 
L 1159 2956 
Q 1366 3272 1645 3428 
Q 1925 3584 2291 3584 
Q 2894 3584 3203 3211 
Q 3513 2838 3513 2113 
z
" transform="scale(0.015625)"/>
      <path id="DejaVuSans-76" d="M 191 3500 
L 800 3500 
L 1894 563 
L 2988 3500 
L 3597 3500 
L 2284 0 
L 1503 0 
L 191 3500 
z
" transform="scale(0.015625)"/>
      <path id="DejaVuSans-72" d="M 2631 2963 
Q 2534 3019 2420 3045 
Q 2306 3072 2169 3072 
Q 1681 3072 1420 2755 
Q 1159 2438 1159 1844 
L 1159 0 
L 581 0 
L 581 3500 
L 1159 3500 
L 1159 2956 
Q 1341 3275 1631 3429 
Q 1922 3584 2338 3584 
Q 2397 3584 2469 3576 
Q 2541 3569 2628 3553 
L 2631 2963 
z
" transform="scale(0.015625)"/>
      <path id="DejaVuSans-2d" d="M 313 2009 
L 1997 2009 
L 1997 1497 
L 313 1497 
L 313 2009 
z
" transform="scale(0.015625)"/>
      <path id="DejaVuSans-44" d="M 1259 4147 
L 1259 519 
L 2022 519 
Q 2988 519 3436 956 
Q 3884 1394 3884 2338 
Q 3884 3275 3436 3711 
Q 2988 4147 2022 4147 
L 1259 4147 
z
M 628 4666 
L 1925 4666 
Q 3281 4666 3915 4102 
Q 4550 3538 4550 2338 
Q 4550 1131 3912 565 
Q 3275 0 1925 0 
L 628 0 
L 628 4666 
z
" transform="scale(0.015625)"/>
      <path id="DejaVuSans-50" d="M 1259 4147 
L 1259 2394 
L 2053 2394 
Q 2494 2394 2734 2622 
Q 2975 2850 2975 3272 
Q 2975 3691 2734 3919 
Q 2494 4147 2053 4147 
L 1259 4147 
z
M 628 4666 
L 2053 4666 
Q 2838 4666 3239 4311 
Q 3641 3956 3641 3272 
Q 3641 2581 3239 2228 
Q 2838 1875 2053 1875 
L 1259 1875 
L 1259 0 
L 628 0 
L 628 4666 
z
" transform="scale(0.015625)"/>
      <path id="DejaVuSans-5f" d="M 3263 -1063 
L 3263 -1509 
L -63 -1509 
L -63 -1063 
L 3263 -1063 
z
" transform="scale(0.015625)"/>
      <path id="DejaVuSans-52" d="M 2841 2188 
Q 3044 2119 3236 1894 
Q 3428 1669 3622 1275 
L 4263 0 
L 3584 0 
L 2988 1197 
Q 2756 1666 2539 1819 
Q 2322 1972 1947 1972 
L 1259 1972 
L 1259 0 
L 628 0 
L 628 4666 
L 2053 4666 
Q 2853 4666 3247 4331 
Q 3641 3997 3641 3322 
Q 3641 2881 3436 2590 
Q 3231 2300 2841 2188 
z
M 1259 4147 
L 1259 2491 
L 2053 2491 
Q 2509 2491 2742 2702 
Q 2975 2913 2975 3322 
Q 2975 3731 2742 3939 
Q 2509 4147 2053 4147 
L 1259 4147 
z
" transform="scale(0.015625)"/>
      <path id="DejaVuSans-62" d="M 3116 1747 
Q 3116 2381 2855 2742 
Q 2594 3103 2138 3103 
Q 1681 3103 1420 2742 
Q 1159 2381 1159 1747 
Q 1159 1113 1420 752 
Q 1681 391 2138 391 
Q 2594 391 2855 752 
Q 3116 1113 3116 1747 
z
M 1159 2969 
Q 1341 3281 1617 3432 
Q 1894 3584 2278 3584 
Q 2916 3584 3314 3078 
Q 3713 2572 3713 1747 
Q 3713 922 3314 415 
Q 2916 -91 2278 -91 
Q 1894 -91 1617 61 
Q 1341 213 1159 525 
L 1159 0 
L 581 0 
L 581 4863 
L 1159 4863 
L 1159 2969 
z
" transform="scale(0.015625)"/>
      <path id="DejaVuSans-74" d="M 1172 4494 
L 1172 3500 
L 2356 3500 
L 2356 3053 
L 1172 3053 
L 1172 1153 
Q 1172 725 1289 603 
Q 1406 481 1766 481 
L 2356 481 
L 2356 0 
L 1766 0 
Q 1100 0 847 248 
Q 594 497 594 1153 
L 594 3053 
L 172 3053 
L 172 3500 
L 594 3500 
L 594 4494 
L 1172 4494 
z
" transform="scale(0.015625)"/>
      <path id="DejaVuSans-69" d="M 603 3500 
L 1178 3500 
L 1178 0 
L 603 0 
L 603 3500 
z
M 603 4863 
L 1178 4863 
L 1178 4134 
L 603 4134 
L 603 4863 
z
" transform="scale(0.015625)"/>
      <path id="DejaVuSans-66" d="M 2375 4863 
L 2375 4384 
L 1825 4384 
Q 1516 4384 1395 4259 
Q 1275 4134 1275 3809 
L 1275 3500 
L 2222 3500 
L 2222 3053 
L 1275 3053 
L 1275 0 
L 697 0 
L 697 3053 
L 147 3053 
L 147 3500 
L 697 3500 
L 697 3744 
Q 697 4328 969 4595 
Q 1241 4863 1831 4863 
L 2375 4863 
z
" transform="scale(0.015625)"/>
      <path id="DejaVuSans-41" d="M 2188 4044 
L 1331 1722 
L 3047 1722 
L 2188 4044 
z
M 1831 4666 
L 2547 4666 
L 4325 0 
L 3669 0 
L 3244 1197 
L 1141 1197 
L 716 0 
L 50 0 
L 1831 4666 
z
" transform="scale(0.015625)"/>
     </defs>
     <use xlink:href="#DejaVuSans-43"/>
     <use xlink:href="#DejaVuSans-6f" transform="translate(69.824219 0)"/>
     <use xlink:href="#DejaVuSans-6e" transform="translate(131.005859 0)"/>
     <use xlink:href="#DejaVuSans-76" transform="translate(194.384766 0)"/>
     <use xlink:href="#DejaVuSans-65" transform="translate(253.564453 0)"/>
     <use xlink:href="#DejaVuSans-72" transform="translate(315.087891 0)"/>
     <use xlink:href="#DejaVuSans-67" transform="translate(354.451172 0)"/>
     <use xlink:href="#DejaVuSans-65" transform="translate(417.927734 0)"/>
     <use xlink:href="#DejaVuSans-6e" transform="translate(479.451172 0)"/>
     <use xlink:href="#DejaVuSans-63" transform="translate(542.830078 0)"/>
     <use xlink:href="#DejaVuSans-65" transform="translate(597.810547 0)"/>
     <use xlink:href="#DejaVuSans-20" transform="translate(659.333984 0)"/>
     <use xlink:href="#DejaVuSans-2d" transform="translate(691.121094 0)"/>
     <use xlink:href="#DejaVuSans-20" transform="translate(727.205078 0)"/>
     <use xlink:href="#DejaVuSans-44" transform="translate(758.992188 0)"/>
     <use xlink:href="#DejaVuSans-50" transform="translate(835.994141 0)"/>
     <use xlink:href="#DejaVuSans-33" transform="translate(896.296875 0)"/>
     <use xlink:href="#DejaVuSans-5f" transform="translate(959.919922 0)"/>
     <use xlink:href="#DejaVuSans-52" transform="translate(1009.919922 0)"/>
     <use xlink:href="#DejaVuSans-6f" transform="translate(1074.902344 0)"/>
     <use xlink:href="#DejaVuSans-62" transform="translate(1136.083984 0)"/>
     <use xlink:href="#DejaVuSans-75" transform="translate(1199.560547 0)"/>
     <use xlink:href="#DejaVuSans-73" transform="translate(1262.939453 0)"/>
     <use xlink:href="#DejaVuSans-74" transform="translate(1315.039062 0)"/>
     <use xlink:href="#DejaVuSans-5f" transform="translate(1354.248047 0)"/>
     <use xlink:href="#DejaVuSans-44" transform="translate(1404.248047 0)"/>
     <use xlink:href="#DejaVuSans-69" transform="translate(1481.25 0)"/>
     <use xlink:href="#DejaVuSans-66" transform="translate(1509.033203 0)"/>
     <use xlink:href="#DejaVuSans-66" transform="translate(1544.238281 0)"/>
     <use xlink:href="#DejaVuSans-75" transform="translate(1579.443359 0)"/>
     <use xlink:href="#DejaVuSans-73" transform="translate(1642.822266 0)"/>
     <use xlink:href="#DejaVuSans-65" transform="translate(1694.921875 0)"/>
     <use xlink:href="#DejaVuSans-72" transform="translate(1756.445312 0)"/>
     <use xlink:href="#DejaVuSans-73" transform="translate(1797.558594 0)"/>
     <use xlink:href="#DejaVuSans-45" transform="translate(1849.658203 0)"/>
     <use xlink:href="#DejaVuSans-4d" transform="translate(1912.841797 0)"/>
     <use xlink:href="#DejaVuSans-41" transform="translate(1999.121094 0)"/>
    </g>
   </g>
   <g id="legend_1">
    <g id="patch_7">
     <path d="M 534.50625 80.55625 
L 641 80.55625 
Q 643 80.55625 643 78.55625 
L 643 50.2 
Q 643 48.2 641 48.2 
L 534.50625 48.2 
Q 532.50625 48.2 532.50625 50.2 
L 532.50625 78.55625 
Q 532.50625 80.55625 534.50625 80.55625 
z
" style="fill: #ffffff; opacity: 0.8; stroke: #cccccc; stroke-linejoin: miter"/>
    </g>
    <g id="line2d_83">
     <path d="M 536.50625 56.298437 
L 546.50625 56.298437 
L 556.50625 56.298437 
" style="fill: none; stroke: #1f77b4; stroke-width: 2; stroke-linecap: square"/>
    </g>
    <g id="text_14">
     <!-- Train Loss -->
     <g transform="translate(564.50625 59.798437) scale(0.1 -0.1)">
      <defs>
       <path id="DejaVuSans-54" d="M -19 4666 
L 3928 4666 
L 3928 4134 
L 2272 4134 
L 2272 0 
L 1638 0 
L 1638 4134 
L -19 4134 
L -19 4666 
z
" transform="scale(0.015625)"/>
      </defs>
      <use xlink:href="#DejaVuSans-54"/>
      <use xlink:href="#DejaVuSans-72" transform="translate(46.333984 0)"/>
      <use xlink:href="#DejaVuSans-61" transform="translate(87.447266 0)"/>
      <use xlink:href="#DejaVuSans-69" transform="translate(148.726562 0)"/>
      <use xlink:href="#DejaVuSans-6e" transform="translate(176.509766 0)"/>
      <use xlink:href="#DejaVuSans-20" transform="translate(239.888672 0)"/>
      <use xlink:href="#DejaVuSans-4c" transform="translate(271.675781 0)"/>
      <use xlink:href="#DejaVuSans-6f" transform="translate(325.638672 0)"/>
      <use xlink:href="#DejaVuSans-73" transform="translate(386.820312 0)"/>
      <use xlink:href="#DejaVuSans-73" transform="translate(438.919922 0)"/>
     </g>
    </g>
    <g id="line2d_84">
     <path d="M 536.50625 70.976562 
L 546.50625 70.976562 
L 556.50625 70.976562 
" style="fill: none; stroke: #ff7f0e; stroke-width: 2; stroke-linecap: square"/>
    </g>
    <g id="text_15">
     <!-- Validation Loss -->
     <g transform="translate(564.50625 74.476562) scale(0.1 -0.1)">
      <defs>
       <path id="DejaVuSans-56" d="M 1831 0 
L 50 4666 
L 709 4666 
L 2188 738 
L 3669 4666 
L 4325 4666 
L 2547 0 
L 1831 0 
z
" transform="scale(0.015625)"/>
       <path id="DejaVuSans-64" d="M 2906 2969 
L 2906 4863 
L 3481 4863 
L 3481 0 
L 2906 0 
L 2906 525 
Q 2725 213 2448 61 
Q 2172 -91 1784 -91 
Q 1150 -91 751 415 
Q 353 922 353 1747 
Q 353 2572 751 3078 
Q 1150 3584 1784 3584 
Q 2172 3584 2448 3432 
Q 2725 3281 2906 2969 
z
M 947 1747 
Q 947 1113 1208 752 
Q 1469 391 1925 391 
Q 2381 391 2643 752 
Q 2906 1113 2906 1747 
Q 2906 2381 2643 2742 
Q 2381 3103 1925 3103 
Q 1469 3103 1208 2742 
Q 947 2381 947 1747 
z
" transform="scale(0.015625)"/>
      </defs>
      <use xlink:href="#DejaVuSans-56"/>
      <use xlink:href="#DejaVuSans-61" transform="translate(60.658203 0)"/>
      <use xlink:href="#DejaVuSans-6c" transform="translate(121.9375 0)"/>
      <use xlink:href="#DejaVuSans-69" transform="translate(149.720703 0)"/>
      <use xlink:href="#DejaVuSans-64" transform="translate(177.503906 0)"/>
      <use xlink:href="#DejaVuSans-61" transform="translate(240.980469 0)"/>
      <use xlink:href="#DejaVuSans-74" transform="translate(302.259766 0)"/>
      <use xlink:href="#DejaVuSans-69" transform="translate(341.46875 0)"/>
      <use xlink:href="#DejaVuSans-6f" transform="translate(369.251953 0)"/>
      <use xlink:href="#DejaVuSans-6e" transform="translate(430.433594 0)"/>
      <use xlink:href="#DejaVuSans-20" transform="translate(493.8125 0)"/>
      <use xlink:href="#DejaVuSans-4c" transform="translate(525.599609 0)"/>
      <use xlink:href="#DejaVuSans-6f" transform="translate(579.5625 0)"/>
      <use xlink:href="#DejaVuSans-73" transform="translate(640.744141 0)"/>
      <use xlink:href="#DejaVuSans-73" transform="translate(692.84375 0)"/>
     </g>
    </g>
   </g>
  </g>
 </g>
 <defs>
  <clipPath id="p428f30b094">
   <rect x="90" y="43.2" width="558" height="277.2"/>
  </clipPath>
 </defs>
</svg>
